<?xml version="1.0" encoding="utf-8"?>
<!-- Generator: Adobe Illustrator 19.1.0, SVG Export Plug-In . SVG Version: 6.00 Build 0)  -->
<svg version="1.1" id="Layer_1" xmlns="http://www.w3.org/2000/svg" xmlns:xlink="http://www.w3.org/1999/xlink" x="0px" y="0px"
	 width="189.1px" height="71px" viewBox="-386 245.2 189.1 71" style="enable-background:new -386 245.2 189.1 71;"
	 xml:space="preserve">
<style type="text/css">
	.st0{fill:#0000FF;}
</style>
<g>
	<path class="st0" d="M-376.5,261.7c0.1,0,0.1,0,0.1,0c0-0.1,0.2-0.2,0.2-0.3c0.1-0.2,0.2-0.4-0.2-0.7c-0.2-0.3-0.5-0.3-0.6-0.2
		c-0.1,0-0.3,0.3-0.3,0.4c-0.1,0.1,0,0.1,0,0.2C-377.3,261.1-376.8,261.5-376.5,261.7z"/>
	<path class="st0" d="M-337.1,309.5c0-0.1,0-0.1-0.1,0c-0.1,0-0.6,0.3-0.6,0.3s-0.1,0.1,0,0.2c0,0,0.5,0.7,0.5,0.8
		c0,0.1,0.1,0,0.2,0s0.2-0.2,0.3-0.2c0.1,0,0.1-0.1,0.1-0.1C-336.9,310.3-337.1,309.6-337.1,309.5z"/>
	<path class="st0" d="M-381,269.9c0.1,0,0.1,0,0.1,0c0-0.1,0.3-0.6,0.1-0.8c-0.1-0.2-0.5-0.5-0.9-0.2c-0.1,0.1-0.2,0.5-0.3,0.6
		c0,0.1,0,0.1,0,0.1C-381.8,269.7-381.5,269.8-381,269.9z"/>
	<path class="st0" d="M-378.7,266c0.6,0.2,1.1,0.3,1.4-0.4c0.2-0.5-0.1-0.8-0.3-0.9c-0.1-0.1-0.4-0.1-0.6,0
		c-0.1,0.1-0.6,1.1-0.7,1.2C-378.8,266-378.7,266-378.7,266z"/>
	<path class="st0" d="M-382.8,287.4c0,0.1,0.1,0.1,0.1,0.1c0.1,0,0.8,0,0.9,0c0.1,0,0.1,0,0.1-0.1s-0.1-0.6-0.1-0.7
		c-0.1-0.2-0.1-0.2-0.2-0.2s-0.8,0.3-0.9,0.3s-0.1,0.1,0,0.1C-382.9,287.1-382.8,287.3-382.8,287.4z"/>
	<path class="st0" d="M-379.2,265.8c0.1,0,0.1,0,0.1,0c0.1-0.1,0.9-1.4,0.4-1.7c-0.2-0.1-0.8-0.1-1.1,0.5
		C-379.9,265-379.4,265.6-379.2,265.8z"/>
	<path class="st0" d="M-359.3,310.3c-0.1,0-0.3-0.1-0.4,0c-0.2,0.1-0.5,0.3-0.7,1.1c-0.2,0.8-0.1,1.1,0,1.2s0.4,0.2,0.5,0.2
		s0.1,0,0.1-0.1c0-0.1,0.2-0.5,0.4-1.1c0.1-0.5,0.2-1.1,0.2-1.1C-359.2,310.3-359.2,310.3-359.3,310.3z"/>
	<path class="st0" d="M-364.2,308.4c-0.5-0.2-0.8,0.2-0.9,0.3c-0.1,0.2-0.1,0.4,0,0.6c0.1,0.1,1.1,0.5,1.2,0.6c0.1,0,0.1,0,0.1-0.1
		C-363.5,309.3-363.5,308.7-364.2,308.4z"/>
	<path class="st0" d="M-365.7,309.9c-0.1,0.2-0.1,0.8,0.5,1c0.5,0.2,1.1-0.3,1.2-0.6c0-0.1,0-0.1,0-0.1
		C-364.1,310.1-365.4,309.4-365.7,309.9z"/>
	<path class="st0" d="M-369.5,255.5c0.4,0.4,0.9,0.8,1.5,0.3c0.4-0.4,0.3-0.8,0.2-1c-0.2-0.2-0.4-0.3-0.6-0.3c-0.1,0-1,0.7-1.1,0.8
		C-369.5,255.4-369.5,255.4-369.5,255.5z"/>
	<path class="st0" d="M-382.8,277.7c0.1,0,0.1,0,0.1-0.1s0.3-1.5-0.2-1.5c-0.2,0-0.7,0.1-0.8,0.7
		C-383.6,277.3-383,277.7-382.8,277.7z"/>
	<path class="st0" d="M-318.9,281.1c-1,0-1.3,0.4-1.3,0.5s0.4,0.5,1.3,0.5s1.4-0.4,1.4-0.5S-317.9,281.1-318.9,281.1z"/>
	<path class="st0" d="M-380.5,270.1c0,0,0.6,0.2,0.9,0.2c0.1,0,0.1,0,0.1-0.1c0-0.1,0.2-0.4,0.1-0.8c0-0.2-0.6-0.6-0.9-0.2
		c-0.1,0.1-0.3,0.7-0.3,0.8S-380.6,270.1-380.5,270.1z"/>
	<path class="st0" d="M-382.1,277.8c0.6,0,1-0.1,1.1-0.8c0-0.5-0.4-0.7-0.5-0.7s-0.4,0.1-0.5,0.2
		C-382.2,276.6-382.3,277.6-382.1,277.8C-382.2,277.8-382.2,277.8-382.1,277.8z"/>
	<path class="st0" d="M-350.8,245.5c-19.4,0-35.2,15.8-35.2,35.2c0,19.5,15.8,35.2,35.2,35.2c19.5,0,35.2-15.8,35.2-35.2
		C-315.5,261.3-331.3,245.5-350.8,245.5z M-319,271.9c0.2-0.1,0.5,0.1,0.6,0.4c0.1,0.3-0.1,0.6-0.3,0.6c-0.3,0.1-0.5-0.1-0.6-0.4
		C-319.4,272.2-319.2,272-319,271.9z M-321.2,265.3c0-0.1,0.1-0.1,0.1,0c0,0.1,0.2,0.3,0.3,0.7c0.2,0.4,0.3,0.7,0.3,0.8
		c0,0.1,0,0.1-0.1,0.1c0,0.1-0.7,0.8-0.8,0.9c-0.1,0.1,0,0.1,0,0.1c0.1,0,1.1,0.1,1.2,0.1c0.1,0,0.1,0,0.2,0.1
		c0,0.1,0.2,0.5,0.3,0.6c0.1,0.2,0.3,0.7,0.3,0.7c0,0.1,0,0.1-0.1,0.1c-0.1,0-0.2-0.2-1.4,0.3c-1.2,0.6-1.2,0.7-1.2,0.9
		c0,0.1-0.1,0.1-0.1,0.1c-0.1-0.1-0.2-0.4-0.4-0.8c-0.2-0.4-0.3-0.7-0.3-0.8c0-0.1,0.1-0.1,0.1,0c0.2,0.1,0.8,0,1.4-0.3
		c0.6-0.3,0.9-0.4,0.9-0.4c0.1,0,0.1-0.1,0-0.1c-0.1,0-1.6-0.2-1.8-0.2c-0.1,0-0.1-0.1-0.1-0.2c0.1-0.1,1-1.3,1.1-1.4s0-0.1-0.1-0.1
		s-0.4,0.2-0.9,0.4c-0.8,0.3-1.2,0.6-1.1,0.9c0,0.1-0.1,0.2-0.1,0.1c-0.1-0.1-0.2-0.5-0.4-0.8c-0.1-0.3-0.2-0.6-0.3-0.7
		c0-0.1,0-0.1,0.1-0.1c0.1,0,0.2,0.3,1.4-0.2C-321.6,265.7-321.2,265.5-321.2,265.3z M-320.7,273.6c-0.3,0.1-0.6-0.1-0.6-0.4
		c-0.1-0.3,0.1-0.6,0.3-0.6c0.3-0.1,0.6,0,0.7,0.3C-320.3,273.3-320.4,273.6-320.7,273.6z M-324,260.7
		C-324.1,260.6-324,260.6-324,260.7c0.2,0,0.3,0.2,0.6,0.6c0.3,0.4,0.4,0.7,0.5,0.8c0,0.1,0,0.1-0.1,0.1s-0.3-0.1-0.6,0.2
		c-0.3,0.3-0.8,1.1-1,1.4c-0.1,0.1,0,0.1,0.1,0.1s1.1-0.1,1.7-0.4c0.3-0.1,0.4-0.4,0.4-0.4c0-0.1,0-0.1,0.1,0
		c0.1,0.1,0.3,0.3,0.5,0.6c0.2,0.3,0.4,0.7,0.4,0.7c0,0.1,0,0.2-0.1,0.1s-0.6-0.3-2.1-0.2c-1.5,0.1-1.7,0-1.8,0s-0.1-0.1-0.1-0.1
		c0-0.1,1.1-2.1,1.3-2.4C-324.2,261.3-324,260.8-324,260.7z M-327.7,259c0.8-0.8,1.1-1,1-1.2c0-0.1,0-0.1,0.1-0.1
		c0.1,0.1,0.3,0.3,0.5,0.6c0.3,0.3,0.4,0.5,0.5,0.6s0,0.1-0.1,0.1c-0.3,0-0.8,0.2-1.4,0.7c-0.6,0.6-0.7,0.6-0.7,0.6s-0.1,0.1,0,0.1
		c0,0.1,0.3,0.3,0.4,0.5c0.2,0.2,0.5,0.2,0.7,0.1c0.2-0.2,0.3-0.3,0.2-0.4c0-0.1,0-0.1,0.1-0.1s0.3,0.1,0.4,0.2c0.2,0.2,0.4,0.7,0,1
		c-0.4,0.3-0.9,0.3-1.4-0.2s-0.9-1-1.1-1.2c-0.2-0.2-0.3-0.4-0.4-0.5c-0.1-0.1-0.1-0.2,0-0.1C-328.7,259.8-328.6,259.8-327.7,259z
		 M-331.2,255.9c0.7-0.9,0.9-1.2,0.8-1.4c0-0.1,0-0.1,0.1-0.1c0.1,0.1,0.3,0.3,0.6,0.6c0.3,0.3,0.5,0.4,0.6,0.5s0.1,0.1,0,0.1
		c-0.3,0-0.8,0.3-1.3,0.9c-0.6,0.7-0.6,0.7-0.6,0.7v0.1c0.1,0,0.3,0.3,0.5,0.4c0.2,0.2,0.5,0.1,0.7,0c0.2-0.2,0.2-0.4,0.2-0.4
		c-0.1-0.1,0-0.1,0-0.1c0.1,0,0.3,0,0.4,0.2c0.2,0.2,0.5,0.6,0.1,1s-0.9,0.4-1.4,0c-0.5-0.5-1-0.9-1.2-1.1c-0.2-0.2-0.4-0.3-0.5-0.4
		c-0.1-0.1-0.1-0.2,0-0.1C-332.1,256.8-331.9,256.8-331.2,255.9z M-333.9,253.7c0.7-1,0.5-1.2,0.4-1.3c-0.1-0.1,0-0.1,0.1-0.1
		s0.4,0.2,0.8,0.5c0.4,0.2,0.7,0.5,0.7,0.5c0.1,0.1,0,0.1,0,0.1c-0.1,0-0.5,0-1.1,0.9c-0.8,1.1-0.6,1.3-0.5,1.4
		c0.1,0.1,0.1,0.2-0.1,0.1c-0.1-0.1-0.4-0.2-0.7-0.5c-0.3-0.2-0.7-0.5-0.8-0.6c-0.1-0.1-0.1-0.1,0.1-0.1
		C-334.9,254.7-334.6,254.8-333.9,253.7z M-338.6,251.1c0.5-0.9,1.6-1,2.3-0.7c0.5,0.3,0.5,0.5,0.8,0.7c0.3,0.2,0.5,0.1,0.7,0
		c0.1,0,0.2,0,0.1,0.1c-0.1,0.1-0.4,0.5-0.5,0.5c-0.1,0.1-0.1,0.1-0.2,0c-0.1-0.1-0.3-0.6-0.8-0.9c-0.3-0.2-0.8,0.1-1.2,0.8
		c-0.6,0.9-0.6,1.4-0.2,1.6s0.9,0.2,1.1-0.1c0.1-0.2,0-0.4-0.2-0.4c-0.1-0.1-0.4,0-0.4,0c-0.1,0.1-0.1,0.1-0.1,0
		c0-0.1-0.1-0.2,0.1-0.5c0.2-0.3,0.6-0.4,0.9-0.2c0.4,0.2,0.7,0.7,0.4,1.2c-0.3,0.5-0.9,1-2,0.5C-339,252.9-339.1,252-338.6,251.1z
		 M-342.1,251.5c0.1,0,0.4,0,0.9-1.2c0.4-1.1,0.2-1.3,0-1.4c-0.1-0.1-0.1-0.1,0-0.1c0.1,0,0.4,0.1,0.9,0.2c0.4,0.1,0.8,0.3,0.8,0.3
		c0.1,0.1,0.1,0.1,0,0.1s-0.5,0.1-0.8,1.1c-0.4,1.3-0.2,1.4-0.1,1.5s0.1,0.2-0.1,0.1c-0.2,0-0.5-0.1-0.8-0.3
		C-341.7,251.7-342.1,251.5-342.1,251.5C-342.3,251.6-342.3,251.5-342.1,251.5z M-346.8,250.8c0-0.1,0.2-0.9,0.1-1.3
		c0-0.2,0.1-0.2,0.2,0s0.5,1.1,1.5,1.3c0.6,0.1,0.8-0.1,0.8-0.3c0.1-0.3-0.6-0.6-1-0.7c-0.9-0.2-1.2-0.8-1.1-1.4
		c0.2-0.7,1.2-0.7,1.7-0.6c0.5,0.1,0.9,0.4,1.2,0.4c0.4,0,0.6-0.1,0.7-0.2c0.1,0,0.1,0,0.1,0.1c-0.1,0.1-0.5,0.8-0.5,0.8
		c-0.1,0.1-0.1,0-0.2,0c-0.1,0-0.8-0.7-1.4-0.8c-0.5-0.1-0.7,0-0.7,0.2c-0.1,0.4,0.8,0.6,1.3,0.8c0.6,0.3,1,0.7,0.8,1.3
		c-0.1,0.6-0.8,1-1.8,0.7c-0.6-0.1-0.7-0.4-1.1-0.5c-0.2,0-0.4,0-0.5,0.1C-346.8,250.9-346.9,250.9-346.8,250.8z M-352.6,248.4
		c0-0.1,0.1-0.1,0.1,0c0,0.1,0.1,0.2,0.6,0.2c0.5,0.1,0.7,0,0.7,0s0-0.1,0-0.5c0-0.4-0.2-0.7-0.4-0.8c-0.2-0.1-0.1-0.1,0-0.1
		s0.3-0.1,0.8-0.1s0.6,0,0.8,0.1c0.1,0,0.1,0.1,0,0.1c-0.1,0.1-0.3,0.2-0.4,0.7s-0.1,0.6-0.1,0.6s0.2,0,0.6-0.1
		c0.5-0.1,0.7-0.1,0.7-0.3c0.2,0,0.2,0,0.2,0.1c0,0.1,0,0.2,0,0.6c0,0.4,0,0.5-0.1,0.7c0,0.1-0.1,0.1-0.1,0c0-0.1-0.4-0.3-0.7-0.4
		c-0.3,0-0.6-0.1-0.6-0.1s0,0.2,0.1,0.6c0.1,0.5,0.2,0.8,0.3,0.8s0.2,0.1,0,0.1c-0.1,0-0.3,0-0.7,0c-0.4,0-0.7,0-0.8-0.1
		c-0.1,0-0.1-0.1,0-0.1s0.3-0.3,0.4-0.8c0.1-0.5,0.1-0.6,0.1-0.6s-0.1,0-0.7,0.1c-0.5,0.2-0.6,0.2-0.7,0.3c-0.1,0.1-0.1,0.1-0.1,0
		c0-0.1,0-0.2,0-0.6C-352.6,248.6-352.6,248.5-352.6,248.4z M-357,247.9c0.1,0,0.4-0.1,0.9-0.2c0.4-0.1,0.8-0.1,0.9-0.1
		c0.1,0,0.1,0.1,0,0.1c-0.1,0-0.4,0.3-0.2,1.4c0.2,1.4,0.5,1.3,0.7,1.4c0.1,0,0.2,0.1,0,0.1c-0.2,0.1-0.5,0.1-0.8,0.2
		c-0.4,0.1-0.8,0.1-0.9,0.1s-0.2-0.1,0-0.1c0.1,0,0.4-0.2,0.2-1.5c-0.2-1.2-0.5-1.2-0.6-1.3C-357.1,248-357.1,247.9-357,247.9z
		 M-360.5,248.6c0.5-0.2,1-0.1,1.3-0.3c0.3-0.2,0.5-0.4,0.5-0.5c0-0.1,0.1-0.1,0.1,0c0,0.1,0,0.9,0,1c0,0.1-0.1,0.1-0.1,0.1
		s-1-0.1-1.6,0.1c-0.4,0.2-0.5,0.4-0.5,0.6c0.1,0.4,1,0,1.5,0c0.6-0.1,1.1,0.1,1.3,0.6s-0.2,1.3-1.2,1.6c-0.6,0.2-0.8,0-1.2,0.1
		c-0.2,0.1-0.3,0.3-0.3,0.3c0,0.1-0.1,0.2-0.1,0c0-0.1-0.3-0.9-0.6-1.2c-0.2-0.2,0-0.2,0.1-0.1c0.1,0.1,1,0.6,2,0.3
		c0.6-0.2,0.6-0.5,0.6-0.7c-0.2-0.1-0.9,0-1.3,0.1c-0.9,0.3-1.5,0-1.7-0.6C-361.9,249.3-361,248.8-360.5,248.6z M-367.1,251.7
		c0.1-0.1,0.2-0.2,0.6-0.3c0.4-0.2,0.5-0.3,0.6-0.3s0.2,0,0.2,0c0.1,0,0.8,0.6,1.1,0.9c0.4,0.4,0.9,0.6,1,0.7c0.1,0.1,0.2,0,0.1-0.1
		c-0.1-0.1-0.4-0.7-0.6-1c-0.5-0.9-0.8-1-0.9-1s-0.2,0-0.1-0.1s0.5-0.3,0.8-0.4c0.3-0.1,0.6-0.2,0.7-0.3c0.1,0,0.2,0,0.1,0.1
		c-0.1,0.1-0.2,0.4,0.3,1.4c0.3,0.7,0.7,1.2,0.8,1.2s0.2,0.1,0.1,0.2c-0.1,0.1-0.2,0.1-0.5,0.3c-0.3,0.1-0.6,0.3-0.6,0.3
		c-0.1,0.1-0.2,0.1-0.2,0c-0.1,0-0.6-0.4-1.1-0.8s-0.9-0.7-1-0.8c-0.1-0.1-0.2,0-0.1,0.1c0.1,0.1,0.4,0.7,0.6,1
		c0.5,0.8,0.7,0.9,0.9,0.9c0.2,0,0.1,0.1,0,0.1c-0.1,0.1-0.5,0.3-0.8,0.4c-0.3,0.2-0.6,0.3-0.7,0.3c-0.1,0-0.1,0-0.1-0.1
		c0-0.1,0.2-0.3-0.3-1.2c-0.5-1-0.7-1.3-0.9-1.3C-367.2,251.9-367.2,251.8-367.1,251.7z M-370.1,253.6c0.8-0.6,1-0.2,1.2-1.3
		c0-0.1,0.1-0.2,0.1,0c0,0.1,0.2,1.1,0.7,1.9c0.6,0.8,1,1.1,1.1,1.2c0.2,0,0.1,0.1,0,0.1c-0.7,0.1-0.3,0.3-1.2,1
		c-0.9,0.7-1.8,0.4-2.4-0.4C-371.1,255.2-370.9,254.1-370.1,253.6z M-350.8,252.1c15.8,0,28.6,12.8,28.6,28.6
		c0.1,15.8-12.8,28.7-28.6,28.7c-15.8,0-28.6-12.9-28.6-28.7C-379.4,264.9-366.6,252.1-350.8,252.1z M-374.1,256.7
		c0.4-0.4,0.6-0.3,0.9-0.5c0.2-0.2,0.2-0.5,0.2-0.6c0-0.1,0-0.2,0.1,0c0.1,0.1,0.3,0.5,0.4,0.6c0,0.1,0,0.1-0.1,0.1
		s-0.7,0.1-1.1,0.5c-0.2,0.2-0.2,0.8,0.4,1.4c0.7,0.7,1.2,0.8,1.5,0.5c0.3-0.3,0.5-0.8,0.2-1.1c-0.2-0.2-0.4-0.1-0.5,0
		s-0.2,0.3-0.1,0.4c0.1,0.1,0.1,0.1-0.1,0.1c-0.1,0-0.2,0-0.5-0.2c-0.2-0.2-0.2-0.7,0.1-1c0.3-0.3,0.8-0.4,1.3,0
		c0.4,0.4,0.7,1.2-0.2,2c-1,0.9-1.9,0.8-2.6,0C-374.9,258.3-374.7,257.3-374.1,256.7z M-378.4,261.8c0.1-0.1,0.4-0.6,0.7-1
		c0.3-0.4,0.6-0.9,0.8-1c0.2-0.2,0.9-0.5,1.3-0.1c0.5,0.5,0.1,0.8-0.1,1.4c0,0.1,0,0.1,0.1,0.1s0.9-0.4,1.1-0.7s0.1-0.4,0.1-0.4
		c0-0.1,0-0.1,0.1-0.1c0.1,0,0.7,0.3,0.6,0.8c-0.2,0.6-0.6,0.7-1.1,0.8s-1,0-1.1,0.1c-0.1,0-0.1,0.1,0,0.1c0.5,0.3,0.9,0.5,1,0.4
		c0.1-0.1,0.2-0.1,0.1,0.1c-0.1,0.2-0.3,0.4-0.5,0.7c-0.2,0.2-0.5,0.6-0.5,0.7c-0.1,0.1-0.1,0-0.1-0.1s0-0.5-0.9-1.1
		c-0.9-0.6-1.2-0.7-1.4-0.6C-378.4,262-378.5,261.9-378.4,261.8z M-380.1,264.6c0.4-0.8,0.8-0.7,0.6-1.7c0-0.1,0-0.2,0.1-0.1
		c0.1,0.1,0.6,0.9,1.5,1.4c0.8,0.4,1.4,0.6,1.5,0.6c0.2,0,0.2,0.1,0,0.1c-0.6,0.4-0.1,0.4-0.6,1.4s-1.5,1.1-2.4,0.7
		C-380.3,266.5-380.5,265.5-380.1,264.6z M-382.2,269.5c0.2-0.5,0.4-1.2,0.5-1.4c0.1-0.2,0.4-0.5,0.8-0.3c0.5,0.2,0.6,0.6,0.6,0.7
		s0,0.1,0.1,0c0-0.1,0.3-0.5,0.8-0.4c0.4,0.1,0.6,0.6,0.6,1s-0.3,1.2-0.4,1.5c-0.1,0.3-0.4,1.2-0.5,1.3c0,0.1-0.1,0.1-0.1,0
		s0.1-0.5-1.2-0.9s-1.4-0.2-1.5-0.1s-0.1,0-0.1,0C-382.6,270.7-382.3,270-382.2,269.5z M-380.3,273.7c-0.1,0.3-0.3,0.5-0.6,0.4
		c-0.3-0.1-0.5-0.3-0.4-0.6c0.1-0.3,0.4-0.5,0.6-0.4C-380.5,273.2-380.2,273.5-380.3,273.7z M-383.3,272.8c0.1-0.3,0.4-0.4,0.6-0.3
		c0.3,0.1,0.4,0.4,0.3,0.6c0,0.3-0.3,0.4-0.5,0.4C-383.2,273.4-383.3,273.1-383.3,272.8z M-384.1,275.2c0.1,0.1,0.9,0.6,1.9,0.7
		c0.9,0.1,1.5,0,1.6,0c0.1-0.1,0.2,0,0.1,0.1c-0.4,0.6,0,0.4-0.1,1.5s-1,1.6-2,1.5c-0.9-0.1-1.6-1-1.5-2
		C-383.9,276.1-383.5,276.1-384.1,275.2C-384.2,275.2-384.2,275.1-384.1,275.2z M-384.1,283.7c0-0.1,0.1-0.2,0.1-0.4
		c0-0.3-0.1-0.7-0.1-1.3s0.1-1.2-0.6-1.8c-0.1-0.1-0.1-0.2,0-0.1c0.4,0.1,0.9,0.3,1.3,0.3c0.1,0,0.1,0.1,0.1,0.1
		c-0.1,0.1-0.2,0.1-0.2,0.2c0,0.1-0.1,0.1-0.1,0.2s0,0.5,0,0.6c0,0,0.1,0,0.1,0c0.1,0,0.8-0.1,1.1-0.1c0.8-0.1,1.1-0.3,1.1-0.4
		c0-0.2,0.1-0.2,0.2,0c0.1,0,0.1,0.5,0.1,0.8c0,0.3,0,0.8,0,0.9c0,0.1-0.1,0.2-0.1,0c-0.1-0.1-0.4-0.2-1.1-0.2c-0.4,0-1.1,0-1.2,0
		s-0.1,0-0.1,0.1c0,0.4,0.1,0.9,0.3,1c0.1,0.1,0.1,0.1,0,0.1C-383.3,283.7-384,283.8-384.1,283.7
		C-384.1,283.9-384.2,283.8-384.1,283.7z M-383.9,285.5c0.1,0.1,0.5,0.5,0.6,0.5c0,0,0.1,0.1,0.2,0c0.1,0.1,0.6-0.2,1.1-0.5
		c0.8-0.6,1-1.1,1-1.2c0-0.1,0.1-0.2,0.1-0.1c0,0.1,0.2,0.6,0.2,1c0,0.4,0.1,0.8,0.1,0.9s-0.1,0.1-0.1,0c-0.1,0-0.1-0.1-0.8,0.2
		c-0.1,0-0.1,0.1-0.1,0.1s0.1,0.8,0.2,0.9c0.1,0.1,0,0.1,0.1,0.1c0.6,0,0.8-0.2,0.8-0.3s0.1-0.1,0.1,0s0.2,0.7,0.2,0.9
		s0.1,0.7,0.1,0.8c0,0.1,0,0.1-0.1,0c-0.1-0.1-0.3-0.3-1.5-0.5c-0.4-0.1-1.3-0.2-1.5,0.2c-0.1,0.1-0.1,0.1-0.1,0
		c-0.2-1.2-0.4-2.1-0.7-2.8C-384,285.5-384,285.4-383.9,285.5z M-381.6,293.9c0-0.1,0.1-0.2,0-0.4s-0.3-0.7-0.5-1.3
		c-0.2-0.6-0.2-1.2-1.1-1.6c-0.1,0-0.1-0.1,0-0.1c0.4,0,1,0,1.3-0.1c0.1,0,0.2,0,0.1,0.1c-0.1,0.1-0.1,0.2-0.1,0.3
		c0,0.1,0,0.1,0,0.2s0.2,0.5,0.2,0.6s0.1,0.1,0.1,0.1c0.1,0,0.7-0.3,1.1-0.5c0.7-0.3,0.9-0.6,0.9-0.7c0-0.2,0.1-0.2,0.1-0.1
		s0.2,0.5,0.3,0.8c0.1,0.3,0.3,0.8,0.3,0.9c0.1,0.1,0,0.2-0.1,0.1c-0.1-0.1-0.5-0.1-1.2,0.1c-0.4,0.1-1.1,0.3-1.1,0.3s0-0.1,0,0
		c0.1,0.4,0.4,0.8,0.6,0.9c0.1,0,0.1,0,0,0c-0.1,0-0.7,0.4-0.8,0.4C-381.5,294-381.6,294-381.6,293.9z M-379.9,296.7
		c0,0.1-0.1,0.1-0.1,0c-0.1-0.1-0.2-0.4-0.4-0.8c-0.2-0.4-0.3-0.7-0.4-0.8c0-0.1,0-0.1,0.1-0.1c0.1,0.1,0.4,0.3,1.4-0.2
		c1.2-0.6,1.2-0.9,1.1-1c0-0.1,0-0.2,0.1,0c0.1,0.1,0.2,0.4,0.4,0.8c0.2,0.4,0.4,0.8,0.4,0.9s0,0.2-0.1,0.1s-0.3-0.3-1.5,0.3
		C-380,296.3-380,296.6-379.9,296.7z M-376.9,301.4C-376.9,301.5-376.9,301.6-376.9,301.4c-0.2,0-0.3-0.2-0.6-0.6
		c-0.3-0.4-0.4-0.7-0.5-0.7c0-0.1,0-0.1,0.1-0.1s0.3,0.1,0.6-0.2c0.3-0.3,0.8-1.1,1-1.4c0.1-0.1,0-0.1-0.1-0.1s-1.1,0.1-1.7,0.4
		c-0.3,0.1-0.4,0.4-0.4,0.5c0,0.1,0,0.1-0.1,0c-0.1-0.1-0.3-0.3-0.5-0.6c-0.2-0.3-0.4-0.6-0.4-0.7c0-0.1,0-0.2,0.1-0.1
		c0.1,0.1,0.6,0.3,2.1,0.2c1.5-0.1,1.7-0.1,1.8-0.1s0.1,0.1,0.1,0.1c0,0.1-1.1,2.1-1.3,2.4C-376.8,300.8-376.9,301.3-376.9,301.4z
		 M-375.1,303.6c-0.1-0.1-0.3-0.3-0.6-0.6c-0.3-0.3-0.5-0.6-0.6-0.7c-0.1-0.1,0-0.1,0.1-0.1c0.1,0,0.5,0.1,1.3-0.6
		c1-0.9,0.8-1.2,0.8-1.3c-0.1-0.1,0-0.2,0.1-0.1c0.1,0.1,0.4,0.3,0.6,0.6c0.3,0.3,0.6,0.6,0.6,0.7c0.1,0.1,0,0.2-0.1,0.1
		c-0.1,0-0.4-0.2-1.3,0.7C-375.2,303.1-375.1,303.4-375.1,303.6C-374.9,303.6-375,303.7-375.1,303.6z M-370.5,306.3
		c-0.8,0.7-2,0.4-2.5-0.3c-0.5-0.6-0.3-0.6-0.5-0.8c-0.3-0.3-0.8-0.4-0.9-0.4c-0.2,0-0.2-0.1,0-0.1c0.3,0,0.9-0.2,1.2-0.4
		c0.1,0,0.1,0,0.1,0.1c0,0.2,0,0.8,0.3,1.2c0.3,0.4,1,0.3,1.6-0.2c0.6-0.5,0.7-1.1,0.4-1.4c-0.3-0.3-0.9-0.4-1.2-0.3
		c-0.3,0.1-0.3,0-0.1-0.1c0.2-0.1,0.5-0.5,0.6-0.6c0.1-0.2,0.2-0.2,0.2,0s0.1,0.3,0.5,0.6C-370,303.9-369.1,305.3-370.5,306.3z
		 M-368.4,308.6c-0.2,0.2-0.5,0.3-0.7,0.1c-0.2-0.2-0.3-0.5-0.1-0.7c0.2-0.2,0.5-0.3,0.7-0.1C-368.3,308.1-368.3,308.4-368.4,308.6z
		 M-367.2,306.9c-0.2,0.2-0.4,0.4-0.7,0.1c-0.3-0.2-0.3-0.5-0.1-0.7c0.2-0.2,0.5-0.3,0.7-0.1C-367,306.4-367,306.7-367.2,306.9z
		 M-362.8,310.5c-0.4,0.9-1.4,1.2-2.3,0.8c-0.9-0.4-0.7-0.8-1.7-0.4c-0.1,0-0.2,0-0.1-0.1c0.1-0.1,0.9-0.7,1.2-1.6
		c0.4-0.9,0.5-1.4,0.5-1.6c0-0.2,0-0.2,0.1-0.1c0.4,0.6,0.4,0.1,1.4,0.5C-362.6,308.7-362.4,309.6-362.8,310.5z M-357.8,310.5
		c-0.1,0-0.4,0-0.7,1.3c-0.3,1.2-0.1,1.3,0,1.4c0.1,0.1,0,0.2,0,0.1c-0.1,0-1-0.3-1.4-0.4c-0.8-0.2-1.2-0.3-1.4-0.6
		c-0.3-0.3-0.4-0.7-0.2-1.4c0.2-0.6,0.5-1.1,1-1.2c0.4-0.1,1.2,0.2,1.6,0.3c0.6,0.2,1.1,0.3,1.2,0.3
		C-357.7,310.4-357.7,310.4-357.8,310.5z M-355.8,313.7c-0.3-0.1-0.5-0.3-0.4-0.6c0-0.3,0.3-0.5,0.6-0.4c0.3,0,0.5,0.3,0.4,0.6
		C-355.2,313.6-355.5,313.8-355.8,313.7z M-355.4,311.9c-0.4-0.1-0.5-0.3-0.5-0.6c0-0.3,0.3-0.5,0.6-0.4c0.3,0.1,0.5,0.3,0.5,0.6
		C-354.9,311.7-355.1,311.9-355.4,311.9z M-349.3,312.3c-0.1-0.1-0.8-0.9-1.7-0.9c-0.6,0-0.8,0.3-0.8,0.5c0,0.3,0.7,0.5,1.1,0.5
		c0.9,0,1.4,0.5,1.4,1.1c0,0.8-1,1-1.5,1s-1-0.2-1.3-0.2c-0.4,0.1-0.6,0.3-0.6,0.3c-0.1,0.1-0.1,0-0.1,0c0-0.1,0.3-0.8,0.3-0.9
		c0-0.1,0.1-0.1,0.2,0c0.1,0,0.9,0.5,1.6,0.4c0.5,0,0.6-0.2,0.6-0.4c0-0.4-1-0.4-1.4-0.5c-0.7-0.1-1.1-0.5-1.1-1
		c0-0.6,0.6-1.1,1.6-1.1c0.7,0,0.7,0.3,1.2,0.3c0.2,0,0.4-0.1,0.4-0.2s0.2-0.1,0.1,0c0,0.1,0,0.9,0.2,1.3
		C-349.1,312.5-349.2,312.5-349.3,312.3z M-345.7,313.8c-0.1,0-0.4,0.1-0.9,0.1c-0.4,0-0.8,0-0.9,0s-0.1-0.1,0-0.1s0.4-0.3,0.3-1.4
		c-0.1-1.4-0.4-1.4-0.5-1.4c-0.1,0-0.2-0.1,0-0.1c0.2,0,0.5-0.1,0.9-0.1c0.4,0,0.8-0.1,0.9-0.1s0.1,0.1,0,0.1s-0.4,0.2-0.3,1.5
		c0.1,1.2,0.4,1.3,0.5,1.3C-345.6,313.8-345.6,313.8-345.7,313.8z M-340.5,312.8c-0.1,0-0.2-0.1-0.4,0c-0.2,0.1-0.7,0.2-1.3,0.4
		c-0.6,0.2-1.2,0.2-1.6,1c0,0.1-0.1,0.1-0.1,0c0.1-0.4,0.1-1,0-1.3c0-0.1,0-0.2,0.1-0.1c0.1,0.1,0.2,0.1,0.2,0.2c0.1,0,0.1,0,0.2,0
		s0.5-0.1,0.6-0.2c0.1,0,0.1-0.1,0.1-0.1c0-0.1-0.2-0.7-0.4-1.1c-0.3-0.7-0.6-1-0.7-1c-0.2,0-0.2-0.1,0-0.1c0.1,0,0.5-0.2,0.8-0.3
		s0.8-0.2,0.9-0.2s0.2,0,0.1,0.1s-0.2,0.5,0,1.2c0.1,0.4,0.2,1.1,0.2,1.1c0,0.1,0,0.1,0.1,0.1c0.4-0.1,0.8-0.3,0.9-0.5
		c0-0.2,0.1-0.1,0.1,0C-340.8,312-340.5,312.6-340.5,312.8C-340.4,312.8-340.5,312.8-340.5,312.8z M-335.7,310.7
		c-1.1,0.5-2,0.9-2.6,1.4c-0.1,0.1-0.2,0-0.1,0c0.1-0.1,0.4-0.6,0.4-0.7s0-0.1,0-0.2c0-0.1-0.4-0.6-0.9-0.9
		c-0.8-0.6-1.3-0.7-1.4-0.6c-0.1,0-0.2,0-0.1-0.1s0.6-0.3,0.9-0.5c0.4-0.2,0.7-0.3,0.8-0.3c0.1,0,0.1,0,0.1,0.1
		c0,0.1-0.1,0.1,0.4,0.8c0,0.1,0.1,0,0.1,0s0.7-0.3,0.8-0.4c0.1,0,0.1-0.1,0.1-0.1c-0.1-0.6-0.4-0.8-0.5-0.7c-0.1,0-0.1-0.1,0-0.1
		c0.1,0,0.6-0.3,0.8-0.4c0.2-0.1,0.6-0.3,0.7-0.3c0.1,0,0.1,0,0.1,0.1c0,0.1-0.2,0.3-0.1,1.5C-336.2,309.7-336.1,310.6-335.7,310.7
		C-335.7,310.6-335.6,310.7-335.7,310.7z M-331,307.9c-0.1,0-0.2,0-0.4,0.1c-0.2,0.1-0.6,0.5-1.1,0.8c-0.5,0.3-1.1,0.5-1.3,1.5
		c0,0.1-0.1,0.2-0.1,0c-0.1-0.4-0.2-0.9-0.4-1.3c0-0.1,0-0.2,0.1-0.1c0.1,0,0.2,0.1,0.3,0.1s0.1,0,0.2,0c0.1,0,0.4-0.3,0.5-0.3
		c0.1,0,0.1-0.1,0-0.1c0,0-0.5-0.6-0.7-0.9c-0.5-0.6-0.8-0.8-0.9-0.7c-0.2,0-0.2,0-0.1-0.1c0.1-0.1,0.4-0.3,0.7-0.5
		c0.3-0.2,0.7-0.4,0.8-0.5c0.1-0.1,0.2,0,0.1,0.1c-0.1,0.1,0,0.5,0.3,1.1c0.2,0.4,0.5,1,0.6,1c0,0,0.1,0.1,0.1,0
		c0.4-0.2,0.7-0.5,0.7-0.8c0-0.2,0-0.2,0.1-0.1C-331.4,307.3-331,307.8-331,307.9C-330.9,307.9-330.9,307.9-331,307.9z
		 M-328.4,305.6c-0.1,0.1-0.3,0.3-0.6,0.6c-0.3,0.3-0.6,0.5-0.7,0.6c-0.1,0.1-0.1,0-0.1-0.1c0-0.1,0.1-0.4-0.6-1.3
		c-0.9-1-1.2-0.9-1.3-0.8c-0.1,0-0.2,0-0.1-0.1c0.1-0.1,0.3-0.3,0.6-0.6c0.3-0.3,0.6-0.5,0.7-0.6c0.1-0.1,0.2,0,0.1,0.1
		c0,0.1-0.2,0.4,0.6,1.4C-328.9,305.7-328.6,305.6-328.4,305.6C-328.4,305.5-328.3,305.5-328.4,305.6z M-324.5,301.5
		c-0.1,0.1-0.1,0.2-0.4,0.5c-0.3,0.3-0.4,0.4-0.4,0.5c-0.1,0.1-0.1,0.1-0.2,0.1s-0.9-0.3-1.4-0.5c-0.5-0.2-1.1-0.3-1.2-0.3
		s-0.2,0-0.1,0.1s0.6,0.5,0.9,0.7c0.8,0.6,1.1,0.6,1.2,0.6s0.2,0,0.1,0.1c-0.1,0.1-0.4,0.4-0.6,0.7c-0.2,0.2-0.4,0.4-0.5,0.5
		s-0.2,0.1-0.1,0c0-0.1,0.1-0.4-0.7-1.2c-0.6-0.5-1-0.9-1.2-0.9c-0.1,0-0.2,0-0.1-0.1c0-0.1,0.2-0.2,0.4-0.4
		c0.2-0.2,0.4-0.5,0.5-0.5c0.1-0.1,0.1-0.1,0.2-0.1s0.7,0.2,1.3,0.3c0.6,0.2,1.1,0.4,1.2,0.4s0.2,0,0.1-0.1s-0.6-0.5-0.9-0.7
		c-0.8-0.6-1-0.6-1.2-0.5c-0.1,0-0.1,0-0.1-0.1c0.1-0.1,0.4-0.5,0.6-0.7c0.2-0.2,0.4-0.5,0.5-0.5c0.1-0.1,0.1,0,0.1,0.1
		s-0.1,0.3,0.7,1.1C-325,301.3-324.7,301.6-324.5,301.5C-324.5,301.3-324.4,301.4-324.5,301.5z M-321.4,296.9c0,0.1-0.1,0.3-0.4,0.7
		c-0.3,0.4-0.4,0.6-0.5,0.7c-0.1,0.1-0.1,0-0.1,0c0-0.1,0-0.4-0.4-0.5c-0.4-0.1-1.3-0.3-1.7-0.4c-0.1,0-0.1,0-0.1,0.1s0.6,0.9,1,1.4
		c0.3,0.3,0.5,0.2,0.6,0.2s0.1,0,0.1,0.1c0,0.1-0.2,0.4-0.4,0.7c-0.2,0.3-0.4,0.6-0.5,0.7c-0.1,0.1-0.1,0.1-0.1,0s0-0.6-0.6-2
		s-0.7-1.6-0.8-1.7c-0.1-0.1,0-0.1,0.1-0.1c0.1,0,2.4,0.2,2.7,0.2C-322,296.9-321.5,296.9-321.4,296.9
		C-321.3,296.7-321.3,296.8-321.4,296.9z M-319.3,292.2c-0.2,0.4-0.3,0.7-0.3,0.7c-0.1,0.1-0.1,0.1-0.1,0.1c-0.1,0-1.1,0-1.2,0.1
		c-0.1,0-0.1,0,0,0.1c0,0,0.7,0.9,0.8,0.9c0.1,0.1,0.1,0.1,0,0.2c0,0.1-0.2,0.5-0.3,0.7s-0.3,0.7-0.3,0.7s-0.1,0.1-0.1,0
		c0-0.1,0-0.3-1.2-0.8c-1.2-0.4-1.3-0.3-1.5-0.2c-0.1,0.1-0.1,0.1-0.1,0c0-0.1,0.1-0.4,0.3-0.8c0.2-0.4,0.3-0.7,0.4-0.8
		s0.1,0,0.1,0.1c0,0.2,0.5,0.5,1.2,0.8c0.6,0.3,0.8,0.4,0.9,0.4c0.1,0,0.1,0,0.1-0.1c-0.1-0.1-1-1.3-1.1-1.4c0-0.1,0-0.2,0.1-0.2
		s1.7-0.2,1.8-0.2c0.1,0,0.1-0.1,0-0.1c-0.1-0.1-0.4-0.2-0.9-0.4c-0.8-0.3-1.3-0.4-1.4-0.2c-0.1,0.1-0.2,0.1-0.1,0
		c0-0.1,0.2-0.5,0.3-0.8s0.3-0.6,0.3-0.7c0.1-0.1,0.1-0.1,0.1,0c0,0.1-0.1,0.3,1.1,0.9c0.9,0.4,1.3,0.5,1.5,0.4
		c0.1-0.1,0.1-0.1,0.1,0C-319.1,291.6-319.2,291.9-319.3,292.2z M-317.7,285.9c-0.1,0.4-0.2,0.7-0.2,0.8c0,0.1-0.1,0.1-0.1,0.1
		c-0.1,0-1.1,0.2-1.2,0.3c-0.1,0-0.1,0,0,0.1c0,0,0.9,0.7,0.9,0.8s0.1,0.1,0.1,0.2c0,0.1-0.1,0.5-0.1,0.7c0,0.2-0.2,0.7-0.2,0.8
		c0,0.1-0.1,0.1-0.1,0c0-0.1-0.1-0.3-1.3-0.5c-1.2-0.2-1.4-0.1-1.5,0c-0.1,0.1-0.1,0.1-0.1,0c0-0.1,0-0.4,0.1-0.8s0.2-0.8,0.2-0.9
		s0.1,0,0.1,0c0.1,0.2,0.6,0.4,1.3,0.6c0.7,0.2,0.9,0.2,1,0.2s0.1,0,0-0.1c-0.1-0.1-1.2-1.1-1.3-1.2c-0.1-0.1,0-0.2,0-0.2
		c0.1,0,1.6-0.5,1.7-0.5s0.1-0.1,0-0.1s-0.5-0.1-1-0.2c-0.8-0.2-1.3-0.1-1.4,0c-0.1,0.1-0.1,0.1-0.1,0s0.1-0.5,0.2-0.9
		c0.1-0.3,0.2-0.7,0.2-0.8c0-0.1,0.1-0.1,0.1,0c0,0.1,0,0.3,1.2,0.7c1,0.2,1.4,0.3,1.5,0.1c0.1-0.1,0.1-0.1,0.1,0
		S-317.6,285.5-317.7,285.9z M-318.9,283.4c-1.4,0-1.7-1.3-1.7-1.8s0.3-1.7,1.7-1.7s1.8,0.9,1.8,1.8
		C-317.2,282.3-317.4,283.4-318.9,283.4z M-316.8,278.5c-0.3-0.1-0.9-0.2-1.2-0.3c-0.1,0-0.1-0.1-0.1-0.2c0.1-0.1,0.4-0.7,0.3-1.2
		c-0.1-0.5-0.7-0.7-1.5-0.6c-0.8,0.1-1.1,0.6-1.1,1c0.1,0.4,0.6,0.8,0.9,0.9c0.3,0.1,0.2,0.1,0,0.2c-0.2,0-0.7,0.2-0.8,0.3
		c-0.2,0.1-0.2,0.1-0.2-0.1c0-0.1,0.1-0.4-0.2-0.7c-0.5-0.8-0.6-2.4,1.1-2.7c1.1-0.2,1.9,0.6,2.1,1.5c0.1,0.8,0,0.6,0,1
		c0.1,0.4,0.5,0.7,0.6,0.8C-316.6,278.5-316.6,278.6-316.8,278.5z"/>
	<path class="st0" d="M-369.7,255c0.1-0.1,1.4-0.8,1.1-1.3c-0.1-0.2-0.6-0.5-1.2-0.1c-0.4,0.3-0.2,1.1-0.1,1.3
		C-369.7,255.1-369.7,255.1-369.7,255z"/>
</g>
<path class="st0" d="M-329,296.7c-0.4,0-1.4-0.2-1.8-0.3c-0.4-0.1-1.6-0.2-2.1-0.3s-0.9-0.2-1.5-0.3c-0.6-0.1-1.7,0.1-2.1,0.2
	s-1.5,0.3-2.4,0.6c-0.9,0.3-2.2,1.1-2.2,1.1s-1.2-0.7-2.3-1.1c-0.8-0.1-1.9-0.1-2.6-0.1s-1.5,0.3-2.2,0.4c-0.7,0.2-2,0.5-2,0.5
	s-0.4-0.3-0.8-0.4c-0.3-0.2-1.1-0.3-1.5-0.3s-1.1-0.1-1.7-0.1c-0.7,0-2.4,0.5-3.2,0.6c-0.7,0.1-1.6,0.5-1.6,0.5s-0.2-0.2-0.6-0.3
	s-1.1-0.3-1.6-0.4s-2.1-0.3-2.9-0.4c-0.8-0.1-4.1,0.1-5.1,0.2c-1.1,0-3.7,0.4-3.7,0.4s2.6,3.1,3.4,3.9c0.8,0.8,1.8,1.5,2.3,1.9
	c0.4,0.4,3.1,2,4,2.3c0.9,0.3,3.3,1.5,5,2c1.7,0.5,4.5,0.9,5.9,1c1.4,0.1,3.9,0,5-0.2c1.2-0.2,3-0.5,4.2-0.9c1.2-0.3,2.9-1,4.7-1.9
	c1.8-0.9,3.1-1.8,4.3-2.7c1.2-0.9,2.4-2.1,2.8-2.5c0.4-0.4,1.6-1.8,1.8-2c0.2-0.2,1.1-1.4,1.1-1.4S-328.6,296.7-329,296.7
	 M-348,297.8c0,0,1.1-0.3,1.5-0.3s1.4,0,1.7,0c0.4,0.1,2.3,0.5,2.8,1.1c-0.3,0.3-0.6,1-0.7,1.3c0,0.3-0.1-1.4-0.3-1.4
	s-0.1,1.4-0.4,1.8c-0.2-0.9-0.6-2.1-0.9-2.3c0.1,0.9,0.4,2.1,0,2.9c-0.2-1.3-0.7-2.5-1.1-2.8c0.2,1.4,0,2.7-0.2,3
	c-0.1-1.8-0.7-2.8-0.8-3c-0.1-0.2-0.2-0.1-0.2,0.1c0,0.2,0.4,2.1-0.1,3.1c-0.1-1.8-0.6-2.8-0.8-2.9s-0.2,0-0.1,0.1
	c0,0.1,0.3,1.8-0.1,2.3c-0.2-1.3-0.7-2.1-0.9-2.3c0.1,0.6,0.1,1.2,0,1.7c-0.3-0.8-0.6-1.3-0.9-1.8C-348.7,298-348,297.8-348,297.8
	 M-358.6,298.7c0.2,0,0.3-0.2,0.5-0.2c0.2,0,0.5-0.3,1.2-0.5c0.7-0.2,1-0.3,1.4-0.3c0.4-0.1,1.4-0.3,1.7-0.2
	c0.3,0.1,1.2,0.1,1.8,0.3c0.6,0.2,1.3,0.5,1.6,0.8c0.3,0.3,0.9,1.1,1.1,1.7c0.2,0.6,0.3,0.6,0.5,1.3c-0.8-1-1.4-2.3-2.7-2.8
	c0.4,0.5,0.6,0.8,0.9,2c-1.3-1.9-2.7-2.5-2.9-2.6c-0.2-0.1-0.2-0.1,0,0.1c0.2,0.2,1.4,1.5,1.6,2.7c-1.3-1.8-2.5-2.5-2.8-2.6
	c-0.3-0.1-0.3,0-0.1,0.1c0.2,0.1,1.4,1.4,1.9,2.5c-0.5-0.5-1.9-2.1-2.9-2.3c0.8,0.9,1.3,1.5,1.6,2.4c0.1,0.3,0,0.2-0.1,0.1
	c-0.2-0.2-1.2-1.7-2.2-2.1c-0.2-0.1-0.4-0.1-0.2,0c0.2,0.1,1.3,1.6,1.5,2.3c0.1,0.2,0,0.2-0.1,0.1c-0.1-0.1-1.4-1.9-2.7-2.3
	c1,1,1.4,1.7,1.6,2c0.1,0.2,0.1,0.3-0.1,0.1c-0.1-0.1-1.6-1.4-2.4-1.8c-0.2-0.1-0.3,0-0.1,0.2c0.3,0.2,0.7,0.7,1.1,1.4
	c-0.7-0.4-1.5-0.8-2-1.1c-0.2-0.1-0.6-0.1-0.3,0.1c0.4,0.3,0.7,0.7,0.9,1.1c-0.7-0.2-1.2-0.5-1.5-0.6c-0.3-0.1-1,0.1-1,0.1
	s1.3-1.2,1.9-1.5C-359.4,299.1-358.8,298.7-358.6,298.7 M-366.3,297.9c-0.5,0.3-1.1,2.1-1.1,3.1c-0.3-0.6-0.3-2.5-0.1-3.1
	c-0.3,0.4-0.8,1.6-1,2.4c-0.1-0.8-0.1-1.7,0-2.2c-0.3,0.2-0.7,1.2-0.8,1.7c-0.2-0.5-0.2-1.1-0.1-1.6c-0.2,0.2-0.3,0.4-0.4,0.8
	c-0.3-0.5-0.3-1-0.3-1s1.3-0.3,2.1-0.3s1.8-0.1,2.3-0.1s1.4,0.1,1.7,0.1s0.9-0.1,1.2,0c0.3,0.1,1.7,0.4,1.9,0.4
	c0.2,0.1,0.9,0.3,0.9,0.3s-0.6,0.5-0.8,0.7c-0.1-0.2-0.1-0.3-0.1-0.6c-0.2,0.2-0.7,1.1-0.8,1.4c-0.3-0.5-0.3-1.2-0.3-1.5
	c-0.3,0.4-0.8,1.8-1,2.8c-0.2-1-0.1-2.4,0-2.9c-0.7,0.7-1,2.6-1.2,3.2c-0.2-1.2,0.1-3,0.2-3.3c0.1-0.3,0-0.2-0.2,0
	c-0.3,0.3-0.9,2-1,3.4c-0.2-0.8,0-3.2,0.2-3.7c-0.8,1.1-1.2,3.1-1.3,3.4C-366.6,301-366.5,298.3-366.3,297.9 M-351.4,307.7
	c0-0.4,0.1-0.6,0.3-1c-0.4,0.1-1,0.8-1.2,1c0-0.6,0.4-1.5,0.5-1.7c-0.5,0.3-1.5,1.4-1.6,1.6c0.1-0.8,0.6-1.8,1-2.2
	c0.1-0.1,0.1-0.2-0.1-0.1c-0.7,0.5-1.8,1.8-1.9,2c-0.1,0.2-0.1,0-0.1-0.1c0.1-0.8,0.7-2,1.2-2.7c-0.6,0.3-2.2,2.2-2.4,2.4
	c-0.1-0.8,0.9-2.5,1.3-2.9c-0.7,0.1-2.3,2.1-2.5,2.5c0-0.7,0.5-2.1,1.6-3c-0.7,0.1-2.4,1.8-3,2.8c0.3-1.7,1.7-3.1,1.8-3.1
	s0-0.1-0.1-0.1c-1,0.5-2.4,2-2.7,2.6c0.3-1.7,1.5-2.7,1.8-3c-0.7,0.2-2.7,1.8-3.2,2.6c0.2-1.1,1.2-2.2,1.9-2.7
	c-1.4,0.4-2.9,2.1-3.1,2.2c-0.1,0.2-0.2,0.2-0.1-0.1c0.1-0.3,0.8-1.6,1.9-2.3c-1.1,0.4-2.8,1.9-2.9,2s-0.2,0.2-0.1,0
	c0.1-0.2,0.3-1,1.8-1.9c-0.9,0.3-2.7,1.4-3,1.6c0.3-0.7,0.7-1.1,1.4-1.6c-0.8,0.1-1.7,0.8-2.1,1s-0.1,0.1,0,0s0.7-0.6,1.2-1
	c-0.8,0.1-1.8,0.6-2.2,0.6c0.5-0.4,1.8-0.9,2.7-1.1c1.4-0.3,3-0.5,4.3-0.3c1.3,0.2,2.6,0.6,3.3,0.8c0.7,0.3,2.1,1.1,2.5,1.3
	c0.4,0.2,1.8,1.5,2.1,2.1c0.3,0.6,0.6,1.1,0.6,1.1S-351.2,307.6-351.4,307.7 M-343,306.3c-0.1-0.4,0.1-1,0.2-1.1c0-0.1,0-0.1-0.1,0
	c-0.1,0.1-1,0.8-1.4,1.4c0.1-0.5,0.4-1.8,0.5-2c0.1-0.2,0-0.1-0.1,0s-1.1,1.3-1.6,2.3c0-0.9,0.6-2.4,0.8-2.8c-1.2,0.9-1.8,2.3-2,2.7
	c-0.1-1,0.9-3,1-3.1c0.1-0.1,0-0.2-0.1,0c-1.1,1.1-1.6,2.1-2,3.1c-0.1-0.5,0.5-2.4,0.9-3.1c0.2-0.3-0.1-0.2-0.1-0.1
	c-0.2,0.2-1,1.1-1.5,2.3c0.1-1.4,0.8-2.5,1-2.9c-0.7,0.5-1.7,1.6-2,2.2c0-0.8,0.6-2.3,0.9-2.5c-1.2,0.5-1.8,1.4-1.8,1.7
	c-0.1,0.1-0.1,0.1-0.1,0c0-0.1,0.3-1.3,0.6-1.6c-0.7,0.3-1.1,1-1.2,1.1c-0.1,0.2-0.1,0.2-0.1,0c0-0.2-0.1-0.8,0.4-1.3
	c0.2-0.2-0.1-0.1-0.3,0c-0.2,0.1-0.7,0.4-1,0.8c-0.2,0.3-0.1-0.5,0.1-0.7c0.1-0.1-0.5-0.1-1.2,0.2c0.7-0.8,1.9-0.9,3-0.9
	s2.8,0.1,3.4,0.3c0.7,0.2,1.3,0.3,1.6,0.5c0.3,0.2,0.7,0.4,1,0.6c0.3,0.1,1.5,0.8,1.9,1.1c0.4,0.2,0.8,0.7,0.8,0.7
	S-342.7,306.2-343,306.3 M-336.8,303.6c0,0.2-0.1,0-0.1,0s-0.5-1.2-1.3-1.6c0.3,1,0.2,1.8,0.2,2c-0.4-1.2-1.5-2.3-2-2.3
	c0.3,0.5,0.7,1.7,0.6,2.3c-0.6-1.2-1.1-1.8-1.7-2.2c-0.1,0-0.3-0.1-0.2,0.1c0.1,0.2,0.7,1.2,0.7,2.3c0,0.2-0.1,0.2-0.2,0
	c-0.1-0.2-0.9-1.8-1.4-2c0.1,0.7,0.2,1.3,0.2,1.6c-0.2-0.5-0.7-1.3-1.1-1.6c0.2,0.6,0.1,1,0.1,1.2c-0.3-0.5-0.6-1-0.8-1.1
	c0,0.2,0,0.4-0.1,0.6c-0.1,0.2-0.3-0.7-0.5-1.1c0.3-0.1,0.5-0.1,1-0.3s1.5-0.4,1.9-0.4c0.3,0,1,0,1.6,0s1.5,0.1,1.7,0.2
	c0.2,0.1,0.9,0.2,1.1,0.3c0.2,0.1,0.6,0.3,0.7,0.4s0.5,0.7,0.5,1c-0.5-0.5-0.8-0.6-1-0.7C-336.8,302.8-336.8,303.4-336.8,303.6
	 M-331.6,298.7c-0.3,0.3-0.9,0.9-1.4,1.3c0.2-1,0.8-1.9,0.9-2.1c-1.2,0.7-2.1,2-2.6,2.7c-0.1,0.2-0.2,0.2-0.1-0.1
	c0.3-1,1.1-2.3,1.7-2.7c0.3-0.2,0.1-0.3-0.1-0.1c-1.5,1-2.4,2.1-3.1,3.3c-0.1,0.1-0.2,0.1-0.1-0.1c0.5-1.2,1.2-2.3,2.1-3.3
	c0.1-0.1,0-0.2-0.1-0.1c-0.9,0.5-2.5,2.3-3,3.2c0.1-0.8,0.5-1.8,1.5-3c-1.3,0.8-2.3,2.1-2.7,3c0-0.6,0.4-1.5,1-2.5
	c-1,0.7-1.7,2.2-2,2.5c-0.4-0.3,0.2-1.6,0.6-2.2c0.2-0.2,0-0.2-0.2,0c-1,0.7-1.6,1.8-1.8,2.2c-0.1-0.4,0.1-1.1,0.2-1.3
	c-0.6,0.3-1.1,0.8-1.3,1.1c0.1-0.4,0.4-1.1,1-1.6s2.1-1.1,2.8-1.3c0.6-0.2,1.4-0.5,1.9-0.5s0.9-0.1,1.5-0.1c0.5,0,1.2,0,1.7,0.1
	c0.4,0.1,1.1,0.1,1.5,0.2c0.4,0.2,1,0.1,1.2,0.2C-330.9,297.9-331.3,298.4-331.6,298.7"/>
<path class="st0" d="M-370.1,268.7v-0.3c0-0.3,0-0.8,0-1.1c0-0.5,0-1,0-1.1c0-0.3-0.1-0.4-0.2-0.5l-0.1-0.1
	c-0.1-0.1-0.5-0.4-0.6-0.5s-0.1-0.4-0.1-0.6c0-0.1,0.1-0.2,0.1-0.2l0,0c0.1,0,0.2-0.2,0.1-0.3c0-0.1,0-0.4,0-0.6c0-0.5,0-0.6,0-0.7
	c0-0.1-0.1-0.2-0.2-0.2s-0.2,0-0.3,0.1c0,0-0.1,0.1-0.5,0.5l-0.2,0.2l0,0l0,0c0,0-0.1,0.1-0.1,0.2l0,0c-0.1,0.1-0.2,0.3-0.3,0.4
	l-0.4,0.5c-0.4,0.5-1,1.3-1.3,1.8c-0.2,0.4-0.5,0.9-0.6,1.2c-0.1,0.1-0.1,0.3-0.2,0.3l-0.1,0.1c-0.1,0.1-0.1,0.1-0.2,0.3
	c0,0.1-0.2,0.3-0.3,0.5c-0.1,0.2-0.2,0.4-0.3,0.5c0,0-0.1,0.1-0.1,0.3c-0.1,0.3-0.3,0.8-0.4,0.9c-0.1,0.2-0.5,1.1-0.6,1.5
	c-0.1,0.1-0.1,0.3-0.2,0.6c0,0.2-0.1,0.4-0.1,0.4c0,0.1-0.2,0.5-0.5,1.9l-0.1,0.6c-0.1,0.2-0.2,0.8-0.2,1.3
	c-0.1,0.3-0.1,0.6-0.1,0.7c-0.1,0.4-0.2,1.8-0.3,2.3c0,0.4,0,1,0,1.6c0,0.3,0,0.6,0,0.7c0,0.3,0.1,1.6,0.1,2s0.3,1.9,0.4,2.4
	s0.6,2.6,0.8,3.1l0.3,0.7c0.2,0.7,0.5,1.5,0.9,2.1c0.1,0.2,0.2,0.4,0.2,0.6c0,0.1,0.1,0.3,0.1,0.4c0.2,0.4,0.4,0.8,0.6,1
	c0.1,0.2,0.2,0.3,0.2,0.4c0,0,0,0.1,0.1,0.1c0.1,0.1,0.1,0.3,0.3,0.4c0.1,0.1,0.2,0.2,0.2,0.2l0.1,0.1l0,0c0.1,0.1,0.1,0.2,0.2,0.2
	l0,0l0,0c0,0.1,0.1,0.1,0.2,0.1c0.1,0,0.2,0,0.3-0.1c0,0,0.1-0.1,0.4-0.4c0.5-0.4,1.3-1.3,1.4-1.3c0.1-0.1,0.2-0.3,0.2-0.4
	s0.1-0.4,0.1-0.4V293c0.1-0.3,0.1-1.5,0-1.7c0-0.1,0-0.7,0-1.2c0-0.6,0-1.3,0-1.6c0-0.5-0.1-3.9-0.1-4.4c0-0.3,0-1.5,0-2.2
	c0-0.4,0-0.6,0-0.6c0-0.2-0.1-0.3-0.2-0.4l-0.2-0.2c-0.2-0.2-0.6-0.6-0.8-0.7c0,0,0-0.1,0.1-0.1l1.1-1.1l0.3-0.3
	c0.1-0.1,0.1-0.1,0.2-0.3c0-0.2,0-0.7,0-0.9v-0.1c0-0.2-0.1-0.2-0.2-0.3l0,0c-0.3-0.2-0.5-0.4-0.6-0.5c-0.2-0.2-0.4-0.3-0.5-0.6
	c0-0.1,0-0.3,0-0.3c0.1-0.1,0.3-0.3,0.4-0.3c0.1-0.1,0.1-0.2,0.1-0.3v-0.1c0-0.2,0-0.9,0-1c0-0.3,0-2.2,0-2.4v-0.1
	c0-0.1,0-0.6,0-0.7c0.1-0.1,0.4-0.3,0.6-0.3c0.2,0,0.5-0.1,0.6-0.1c0.2-0.1,0.3-0.2,0.3-0.3c0,0,0-0.1,0-0.3
	C-370.1,269.3-370.1,268.8-370.1,268.7"/>
<path class="st0" d="M-331.5,261.1c-0.1-0.1-0.2-0.2-0.3-0.3c-0.1-0.1-0.1-0.1-0.2-0.2c0-0.1-0.2-0.1-0.3-0.2c-0.1,0-0.1,0-0.2-0.1
	c0,0-0.1-0.1-0.1-0.2c-0.1-0.1-0.1-0.2-0.3-0.4c-0.1-0.1-0.4-0.3-0.6-0.5c-0.2-0.1-0.3-0.2-0.4-0.3s-0.7-0.4-1.2-0.8l-0.1-0.1
	c-0.1,0-0.1-0.1-0.2-0.2c0-0.1-0.1-0.1-0.1-0.2c-0.1-0.1-0.2-0.1-0.3-0.1c-0.1,0-0.1,0-0.1,0c-0.1,0-0.2-0.2-0.3-0.3
	c-0.1-0.1-0.2-0.2-0.3-0.2c-0.1,0-0.2,0-0.3-0.1h-0.1c-0.1,0-0.2-0.2-0.3-0.2c-0.2-0.1-0.4-0.3-0.5-0.4c-0.1-0.1-0.4-0.2-0.7-0.4
	c-0.3-0.2-0.7-0.4-0.9-0.5c-0.4-0.2-1.4-0.5-2.2-0.8l-0.5-0.2c-0.7-0.2-3.1-0.9-3.3-0.9c-0.1,0-0.3-0.1-0.5-0.1s-0.5-0.1-0.6-0.1
	c-0.7,0.2-1.6,0.1-2,0.1s-1.9-0.1-2.3-0.1c-0.4,0-0.8,0-1,0c-0.3,0-1.7,0.2-2.2,0.2c-0.4,0-1.4,0.2-2.1,0.3c-0.2,0-0.5,0.1-0.5,0.1
	c-0.1,0-0.2,0-0.3,0c-0.1,0-0.2,0-0.3,0s-0.5,0.2-0.9,0.3c-0.1,0.1-0.2,0.1-0.3,0.1c-0.1,0-0.2,0-0.3,0.1c-0.1,0-0.2,0-0.3,0.1
	c-0.1,0-0.4,0.1-0.6,0.2l-0.5,0.2c-0.2,0.1-0.4,0.1-0.5,0.2c-0.1,0.1-0.3,0.1-0.4,0.2c-0.2,0.1-0.8,0.3-0.9,0.4
	c-0.1,0-0.3,0-0.4,0.1c-0.1,0.1-0.2,0.1-0.2,0.2l0,0c-0.1,0-0.3,0.1-0.7,0.3c-0.4,0.2-1.3,0.6-1.4,0.7s-0.3,0.2-0.5,0.2
	c-0.1,0-0.2,0.1-0.4,0.2c-0.1,0-0.1,0.1-0.2,0.1c-0.1,0.1-0.3,0.2-0.6,0.4c-0.5,0.3-1,0.7-1.2,0.8l-0.9,0.7l-0.9,0.7
	c-0.2,0.2-0.5,0.5-0.8,0.8c-0.2,0.2-0.4,0.4-0.4,0.4c-0.2,0.2-0.1,0.3-0.1,0.4c0,0.1,0.2,0.2,0.3,0.1c0.1,0,0.1,0,0.3,0
	c0.2,0,1.8,0.1,2.4,0c0.5,0,2.4,0,2.8,0c0.1,0,0.1,0,0.2,0c0.2,0,0.4,0,0.5,0c0.2,0,0.9-0.1,1.3,0c0.4,0,1.2,0,1.5,0h0.1l0,0
	c0,0.1,0,0.4,0,0.7c0,0.2,0,0.4,0,0.5c0,0.2,0,0.4,0,0.7c0,0.2,0,0.4,0,0.5c0,0.1,0,0.1,0,0.2s0,0.2,0,0.4c0,0.1,0,0.1-0.1,0.2l0,0
	c-0.1,0.1-0.4,0.4-0.5,0.5c-0.1,0.1-0.2,0.3-0.2,0.5v0.2c0,0.2,0,0.6,0,0.9c0,0.2,0,0.8,0,1.2c0,0.5,0,0.7,0,0.8
	c0,0.2,0.1,0.3,0.3,0.3c0.1,0,0.3,0,0.7,0c0.5,0,1,0,1.3,0s1.2,0,1.8-0.1c0.2,0,0.4,0,0.4,0c0.1,0,0.2,0,0.3-0.1
	c0.1-0.1,0.1-0.2,0.1-0.3s0-0.8,0-0.8c0-0.1,0-0.2,0-0.3c0-0.1,0-0.7,0.1-0.9c0-0.2,0-2.6,0-2.8c0-0.2,0-0.6,0-0.7
	c0-0.2-0.1-0.3-0.2-0.4l-0.1-0.1c-0.1,0-0.1-0.1-0.2-0.2c-0.1-0.1-0.1-0.3-0.1-0.3c0-0.2-0.1-0.3-0.1-0.4c0,0-0.1-0.1-0.3-0.2
	c-0.1-0.1-0.2-0.2-0.3-0.3s-0.2-0.2-0.4-0.3c-0.1-0.1-0.3-0.2-0.5-0.3c-0.3-0.2-0.3-0.3-0.3-0.4c0,0,0-0.1,0.1-0.1
	c0-0.1,0.1-0.2,0.1-0.3s0.1-1.2,0.1-1.6v-0.4c0-0.3,0-0.6,0-0.7c0,0,0.1,0,0.2,0h0.1c0.2,0,1.7-0.1,1.8-0.1c0.2,0,0.4-0.2,0.4-0.4
	c0-0.1,0-0.2,0-0.4c0-0.2,0-0.5,0-0.6h0.1l0,0c0.1,0,0.7,0,1.7,0h0.3c0,0.1,0,0.9,0,1c0,0.2,0.1,0.3,0.4,0.3c0,0,0,0,0.1,0h0.2
	c0.3,0,0.7,0,0.8,0c0.2,0,0.7,0,0.8,0c0.1,0,0.3,0,0.3-0.3c0,0,0,0,0-0.1c0-0.1,0-0.2,0-0.3v-0.2c0-0.1,0-0.2,0-0.7
	c0,0,0-0.1,0.1-0.1c0.1,0,0.2,0,0.3,0c0.2,0,0.5,0,0.7,0c0.2,0,0.5,0,0.8-0.1c0.2,0,0.5,0,0.6,0l0,0c0,0,0,0.3,0,1.2v0.1
	c0,0.1,0.1,0.2,0.1,0.2s0.1,0.1,0.2,0.1s0.6,0,0.9,0h0.7h0.4c0.1,0,0.2,0,0.2-0.1c0.1-0.1,0.1-0.2,0.1-0.3l0,0c0-0.6,0-0.8,0-0.9
	l0,0c0.1,0,0.2,0,0.3,0c0.3,0,0.6,0,0.7,0c0.7,0,1,0,1.1,0c0,0.2,0,0.6,0,0.8c0,0.1,0,0.2,0,0.2c0,0.1,0,0.2,0.1,0.2
	c0.1,0.1,0.2,0.1,0.3,0.1s2.1,0.1,2.3,0.1c0.1,0,0.2,0.1,0.2,0.1c0,0.1,0,0.4,0,1v0.1c0,0.1-0.1,0.2,0,0.3c0,0.1,0,0.3,0,0.4
	s-0.1,0.9,0,1c0,0.2,0.1,0.2,0.2,0.3v0.1c0,0.1-0.3,0.4-0.4,0.5c0,0-0.1,0.1-0.2,0.2s-0.2,0.3-0.3,0.3c-0.2,0.1-0.5,0.5-0.6,0.6
	s-0.1,0.3-0.1,0.4c0,0,0,0.1-0.1,0.2v0.1c0,0.1-0.3,0.2-0.5,0.3c-0.1,0.1-0.3,0.2-0.3,0.6v0.2c0,0.8,0,1.6,0,1.7s0,0.7,0,1.1
	c0,0.3,0,0.5,0,0.5c0,0.1,0,0.3,0,0.4s0,0.2,0,0.2s0,0.1,0,0.2c0,0.4,0,0.8,0,0.9c0,0.2,0.2,0.4,0.4,0.4c0.1,0,0.3,0,0.5,0
	c0.4,0,0.8,0,1,0c0.2,0,0.9,0,1.5-0.1c0.4,0,0.8,0,0.8,0c0.1,0,0.4,0,0.4-0.4c0-0.2,0-1,0-1.3c0-0.3,0-1.3,0-1.8v-0.2
	c0-0.2-0.1-0.3-0.2-0.5c0-0.1-0.1-0.2-0.4-0.4c-0.1-0.1-0.3-0.3-0.4-0.4c0,0,0-0.2,0-0.3v-0.1c0-0.1,0-0.3,0-0.5s0-0.5,0-0.6
	c0-0.2,0-0.5,0-0.9c0-0.1,0-0.1,0-0.1s0,0,0-0.1c0.1,0,0.1,0,0.2,0s0.2,0,0.3,0c0.1,0,0.4,0,0.7,0c0.3,0,0.5,0,0.7,0
	c0.3,0,0.8,0,0.9,0c0.2,0.1,0.9,0,1,0c0.1,0,0.4,0,0.5,0c0.1,0,0.2,0,0.3,0c0.1,0,0.2,0,0.2,0c0.6,0,2.2,0,2.3,0c0.1,0,1.8,0,2,0
	c0.2,0,0.3-0.1,0.3-0.2C-331.2,261.4-331.4,261.2-331.5,261.1 M-349.8,255.6L-349.8,255.6L-349.8,255.6"/>
<path class="st0" d="M-323.5,279c0-0.4-0.1-0.7-0.1-1c0-0.5-0.2-1.7-0.3-2.5c-0.1-0.3-0.1-0.6-0.1-0.7c0-0.2-0.1-0.6-0.3-0.9
	c-0.1-0.4-0.2-0.8-0.3-1.1c-0.1-0.7-0.6-1.8-0.7-2c-0.1-0.2-0.3-0.8-0.4-0.9c0-0.1-0.3-0.6-0.7-1.5c-0.2-0.4-0.3-0.7-0.4-0.9
	c-0.1-0.3-0.6-1-0.9-1.5c-0.2-0.2-0.3-0.4-0.4-0.5c-0.2-0.3-0.7-1-0.9-1.3V264c-0.1-0.2-0.4-0.4-0.4-0.5c-0.1-0.1-0.2-0.3-0.4-0.5
	c-0.1-0.1-0.5-0.5-0.6-0.6c-0.2-0.2-0.3-0.2-0.4-0.1c-0.1,0-0.2,0.2-0.2,0.3s0,0.5,0,0.7c0,0.2,0,0.3,0,0.3c0,0.2,0.1,0.3,0.2,0.4
	l0,0c0,0,0,0.1,0.1,0.2c0,0.1-0.1,0.3-0.2,0.4s-0.6,0.6-0.7,0.7c-0.2,0.2-0.2,0.3-0.1,0.4l0,0c0,0.1,0,0.4,0,0.7c0,0.3,0,0.6,0,0.7
	s0,0.3,0,0.6c0,0.5,0,1.1,0,1.3c0,0.1,0,0.3,0,0.5s0,0.3,0,0.4c0,0.2,0,0.6,0.5,0.6c0.3,0,0.4,0.2,0.5,0.4c0.1,0.1,0.1,0.4,0.1,0.6
	c0,0.1,0,0.2,0,0.3c0,0.2,0,0.5,0,0.8c0,0.2,0,0.4,0,0.5s0,0.3,0,0.5c0,0.2,0,0.4,0,0.5s0,0.2,0,0.3s0,0.1,0,0.1c0,0.1,0,0.3,0,0.4
	l0,0c0,0.2,0.1,0.2,0.2,0.3l0,0c0.1,0.1,0.1,0.3,0.1,0.6c0,0.2-0.1,0.3-0.2,0.4l0,0c0,0-0.1,0.2-0.1,0.3s0.2,0.2,0.3,0.2l0,0h0.1
	c0,0,0,0,0,0.1c0,0.1,0,0.1,0,0.2c0,0.2,0.1,0.3,0.1,0.4c0,0,0.2,0.3,0.3,0.5c0.1,0.1,0.2,0.3,0.4,0.5c0.1,0.1,0.2,0.2,0.3,0.3
	c0.1,0.2,0.4,0.6,0.6,0.9c0.1,0.2,0.2,0.3,0.2,0.3l0,0c0,0,0,0-0.1,0c0,0-0.2,0.2-0.4,0.3c-0.2,0.2-0.5,0.3-0.6,0.4
	c-0.2,0.1-0.3,0.3-0.3,0.6v0.3c0,1.4,0,2.9,0,3s0,0.3,0,0.4c0,0.3,0,0.4,0,0.5s0.1,0.5,0.1,0.8c0,0.1,0,0.4,0,0.6c0,0.4,0,0.8,0,0.9
	c0,0.1,0,0.2,0,0.3c0,0.2-0.1,0.3,0,0.5c0,0.1,0.1,1.1,0.1,1.4c0,0.2,0,0.6,0,0.8c0,0.1,0,0.4,0,0.7c0,0.4,0,0.6,0,0.7l0,0
	c0,0.2,0,0.3,0.3,0.4c0.1,0,0.1,0.1,0.2,0.2l0,0c0.1,0.2,0.3,0.4,0.4,0.5c0.1,0,0.3,0.4,0.4,0.5c0,0.1,0.1,0.1,0.1,0.1
	c0.1,0.1,0.2,0.3,0.3,0.4c0.2,0.3,0.3,0.4,0.4,0.5c0.1,0.1,0.2,0.1,0.3,0.1s0.2-0.1,0.3-0.2s0.9-1.5,0.9-1.6c0,0,0.1-0.2,0.4-0.5
	c0.1-0.1,0.2-0.5,0.4-1.2c0.1-0.2,0.1-0.3,0.1-0.4c0,0,0-0.1,0.1-0.1c0.1-0.1,0.1-0.2,0.2-0.4c0.1-0.2,0.3-0.9,0.5-1.3
	c0.2-0.5,0.5-1.6,0.5-1.8c0-0.1,0-0.1,0-0.2c0-0.2,0-0.4,0.1-0.5c0.1-0.3,0.4-2,0.5-2.7c0.1-0.5,0.1-1.9,0.2-2.9v-0.9
	C-323.3,280.3-323.4,279.6-323.5,279"/>
<path class="st0" d="M-373.8,296.5c5,7.4,13.5,12.2,23.1,12.2c9.6,0,18-4.8,23.1-12.2h-0.9c-0.1,0.2-0.3,0.4-0.3,0.5
	c-0.1,0.2-0.3,0.4-0.6,0.8c-0.2,0.3-1.4,1.5-1.5,1.7s-1.3,1.3-1.5,1.5c-0.1,0.2-0.8,0.9-1.1,1.1c-0.3,0.2-2.2,1.6-2.5,1.7
	c-0.3,0.1-1.9,1.1-2.1,1.2c-0.2,0.1-3.6,1.6-3.9,1.7c-0.4,0.1-1.5,0.4-1.7,0.5c-0.2,0.1-1.9,0.6-2.3,0.6c-0.4,0.1-2.5,0.4-2.8,0.3
	c-0.2,0-2,0-2.6,0.1c-0.6,0-2.3-0.2-2.6-0.2c-0.3-0.1-1.3-0.2-2-0.3c-0.6-0.1-2.2-0.6-3-0.7c-0.2,0-0.9-0.3-1-0.4
	c-0.2,0-0.7-0.3-0.9-0.3c-0.2-0.1-0.9-0.4-0.9-0.4s-1.1-0.5-1.4-0.7c-0.3-0.2-2.1-1.2-2.2-1.3c-0.1,0-1.7-1.2-1.9-1.3
	c-0.1-0.1-0.8-0.7-0.9-0.8c-0.1-0.1-1.1-1-1.2-1.1c-0.1-0.1-1.2-1.3-1.4-1.4c-0.1-0.1-0.8-0.8-1-1c-0.2-0.2-0.5-0.8-0.7-1
	c-0.1-0.1-0.3-0.4-0.5-0.6L-373.8,296.5z M-358.4,296.5c0,0.1,0,0.2,0,0.2c-0.1,0.6,0,1,0,1l0.6-0.2c0,0,0-0.2,0-0.4v-0.6H-358.4z
	 M-357.1,296.5c0,0.4,0,0.8,0,0.8l0.6-0.2c0,0,0-0.3,0-0.7h-0.6V296.5z M-345.2,296.5c0,0.1,0,0.2,0,0.2h0.4c0,0,0-0.1,0-0.2H-345.2
	z M-343.9,296.5c0,0.2-0.1,0.3-0.1,0.3l0.6,0.2v-0.5H-343.9z"/>
<path class="st0" d="M-378.5,284.3c0.6,4.5,2.2,8.6,4.6,12.2h1c-0.1-0.1-0.1-0.2-0.1-0.3c-0.1-0.1-0.2-0.3-0.1-0.5
	c0.1-0.1,0.8-0.9,1.1-1.1c0.3-0.2,0.7-0.5,0.8-0.6c0.1-0.1,0.4-0.1,0.6-0.1c0.1,0,0.9,0,1.6,0c0.8,0,1.5,0.1,1.9,0.1s2.2,0,2.5,0.1
	c0.3,0.1,1.5,0.1,2,0s1.7,0,2.2,0s1.2,0,1.5,0c0.3,0,0.5,0.1,0.5,0.3c0,0.2,0.1,1.3,0,2h0.6v-1.2c0-0.3,0-1.5,0-2s0-1.1-0.1-1.6
	s0.1-1.1,0.1-1.5s-0.1-1.7-0.1-1.8c0-0.1,0-0.5,0-0.5s0.3,0,0.6-0.1c0.2,0,0.2,0,0.2,0.1c0,0.1,0.2,0.7,0,1.4c-0.1,0.5,0,0.8,0,0.9
	c0,0.2,0,1.1,0,1.4c0,0.3,0,2.2,0,2.7s0,1.2-0.1,1.7c0,0.1,0,0.3,0,0.4h0.6c0-0.2,0-0.5,0-0.6c0-0.3,0-2.9,0-3.1c0-0.2,0-1.9,0-2.2
	c0-0.2,0.1-0.8,0-1.1c0-0.2,0.1-0.3,0.1-0.5c0-0.2,0-0.8-0.1-1.1c0-0.3,0.2-1,0.3-1.4c0.3-0.8,1.1-1.3,1.1-1.3s-0.5,0.1-0.9,0.3
	c-0.3,0.2-0.4,0.3-0.4,0.3s-0.2-0.3-0.3-0.4c-0.1-0.1-0.1-0.2-0.1-0.4c0-0.1,0.1-0.4,0.2-0.8h-0.3c0,0.1,0,0.2-0.1,0.3
	c0,0.3-0.1,0.9-0.1,0.9s-0.2,0-0.4,0c-0.2,0-0.4,0-0.4,0s0-0.6,0.1-1.2h-0.1c0,0.1,0,0.1,0,0.2c-0.1,0.6-0.1,1-0.1,1l-0.3,0.3
	c0,0-1.1-0.5-1.5-0.7c-0.2-0.1-0.5-0.3-0.8-0.5h-2.9c0,0.1,0.1,0.2,0.3,0.2c0.3,0,0.9,0,1.1,0c0.2,0,0.4,0.1,0.3,0.2
	c0,0.1,0,0.3,0,0.5c0,0.2,0.1,0.3,0.3,0.3c0.2,0,0.9,0,1.1,0c0.3,0,0.3,0.2,0.3,0.3c0,0.2,0.1,0.8,0.1,0.8s0.9,0,1.1,0
	s0.3,0.1,0.3,0.3c0,0.3,0.1,1,0.1,1s-1.1-0.6-1.4-0.8c-0.3-0.2-1.5-0.8-1.7-1c-0.3-0.2-1.5-1-1.7-1.1c-0.3-0.1-0.8-0.4-0.8-0.4
	s-0.1-0.1-0.2-0.1c-0.1-0.1-0.2,0-0.3-0.1c0,0,0,0-0.1-0.1h-0.9l0,0c0,0-1,0-1.3,0s-3.2,0.1-3.3,0.1c-0.1,0-0.2,0-0.2,0.1
	s0,0.1,0.2,0.1c0.2,0,1.1,0.1,1.3,0.1c0.3,0,0.8,0,0.8,0s0.1,2.2,0.1,2.3s0,0.2-0.1,0.3c-0.2,0-2,0.1-2.1,0.1
	c-0.1,0-0.1,0.2-0.1,0.2c0.1,0.1,0.5,0.1,0.7,0.1c0.2,0,1.4,0,1.6,0c0.3,0,1.2,0,1.4-0.1c0.2,0,0.4,0,0.4,0.2c0,0.2,0,1.8,0,2
	c0,0.2,0.1,0.4-0.2,0.3c-0.2,0-1.1-0.1-1.4-0.1c-0.3,0-1.4,0.2-1.7,0.2c-0.3,0-0.6,0-0.7,0c-0.1,0-0.1,0.2,0,0.2
	c0.1,0,0.4,0,0.6,0.1c0.2,0,0.9,0.1,1.2,0.1c0.2,0,0.5,0.1,0.5,0.1s0,2.4,0,2.5c0,0.1,0,0.2-0.2,0.2c-0.2,0-2.2,0-2.4,0
	c-0.2,0-0.3,0-0.3-0.1c0-0.1,0-1.6,0-1.8c0-0.3,0-1.7,0-2.1s0-1.5-0.1-1.7c0-0.3,0-1.1,0-1.3c0-0.3,0-1.6,0-1.8c0,0,0-0.1,0-0.2
	h-0.5c0,1,0,3.6,0.1,4.1c0,0.6-0.1,2.5,0,2.8c0,0.2,0,1.4,0,1.6c-0.1,0.1-0.1,0.4-0.1,0.5s0,0.2-0.1,0.3c-0.1,0-1.7,1.7-1.8,1.7
	h-0.1c0,0-0.1-0.1-0.2-0.3c0-0.1-0.2-0.2-0.3-0.3c-0.1-0.2-0.2-0.4-0.3-0.5c-0.1-0.2-0.4-0.7-0.8-1.4c-0.1-0.2-0.2-0.5-0.4-0.9
	c-0.4-0.9-0.8-2-1.1-2.8c-0.2-0.5-0.7-2.6-0.8-3.1c-0.1-0.3-0.2-1.1-0.3-1.7L-378.5,284.3z M-345.4,284.3L-345.4,284.3
	c0.1,0.3,0.4,0.8,0.3,0.9c-0.1,0.2-0.3,0.4-0.3,0.4s-0.6-0.5-1-0.4c0.8,0.4,0.8,0.9,0.9,1.3c0.1,0.3,0.3,0.7,0.3,1s0.2,0.7,0.2,0.9
	c0,0.2-0.1,1.2-0.1,1.6s0.1,0.7,0,0.9c0,0.2,0,1.2-0.1,1.5c0,0.4,0,1.8,0,2.2c0,0.3,0,1.4,0,1.8h0.4c0-0.2,0-0.4,0-0.6
	c0-0.4,0-1.1,0-1.4c0-0.2,0.1-0.8,0.1-1.1c0-0.4,0-2,0-2.4s0-1.5,0-1.7c0-0.3,0.1-0.8,0.1-1.1c0-0.3,0-0.6,0-0.8
	c0-0.2,0.1-0.2,0.2-0.2s0.2,0,0.4,0s0.2,0.2,0.2,0.3s0,1.4,0,1.7c0,0.3,0,1.5,0,1.8c0,0.3-0.1,1.8-0.1,2.3s0,2.6,0,2.8
	c0,0.1,0,0.2,0,0.3h0.6v-0.2c0-0.3,0.1-1.8,0-2c0-0.2-0.1-0.5,0.2-0.4c0.3,0,1.1,0.1,1.5,0c0.4-0.1,1.1-0.1,1.8-0.1
	c0.7,0,2.1,0.1,2.6,0s1.2,0.1,1.4,0c0.2,0,0.3-0.3,0.4-0.2s0.5,0.1,0.6,0.1c0.1,0,1.1,0,1.8,0h2.6c0.4,0,0.6,0.1,0.7,0.2
	c0.1,0.1,0.6,0.8,0.8,1c0.2,0.1,0.4,0.6,0.6,0.7c0.1,0.1,0.2,0.3,0,0.4c-0.1,0.1-0.2,0.2-0.3,0.4h0.9c2.4-3.6,4.1-7.7,4.6-12.2h-0.7
	c0,0.1,0,0.1,0,0.2c-0.1,0.7-0.4,2.4-0.5,2.6c-0.1,0.2-0.1,0.6-0.1,0.8c0,0.2-0.3,1.2-0.5,1.7c-0.2,0.5-0.5,1.1-0.6,1.4
	c-0.1,0.3-0.2,0.3-0.3,0.5c-0.1,0.2-0.4,1.3-0.5,1.5c-0.1,0.2-0.4,0.4-0.4,0.6c-0.1,0.1-0.8,1.4-0.9,1.5c-0.1,0.1-0.2,0.1-0.3,0
	c-0.1-0.1-0.5-0.8-0.6-0.9c-0.1-0.2-0.5-0.6-0.6-0.7c-0.1-0.1-0.3-0.3-0.4-0.5c-0.1-0.1-0.2-0.2-0.3-0.2c-0.1,0-0.1-0.1-0.1-0.3
	c0-0.2,0-1.1,0-1.4c0-0.2,0-0.6,0-0.8s0-1.4-0.1-1.5c-0.1-0.2,0.1-0.5,0.1-0.8c0-0.3,0-1.1,0-1.5c0-0.4,0-0.7-0.1-0.9
	c0-0.2,0.1-0.7,0-0.9c0-0.1,0-0.2,0-0.5h-0.5c0,0.5,0,1,0,1.3c0,0.3,0,0.8,0,1.1s0,1,0,1.4c0,0.4,0,3.1,0,3.3c0,0.2,0,0.8,0,1
	c0,0.2,0,0.6,0,0.7s0,0.3-0.2,0.2c-0.2-0.1-0.5,0-0.7,0s-2,0-2,0v-2.6c0,0,1.1-0.1,1.5-0.1s0.9-0.1,0.9-0.1v-0.3
	c0,0-0.8-0.1-1.2-0.1c-0.4,0-1.5,0-1.9,0c-0.4,0-0.6,0-0.7,0s-0.2,0-0.2-0.2s-0.1-2-0.1-2.1s0-0.2,0.1-0.2s1.4,0,1.7,0
	c0.3,0,1.7,0,1.8,0s0.4,0,0.4,0V287c0,0-0.6,0-0.8-0.1c-0.2,0-0.7-0.1-0.9-0.1c-0.2,0-0.2,0-0.3,0c-0.1,0-0.2,0-0.2-0.2
	c0-0.2,0.1-2.3,0.1-2.3s1.3,0,1.6,0c0.3,0,0.6-0.1,0.6-0.1V284c0,0-1.7-0.1-2.2-0.1s-0.7,0-0.9-0.1h-0.4c-0.1,0-0.3,0-0.7,0h-0.1h-1
	c-0.2,0.1-0.3,0.2-0.4,0.2c-0.2,0.1-1.4,0.8-1.6,0.9c-0.1,0.1-0.4,0.1-0.5,0.2c-0.1,0.1-0.7,0.3-0.9,0.5c-0.2,0.1-0.9,0.6-1.1,0.6
	c-0.1,0-1.1,0.6-1.2,0.7c-0.2,0.6-1,1.2-1,1.2l-0.1-0.1c0,0,0-0.4,0-0.5s0-0.3,0-0.4s0-0.3,0.2-0.3c0.2,0,1.3,0,1.3,0s0-0.5,0-0.6
	c0-0.2,0-0.3,0.2-0.3c0.2,0,1.3,0,1.4-0.1c0.1-0.1,0.3,0,0.3-0.2c0-0.2,0-1,0-1s1.3,0,1.5,0c0.1,0,0.3-0.1,0.3-0.2h-3.1
	c-0.4,0.2-0.8,0.4-0.9,0.5c-0.3,0.1-1.2,0.6-1.4,0.6c-0.2,0-0.3-0.1-0.3-0.2c0,0-0.1-0.4-0.2-0.8h-0.6c0.1,0.1,0.1,0.2,0.1,0.3
	c0.1,0.2,0.1,0.6,0.1,0.6s-0.4-0.1-0.5-0.1c-0.1,0-0.2,0-0.2-0.4c0-0.1-0.1-0.2-0.2-0.5L-345.4,284.3z M-340.4,293.2
	c0,0-0.7,0-0.8,0c-0.1,0-0.2,0.1-0.4,0.1c-0.2,0-0.3-0.1-0.9-0.1c-0.4,0-0.7,0-0.7-0.1s-0.1-0.7-0.1-0.9c0-0.2,0.1-0.6,0.1-0.8
	c0-0.2,0-0.4,0-0.4s1,0,1.3,0c0.3-0.1,0.8-0.1,1-0.1c0.3,0,0.3,0,0.4,0.1c0,0.1,0.1,0.3,0.1,0.5
	C-340.4,291.5-340.4,293.2-340.4,293.2 M-342,290.1c0,0.1,0,0.2-0.1,0.2s-0.7,0-0.9,0s-0.2-0.1-0.2-0.2c0-0.2,0-0.6,0-0.7
	s0-0.3,0-0.4s0-0.2,0.1-0.3c0.1,0,1-0.5,1-0.5s0,0.5,0,0.8C-342,289.1-342,290-342,290.1 M-340.8,290.2c-0.3,0-0.6,0.1-0.6,0.1
	l-0.1-0.1c0-0.1,0.1-2,0.1-2.1s0-0.2,0-0.2s0.7-0.1,1-0.1c0.3,0,0.8,0,1.1,0.1c0.2,0,0.3-0.1,0.4-0.1s0.2,0,0.2,0v2.5
	c0,0-0.9,0-1.2,0C-340.3,290.3-340.6,290.2-340.8,290.2 M-337.1,286.6c0,0.2,0,0.6,0,0.6s-1.2,0.1-1.5,0.1c-0.3,0-0.9,0-1,0
	s-0.2-0.1-0.4-0.1s-0.6,0-0.6,0s0.6-0.3,0.8-0.5c0.2-0.2,0.6-0.3,0.8-0.4c0.3-0.1,0.2-0.2,0.7-0.4c0.4-0.2,1.2-0.6,1.2-0.6
	s0.1,0.1,0.1,0.2s-0.1,0.4-0.1,0.5C-337.1,286.3-337.1,286.3-337.1,286.6 M-340,291.1c0-0.2,0.2-0.3,0.3-0.3c0.1,0,0.7,0,0.9-0.1
	c0.2,0,1.5,0,1.5,0c0.1,0,0.2,0,0.2,0.1c0,0.1,0,0.5,0,0.8c0,0.3,0,1.4,0,1.5s-0.1,0.2-0.3,0.2c-0.5,0-0.9,0.1-1.1,0.1
	s-0.6-0.1-0.8,0c-0.1,0-0.3-0.1-0.4,0c-0.1,0-0.2,0-0.2-0.1c0-0.1,0-0.8-0.1-1.1C-340.1,291.7-340,291.2-340,291.1 M-338.3,290.2
	v-2.5c0,0,0.8-0.1,1.2-0.1s1.4,0,1.5,0.1c0.1,0,0.2,0,0.2,0.1c0,0.1,0,1.4,0,1.7c0,0.2,0,0.4,0,0.5s0.1,0.1,0,0.2
	c-0.1,0.1-1.3,0-1.6,0C-337.5,290.2-338.3,290.2-338.3,290.2 M-336.6,286.1c0-0.2,0.1-0.7,0-0.8c-0.1-0.1-0.1-0.2,0-0.3
	s0.3-0.2,0.4-0.2c0.1,0,0.3-0.1,0.5-0.1c0.4,0.1,1.4,0,1.7,0c0.1,0,0.2,0,0.2,0.2c0,0.2,0,2,0,2.1s0,0.2-0.1,0.2s-1.4,0-1.6,0
	c-0.2,0-1.1,0-1.1,0S-336.6,286.5-336.6,286.1 M-336.7,291.3c0-0.1,0.1-0.3,0.1-0.3c0-0.1,0-0.2,0-0.2s1-0.1,1.4-0.1
	c0.4,0,1.4,0.1,1.4,0.1s0,0.9,0,1.2s0,1.3,0,1.3s-1.2,0-1.5,0c-0.3,0-0.7,0-0.9,0c-0.2,0-0.4,0-0.4-0.3
	C-336.7,292.7-336.7,291.4-336.7,291.3 M-356.8,286.3c0.2,0.2,0.2,0.8-0.2,0.9c-0.3,0.1-0.8,0.1-1-0.1c-0.2-0.2-0.3-0.2-0.3-0.6
	c0.1-0.4,0.5-0.5,0.7-0.5C-357.2,286-357,286.1-356.8,286.3 M-344.7,285.7c0.2-0.1,0.7-0.1,0.9-0.1c0.2,0,0.5,0.3,0.4,0.7
	c-0.1,0.4-0.3,0.6-0.7,0.6c-0.5,0-0.6-0.1-0.8-0.2C-345.1,286.4-344.9,285.8-344.7,285.7 M-361,292.2c0-0.3,0-1.1,0-1.2
	c0-0.2,0.1-0.2,0.2-0.2c0.1,0,0.5,0,0.7,0c0.2,0,0.6,0,0.9,0c0.2,0,0.7,0,0.7,0s0.1,1,0.1,1.3c0,0.3,0,0.7,0,0.8s-0.1,0.2-0.2,0.2
	s-0.6,0.1-1.1,0.1c-0.3,0-0.7,0-0.9,0.1c-0.2,0-0.5,0-0.5,0S-361,292.5-361,292.2 M-359.5,288.1c0-0.1,0-0.1,0.1-0.1
	s0.7,0.4,0.7,0.5s0.1,0.2,0.1,0.3c0,0.1,0,1,0.1,1.1c0,0.1,0.1,0.2-0.1,0.3c-0.2,0-0.7,0-0.8,0s-0.1-0.1-0.1-0.2
	C-359.4,290-359.4,288.3-359.5,288.1 M-364.3,285.3C-364.3,285.2-364.3,285.2-364.3,285.3c0.2-0.1,0.7,0.2,0.9,0.3
	c0.2,0.1,0.2,0.2,0.3,0.2s0.2,0,0.3,0.1c0.1,0.1,0.5,0.4,0.7,0.5c0.2,0.1,1.1,0.6,1.1,0.7c0.1,0.1,0.2,0.2,0,0.2
	c-0.3,0-1.2-0.1-1.4,0c-0.3,0-1,0.1-1.3,0c-0.3-0.1-0.7,0-0.7,0s0-0.6,0-0.9C-364.2,286.1-364.2,285.5-364.3,285.3 M-364.8,286.6
	c0,0.2,0,0.6,0,0.6s-1.1,0.1-1.5,0.1c-0.3,0-1.1,0-1.2,0s-0.1,0-0.1-0.1c0-0.1,0-1.9,0-2.1c0-0.2,0-0.2,0.1-0.2c0.2,0,2.4,0,2.5,0
	s0.2,0,0.1,0.2C-364.8,285.1-364.7,286.4-364.8,286.6 M-367.6,291.8c0-0.1,0.1-0.9,0-1c0-0.1,0-0.1,0.1-0.1s1-0.1,1.4-0.1
	c0.3,0,1,0.1,1.1,0.1c0.2,0,0.2,0,0.2,0.1c0,0.1,0.1,2,0,2.1c0,0.1-0.1,0.2-0.1,0.3c0,0.1,0,0.1-0.1,0.1s-0.9,0-1,0
	c-0.2,0-0.3,0.1-0.3,0.1c-0.1,0-0.2,0-0.3-0.1c-0.1,0-1,0-1,0S-367.6,292-367.6,291.8 M-365.7,290.2c-0.1,0-0.2-0.1-0.2-0.2
	s0-1.2,0-1.4c0-0.3,0-0.9,0-0.9s0.7,0,1.2-0.1c0.5,0,1.7,0,1.7,0v2.5c0,0-0.5,0-0.9,0C-364.4,290.3-365.6,290.2-365.7,290.2
	 M-364.3,293.3c0-0.2,0-1.1,0-1.4c0-0.2,0-0.6,0-0.7c0-0.1,0-0.3,0-0.4c0-0.1,0-0.1,0.1-0.1c0.1,0,0.7,0,0.8,0s0.1,0,0.2,0
	c0.1,0,0.7,0,0.9,0c0.2,0,0.4,0,0.5,0.1c0.1,0.1,0.1,0,0.2,0c0,0,0.2,0.1,0.2,0.3c0,0.1,0,1-0.1,1.2c-0.1,0.2-0.1,1.1-0.1,1.1
	s-0.6,0.1-1,0.1c-0.3,0-0.5,0-0.6,0c-0.1,0-0.7,0-0.9,0C-364.1,293.4-364.3,293.4-364.3,293.3 M-361.6,290.2c-0.4,0-1,0-1,0v-2.5
	c0,0,1.4,0,1.8,0c0.4,0,0.7,0,0.9,0c0.2,0,0.1,0.1,0.1,0.1s0,2.2,0,2.3s0,0.1-0.1,0.1C-360,290.3-361.2,290.2-361.6,290.2"/>
<path class="st0" d="M-377.8,284.3c0-0.3-0.1-0.6-0.1-0.7c0-0.4-0.1-1.7-0.1-2c0-0.3,0-1.7,0-2.2c0-0.6,0.2-2,0.3-2.3
	c0.1-0.3,0.3-1.7,0.4-2c0.1-0.3,0.5-2.2,0.6-2.4c0.1-0.2,0.2-0.8,0.3-1c0.2-0.4,0.6-1.4,0.6-1.5c0.1-0.2,0.4-1.1,0.5-1.2
	c0-0.1,0.5-0.8,0.5-0.9c0.1-0.2,0.2-0.2,0.3-0.3c0.1-0.1,0.4-0.9,0.7-1.5c0.4-0.6,1.3-1.7,1.6-2.2c0.1-0.2,0.5-0.7,0.4-0.6l0,0l0,0
	c0.1-0.1,0.6-0.6,0.6-0.7c0.1-0.1,0.1,0,0.1,0.1s0,1.2,0,1.3c0,0.1,0,0.1,0,0.1s-0.2,0.2-0.2,0.4c0,0.2,0.1,0.5,0.2,0.7
	c0.1,0.2,0.6,0.5,0.7,0.6s0.1,0.2,0.1,0.3c0,0.1,0,0.6,0,1.1c0,0.4,0,1.2,0,1.4c0,0.3,0,1.1,0,1.2s-0.1,0.1-0.1,0.1
	s-0.3,0.1-0.6,0.1s-0.6,0.3-0.7,0.4c-0.1,0.1,0,0.7,0,0.9s0,2.1,0,2.3c0,0.2,0,1.1,0,1.2s0,0.2-0.1,0.2c-0.1,0-0.3,0.2-0.4,0.4
	c-0.1,0.1-0.1,0.5,0,0.6c0.1,0.1,0.3,0.4,0.6,0.6c0.3,0.3,0.6,0.5,0.6,0.5l0.1,0.1c0,0,0,0.7,0,0.9c0,0.1-0.1,0.1-0.1,0.2
	c0,0-1.2,1.2-1.4,1.4c-0.2,0.2-0.2,0.3-0.1,0.4c0.2,0.2,0.9,0.8,1,0.9c0.1,0.1,0.1,0.2,0.1,0.3s0,2.4,0,2.8c0,0.1,0,0.2,0,0.3h0.5
	c0-0.3,0-0.9,0-1.1c0-0.3,0-2,0-2s0.9,0.5,1.1,0.6c0.2,0.1,0.8,0.5,1,0.6c0.2,0.1,1,0.6,1.2,0.7c0.2,0.1,0.6,0.2,0.8,0.4
	c0.2,0.2,0.6,0.4,0.7,0.5c0.1,0,0.3,0.2,0.4,0.2h0.9c-0.1-0.1-0.3-0.3-0.5-0.4c-0.2-0.1-0.9-0.4-1.1-0.5c-0.2-0.1-0.9-0.6-0.9-0.6
	s-0.1,0-0.2-0.1c-0.1-0.1-0.3-0.3-0.6-0.4c-0.2-0.1-1-0.6-1.2-0.7c-0.1-0.1-0.8-0.6-1.1-0.7c-0.3-0.1-0.3-0.3-0.4-0.4
	c-0.2-0.1-0.7-0.5-0.8-0.5c-0.1-0.1-0.1-0.1,0-0.2s0.9-1,0.9-1s0.1,0.7,0,0.9c0,0.1,0.1,0.3,0.2,0.2s1.5,0,1.5,0s0,0.7,0,0.8
	c0,0.3,0,0.4,0.3,0.3c0.3-0.1,1.1,0,1.2,0s0.3,0,0.3,0.2c0,0.1,0,0.5,0,0.7c0,0.2,0,0.2,0.2,0.2s1.5,0,1.5,0s0,0.6,0,0.8
	c0,0.2,0,0.3,0.4,0.3c0.3,0,1.1,0,1.2,0s0.2,0.1,0.2,0.2s0,0.4,0,0.6v0.1h2.9c-0.3-0.2-0.6-0.4-0.7-0.4c-0.2-0.1-0.3-0.2-0.5-0.3
	s-0.9-0.3-1-0.5c-0.1-0.2-0.8-0.5-1.1-0.8c-0.3-0.3-1.5-0.8-1.8-1.1c-0.3-0.3-0.8-0.4-0.8-0.5c-0.1-0.1-0.6-0.6-0.9-0.6
	c-0.3-0.1-0.1-0.2-0.2-0.2c-0.1,0-0.6-0.1-0.6-0.2c-0.1-0.1-0.7-0.5-1-0.6c-0.2-0.1-1.1-0.7-1.1-0.7s0-1,0-1.2
	c0-0.1,0.2-0.2,0.3-0.2c0.1,0,1.5,0,1.8,0.1c0.2,0,1.9,0.2,2.2,0.2c0.3,0,0.8,0,0.8,0l0.1,0.6c0,0,0.2-0.4,0.5-0.5
	c0.3-0.1,0.7-0.2,1.3,0.2c0.8-0.4,0.8-0.3,1-0.3s0.5,0,0.7,0.7c0.1-0.4,0.3-0.6,0.5-0.6c0.2,0,0.7,0,0.7,0s-0.2,0.3-0.2,0.7
	c0,0.3,0,0.6,0,0.6s0.3-0.8,0.5-1c0.3-0.1,0.8-0.3,1.1-0.2c0.2,0.1,0.6,0,0.8,0.1c0.1,0.1,0.6,0.6,0.6,1.2c0.1-0.8-0.1-1.1-0.3-1.4
	c0.5,0,0.9,0.1,1.1,0.1s0.4,0,0.6,0c0.2,0,0.3,0.1,0.2,0.3c-0.1,0.2-0.4,1.5-0.4,1.5s0.8-1.1,1-1.4c0.2-0.3,1.1-1.3,1.1-1.3
	s-0.7,0.1-0.9,0.1c-0.2-0.1-1.6,0-2.1,0s-2.3,0.2-3.3,0c-1-0.1-2.1-0.1-2.5-0.1c-0.5,0-2.7-0.2-3.2-0.1c-0.5,0-1.3,0-1.8-0.1
	s-1.2,0-1.5,0c-0.3,0-0.8-0.2-1-0.2c-0.1,0-0.4-0.1-0.6-0.2c-0.1-0.1,0-0.4,0.2-0.4c0.2,0,1.2,0.1,1.7,0.1s2.3,0.1,2.8,0.1
	s1.8,0,2.6,0.1c0.8,0,2.1-0.1,2.6,0c0.5,0,1,0.1,1.6,0.1s2.5-0.1,3.1-0.1c0.6,0,3.5,0,3.5,0s1.2-1,1.5-1.1c0.3-0.2,0.6-0.4,0.8-0.5
	c0.2-0.1,0.4-0.2,0.6-0.2c0.1,0,0.7,0.5,0.9,0.7c0.2,0.2,1.1,1,1.3,1.1c0.2,0.1,0.5,0.1,0.6,0.1s1.8,0,2.4,0c0.6,0,3.3-0.1,3.7-0.1
	s4.3,0,4.7,0c0.3,0,1.2-0.1,1.5-0.1c0.3,0,2.2-0.1,2.5-0.2c0.3,0,0.5,0,0.9,0s0.5,0,0.7,0c0.2,0,0.4,0.2,0.2,0.3
	c-0.2,0.2-0.2,0.3-0.7,0.3s-1.1,0-1.9,0.1c-0.8,0.1-2.5,0.2-3.3,0.2s-3,0.1-4.1,0.1c-1.1,0-6.1,0-6.1,0s0.8,0.9,1,1.2
	c0.2,0.3,1.2,1.6,1.2,1.6s-0.2-1.2-0.2-1.4c0-0.1,0.1-0.2,0.2-0.3c0.1,0,0.9,0,1.1,0s0.3,0.1,0.3,0.3c0,0.2,0,1,0,1s0.2-1,0.8-1.2
	c0.6-0.2,0.9-0.1,1.1,0c0.2,0,0.6,0.1,0.7,0.4c0.1,0.3,0.3,0.6,0.3,0.6s0.1-0.7,0-0.9c0-0.2,0-0.3,0.2-0.3s0.5-0.1,0.8,0.1
	c0.3,0.2,0.3,0.6,0.3,0.6s0-0.4,0.3-0.6c0.8-0.4,1.3,0.2,1.3,0.2s0.2-0.3,0.8-0.3s0.9,0.6,0.9,0.6l0.1-0.6c0,0,1-0.1,1.8-0.2
	c0.8-0.1,2.4-0.1,2.7-0.2c0.3,0,0.5,0,0.5,0.2c0,0.2,0,0.8,0,0.9s0,0.2-0.1,0.3c-0.1,0.1-0.9,0.6-1.2,0.7c-0.3,0.1-0.4,0.3-0.6,0.3
	c-0.2,0.1-0.6,0.4-0.9,0.5c-0.2,0.1-0.9,0.6-1.3,0.8c-0.4,0.2-1.1,0.6-1.5,0.8c-0.4,0.2-1.6,1.1-2,1.2c-0.3,0.1-0.7,0.4-0.9,0.5
	c-0.1,0-0.8,0.5-1.5,0.8h3.1l0,0c0-0.2,0-0.4,0-0.5s0-0.1,0.1-0.1c0.1,0,1.2-0.1,1.4-0.1c0.2,0,0.3-0.1,0.3-0.3c0-0.2,0-0.6,0-0.6
	s0-0.2,0.1-0.2s1-0.2,1.4,0c0.2,0.1,0.2-0.1,0.2-0.2c0-0.1,0-0.5,0-0.6c0-0.1,0.1-0.2,0.3-0.3c0.2,0,1,0,1.2,0
	c0.2,0,0.3-0.1,0.3-0.2v-0.7c0-0.1,0.1-0.2,0.3-0.2c0.2,0,1.6-0.1,1.6-0.1s0-0.7,0.1-1c0-0.3,0.2-0.5,0.3-0.2
	c0.2,0.2,0.4,0.4,0.5,0.6c0.1,0.2,0.3,0.7,0.3,0.7s-0.6,0.4-0.9,0.6c-0.2,0.2-0.9,0.7-1.1,0.7c-0.2,0.1-0.6,0.2-0.8,0.4
	c-0.2,0.2-1.6,1-1.8,1.1c-0.2,0.1-0.9,0.6-1,0.6s-0.5,0.3-0.7,0.4c-0.1,0.1-0.4,0.3-0.7,0.4h1c0,0,0,0,0.1-0.1
	c0.1-0.1,0.8-0.5,1.2-0.7c0.4-0.1,0.8-0.5,1.1-0.6c0.2-0.1,0.8-0.6,1-0.6c0.2-0.1,1.4-0.8,1.4-0.8s0.1,0.5,0.1,0.8
	c0,0.4,0.1,1.1,0,1.5c0,0.1,0,0.3,0,0.5h0.5c0-0.9,0-2.8,0-2.9c0-0.2,0-0.3,0.2-0.4c0.1-0.1,0.9-0.6,1-0.7c0.1-0.1,0.2-0.1,0.1-0.3
	c-0.1-0.2-0.5-1-0.8-1.3c-0.2-0.3-0.5-0.6-0.6-0.8s-0.3-0.5-0.4-0.5c0,0-0.1-0.1-0.1-0.3c0-0.1,0-0.2,0-0.3s-0.1-0.1-0.2-0.2
	c-0.1,0-0.2-0.1-0.1-0.2c0.1-0.1,0.3-0.3,0.3-0.6c0-0.2,0.1-0.5-0.1-0.7c-0.1-0.1-0.1-0.1-0.1-0.2s0-0.3,0-0.4c0-0.1,0-0.3,0-0.4
	c0-0.1,0-0.8,0-1c0-0.2,0.1-1,0.1-1.4c0-0.3,0-0.7-0.1-1c-0.1-0.3-0.3-0.5-0.7-0.5c-0.3,0-0.3-0.2-0.3-0.4s0-0.6,0-0.9s0-1.6,0-1.8
	c0-0.3,0.1-1.3,0-1.4c0-0.1,0-0.2,0.1-0.3c0.1-0.1,0.6-0.6,0.7-0.7c0.1-0.2,0.3-0.4,0.2-0.6c0-0.1-0.1-0.3-0.1-0.3
	c-0.1,0-0.1-0.1-0.1-0.2c0-0.1,0.1-0.9,0-1.1c0-0.1,0.1-0.1,0.2,0c0.1,0.1,0.5,0.6,0.7,0.7c0.2,0.1,0.3,0.3,0.3,0.4
	c0.1,0.1,0.4,0.5,0.6,0.7c0.2,0.2,0.6,0.9,0.8,1.2c0.2,0.4,1.1,1.5,1.3,2c0.2,0.5,1,2.1,1.1,2.3c0.1,0.2,0.3,0.8,0.4,1
	c0.1,0.2,0.6,1.2,0.7,1.9c0.1,0.7,0.5,1.6,0.6,2c0,0.4,0.4,2.5,0.4,3.2s0.2,2,0.2,2.7c0,0.7-0.1,2.7-0.2,3.6h0.7
	c0.1-1.2,0.2-2.3,0.2-3.5c0-15.4-12.5-27.9-27.9-27.9c-15.3,0-27.8,12.5-27.8,27.9c0,1.2,0.1,2.4,0.2,3.5H-377.8z M-357.6,284.3
	c0-0.4,0.1-0.7,0.2-1c0.3-0.6,0.4-1,0.5-1.1c0-0.1,0.2-0.2,0.2-0.2v-0.1c0,0,0.4-0.9,0.6-1c0.4-0.3,0.5-0.9,0.7-1.1
	c0.2-0.2,1.9-1.9,2-2.1c0.3-0.4,2-1.6,2.2-1.8c0.2-0.2,0.4-0.4,0.7-0.2c0.2,0.2,0.9,0.8,1.1,1c0.4,0.4,1.3,1.3,1.7,1.7
	c0.3,0.5,0.7,0.5,0.8,0.7s0.3,0.7,0.6,0.9c0.3,0.2,0.3,0.5,0.4,0.8c0.2,0.3,0.7,1.1,0.9,1.6c0.1,0.3,0.4,0.6,0.5,0.8
	c0,0.2,0.3,0.8,0.4,1.2h0.6c-0.1-0.6-0.3-1.4-0.7-1.9c-0.6-0.9-0.3-0.9-0.4-1s-0.2-0.4-0.3-0.5s-0.1-0.4-0.2-0.5s-0.3-0.3-0.4-0.4
	s0-0.2-0.2-0.4c-0.1-0.2-1.1-1.4-1.4-1.8c-0.3-0.4-1-1.1-1.2-1.3c-0.3-0.2-0.7-0.7-1-0.9c-0.3-0.2-0.5-0.3-0.7-0.5
	c-0.1-0.1-0.3-0.4-0.6-0.4c-0.2,0-0.7,0.3-0.9,0.5c-0.2,0.1-0.9,0.8-1.1,0.9c-0.2,0.1-0.6,0.5-0.8,0.7c-0.2,0.2-1,1-1.3,1.3
	c-0.3,0.3-1.4,1.7-1.5,2c-0.1,0.2-0.7,1.1-1,1.7c-0.3,0.6-0.6,1.9-0.7,2.6h0.3V284.3z M-356.4,284.3c0.1-0.4,0.3-0.9,0.4-1.1
	c0.2-0.3,0.5-0.7,0.6-1c0.1-0.3,0.4-0.6,0.5-0.6c0.1-0.1,0.4-0.6,0.6-0.8c0.2-0.2,1.3-1.4,1.3-1.4s-0.2,0.9,0.5,0.9
	c-0.1-0.4,0-1.4,0.8-1.4c-0.2-0.7,0.6-1,1-1c0.4,0,1,0,1,1c0.7,0.1,1,0.8,0.7,1.5c0.3,0,0.4-0.4,0.5-0.7c0.5,0.4,0.2,0.3,0.4,0.4
	c0.2,0.2,0.5,0.6,0.7,0.9c0.2,0.3,0.6,0.6,0.8,0.9c0.2,0.3,0.8,1.1,0.9,1.4c0.1,0.3,0.3,0.8,0.4,1.1h0.4c-0.1-0.3-0.3-0.7-0.4-0.9
	c-0.1-0.4-0.5-1.1-0.6-1.3c-0.1-0.2-0.4-0.8-0.6-1c-0.1-0.2-0.2-0.5-0.4-0.7c-0.2-0.1-0.4-0.6-0.6-0.7c-0.1-0.2-0.3-0.5-0.5-0.6
	c-0.2,0-0.3-0.3-0.4-0.4c-0.1-0.1-0.3-0.6-0.5-0.7c-0.2-0.2-0.5-0.4-0.6-0.6c-0.1-0.2-0.5-0.3-0.6-0.5c-0.1-0.2-0.3-0.3-0.5-0.5
	c-0.1-0.1-0.3-0.1-0.5,0.1c-0.2,0.2-0.6,0.5-0.8,0.6c-0.1,0.1-1.1,1-1.4,1.4s-1,1.1-1.3,1.4c-0.3,0.3-0.5,0.6-0.6,0.8
	c-0.1,0.2-0.4,0.8-0.6,1c-0.1,0.2-0.4,0.8-0.6,1.1c-0.1,0.2-0.4,1.1-0.5,1.6L-356.4,284.3z M-334.1,284.3c-0.1,0-0.1,0-0.2,0
	c-0.1,0-0.1,0-0.2,0H-334.1z M-331.2,264.3c-0.2,0.2-0.4,0.4-0.4,0.4s-0.9,0.1-1.2,0.1c-0.3,0-2.1,0.1-2.9,0.1c-0.7,0-2.4,0-2.7,0
	c-0.3,0-0.7,0-0.8-0.1c-0.1-0.1-0.5,0-0.7,0c-0.2,0-0.3-0.2-0.4-0.3c-0.1-0.1,0-0.1,0.1-0.2c0.2,0,1.5-0.1,1.8-0.1c0.3,0,0.7,0,1,0
	c0.3,0,1.5,0,2.1,0s1.3-0.1,1.9-0.1c0.6,0,1.6,0,1.8-0.1C-331.4,263.9-331,264.2-331.2,264.3 M-369.8,269.3c0-0.3,0-1.2,0-1.5
	c0-0.2,0-0.8,0-1.1V266c0,0,0.7,0.1,1.1,0.1c0.4,0,0.6,0,0.8,0c0.2,0,0.3,0,0.2,0.2c-0.1,0.2-0.4,0.9-0.3,1.5
	c0.1-0.7,0.4-1.3,0.7-1.4c0.4-0.2,0.8-0.4,1.2-0.4s0.9,0.1,1.2,0.6c0.4,0.6,0.3,0.8,0.4,1.3c0.1-0.5,0.2-1.1,0-1.6
	c-0.1-0.2-0.1-0.3,0.2-0.2c0.2,0,1,0.1,1.4,0c0.3,0,0.5,0,0.6,0s0.3,0,0.2,0.4c0,0.3,0,2.2,0,2.7s0,1.8,0,2c0,0.2,0.1,0.3-0.3,0.3
	c-0.2,0-1.2,0-1.4,0.1c-0.3,0-1.3,0.1-1.7,0.1s-1.3,0-1.3,0s0.8,0.2,1,0.3c0.2,0,0.8,0.1,1,0.1c0.2,0,0.5,0.5,0.1,0.5
	c-0.4,0-1.6,0-1.8-0.1c-0.2-0.1-0.5,0-0.6,0c-0.2,0-0.2-0.3-0.3-0.5c0-0.2,0-0.4-0.2-0.4c-0.2-0.1-1.8-0.1-1.9-0.1s-0.2-0.1-0.2-0.2
	C-369.9,270.8-369.8,269.6-369.8,269.3 M-361,275.5c-0.3,0-1.9,0-2.3,0c-0.4,0-0.8-0.1-0.8-0.1s0-3.4,0-3.5c0-0.2,0.1-0.2,0.2-0.2
	s1,0,1.4,0s1.3,0.1,1.5,0c0.2-0.1,0.3,0,0.3,0.3c0,0.2,0,3,0,3.2C-360.7,275.4-360.6,275.5-361,275.5 M-365.9,274.6
	c0.6,0.1,1.2,0.1,1.2,0.1s-0.2,0.2-0.9,0.1c-0.5,0-1.8-0.1-1.8-0.1v-0.2C-367.3,274.5-366.5,274.5-365.9,274.6 M-367.3,273.9v-0.3
	c0,0,2.2,0.1,2.3,0.1c0.2,0,0.4,0.1,0.1,0.4c-0.1,0.1-0.7,0-0.8,0c-0.2,0-1.4,0-1.5-0.1C-367.3,274-367.3,273.9-367.3,273.9
	 M-365.5,273.2c-0.3,0-1-0.1-1.2-0.2c-0.3,0-0.5-0.1-0.5-0.1v-0.4c0,0,0.9,0.2,1.2,0.2s1.6-0.1,1.6-0.1s0.1,0.4-0.1,0.5
	C-364.8,273.3-365.2,273.2-365.5,273.2 M-369.6,271.7c0.3,0,0.6,0,0.8,0.1c0.2,0,0.3,0,0.3,0.3c0,0.2,0.1,1,0,1.3
	c0,0.3,0.1,0.9,0,1.1c0,0.2-0.1,0.4,0,0.5c0,0.1,0.1,0.3-0.1,0.3c-0.3,0-2.1-0.1-2.3-0.1c-0.2-0.1-0.3-0.2-0.3-0.3s0-1.5,0-1.7
	c0-0.2,0-1.5,0-1.5S-370,271.7-369.6,271.7 M-357.6,262.5c-0.1-0.1-0.4-0.7-0.4-0.7s0.8,0.7,0.9,0.7s0.1,0,0.1-0.1s-0.2-0.6-0.2-0.6
	s0.6,0.6,0.7,0.7s0.1,0.2,0.3,0.2c0.2,0,0.2-0.1,0.2-0.2s-0.2-0.6-0.2-0.6s0.4,0.5,0.5,0.6c0.1,0.1,0.2,0.2,0.3,0.2h0.4
	c0,0-0.3-1-0.5-1.1s-0.4,0-0.4,0s-1.9,0-2.2-0.1c-0.3-0.1-0.7-0.4-0.8-0.5s0-0.2,0.4-0.2c0.2,0,1.2,0,1.6,0s1.8,0,2.3,0s2.3,0,3,0
	c0.7,0,1.8,0,2.7,0s2.5-0.1,3.3-0.1c0.8,0,2.2,0,2.6-0.1c0.5,0,0.9,0.1,0.6,0.4c-0.3,0.3-0.7,0.3-1,0.3c-0.3,0-2.2,0.1-2.4,0.1
	c-0.2,0-0.3,0.3-0.4,0.6s-0.3,0.6-0.2,0.6c0.1,0,0.3,0.1,0.4,0c0.1-0.1,0.5-0.7,0.8-0.9c-0.1,0.4-0.3,0.8-0.3,0.8h0.5
	c0,0,0.4-0.6,0.6-0.8c-0.5,0.5-0.6,0.8-0.6,0.8h0.4c0,0,0.6-0.6,0.9-0.7c0.3-0.2-0.3,0.6-0.3,0.7s0.2,0.2,0,0.4
	c-0.2,0.2-0.3,0.3-0.8,0.3s-2.1,0-2.7,0.1c-0.6,0-2.4,0-2.9,0s-2.1,0-2.8,0.1c-0.7,0.1-2.2,0-2.8-0.1c-0.6,0-0.9,0-1.1-0.1
	c-0.2-0.1-0.3-0.1-0.4-0.3C-357.6,262.7-357.5,262.6-357.6,262.5 M-359.2,259.1c0-0.3,0-0.8,0-1c0-0.2,0-0.3,0.2-0.3s1.6,0,1.7,0
	c0.3,0,0.5,0,0.4,0.3c0,0.2,0,1.8,0,2c0,0.2,0,0.3-0.3,0.4c-0.2,0-1.6-0.1-1.7,0c-0.2,0-0.4,0-0.3-0.1
	C-359.3,260.1-359.2,259.3-359.2,259.1 M-354.7,259.5c0-0.3,0-1.4,0-1.6c0-0.2,0.1-0.2,0.3-0.2c0.2,0,1.8,0,2,0c0.2,0,0.3,0,0.3,0.3
	s0,1.7,0,2s0,0.5,0,0.5s-0.9,0-1.3,0c-0.3,0-1.4,0-1.4,0S-354.7,259.8-354.7,259.5 M-349.7,258c0-0.2,0-0.2,0.3-0.2c0.3,0,2,0,2.2,0
	c0.2,0,0.3,0,0.3,0.2s0.1,2,0.1,2.2c0,0.1,0,0.3-0.2,0.3c-0.1,0-2.1,0.1-2.3,0.1c-0.2,0-0.3,0-0.3-0.2c0-0.2,0-0.9,0-1.2
	C-349.7,258.8-349.6,258.2-349.7,258 M-345.1,260c0-0.3,0-2.4,0-2.4s1.9,0,2.1,0s0.4-0.1,0.4,0.3c0,0.3,0,2,0,2.1s0,0.3-0.2,0.3
	c-0.3,0-1.9,0.1-2,0.1C-344.9,260.4-345.1,260.2-345.1,260 M-345.2,275.3c-0.2-0.1-0.6,0-0.8,0h-1.8c-0.3,0-0.4,0-0.4-0.2
	c0-0.2,0.1-1.3,0.1-1.7s0-0.9,0-1.2c0-0.3,0.1-0.3,0.4-0.3c0.5,0,2.3-0.1,2.5,0c0.3,0,0.3,0,0.3,0.3c0,0.3,0,2.6,0,2.8
	C-345,275.1-344.9,275.4-345.2,275.3 M-348.6,272.1v0.1c0,0-1,0.1-1.3,0.2c-0.3,0-0.6,0.1-0.6,0.1s0.7,0.1,1,0.1s0.8,0,0.8,0v0.3
	c0,0-1.5,0.2-2,0.2c-0.6,0-2.1-0.1-2.1-0.1l-0.2-0.2c0,0,0.4,0,0.7-0.1c0.3,0,0.9-0.2,0.9-0.2s-1.2-0.2-1.6-0.2
	c-0.3,0-0.3-0.2-0.1-0.2c0.2,0,1.5-0.3,1.5-0.3s-1-0.1-1.4-0.1s-1,0-1.2-0.1c-0.3,0-0.4-0.2-0.3-0.4c0-0.2,0.1-0.5,0-0.7
	c0-0.2,0.1-0.4,0.3-0.5c0.2-0.1,0.9-0.2,1.2-0.2s0.5-0.1,0.5-0.1s-0.6-0.1-0.8-0.2c-0.2-0.1-0.3-0.3-0.3-0.4c0-0.1,0-1.1,0-1.2
	c0.1-0.1,0.4-0.3,0.8-0.3c-0.2-0.1-0.8-0.1-1.2-0.1s-0.5-0.1-0.6-0.2c0-0.2-0.1-1.2,0-1.4c0.1-0.2,0.3-0.2,0.7-0.3
	c0.4,0,0.8-0.2,0.8-0.2s-0.3-0.1-0.4-0.2c-0.2-0.1-0.1-1-0.1-1.2s0.2-0.4,0.3-0.4c0.2,0,0.5-0.1,0.6,0c0.2,0,0.2,0.2,0.2,0.3
	s-0.1,1.3-0.1,1.3s0.2-1.5,0.9-1.7c0.6-0.2,1.2-0.2,1.4-0.1c0.2,0.1,0.6,0.5,0.6,0.9c0.1,0.4,0.2,1.1,0.2,1.1s0.1-0.4,0.1-0.6
	c0-0.2,0-0.8,0-1c0-0.1,0.1-0.2,0.2-0.2c0.1,0,0.4,0,0.5,0c0.2,0,0.3,0.1,0.3,0.3s0,0.9,0,1.1c0,0.1-0.5,0.3-0.5,0.3
	s0.7,0.2,0.9,0.2s0.7,0,0.7,0.6s0,0.8,0,0.9s0.1,0.5-0.2,0.5s-1.7,0.1-1.7,0.1s0.7,0.1,0.7,0.2c0.1,0.1,0.1,0.5,0,1
	c0,0.7,0,0.9-0.3,0.9c-0.4,0.1-0.8,0.2-0.8,0.2s1,0.1,1.3,0.1h0.6c0.1,0,0.3,0.1,0.3,0.3c0,0.2,0,0.8,0,0.9c0,0.1-0.1,0.3-0.3,0.3
	c-0.2,0-2.7,0.3-2.7,0.3L-348.6,272.1z M-348.8,273.5c0,0-0.6,0.1-1.1,0.2c-0.5,0.1-1.2,0-1.7,0s-1.3-0.2-1.3-0.2s1.1-0.3,1.8-0.3
	C-350.4,273.4-348.8,273.5-348.8,273.5 M-353.6,275c0,0.2-0.1,0.3-0.3,0.3c-0.2,0-2.6,0-2.8,0c-0.2,0-0.3,0-0.4-0.2
	c0-0.2,0-0.9,0-1.4s0-1.2-0.1-1.3c0-0.1,0-0.2,0.2-0.2s1,0,1.6,0c0.5,0,1-0.1,1.3-0.1c0.2,0,0.4,0,0.4,0.2c0,0.2,0,0.8,0,1.4
	C-353.7,274.3-353.6,274.8-353.6,275 M-357,268.8c0-0.2,0-0.8,0-0.9s0.1-0.5,0.1-0.7c0-0.2,0-0.8,0-1c0-0.2,0-1.4,0-1.7s0-0.6,0-0.7
	c0-0.1,0.1-0.2,0.3-0.2c0.2,0,0.6,0,1.2,0.1c0.6,0,1.4,0,1.4,0s0,1.2,0,1.3s0,0.2-0.2,0.2c-0.2,0-2.2,0.2-2.2,0.2v0.2
	c0,0,0.8,0.1,1.1,0.1c0.3,0,0.3,0.2,0.3,0.3s0,0.4,0,0.6c0,0.3,0,0.5,0,0.6c0,0.1-0.2,0.2-0.3,0.2c-0.1,0-1.2,0.1-1.2,0.1v0.3
	c0,0,0.7,0,1,0s0.7,0,0.9,0c0.1,0,0.3,0.1,0.4,0.1c0.1,0,0.2,0.1,0.2,0.3c0,0.2,0,1,0,1.1c0,0.1-0.2,0.3-0.4,0.3
	c-0.2,0-1.7,0.2-1.8,0.2c-0.1,0-0.4,0-0.4,0v0.2c0,0,0.7,0,0.9,0c0.2,0,0.7,0.1,0.7,0.1s0.1,1.1,0,1.3c-0.1,0.2-0.1,0.4-0.5,0.4
	c-0.3,0-1.3,0-1.4,0s-0.2,0-0.2-0.1c0-0.1,0.1-1.8,0.1-2.1C-357,269.2-357,269-357,268.8 M-345.2,271.5c-0.2,0-1,0-1.2,0
	c-0.2,0-0.3-0.1-0.3-0.3c0-0.2,0-0.7,0-0.9c0-0.2,0.2-0.3,0.4-0.3c0.2,0,0.3,0,0.5-0.1c0.1,0,0.4,0,0.4,0v-0.2l-2.6-0.1
	c0,0,0-1.4,0-1.6s0.4-0.2,0.6-0.2c0.2,0,2.1-0.1,2.1-0.1v-0.2c0,0-0.9,0-1.1,0c-0.2,0-0.3,0-0.3-0.2c0-0.2-0.2-1.3,0-1.4
	c0.1-0.1,0.4-0.2,0.6-0.3c0.3,0,0.9-0.1,0.9-0.1v-0.2c0,0-0.4,0-0.9,0c-0.5,0.1-1.2-0.1-1.4,0c-0.3,0-0.4-0.1-0.4-0.4
	c0-0.3,0-1.3,0-1.3s2.5-0.1,2.9-0.1c0.3,0,0.3,0.1,0.3,0.3c0,0.3,0,2,0,2.5s0,3.1,0,3.4c0,0.4,0,1.2,0,1.4
	C-344.7,271.3-345,271.6-345.2,271.5 M-340.9,272.2c0-0.2,0-0.3,0.2-0.3c0.1,0,2-0.2,2.2-0.1c0.3,0.1,0.5,0,0.5,0.4
	c0,0.4,0,2.4-0.1,2.7c0,0.2,0,0.4-0.4,0.3c-0.4,0-1.7,0-2,0s-0.5,0-0.5-0.2S-340.9,272.4-340.9,272.2 M-337.3,273.6
	c0.3,0,2.5-0.1,2.7-0.1c0.3,0,0.4,0.4,0,0.4h-2.7C-337.5,273.9-337.5,273.6-337.3,273.6 M-337.4,273.1v-0.4c0,0,1.2-0.1,1.6-0.1h1.5
	v0.4c0,0-1.1,0.1-1.6,0.1S-337.4,273.1-337.4,273.1 M-335.9,274.3c0.8,0,1,0,1.6,0.2c-0.5,0.2-1.1,0.2-1.6,0.2
	c-0.8,0-1.6-0.1-1.6-0.1S-336.8,274.2-335.9,274.3 M-331,274.3c0,0.3,0.1,0.6-0.4,0.6s-1.6,0-1.7,0s-0.2,0-0.2-0.2
	c0-0.2,0.1-1.1,0.1-1.4c0-0.4,0-1.6,0-1.6s0.9-0.1,1.1-0.1c0.3,0,0.6,0,0.8-0.1c0.2,0,0.3-0.1,0.3,0.2C-331.1,272-331,274-331,274.3
	 M-332.1,271c0,0.1,0,0.3-0.2,0.3c-0.1,0-1.8,0.1-1.9,0.2c-0.1,0-0.2,0.4-0.2,0.5s0,0.3-0.2,0.3c-0.1,0-2.6,0.1-2.8,0.1
	c-0.1,0-0.2-0.2-0.2-0.4s2.1-0.3,2.1-0.3s-1.6-0.2-2-0.2s-0.6-0.1-0.7-0.1c-0.1,0-1.2,0-1.4,0s-0.3-0.1-0.3-0.3c0-0.2,0.1-1,0.1-1.1
	c0-0.2-0.1-2.2,0-2.4c0-0.2,0-1.9,0-1.9s1.8,0,2,0c0.2,0,0.3,0,0.2,0.2c-0.1,0.2-0.2,0.6-0.2,1c0.4-0.5,0.6-1.2,1.7-1.2
	c1,0,1.5,0.5,1.8,1.2c0-0.2,0.1-0.8-0.4-1.1c1.1,0,1.7,0,2,0s0.6,0,0.5,0.3c0,0.3,0,1.3,0,1.7c0,0.4,0,1.7,0,2
	C-332,269.7-332.1,270.9-332.1,271 M-340.6,262.3c0-0.2,0-0.2,0.2-0.2c0.2,0,1.2,0,1.3,0s0.2,0.1,0.2,0.2c0,0.1,0,1.4,0,1.5
	c0,0.1,0,0.3-0.2,0.3c-0.2,0-1.5,0.1-1.5,0.1s0-0.6,0-0.8C-340.6,263.1-340.5,262.5-340.6,262.3 M-336.9,262c0.2,0,1.7,0,1.9,0
	s0.5-0.1,0.5,0.3c0,0.4,0.1,1.3,0.1,1.4c0,0.1-0.3,0.3-0.4,0.3c-0.2,0-2.3,0-2.3,0s0-1.2,0-1.4C-337.2,262.2-337.1,262-336.9,262
	 M-331.4,263.5c0,0.2-0.1,0.2-0.3,0.2c-0.1,0-1,0.1-1.1,0c-0.2,0-0.2,0-0.2-0.2s0-1.7,0-1.7l1.5-0.1
	C-331.4,261.9-331.3,263.4-331.4,263.5 M-370.3,261.7c0.2-0.2,1-1,1.3-1.2c0.3-0.3,1.5-1.2,1.8-1.5c0.3-0.3,1.5-1.1,1.7-1.2
	c0.2-0.1,0.3-0.3,0.5-0.3s0.4-0.2,0.5-0.3c0.1-0.1,1-0.6,1.4-0.7c0.4-0.2,0.6-0.3,0.7-0.3s0.1-0.2,0.2-0.2c0.1,0,0.4,0,0.4,0
	s0.7-0.3,1-0.4c0.3-0.1,0.5-0.3,0.9-0.4c0.3-0.1,1-0.3,1.1-0.4c0.2,0,0.5-0.1,0.6-0.1c0.1,0,1-0.4,1.2-0.4s0.4,0,0.6,0
	c0.2,0,2-0.4,2.6-0.4c0.6,0,2-0.1,2.3-0.2c0.3,0,0.6,0,1,0c0.3,0,1.9,0.1,2.3,0.1c0.4,0,1.2,0,1.5,0.1c0.3,0.1,0.9,0.1,1.2,0.2
	c0.3,0.1,2.7,0.7,3.3,0.9c0.7,0.2,2.2,0.6,2.7,0.9c0.4,0.3,1.3,0.7,1.6,0.8c0.3,0.2,0.8,0.6,0.9,0.6s0.3,0,0.4,0s0.4,0.4,0.6,0.5
	c0.2,0.1,0.3,0,0.4,0.1s0.2,0.3,0.4,0.4c0.2,0.1,1.2,0.6,1.3,0.8c0.2,0.2,0.8,0.6,1,0.8c0.2,0.2,0.3,0.5,0.4,0.6s0.5,0.1,0.6,0.3
	c0.1,0.1,0.3,0.3,0.4,0.5c0.2,0.1,0.3,0.3,0,0.3c-0.2,0-1.9,0-2.1,0c-0.2,0-2.1,0-2.3,0s-0.4,0.1-0.5,0c-0.1,0-0.4,0-0.6,0
	c-0.2,0-0.8,0-1,0c-0.2,0-0.7,0-1,0c-0.3,0-1.2,0.1-1.4,0.1s-0.3,0-0.5,0s-0.2,0.2-0.2,0.3s0.1,0.8,0,1c0,0.2,0,0.9,0,1.1
	s-0.1,0.4,0,0.5c0.1,0.1,0.7,0.7,0.8,0.8c0.1,0.1,0.1,0.2,0.1,0.3c0,0.1,0,1.7,0,2c0,0.3,0,1.2,0,1.3s0,0.2-0.2,0.2
	c-0.2,0-2,0.1-2.3,0.1c-0.4,0-1.4,0-1.5,0c-0.2,0-0.2,0-0.3-0.2c0-0.2,0-1,0-1.1s-0.1-0.4-0.1-0.6c0-0.2,0.1-1.4,0.1-1.6
	c0-0.2,0-1.8,0-1.9s0-0.4,0.2-0.4c0.2-0.1,0.5-0.3,0.6-0.4c0.1-0.1,0.2-0.3,0.1-0.4c0-0.1,0-0.1,0-0.2c0.1-0.1,0.4-0.4,0.6-0.6
	c0.2-0.1,0.4-0.4,0.5-0.5s0.4-0.4,0.5-0.5s0-0.3,0-0.3c-0.1,0-0.1-0.1-0.1-0.2s0-0.8,0-1c0-0.2,0-0.4,0-0.5s0.1-0.2,0.1-0.3
	s0-1,0-1.1s-0.1-0.2-0.3-0.2c-0.2,0-2.2-0.1-2.3-0.1s-0.2,0-0.2-0.1s0.1-1.1,0-1.1c-0.1-0.1-1-0.1-1.3-0.1c-0.3,0-1,0-1.1,0
	c-0.1,0-0.1,0.1-0.1,0.2s0,0.8,0,0.9s0,0.2-0.1,0.2s-0.9,0-1.1,0c-0.3,0-0.8,0-0.9,0s-0.1,0-0.1-0.1s0-1.3,0-1.3
	c0-0.1-0.1-0.1-0.2-0.2c-0.1,0-1,0.1-1.3,0.1c-0.3,0-0.9,0-1,0c-0.1,0-0.3,0.1-0.3,0.2c0,0.2,0,0.6,0,0.7s0,0.2,0,0.3s0,0.2,0,0.3
	c0,0.1,0,0.1-0.1,0.1s-0.7,0-0.8,0c-0.2,0-0.8,0-1,0c-0.2,0-0.2,0-0.2-0.1c0-0.1,0-0.9,0-1c0-0.1,0-0.2-0.1-0.2c-0.2,0-1.9,0-2.1,0
	c-0.2,0-0.4-0.1-0.4,0.1c0,0.2,0,0.9,0,1s-0.1,0.2-0.2,0.2s-1.6,0-1.8,0.1c-0.2,0-0.4,0-0.4,0.2c0,0.2,0,0.8,0,1.1
	c0,0.4-0.1,1.5-0.1,1.6c0,0.1-0.2,0.3-0.2,0.4c0,0.2,0,0.3,0.4,0.6c0.4,0.3,0.7,0.5,0.9,0.6c0.1,0.1,0.5,0.4,0.5,0.5
	s-0.1,0.1-0.1,0.2s0.1,0.3,0.2,0.4c0.1,0.1,0.2,0.2,0.3,0.3c0.1,0.1,0.1,0.2,0.1,0.3s0,0.6,0,0.7c0,0.2,0,2.6,0,2.8
	c0,0.2-0.1,0.9,0,1c0,0.1,0,0.1,0,0.2c0,0.1,0,0.8,0,0.9c0,0.1,0,0.2-0.2,0.2c-0.1,0-1.7,0.1-2.1,0.1c-0.4,0-1.8,0-2,0
	c-0.1,0-0.1,0-0.2-0.2c0-0.1,0-1.5,0-2s0-1,0-1.1c0-0.2,0.1-0.3,0.1-0.4c0.1-0.1,0.4-0.4,0.5-0.5c0.1-0.1,0.2-0.1,0.1-0.3
	c0-0.2,0-0.4,0-0.6c0-0.2,0-0.9,0-1.2c0-0.3,0-1.1,0-1.2s0-0.2-0.3-0.2c-0.3,0.1-1,0.1-1.4,0c-0.4,0-1,0-1.3,0c-0.3,0-0.6,0-0.7,0
	s-2.3,0-2.8,0c-0.6,0-2.1,0-2.3,0s-0.3,0-0.4,0C-370.4,261.9-370.5,261.8-370.3,261.7 M-363.5,262.8c0-0.2,0-0.4,0.3-0.5
	c0.3,0,1.1,0,1.3,0c0.2,0,0.5,0,0.5,0.3c0,0.3,0,1.3,0,1.5c0,0.1-0.1,0.4-0.4,0.4c-0.3,0-1.4,0-1.5,0c-0.1,0-0.2-0.1-0.2-0.2
	C-363.6,264-363.5,262.9-363.5,262.8 M-365.1,264.3c-0.2,0-1.6,0-1.9,0c-0.2,0-0.3,0-0.3-0.2c0-0.2,0-1.3,0-1.5c0-0.2,0-0.2,0.3-0.2
	c0.2,0,1,0,1.3,0h0.6c0.1,0,0.3,0,0.3,0.3c0,0.3-0.1,1.2-0.1,1.4C-365,264.2-364.9,264.4-365.1,264.3 M-370.5,262.6
	c0-0.2,0.1-0.3,0.2-0.3c0.1,0,0.9,0,1.1,0c0.2,0,0.3,0.1,0.3,0.3c0,0.2,0,1.2,0,1.4s0,0.2-0.3,0.2c-0.3,0-0.7,0-0.9,0
	c-0.2,0-0.3,0-0.3-0.2C-370.5,263.8-370.5,262.8-370.5,262.6 M-370.5,264.8c0.2,0,1.4,0.1,1.8,0.1c0.5,0,1.4-0.1,1.7,0
	c0.4,0,1.7,0.1,2,0c0.3,0,1.1,0,1.5,0c0.3,0,1.1,0,1.4-0.1c0.3,0,0.8,0.1,0.7,0.2s-0.3,0.4-0.6,0.4c-0.4,0-2.1,0-2.7,0
	c-0.6,0-2.9-0.1-3.6-0.1c-0.7,0-1.3,0-1.6,0c-0.3,0-0.6-0.2-0.8-0.3C-370.8,265-370.8,264.7-370.5,264.8"/>
<path class="st0" d="M-367.4,270.8c0.7,0.2,2.3,0,2.3,0s0.1-2,0.1-3.1c0-1.2-0.6-1.4-1.1-1.4s-0.6,0.2-0.8,0.3
	c-0.3,0.2-0.3,0.3-0.4,0.8c-0.1,0.5-0.1,1.6-0.1,2S-367.5,270.3-367.4,270.8"/>
<path class="st0" d="M-350.1,264.7c-0.1-0.6-0.5-0.6-0.8-0.6c-1,0-0.8,1.1-0.8,1.3c0,0.3-0.1,1.4-0.1,2.2c0,0.8,0.1,3.4,0.1,3.4
	c0,0.1,0,0.2,0.1,0.2s1.1,0,1.4,0c0.2,0,0.3-0.1,0.3-0.2s0-0.8,0-1.5s0-3.3,0-3.6C-350,265.6-350,265.1-350.1,264.7"/>
<path class="st0" d="M-335.8,266c-0.9,0-1.2,0.9-1.3,1.4c-0.1,0.6,0,2.3,0,2.6s0,0.9,0,0.9s0.7,0,1,0c0.3,0,1.1-0.1,1.3-0.1
	c0.2,0,0.2,0,0.2-0.2c0-0.2,0-0.5,0-1.1s0-2.1,0-2.6C-334.8,266.4-335.2,266.1-335.8,266"/>
<path class="st0" d="M-364.5,278.9c0.1,0.1,0.2,0.2,0,0.2c-0.1,0.1-0.4,0.5-0.1,0.8c0.2,0.2,0.5,0.4,1-0.1c0.2,0.2,0.5,0.4,0.9,0.1
	c0.4-0.3-0.1-0.8-0.2-0.9c0.2-0.2,0.7-0.6,0.3-1c-0.3-0.3-0.7,0.1-1,0.2c-0.4-0.4-0.7-0.5-1-0.2C-365,278.4-364.6,278.8-364.5,278.9
	"/>
<path class="st0" d="M-363.5,280.5c-0.1-0.1-0.1-0.1-0.3,0c-0.2,0.1-0.6,0.3-1.1,0c0.1,0.2,0.1,0.5,0.5,0.6s0.6-0.2,0.7-0.2
	c0.1,0,0.1,0.2,0.6,0.2s0.6-0.3,0.8-0.6C-362.8,280.8-363.4,280.5-363.5,280.5"/>
<path class="st0" d="M-359.3,278.1c-0.4,0-0.8,0.5-0.9,0.8c-0.1,0.3-0.1,1.8-0.1,2c0,0.2-0.1,0.2-0.1,0.5c0,0.2,0,1.9,0,2.1
	c0,0.3,0.1,0.3,0.2,0.4c0.1,0.1,0.4,0.3,0.6,0.3c0.2,0.1,0.5,0.3,0.7,0.3c0.2,0.1,0.3-0.2,0.3-0.3c0-0.2,0-1,0-1.2s0.1-0.5,0.1-1.5
	c0-1.1,0-1.7,0-2.3C-358.4,278.5-358.9,278.2-359.3,278.1"/>
<path class="st0" d="M-351.5,280.2c0.1,0,0.2,0.1,0.2,0.2c0,0.3,0,0.6,0.6,0.6c0.5,0,0.5-0.5,0.5-0.7c0-0.2,0.1-0.1,0.2-0.1
	c0.4,0,0.6-0.2,0.5-0.6c0-0.3-0.4-0.4-0.6-0.4c-0.2,0-0.2,0-0.1-0.2c0-0.1,0-0.3-0.1-0.4c-0.1-0.2-0.3-0.2-0.6-0.1s-0.3,0.4-0.3,0.5
	s0,0.2-0.1,0.2c-0.3,0-0.5,0.2-0.6,0.5C-352,280.1-351.8,280.3-351.5,280.2"/>
<path class="st0" d="M-342.2,278.3c-0.7,0-0.8,0.6-0.9,0.9c0,0.3-0.1,1.6-0.1,2.1c0,0.6,0.1,1.6,0.1,1.9c0,0.3,0,1.1,0,1.3
	s0.2,0.2,0.3,0.1c0.1-0.1,0.7-0.3,0.9-0.4c0.1-0.1,0.1-0.1,0.3-0.2c0.2-0.1,0.2-0.2,0.2-0.3c0-0.2,0-1.4,0-2c0-0.6,0-2,0-2.8
	C-341.5,278.2-341.9,278.3-342.2,278.3"/>
<path class="st0" d="M-338.4,279.1c0,0-0.6,0.5-0.3,0.9c0.4,0.4,0.8,0,0.9-0.1c0-0.1,0.1-0.1,0.1,0c0.1,0.1,0.5,0.4,0.8,0.2
	c0.5-0.4,0.2-0.8,0.1-0.9c-0.1-0.1-0.1-0.2,0-0.2c0.1-0.1,0.1-0.1,0.3-0.3c0.2-0.2,0-0.6-0.3-0.7c-0.3-0.1-0.6,0.2-0.7,0.3
	c-0.1,0.1-0.2,0-0.3-0.1c-0.1-0.1-0.7-0.2-0.9,0C-339.2,278.6-338.4,279.1-338.4,279.1"/>
<path class="st0" d="M-337,280.7c-0.3,0-0.6-0.2-0.6-0.2c-0.1,0-0.2,0.2-0.5,0.2c-0.3,0.1-0.6-0.1-0.7-0.1c-0.1,0-0.2,0-0.1,0.1
	c0.1,0.1,0.2,0.3,0.6,0.4c0.6,0.1,0.8-0.2,0.8-0.2s0.4,0.2,0.7,0.2c0.5-0.1,0.6-0.6,0.6-0.6S-336.7,280.7-337,280.7"/>
<path class="st0" d="M-354.5,284.9c0.1-0.1,0.3-0.2,0.4-0.4c0-0.2,0.6-1.4,1-2c0.4-0.5,0.8-0.7,1.6-1.1c-0.9,0.1-1.7,0.7-2.3,1.4
	c-0.4,0.4-0.7,1.6-0.7,1.8C-354.7,284.9-354.6,285-354.5,284.9"/>
<path class="st0" d="M-348.8,281.8c0.3,0.1,0.7,0.7,1,1.1c0.3,0.3,0.5,1.1,0.6,1.3c0.1,0.3,0.1,0.6,0.1,0.6h0.3c0,0-0.1-0.2-0.1-0.4
	s-0.1-0.4-0.3-1.1c-0.2-0.7-0.6-1-0.8-1.2c-0.2-0.2-0.3-0.2-0.5-0.3c-0.2,0-0.2-0.1-0.3-0.2c-0.1-0.1-0.2,0-0.6-0.1
	C-349.2,281.6-349.1,281.7-348.8,281.8"/>
<path class="st0" d="M-356,297l0.8-0.2c0,0-0.1-1.6,0-1.8c0-0.2,0-1,0-1s1.2,0,1.4,0c0.2,0,0.4,0,0.5,0.1c0.1,0.1,0,0.4,0,0.5
	c-0.1,0.2-0.3,0.4-0.7,0.3c0.2,0.2,0.3,0.2,0.7,0.2c0.3,0,0.5-0.4,0.6-0.7c0.1-0.3,0-0.5,0-0.5l0.8-0.3l-0.7-0.1c0,0,0-0.3,0-0.6
	c0-0.3-0.4-0.7-0.8-0.7c-0.4-0.1-0.6,0.3-0.6,0.3s0.3-0.1,0.5-0.1s0.4,0.3,0.4,0.5c0,0.2-0.2,0.5-0.5,0.6c-0.3,0.1-1.3,0-1.4,0
	s-0.2,0-0.2-0.1s0-1.3,0.1-1.9c0-0.6,0-2.1,0-2.1c0-0.1,0-0.2,0.2-0.2c0.2,0,1.4,0,1.5,0s0.2,0,0.3,0.1c0,0.1,0,0.4,0,0.5
	c0,0.1-0.1,0.4-0.7,0.4c0.2,0.1,0.4,0.2,0.9,0c0.4-0.2,0.4-0.9,0.4-1.2c0.2-0.1,0.8-0.3,0.8-0.3s-0.5,0-0.7-0.1
	c-0.2-0.1-0.2-0.1-0.1-0.3c0.1-0.2-0.1-0.6-0.2-0.8c-0.1-0.2-0.8-0.4-1.1,0.2c0.3-0.2,0.7,0,0.8,0.2c0.1,0.2-0.1,0.6-0.4,0.6
	c-0.3,0.1-1.5,0-1.5,0s0.1-0.9,0.2-1.1c0-0.2,0.3-0.8,0.5-1c0.3-0.2,0.8-0.3,1-0.4c0.2,0,0.4,0,0.4-0.5c0-0.7,0.3-1.7,0.7-2.1
	c0.6-0.5,1.3-0.6,1.3-0.6s0,1.8,0,2c0,0.2,0,0.5,0,0.8s-0.1,1-0.1,1.4c0,0.4,0,1,0,1.5s0,1.5,0,2.3c0,0.8,0,2,0,2.4s0,1.1,0,1.1
	s0,0.5,0,0.7c0,0.2,0,1.9,0,1.9l0.5,0.3c0,0,0-1.4,0-1.7c0-0.3-0.1-1.3,0-2.1c0-0.8,0-2.8,0-3.3s-0.1-2.1,0-2.6c0-0.4,0-1,0-1.3
	c0-0.2,0-0.3,0-1s0.1-1.8,0.1-2.4c0.6-0.1,1.1,0.2,1.4,0.5c0.3,0.3,0.6,1.4,0.6,1.6c0.1,0.3,0,0.7,0,0.8c0.1,0.1,0.1,0.2,0.2,0.2
	s0.2,0,0.5,0.1c0.3,0.1,0.6,0.3,0.9,0.7c0.3,0.4,0.3,1.6,0.3,1.6s-1.2,0-1.3,0c-0.1,0-0.4,0-0.6-0.1c-0.1-0.1-0.1-0.6,0-0.7
	c0.1-0.1,0.2-0.3,0.7-0.1c-0.4-0.4-0.8-0.3-1.1-0.1c-0.3,0.3-0.2,0.7-0.2,0.8s0,0.1-0.1,0.2c-0.1,0.1-0.7,0.1-0.7,0.1
	s0.5,0.2,0.6,0.3c0.1,0,0.2,0.1,0.2,0.2c-0.1,0.5,0.1,0.9,0.5,1c0.5,0.2,0.6,0,0.7-0.1c-0.3,0.1-0.5-0.1-0.7-0.3
	c-0.2-0.2-0.1-0.6,0.2-0.7c0.2-0.1,1.7,0,1.7,0v2.2c0,0.7,0,1.7-0.1,2c-0.2,0.1-1.4,0.1-1.7,0c-0.3-0.1-0.3-0.6-0.2-0.8
	c0.1-0.2,0.3-0.3,0.8-0.2c-0.4-0.4-0.8-0.3-1.1,0c-0.3,0.2-0.2,0.7-0.2,0.8s0,0.3-0.2,0.3c-0.2,0-0.3,0-0.6,0
	c0.2,0.2,0.4,0.3,0.6,0.3c0.2,0,0.2,0.1,0.2,0.2s-0.1,0.4,0,0.7c0.4,0.5,0.8,0.5,1.1,0.2c-0.5,0.1-0.6-0.2-0.7-0.4
	c-0.1-0.2,0-0.5,0.2-0.6c0.2-0.1,1.4,0,1.6,0c0.1,0,0.2,0.1,0.2,0.2s0,0.7,0,1.2s0,1.3,0,1.3h0.7c0,0,0-2.9,0.1-3.4
	c0-0.4,0-2.4,0-2.8c0-0.5,0-1.2,0-1.8s-0.1-1.3-0.2-1.7c-0.1-0.5-0.7-0.9-1-1.2c-0.3-0.3-0.7-0.3-0.7-0.3s-0.1-0.4-0.1-0.7
	c0-0.4-0.5-1.4-0.9-1.8c-0.4-0.5-1.1-0.6-2-0.6c-0.7,0-1,0.1-1.4,0.3c-0.4,0.2-0.9,0.8-1.1,1.2c-0.2,0.4-0.4,1.1-0.4,1.3
	s0,0.2-0.2,0.3c-0.2,0.1-0.5,0.2-0.9,0.5c-0.4,0.3-0.9,1-1,1.4c-0.1,0.4-0.3,1.5-0.2,1.8c0,0.3,0.1,1.9,0.1,2.6c0,0.7,0,1.9,0,2.3
	s0,1.3,0,1.8C-355.9,296.1-356,297-356,297"/>
<path class="st0" d="M-369.3,262.9c0-0.1-0.2-0.1-0.3-0.1s-0.5-0.1-0.5-0.1v0.3C-370.1,263-369.3,263-369.3,262.9"/>
<path class="st0" d="M-370.1,263.7c0,0,0.4,0,0.5-0.2c-0.2-0.1-0.5-0.1-0.5-0.1V263.7z"/>
<path class="st0" d="M-368.8,266.8c0.1,0,0.5-0.2,0.5-0.2s-0.3-0.1-0.4-0.1c-0.1,0-0.6,0-0.6,0v0.3
	C-369.3,266.8-368.9,266.9-368.8,266.8"/>
<path class="st0" d="M-368.4,267.8c0.2-0.1,0.1-0.1,0-0.2c-0.1,0-0.8-0.1-0.8-0.1v0.3C-369.2,267.9-368.6,267.9-368.4,267.8"/>
<path class="st0" d="M-369.3,268.5v0.4c0,0,0.3,0,0.5,0c0.1,0,0.4-0.2,0.4-0.2s-0.2-0.1-0.4-0.1C-369,268.6-369.3,268.5-369.3,268.5
	"/>
<path class="st0" d="M-369.3,269.9c0,0,0.5,0,0.7-0.2c-0.3-0.1-0.8-0.1-0.8-0.1L-369.3,269.9z"/>
<path class="st0" d="M-369.3,272.6c0,0-0.4-0.1-0.7-0.1s-0.7-0.2-0.7-0.2v0.4c0,0,0.2,0,0.5,0C-369.9,272.7-369.3,272.6-369.3,272.6
	"/>
<path class="st0" d="M-370.6,273.7c0.1,0,1-0.1,1.1-0.1s0.1-0.1,0-0.1s-0.2-0.1-0.5-0.1c-0.3-0.1-0.7-0.2-0.7-0.2
	S-370.7,273.5-370.6,273.7C-370.7,273.6-370.7,273.7-370.6,273.7"/>
<path class="st0" d="M-370.2,274.3c-0.3,0-0.6-0.1-0.6-0.1s0,0.3,0,0.4c0.8,0,1.5-0.3,1.5-0.3S-369.9,274.4-370.2,274.3"/>
<path class="st0" d="M-369.7,277.6c-0.1,0-0.2,0-0.2,0.1c0,0.1,0,0.1,0,0.1s0,0.1,0.2,0.1c0.2,0,0.3,0,0.8,0s1.4-0.1,1.4-0.1
	s-1.1-0.1-1.4-0.1C-369.2,277.6-369.5,277.6-369.7,277.6"/>
<path class="st0" d="M-369.3,278.3c-0.2,0-0.1,0.1-0.1,0.2s0.2,0.2,0.3,0.2c0.2,0,1,0,1.7-0.2C-367.8,278.5-369.1,278.3-369.3,278.3
	"/>
<path class="st0" d="M-370.3,283c0,0.1,0.1,0.1,0.2,0.1s1.3-0.1,1.3-0.1s-0.2-0.1-0.5-0.2c-0.3-0.1-0.9-0.1-0.9-0.1L-370.3,283"/>
<path class="st0" d="M-369.8,283.5c-0.2,0-0.5,0-0.5,0s0,0.2,0,0.3c0,0.1,0,0.1,0.1,0.1c0.1,0,0.5,0,0.9-0.1
	c0.4-0.1,1.3-0.1,1.3-0.1s-0.9-0.1-1.2-0.1C-369.4,283.6-369.6,283.6-369.8,283.5"/>
<path class="st0" d="M-370.3,285.8c0.1,0,0.6,0.1,1.6-0.2c-0.5,0-1.6-0.2-1.6-0.2s-0.1,0.2-0.1,0.3
	C-370.4,285.7-370.3,285.8-370.3,285.8"/>
<path class="st0" d="M-370.2,286.8c0.2,0,0.8-0.1,1.4-0.2c-0.6-0.1-1.5-0.3-1.5-0.3S-370.4,286.6-370.2,286.8
	C-370.3,286.8-370.4,286.8-370.2,286.8"/>
<path class="st0" d="M-370.2,288.8c0.8,0,2.4-0.3,2-0.3c-0.4,0-2.1-0.2-2.1-0.2S-370.4,288.6-370.2,288.8"/>
<path class="st0" d="M-370.3,289.3v0.4c0,0,1.8-0.1,2.4-0.3C-368.6,289.3-370.3,289.3-370.3,289.3"/>
<path class="st0" d="M-368.8,291.5c-0.4-0.2-1.5-0.2-1.5-0.2v0.4C-370.3,291.7-369.2,291.7-368.8,291.5"/>
<path class="st0" d="M-370.4,292.5c0,0,0,0.1,0,0.2c0,0.1,0,0.1,0.2,0.1c0.1,0,1.3-0.2,1.2-0.3c-0.2-0.1-1.4-0.1-1.4-0.1V292.5"/>
<path class="st0" d="M-370,295.1c0.5,0,1.2,0,1.7,0s0.8,0,1.1,0.1c0.3,0,2.1,0,2.1,0s-1.3-0.2-1.6-0.2c-0.2,0-0.8-0.1-1.2-0.1
	s-1.1-0.1-1.9-0.1c-0.8-0.1-1.3-0.1-1.3-0.1l-0.3,0.4C-371.3,295-370.5,295.1-370,295.1"/>
<path class="st0" d="M-371.9,296.3c0,0,0.8,0,1.3-0.1c0.5,0,1.1-0.1,1.5-0.2c0.4,0,1.9-0.2,1.9-0.2s-2.1-0.1-2.6-0.1s-1-0.1-1.4-0.1
	c-0.4,0-0.8,0-0.8,0s-0.1,0.1-0.2,0.2c0,0-0.1,0.1,0,0.2C-372.2,296.1-371.9,296.3-371.9,296.3"/>
<path class="st0" d="M-361.9,263.2v-0.5c0,0-0.6,0.2-0.9,0.4C-362.4,263.2-361.9,263.2-361.9,263.2"/>
<polygon class="st0" points="-361.9,263.9 -361.9,263.6 -362.8,263.8 "/>
<path class="st0" d="M-362.7,266.9v-0.4l-1.3,0.1c0,0,0.4,0.2,0.7,0.3C-363.1,266.9-362.7,266.9-362.7,266.9"/>
<path class="st0" d="M-362.7,268v-0.5c0,0-0.6,0.1-1.2,0.3C-363.5,267.9-362.7,268-362.7,268"/>
<polygon class="st0" points="-362.7,268.5 -363.8,268.7 -362.7,268.9 "/>
<polygon class="st0" points="-362.8,269.9 -362.8,269.5 -363.9,269.8 "/>
<path class="st0" d="M-357.7,258.5c-0.4-0.1-1.1-0.3-1.1-0.3v0.4C-358.7,258.6-358.1,258.6-357.7,258.5"/>
<path class="st0" d="M-357.6,259.1c-0.4,0-1.2-0.1-1.2-0.1v0.4C-358.8,259.3-357.9,259.2-357.6,259.1"/>
<path class="st0" d="M-358.2,259.7c-0.3-0.1-0.6,0-0.6,0v0.3l1.2-0.1C-357.6,259.9-357.9,259.8-358.2,259.7"/>
<polygon class="st0" points="-354.2,258.1 -354.2,258.5 -352.9,258.4 "/>
<path class="st0" d="M-353.4,259c-0.3,0-0.8-0.1-0.8-0.1v0.5c0,0,1.1-0.2,1.6-0.3C-353,259.1-353.2,259-353.4,259"/>
<path class="st0" d="M-354.2,259.8c-0.1,0.3,0,0.4,0.3,0.4c0.2,0,1.1-0.2,1.1-0.2S-353.8,259.7-354.2,259.8"/>
<path class="st0" d="M-347.5,258.5c0.1-0.1,0-0.4,0-0.4l-1.3,0.1C-348.8,258.2-347.7,258.5-347.5,258.5"/>
<polygon class="st0" points="-348.7,259.1 -347.4,259.3 -347.4,258.8 "/>
<polygon class="st0" points="-348.7,259.9 -347.4,260 -347.4,259.6 "/>
<polygon class="st0" points="-342.9,257.9 -344.2,258.1 -343,258.4 "/>
<polygon class="st0" points="-343,258.7 -344.3,258.9 -343.1,259.1 "/>
<polygon class="st0" points="-344.3,259.6 -343,259.8 -343,259.3 "/>
<polygon class="st0" points="-354.5,262.6 -354.8,261.6 -355.5,261.6 -354.8,262.7 "/>
<polygon class="st0" points="-353.7,262.7 -354,261.6 -354.6,261.6 -354.1,262.7 "/>
<polygon class="st0" points="-353,262.6 -353,261.7 -353.5,261.7 -353.3,262.7 "/>
<polygon class="st0" points="-352.1,262.7 -352.1,261.7 -352.7,261.7 -352.4,262.7 "/>
<polygon class="st0" points="-351.2,261.7 -351.5,261.7 -351.4,262.8 "/>
<polygon class="st0" points="-350.2,261.6 -350.5,261.6 -350.4,262.7 "/>
<polygon class="st0" points="-349.2,261.6 -349.8,261.6 -349.8,262.7 -349.6,262.7 "/>
<path class="st0" d="M-348.2,261.6h-0.4c0,0-0.1,0-0.1,0.1c0,0.1-0.2,0.9-0.2,0.9h0.2L-348.2,261.6z"/>
<path class="st0" d="M-348,262.6c0.1-0.1,0.6-1.1,0.6-1.1h-0.5l-0.4,1C-348.4,262.6-348.2,262.6-348,262.6"/>
<polygon class="st0" points="-347.2,262.6 -346.6,261.5 -347.1,261.5 -347.6,262.6 "/>
<path class="st0" d="M-354.6,264.2c-0.6-0.1-1.8-0.3-1.8-0.3v0.3C-356.4,264.3-355.2,264.3-354.6,264.2"/>
<path class="st0" d="M-354.7,264.7c-0.4-0.1-1.8-0.1-1.8-0.1v0.3C-356.4,264.9-355.1,264.8-354.7,264.7"/>
<polygon class="st0" points="-356.5,266 -356.5,266.4 -355.7,266.2 "/>
<polygon class="st0" points="-356.5,266.7 -356.5,267 -355.7,266.8 "/>
<path class="st0" d="M-355,268.3l-1.5-0.1v0.3c0,0,0.2,0,0.3-0.1C-356,268.5-355,268.3-355,268.3"/>
<path class="st0" d="M-355,269c0,0-0.6-0.1-0.8-0.1c-0.2,0-0.8,0-0.8,0v0.3c0,0,0.6,0,0.7-0.1S-355,269-355,269"/>
<path class="st0" d="M-356.2,270.7c0.2,0,0.7-0.2,0.7-0.2l-1-0.1v0.3C-356.6,270.7-356.4,270.7-356.2,270.7"/>
<path class="st0" d="M-356.6,271.3c0,0,0.3,0,0.4,0c0.2,0,0.5-0.1,0.5-0.1l-1-0.1L-356.6,271.3z"/>
<path class="st0" d="M-346.9,264.1c0,0,0.3,0,0.4,0s0.4,0,0.5,0s0.6,0,0.6,0v-0.4L-346.9,264.1z"/>
<polygon class="st0" points="-345.3,264.9 -345.3,264.6 -347,264.6 "/>
<path class="st0" d="M-345.4,266.3v-0.4c0,0-0.5,0-1,0.2C-345.8,266.2-345.4,266.3-345.4,266.3"/>
<polygon class="st0" points="-345.4,267 -345.4,266.6 -346.3,266.8 "/>
<polygon class="st0" points="-345.4,268.4 -345.4,268.1 -346.7,268.3 "/>
<polygon class="st0" points="-346.7,269 -345.4,269.2 -345.4,268.8 "/>
<polygon class="st0" points="-346.2,270.5 -345.4,270.6 -345.5,270.3 "/>
<polygon class="st0" points="-345.4,271.2 -345.4,270.9 -346.2,271.1 "/>
<polygon class="st0" points="-340.2,262.5 -340.2,262.9 -339.4,262.7 "/>
<polygon class="st0" points="-339.4,263.4 -340.2,263.2 -340.2,263.6 "/>
<path class="st0" d="M-339.1,266.4c0,0,0.4,0,0.6-0.1c0.2-0.1,0.6-0.2,0.6-0.2l-1.2-0.1V266.4z"/>
<path class="st0" d="M-339.1,267.3c0,0,0.6-0.1,1.1-0.2c-0.2-0.2-1.1-0.3-1.1-0.3V267.3z"/>
<path class="st0" d="M-339.1,267.8v0.3c0,0,0.5-0.1,1-0.2C-338.5,267.7-339.1,267.8-339.1,267.8"/>
<polygon class="st0" points="-338.2,268.9 -339.1,268.7 -339.1,269.1 "/>
<polygon class="st0" points="-339.1,270 -338,269.7 -339.1,269.5 "/>
<path class="st0" d="M-332.5,266.3c0,0,0-0.3-0.1-0.3s-0.6-0.1-1,0.1c0.2,0,0.3,0.1,0.4,0.2C-333,266.4-332.5,266.3-332.5,266.3"/>
<path class="st0" d="M-333.6,267c0.2,0.1,1.1,0.2,1.1,0.2v-0.4C-332.6,266.8-333.3,266.8-333.6,267"/>
<path class="st0" d="M-332.6,268.1v-0.4c0,0-0.6,0-0.9,0.2C-333.2,268.1-332.6,268.1-332.6,268.1"/>
<polygon class="st0" points="-332.6,269.1 -332.6,268.7 -333.5,268.9 "/>
<polygon class="st0" points="-332.6,270 -332.6,269.6 -333.3,269.8 "/>
<path class="st0" d="M-331.5,272.5v-0.4c0,0-0.5,0.2-1.4,0.4C-332.5,272.6-331.5,272.5-331.5,272.5"/>
<polygon class="st0" points="-331.5,273.4 -331.5,272.9 -332.8,273.3 "/>
<path class="st0" d="M-332.8,274.1c0.4,0.2,1.3,0.2,1.3,0.2v-0.4C-331.5,274-332,274.1-332.8,274.1"/>
<path class="st0" d="M-331.5,277.5c-0.1,0-0.9,0.2-2.7,0.4c0.8,0.1,2.9,0,2.9,0v-0.3C-331.3,277.5-331.4,277.5-331.5,277.5"/>
<path class="st0" d="M-332.4,278.8l0.7-0.4c0,0-1.7,0.2-2.8,0.2C-333.6,278.8-332.4,278.8-332.4,278.8"/>
<polygon class="st0" points="-331.1,283.1 -331.1,282.7 -332.3,282.9 "/>
<polygon class="st0" points="-331.1,283.9 -331.1,283.5 -333.3,283.7 "/>
<path class="st0" d="M-332.4,285.8c0.2,0,1.3,0.1,1.3,0.1v-0.5c0,0-1.1,0.3-1.2,0.3C-332.5,285.7-332.6,285.8-332.4,285.8"/>
<path class="st0" d="M-331.1,286.8v-0.4c0,0-0.6,0.2-1.5,0.2C-332,286.8-331.1,286.8-331.1,286.8"/>
<path class="st0" d="M-333.4,288.6c0.6,0.1,2.4,0.3,2.4,0.3v-0.4C-331,288.5-332.3,288.5-333.4,288.6"/>
<path class="st0" d="M-331,289.6v-0.3c0,0-0.9,0-2.2,0.1C-332.7,289.5-331,289.6-331,289.6"/>
<polygon class="st0" points="-331.1,291.8 -331,291.3 -332.5,291.5 "/>
<polygon class="st0" points="-332.6,292.5 -331,292.7 -331.1,292.3 "/>
<path class="st0" d="M-330.3,294.5c0,0-2.3,0.1-4,0.3c0.9,0.1,4.4,0.1,4.4,0.1L-330.3,294.5z"/>
<path class="st0" d="M-329.4,295.9c0.3,0,0.3-0.2,0.3-0.2l-0.4-0.4c0,0-1,0.1-3.5,0.2C-332.2,295.7-329.7,295.9-329.4,295.9"/>
<path class="st0" d="M-331.9,263.4v-0.5c0,0-0.3,0-0.6,0.2C-332.2,263.3-331.9,263.4-331.9,263.4"/>
<polygon class="st0" points="-331.9,262.2 -332.4,262.5 -331.8,262.6 "/>
<path class="st0" d="M-297.3,266.5c0-0.8-0.1-1.5-0.1-2.3c0.3,0,0.6,0,0.9,0.1c0.3,0,0.6,0,0.9,0c0.3,0,0.6,0,0.9,0
	c0.3,0,0.6,0,0.9,0c0.5,0,1,0,1.4,0.1s0.8,0.2,1.2,0.4c0.3,0.2,0.6,0.5,0.8,0.8c0.2,0.3,0.3,0.7,0.3,1.2c0,0.9-0.3,1.6-0.8,2
	c-0.5,0.5-1.3,0.8-2.1,1l0,0c1,0,1.9,0.3,2.5,0.8c0.6,0.5,0.9,1.2,0.9,2.2c0,0.7-0.1,1.2-0.4,1.7c-0.3,0.4-0.6,0.8-1.1,1.1
	c-0.4,0.3-0.9,0.5-1.4,0.6c-0.5,0.1-1,0.2-1.6,0.2c-0.3,0-0.6,0-0.9,0c-0.3,0-0.6,0-0.9,0h-0.9c-0.3,0-0.6,0-0.9,0
	c0-0.8,0.1-1.5,0.1-2.3c0-0.7,0-1.5,0-2.3v-3C-297.2,268-297.2,267.2-297.3,266.5 M-293.6,269.5c0.4-0.1,0.8-0.2,1.1-0.4
	c0.3-0.2,0.6-0.5,0.8-0.8c0.2-0.3,0.3-0.7,0.3-1.2s-0.1-0.9-0.3-1.2c-0.2-0.3-0.4-0.5-0.7-0.7c-0.3-0.2-0.6-0.3-0.9-0.3
	c-0.3-0.1-0.7-0.1-1-0.1c-0.3,0-0.6,0-0.8,0c-0.2,0-0.4,0-0.6,0.1c0,0.6,0,1.1-0.1,1.7c0,0.6,0,1.1,0,1.7v1.3h1
	C-294.4,269.6-294,269.6-293.6,269.5 M-295.8,273.9c0,0.6,0,1.2,0.1,1.8c0.2,0,0.5,0,0.8,0.1c0.3,0,0.6,0,0.9,0
	c0.4,0,0.7-0.1,1.1-0.2c0.3-0.1,0.6-0.3,0.9-0.6s0.5-0.6,0.6-0.9c0.2-0.4,0.2-0.8,0.2-1.3s-0.1-0.9-0.3-1.2
	c-0.2-0.3-0.4-0.6-0.8-0.8c-0.3-0.2-0.8-0.3-1.2-0.4c-0.5-0.1-1-0.1-1.6-0.1h-0.8v1.8C-295.8,272.7-295.8,273.3-295.8,273.9"/>
<path class="st0" d="M-285.1,266.5c0-0.8-0.1-1.5-0.1-2.3c0.5,0,1.1,0,1.6,0.1c0.5,0,1.1,0,1.6,0s1.1,0,1.6,0s1,0,1.6-0.1v1.1
	c-0.4,0-0.7,0-1-0.1c-0.3,0-0.6,0-1-0.1c-0.3,0-0.7,0-1.1-0.1c-0.4,0-0.9,0-1.5,0c0,0.4,0,0.7,0,1.1c0,0.3,0,0.7,0,1.2s0,0.9,0,1.3
	s0,0.8,0,1c0.5,0,1,0,1.4,0s0.8,0,1.1,0c0.3,0,0.7,0,0.9-0.1c0.3,0,0.6,0,0.8-0.1v1.1c-0.3,0-0.7-0.1-1.1-0.1c-0.4,0-0.8,0-1.2,0
	s-0.8,0-1.1,0c-0.3,0-0.6,0-0.9,0c0,0.1,0,0.2,0,0.3c0,0.1,0,0.3,0,0.5v0.7v1.1c0,0.7,0,1.2,0,1.7c0,0.4,0,0.8,0,1h1.2
	c0.4,0,0.9,0,1.3,0c0.4,0,0.8,0,1.2-0.1c0.4,0,0.7-0.1,1-0.1v1c-0.5,0-1.1,0-1.6,0h-1.6h-1.6c-0.5,0-1.1,0-1.6,0
	c0-0.8,0.1-1.5,0.1-2.3c0-0.7,0-1.5,0-2.3v-3C-285.1,268-285.1,267.2-285.1,266.5"/>
<path class="st0" d="M-274.3,266.5c0-0.7-0.1-1.5-0.1-2.3c0.3,0,0.7,0,1,0.1c0.3,0,0.7,0,1,0c0.3,0,0.7,0,1,0c0.3,0,0.7,0,1,0
	c0.5,0,1,0,1.4,0.1s0.8,0.3,1.2,0.5c0.3,0.2,0.6,0.5,0.8,0.9c0.2,0.4,0.3,0.8,0.3,1.3c0,0.6-0.1,1.1-0.4,1.5c-0.3,0.4-0.6,0.7-0.9,1
	c-0.4,0.3-0.8,0.5-1.2,0.6c-0.4,0.1-0.8,0.2-1.1,0.3c0.1,0.2,0.3,0.4,0.6,0.7c0.2,0.3,0.5,0.7,0.8,1.1c0.3,0.4,0.6,0.8,1,1.2
	c0.3,0.4,0.6,0.8,1,1.2c0.3,0.4,0.6,0.7,0.9,1.1c0.3,0.3,0.5,0.6,0.7,0.7h-2.1c-0.2-0.2-0.4-0.6-0.8-1.1c-0.4-0.5-0.8-1-1.2-1.6
	c-0.4-0.6-0.9-1.1-1.3-1.7c-0.5-0.6-0.9-1-1.2-1.4h-0.7v1.3c0,0.8,0,1.5,0,2.3c0,0.8,0.1,1.5,0.1,2.2h-1.7c0-0.7,0.1-1.5,0.1-2.2
	c0-0.8,0-1.5,0-2.3v-3C-274.2,268-274.2,267.2-274.3,266.5 M-272.2,269.9c0.2,0,0.4,0,0.6,0c0.4,0,0.7,0,1.1-0.1
	c0.4-0.1,0.8-0.2,1.1-0.4c0.3-0.2,0.6-0.5,0.8-0.8c0.2-0.3,0.3-0.8,0.3-1.3s-0.1-0.8-0.3-1.1c-0.2-0.3-0.4-0.5-0.7-0.7
	c-0.3-0.2-0.6-0.3-0.9-0.4c-0.3-0.1-0.6-0.1-0.9-0.1c-0.4,0-0.8,0-1,0c-0.3,0-0.5,0-0.7,0.1c0,0.6,0,1.3-0.1,1.9c0,0.6,0,1.3,0,1.9
	v1C-272.6,269.8-272.4,269.8-272.2,269.9"/>
<path class="st0" d="M-253.4,265.7c-0.3-0.2-0.6-0.4-0.9-0.6c-0.3-0.2-0.7-0.3-1.1-0.4c-0.4-0.1-0.8-0.1-1.3-0.1
	c-0.7,0-1.4,0.1-2,0.3c-0.6,0.2-1.2,0.6-1.6,1c-0.5,0.5-0.8,1.1-1.1,1.8c-0.3,0.7-0.4,1.6-0.4,2.5c0,0.9,0.1,1.6,0.4,2.3
	c0.2,0.7,0.6,1.3,1,1.8c0.5,0.5,1,0.8,1.7,1.1c0.7,0.3,1.4,0.4,2.2,0.4c0.2,0,0.5,0,0.8,0s0.5-0.1,0.8-0.1s0.5-0.1,0.7-0.2
	s0.4-0.2,0.6-0.2c0-0.4,0-0.7,0-1.1c0-0.4,0-0.7,0-1.1c0-0.4,0-0.8,0-1.2s0-0.8-0.1-1.2h1.6c0,0.3,0,0.7-0.1,1.3c0,0.6,0,1.4,0,2.3
	c0,0.2,0,0.5,0,0.7c0,0.2,0,0.5,0,0.7c-0.2,0.1-0.6,0.2-0.9,0.3c-0.4,0.1-0.8,0.2-1.2,0.2c-0.4,0.1-0.8,0.1-1.3,0.2
	c-0.4,0.1-0.8,0.1-1.1,0.1c-1,0-2-0.1-2.8-0.4c-0.8-0.3-1.6-0.6-2.1-1.2c-0.6-0.5-1-1.2-1.4-2c-0.3-0.8-0.5-1.7-0.5-2.7
	s0.2-1.9,0.5-2.7c0.3-0.8,0.8-1.4,1.4-2c0.6-0.5,1.3-1,2.2-1.2s1.8-0.4,2.8-0.4c0.6,0,1.1,0,1.6,0.1s0.9,0.2,1.2,0.3
	c0.4,0.1,0.7,0.2,0.9,0.3c0.3,0.1,0.5,0.2,0.7,0.3l-0.4,1.4h-0.2C-252.9,266.1-253.2,265.9-253.4,265.7"/>
<path class="st0" d="M-247.3,266.5c0-0.8-0.1-1.5-0.1-2.3c0.5,0,1.1,0,1.6,0.1c0.5,0,1.1,0,1.6,0s1.1,0,1.6,0s1,0,1.6-0.1v1.1
	c-0.4,0-0.7,0-1-0.1c-0.3,0-0.6,0-1-0.1c-0.3,0-0.7,0-1.1-0.1c-0.4,0-0.9,0-1.5,0c0,0.4,0,0.7,0,1.1c0,0.3,0,0.7,0,1.2s0,0.9,0,1.3
	s0,0.8,0,1c0.5,0,1,0,1.4,0s0.8,0,1.1,0s0.7,0,0.9-0.1c0.3,0,0.6,0,0.8-0.1v1.1c-0.3,0-0.7-0.1-1.1-0.1c-0.4,0-0.8,0-1.2,0
	s-0.8,0-1.1,0s-0.6,0-0.9,0c0,0.1,0,0.2,0,0.3c0,0.1,0,0.3,0,0.5v0.7v1.1c0,0.7,0,1.2,0,1.7c0,0.4,0,0.8,0,1h1.2c0.4,0,0.9,0,1.3,0
	c0.4,0,0.8,0,1.2-0.1c0.4,0,0.7-0.1,1-0.1v1c-0.5,0-1.1,0-1.6,0h-1.6h-1.6c-0.5,0-1.1,0-1.6,0c0-0.8,0.1-1.5,0.1-2.3
	c0-0.7,0-1.5,0-2.3v-3C-247.3,268-247.3,267.2-247.3,266.5"/>
<path class="st0" d="M-230.9,271.8c-1.5-1.6-3.1-3.3-4.6-4.9c0,0.3,0,0.8,0,1.3c0,0.6,0,1.3,0,2.3c0,0.2,0,0.6,0,0.9
	c0,0.4,0,0.7,0,1.1s0,0.8,0,1.2c0,0.4,0,0.8,0,1.1c0,0.4,0,0.7,0,0.9c0,0.3,0,0.4,0,0.5h-1.3c0-0.1,0-0.3,0.1-0.7
	c0-0.3,0.1-0.7,0.1-1.1s0-0.9,0.1-1.4c0-0.5,0.1-1,0.1-1.6c0-0.5,0-1,0-1.5s0-0.9,0-1.3c0-1.1,0-2.1,0-2.9c0-0.8,0-1.4,0-1.8h0.3
	c0.7,0.8,1.5,1.6,2.3,2.5s1.6,1.8,2.4,2.6c0.8,0.9,1.6,1.7,2.3,2.5s1.4,1.4,1.9,2v-2.4c0-1.2,0-2.4,0-3.6s-0.1-2.3-0.1-3.3h1.2
	c0,0.3-0.1,0.6-0.1,1.2c0,0.5-0.1,1.1-0.1,1.7s-0.1,1.2-0.1,1.7c0,0.6,0,1,0,1.4v1.1c0,0.4,0,0.8,0,1.3c0,0.4,0,0.9,0,1.3
	s0,0.9,0,1.2c0,0.4,0,0.7,0,1v0.6h-0.2C-227.9,275-229.4,273.4-230.9,271.8"/>
<path class="st0" d="M-297.3,295.2c0-0.8,0-1.5,0-2.3v-3c0-0.8,0-1.5,0-2.3c0-0.7-0.1-1.5-0.1-2.3h1.7c0,0.8-0.1,1.5-0.1,2.3
	c0,0.7,0,1.5,0,2.3v1c0,0.1,0,0.1,0.1,0.1c0,0,0.1-0.1,0.2-0.2c0.4-0.4,0.8-0.8,1.3-1.2s0.9-0.9,1.4-1.4s0.9-1,1.4-1.5
	c0.4-0.5,0.9-1,1.3-1.5h1.6c-0.4,0.4-0.9,0.8-1.4,1.3s-1,1-1.6,1.5c-0.5,0.5-1,1-1.5,1.5s-0.9,0.9-1.2,1.3c1,1.1,1.9,2.2,2.9,3.3
	c1,1.1,2,2.2,3,3.3h-2c-0.4-0.5-0.9-1-1.4-1.7c-0.5-0.6-1-1.2-1.5-1.8s-0.9-1.1-1.3-1.6s-0.7-0.8-0.9-1c-0.1-0.1-0.2-0.1-0.2-0.1
	c-0.1,0-0.1,0-0.1,0.1v1.5c0,0.8,0,1.5,0,2.3c0,0.8,0.1,1.5,0.1,2.2h-1.7C-297.3,296.6-297.3,295.9-297.3,295.2"/>
<path class="st0" d="M-286.5,288.7c0.3-0.8,0.8-1.4,1.4-2c0.6-0.5,1.3-1,2.1-1.2c0.8-0.3,1.7-0.4,2.7-0.4s1.9,0.1,2.7,0.4
	c0.8,0.3,1.5,0.7,2.1,1.2c0.6,0.5,1,1.2,1.4,2c0.3,0.8,0.5,1.7,0.5,2.7s-0.2,1.9-0.5,2.7c-0.3,0.8-0.8,1.4-1.4,2
	c-0.6,0.5-1.3,0.9-2.1,1.2c-0.8,0.3-1.7,0.4-2.7,0.4s-1.9-0.1-2.7-0.4c-0.8-0.3-1.5-0.7-2.1-1.2s-1-1.2-1.4-2
	c-0.3-0.8-0.5-1.7-0.5-2.7C-287,290.3-286.8,289.4-286.5,288.7 M-275.9,288.8c-0.2-0.7-0.6-1.3-1-1.8s-1-0.8-1.6-1s-1.2-0.3-1.9-0.3
	c-0.7,0-1.3,0.1-1.9,0.3c-0.6,0.2-1.1,0.6-1.6,1c-0.4,0.5-0.8,1.1-1,1.8c-0.2,0.7-0.4,1.6-0.4,2.5c0,1,0.1,1.8,0.4,2.5
	c0.2,0.7,0.6,1.3,1,1.8s1,0.8,1.6,1c0.6,0.2,1.2,0.3,1.9,0.3c0.7,0,1.3-0.1,1.9-0.3c0.6-0.2,1.1-0.6,1.6-1c0.4-0.5,0.8-1.1,1-1.8
	c0.2-0.7,0.4-1.6,0.4-2.5C-275.5,290.4-275.6,289.5-275.9,288.8"/>
<path class="st0" d="M-266.6,289.9c0.8,1.6,1.7,3.2,2.6,4.9c0.1-0.2,0.3-0.5,0.5-1c0.2-0.4,0.5-0.9,0.8-1.4c0.3-0.5,0.6-1.1,0.9-1.8
	c0.3-0.6,0.7-1.3,1-1.9c0.3-0.6,0.7-1.3,1-1.9c0.3-0.6,0.7-1.2,1-1.7h0.2c0.1,1.1,0.2,2.2,0.4,3.3c0.1,1.1,0.2,2.1,0.3,3.1
	s0.2,2,0.4,3c0.1,1,0.2,2,0.4,3h-1.7c-0.1-1.6-0.3-3.1-0.4-4.6c-0.1-1.5-0.3-3-0.5-4.5l0,0c-0.8,1.5-1.6,3-2.4,4.4
	c-0.8,1.5-1.5,3-2.2,4.6h-0.2c-0.7-1.5-1.4-3-2.2-4.5c-0.8-1.5-1.5-3-2.3-4.6l0,0c-0.1,0.7-0.2,1.5-0.3,2.4
	c-0.1,0.9-0.2,1.7-0.3,2.5c-0.1,0.8-0.2,1.6-0.2,2.3c-0.1,0.7-0.1,1.3-0.1,1.8h-1.2c0.2-1,0.3-2,0.5-3c0.2-1.1,0.3-2.1,0.5-3.2
	c0.2-1.1,0.3-2.1,0.4-3.2c0.1-1,0.2-2,0.3-3h0.3C-268.2,286.7-267.4,288.3-266.6,289.9"/>
<path class="st0" d="M-249.2,289.9c0.8,1.6,1.7,3.2,2.6,4.9c0.1-0.2,0.3-0.5,0.5-1c0.2-0.4,0.5-0.9,0.8-1.4s0.6-1.1,0.9-1.8
	c0.3-0.6,0.7-1.3,1-1.9c0.3-0.6,0.7-1.3,1-1.9c0.3-0.6,0.7-1.2,1-1.7h0.2c0.1,1.1,0.2,2.2,0.4,3.3c0.1,1.1,0.2,2.1,0.3,3.1
	s0.2,2,0.4,3c0.1,1,0.2,2,0.4,3h-1.7c-0.1-1.6-0.3-3.1-0.4-4.6c-0.1-1.5-0.3-3-0.5-4.5l0,0c-0.8,1.5-1.6,3-2.4,4.4
	c-0.8,1.5-1.5,3-2.2,4.6h-0.1c-0.7-1.5-1.4-3-2.2-4.5s-1.5-3-2.3-4.6l0,0c-0.1,0.7-0.2,1.5-0.3,2.4c-0.1,0.9-0.2,1.7-0.3,2.5
	c-0.1,0.8-0.2,1.6-0.2,2.3c-0.1,0.7-0.1,1.3-0.1,1.8h-1.2c0.2-1,0.3-2,0.5-3c0.2-1.1,0.3-2.1,0.5-3.2s0.3-2.1,0.4-3.2
	c0.1-1,0.2-2,0.3-3h0.3C-250.8,286.7-250,288.3-249.2,289.9"/>
<path class="st0" d="M-226.7,287.1c0-0.9,0-1.5-0.1-1.9h1.3c0,0.4-0.1,0.9-0.1,1.5c0,0.6-0.1,1.2-0.1,1.8c0,0.7,0,1.3-0.1,2
	c0,0.7,0,1.4-0.1,2c0,0.8-0.1,1.5-0.4,2.1c-0.2,0.6-0.6,1.2-1,1.6s-0.9,0.8-1.6,1c-0.6,0.2-1.3,0.3-2.1,0.3c-1.8,0-3-0.4-3.8-1.2
	s-1.2-2.1-1.2-3.8c0-0.6,0-1,0-1.5c0-0.4,0-0.9,0-1.3c0-1,0-1.9,0-2.6c0-0.8,0-1.4-0.1-1.9h1.7c0,0.3,0,0.6-0.1,1
	c0,0.4,0,0.9-0.1,1.4c0,0.5,0,1.1-0.1,1.7c0,0.6,0,1.2,0,1.9c0,0.4,0,0.8,0,1.2s0.1,0.8,0.1,1.3c0.1,0.4,0.2,0.8,0.3,1.2
	c0.2,0.4,0.4,0.7,0.7,1c0.3,0.3,0.7,0.5,1.1,0.7c0.4,0.2,1,0.2,1.7,0.2c0.6,0,1.2-0.1,1.6-0.3c0.4-0.2,0.8-0.4,1.1-0.7
	c0.3-0.3,0.5-0.7,0.7-1.1c0.2-0.4,0.3-0.8,0.3-1.3c0.1-0.4,0.1-0.9,0.1-1.3s0-0.8,0-1.2C-226.7,289.3-226.7,288-226.7,287.1"/>
<path class="st0" d="M-215.4,292.8c-1.5-1.6-3.1-3.3-4.6-4.9c0,0.3,0,0.8,0,1.3c0,0.6,0,1.3,0,2.3c0,0.2,0,0.6,0,0.9
	c0,0.4,0,0.7,0,1.1s0,0.8,0,1.2c0,0.4,0,0.8,0,1.1c0,0.4,0,0.7,0,0.9c0,0.3,0,0.4,0,0.5h-1.3c0-0.1,0-0.3,0.1-0.7
	c0-0.3,0.1-0.7,0.1-1.1s0-0.9,0.1-1.4c0-0.5,0.1-1,0.1-1.6c0-0.5,0-1,0-1.5s0-0.9,0-1.3c0-1.1,0-2.1,0-2.9c0-0.8,0-1.4,0-1.8h0.3
	c0.7,0.8,1.5,1.6,2.3,2.5s1.6,1.8,2.4,2.6c0.8,0.9,1.6,1.7,2.3,2.5s1.4,1.4,1.9,2v-2.4c0-1.2,0-2.4,0-3.6c0-1.2-0.1-2.3-0.1-3.3h1.2
	c0,0.3,0,0.6-0.1,1.2c0,0.5-0.1,1.1-0.1,1.7s-0.1,1.2-0.1,1.7c0,0.6,0,1,0,1.4v1.1c0,0.4,0,0.8,0,1.3c0,0.4,0,0.9,0,1.3s0,0.9,0,1.2
	c0,0.4,0,0.7,0,1v0.6h-0.2C-212.4,296-213.9,294.4-215.4,292.8"/>
<path class="st0" d="M-205.9,287.5c0-0.8-0.1-1.5-0.1-2.3c0.5,0,1.1,0,1.6,0.1c0.5,0,1,0,1.6,0c0.5,0,1.1,0,1.6,0s1,0,1.6-0.1v1.1
	c-0.4,0-0.7,0-1-0.1c-0.3,0-0.6,0-1-0.1c-0.3,0-0.7,0-1.1-0.1c-0.4,0-0.9,0-1.5,0c0,0.4,0,0.7,0,1.1c0,0.3,0,0.7,0,1.2s0,0.9,0,1.3
	s0,0.8,0,1c0.5,0,1,0,1.4,0s0.8,0,1.1,0s0.7,0,0.9-0.1c0.3,0,0.6,0,0.8-0.1v1.1c-0.3,0-0.7-0.1-1.1-0.1c-0.4,0-0.8,0-1.2,0
	s-0.8,0-1.1,0c-0.4,0-0.6,0-0.9,0c0,0.1,0,0.2,0,0.3c0,0.1,0,0.3,0,0.5v0.7v1.1c0,0.7,0,1.2,0,1.7c0,0.4,0,0.8,0,1h1.2
	c0.4,0,0.9,0,1.3,0c0.4,0,0.8,0,1.2-0.1c0.4,0,0.7-0.1,1-0.1v1c-0.5,0-1.1,0-1.6,0h-1.6h-1.6c-0.5,0-1.1,0-1.6,0
	c0-0.8,0.1-1.5,0.1-2.3c0-0.7,0-1.5,0-2.3v-3C-205.8,289-205.8,288.3-205.9,287.5"/>
</svg>
