<?xml version="1.0" encoding="utf-8"?>
<!-- Generator: Adobe Illustrator 19.1.0, SVG Export Plug-In . SVG Version: 6.00 Build 0)  -->
<svg version="1.1" id="Layer_1" xmlns="http://www.w3.org/2000/svg" xmlns:xlink="http://www.w3.org/1999/xlink" x="0px" y="0px"
	 width="186.4px" height="70.5px" viewBox="0 0 186.4 70.5" style="enable-background:new 0 0 186.4 70.5;" xml:space="preserve">
<style type="text/css">
	.st0{fill:#0000FF;}
</style>
<g>
	<path class="st0" d="M9.5,16.2c0.1,0,0.1,0,0.1,0c0-0.1,0.2-0.2,0.2-0.3c0.1-0.2,0.2-0.4-0.2-0.7C9.4,14.9,9.1,14.9,9,15
		c-0.1,0-0.3,0.3-0.3,0.4c-0.1,0.1,0,0.1,0,0.2C8.7,15.6,9.2,16,9.5,16.2z"/>
	<path class="st0" d="M48.9,64c0-0.1,0-0.1-0.1,0c-0.1,0-0.6,0.3-0.6,0.3s-0.1,0.1,0,0.2c0,0,0.5,0.7,0.5,0.8c0,0.1,0.1,0,0.2,0
		c0.1,0,0.2-0.2,0.3-0.2c0.1,0,0.1-0.1,0.1-0.1C49.1,64.8,48.9,64.1,48.9,64z"/>
	<path class="st0" d="M5,24.4c0.1,0,0.1,0,0.1,0c0-0.1,0.3-0.6,0.1-0.8c-0.1-0.2-0.5-0.5-0.9-0.2c-0.1,0.1-0.2,0.5-0.3,0.6
		c0,0.1,0,0.1,0,0.1C4.2,24.2,4.5,24.3,5,24.4z"/>
	<path class="st0" d="M7.3,20.5c0.6,0.2,1.1,0.3,1.4-0.4c0.2-0.5-0.1-0.8-0.3-0.9c-0.1-0.1-0.4-0.1-0.6,0c-0.1,0.1-0.6,1.1-0.7,1.2
		C7.2,20.5,7.3,20.5,7.3,20.5z"/>
	<path class="st0" d="M3.2,41.9c0,0.1,0.1,0.1,0.1,0.1c0.1,0,0.8,0,0.9,0c0.1,0,0.1,0,0.1-0.1c0-0.1-0.1-0.6-0.1-0.7
		C4.1,41,4.1,41,4,41c-0.1,0-0.8,0.3-0.9,0.3c-0.1,0-0.1,0.1,0,0.1C3.1,41.6,3.2,41.8,3.2,41.9z"/>
	<path class="st0" d="M6.8,20.3c0.1,0,0.1,0,0.1,0c0.1-0.1,0.9-1.4,0.4-1.7c-0.2-0.1-0.8-0.1-1.1,0.5C6.1,19.5,6.6,20.1,6.8,20.3z"
		/>
	<path class="st0" d="M26.7,64.8c-0.1,0-0.3-0.1-0.4,0c-0.2,0.1-0.5,0.3-0.7,1.1c-0.2,0.8-0.1,1.1,0,1.2c0.1,0.1,0.4,0.2,0.5,0.2
		c0.1,0,0.1,0,0.1-0.1c0-0.1,0.2-0.5,0.4-1.1c0.1-0.5,0.2-1.1,0.2-1.1C26.8,64.8,26.8,64.8,26.7,64.8z"/>
	<path class="st0" d="M21.8,62.9c-0.5-0.2-0.8,0.2-0.9,0.3c-0.1,0.2-0.1,0.4,0,0.6c0.1,0.1,1.1,0.5,1.2,0.6c0.1,0,0.1,0,0.1-0.1
		C22.5,63.8,22.5,63.2,21.8,62.9z"/>
	<path class="st0" d="M20.3,64.4c-0.1,0.2-0.1,0.8,0.5,1c0.5,0.2,1.1-0.3,1.2-0.6c0-0.1,0-0.1,0-0.1C21.9,64.6,20.6,63.9,20.3,64.4z
		"/>
	<path class="st0" d="M16.5,10c0.4,0.4,0.9,0.8,1.5,0.3c0.4-0.4,0.3-0.8,0.2-1C18,9.1,17.8,9,17.6,9c-0.1,0-1,0.7-1.1,0.8
		C16.5,9.9,16.5,9.9,16.5,10z"/>
	<path class="st0" d="M3.2,32.2c0.1,0,0.1,0,0.1-0.1c0-0.1,0.3-1.5-0.2-1.5c-0.2,0-0.7,0.1-0.8,0.7C2.4,31.8,3,32.2,3.2,32.2z"/>
	<path class="st0" d="M67.1,35.6c-1,0-1.3,0.4-1.3,0.5c0,0.1,0.4,0.5,1.3,0.5c0.9,0,1.4-0.4,1.4-0.5C68.5,36,68.1,35.6,67.1,35.6z"
		/>
	<path class="st0" d="M5.5,24.6c0,0,0.6,0.2,0.9,0.2c0.1,0,0.1,0,0.1-0.1c0-0.1,0.2-0.4,0.1-0.8c0-0.2-0.6-0.6-0.9-0.2
		c-0.1,0.1-0.3,0.7-0.3,0.8C5.4,24.6,5.4,24.6,5.5,24.6z"/>
	<path class="st0" d="M3.9,32.3c0.6,0,1-0.1,1.1-0.8c0-0.5-0.4-0.7-0.5-0.7c-0.1,0-0.4,0.1-0.5,0.2C3.8,31.1,3.7,32.1,3.9,32.3
		C3.8,32.3,3.8,32.3,3.9,32.3z"/>
	<path class="st0" d="M35.2,0C15.8,0,0,15.8,0,35.2c0,19.5,15.8,35.2,35.2,35.2c19.5,0,35.2-15.8,35.2-35.2C70.5,15.8,54.7,0,35.2,0
		z M67,26.4c0.2-0.1,0.5,0.1,0.6,0.4c0.1,0.3-0.1,0.6-0.3,0.6c-0.3,0.1-0.5-0.1-0.6-0.4C66.6,26.7,66.8,26.5,67,26.4z M64.8,19.8
		c0-0.1,0.1-0.1,0.1,0c0,0.1,0.2,0.3,0.3,0.7c0.2,0.4,0.3,0.7,0.3,0.8c0,0.1,0,0.1-0.1,0.1c0,0.1-0.7,0.8-0.8,0.9
		c-0.1,0.1,0,0.1,0,0.1c0.1,0,1.1,0.1,1.2,0.1c0.1,0,0.1,0,0.2,0.1c0,0.1,0.2,0.5,0.3,0.6c0.1,0.2,0.3,0.7,0.3,0.7
		c0,0.1,0,0.1-0.1,0.1c-0.1,0-0.2-0.2-1.4,0.3c-1.2,0.6-1.2,0.7-1.2,0.9c0,0.1-0.1,0.1-0.1,0.1c-0.1-0.1-0.2-0.4-0.4-0.8
		s-0.3-0.7-0.3-0.8c0-0.1,0.1-0.1,0.1,0c0.2,0.1,0.8,0,1.4-0.3c0.6-0.3,0.9-0.4,0.9-0.4c0.1,0,0.1-0.1,0-0.1c-0.1,0-1.6-0.2-1.8-0.2
		c-0.1,0-0.1-0.1-0.1-0.2c0.1-0.1,1-1.3,1.1-1.4c0.1-0.1,0-0.1-0.1-0.1c-0.1,0-0.4,0.2-0.9,0.4c-0.8,0.3-1.2,0.6-1.1,0.9
		c0,0.1-0.1,0.2-0.1,0.1c-0.1-0.1-0.2-0.5-0.4-0.8c-0.1-0.3-0.2-0.6-0.3-0.7c0-0.1,0-0.1,0.1-0.1c0.1,0,0.2,0.3,1.4-0.2
		C64.4,20.2,64.8,20,64.8,19.8z M65.3,28.1c-0.3,0.1-0.6-0.1-0.6-0.4c-0.1-0.3,0.1-0.6,0.3-0.6c0.3-0.1,0.6,0,0.7,0.3
		C65.7,27.8,65.6,28.1,65.3,28.1z M62,15.2C61.9,15.1,62,15.1,62,15.2c0.2,0,0.3,0.2,0.6,0.6c0.3,0.4,0.4,0.7,0.5,0.8
		c0,0.1,0,0.1-0.1,0.1c-0.1,0-0.3-0.1-0.6,0.2c-0.3,0.3-0.8,1.1-1,1.4c-0.1,0.1,0,0.1,0.1,0.1c0.1,0,1.1-0.1,1.7-0.4
		c0.3-0.1,0.4-0.4,0.4-0.4c0-0.1,0-0.1,0.1,0c0.1,0.1,0.3,0.3,0.5,0.6c0.2,0.3,0.4,0.7,0.4,0.7c0,0.1,0,0.2-0.1,0.1
		c-0.1-0.1-0.6-0.3-2.1-0.2c-1.5,0.1-1.7,0-1.8,0c-0.1,0-0.1-0.1-0.1-0.1c0-0.1,1.1-2.1,1.3-2.4C61.8,15.8,62,15.3,62,15.2z
		 M58.3,13.5c0.8-0.8,1.1-1,1-1.2c0-0.1,0-0.1,0.1-0.1c0.1,0.1,0.3,0.3,0.5,0.6c0.3,0.3,0.4,0.5,0.5,0.6c0.1,0.1,0,0.1-0.1,0.1
		c-0.3,0-0.8,0.2-1.4,0.7c-0.6,0.6-0.7,0.6-0.7,0.6c0,0-0.1,0.1,0,0.1c0,0.1,0.3,0.3,0.4,0.5c0.2,0.2,0.5,0.2,0.7,0.1
		c0.2-0.2,0.3-0.3,0.2-0.4c0-0.1,0-0.1,0.1-0.1c0.1,0,0.3,0.1,0.4,0.2c0.2,0.2,0.4,0.7,0,1s-0.9,0.3-1.4-0.2c-0.5-0.5-0.9-1-1.1-1.2
		c-0.2-0.2-0.3-0.4-0.4-0.5c-0.1-0.1-0.1-0.2,0-0.1C57.3,14.3,57.4,14.3,58.3,13.5z M54.8,10.4c0.7-0.9,0.9-1.2,0.8-1.4
		c0-0.1,0-0.1,0.1-0.1C55.8,9,56,9.2,56.3,9.5c0.3,0.3,0.5,0.4,0.6,0.5c0.1,0.1,0.1,0.1,0,0.1c-0.3,0-0.8,0.3-1.3,0.9
		C55,11.7,55,11.7,55,11.7c0,0,0,0.1,0,0.1c0.1,0,0.3,0.3,0.5,0.4c0.2,0.2,0.5,0.1,0.7,0c0.2-0.2,0.2-0.4,0.2-0.4
		c-0.1-0.1,0-0.1,0-0.1c0.1,0,0.3,0,0.4,0.2c0.2,0.2,0.5,0.6,0.1,1c-0.4,0.4-0.9,0.4-1.4,0c-0.5-0.5-1-0.9-1.2-1.1
		c-0.2-0.2-0.4-0.3-0.5-0.4c-0.1-0.1-0.1-0.2,0-0.1C53.9,11.3,54.1,11.3,54.8,10.4z M52.1,8.2c0.7-1,0.5-1.2,0.4-1.3
		c-0.1-0.1,0-0.1,0.1-0.1c0.1,0,0.4,0.2,0.8,0.5c0.4,0.2,0.7,0.5,0.7,0.5c0.1,0.1,0,0.1,0,0.1c-0.1,0-0.5,0-1.1,0.9
		c-0.8,1.1-0.6,1.3-0.5,1.4c0.1,0.1,0.1,0.2-0.1,0.1c-0.1-0.1-0.4-0.2-0.7-0.5c-0.3-0.2-0.7-0.5-0.8-0.6c-0.1-0.1-0.1-0.1,0.1-0.1
		C51.1,9.2,51.4,9.3,52.1,8.2z M47.4,5.6c0.5-0.9,1.6-1,2.3-0.7c0.5,0.3,0.5,0.5,0.8,0.7c0.3,0.2,0.5,0.1,0.7,0c0.1,0,0.2,0,0.1,0.1
		c-0.1,0.1-0.4,0.5-0.5,0.5c-0.1,0.1-0.1,0.1-0.2,0c-0.1-0.1-0.3-0.6-0.8-0.9c-0.3-0.2-0.8,0.1-1.2,0.8C48,7,48,7.5,48.4,7.7
		c0.4,0.2,0.9,0.2,1.1-0.1c0.1-0.2,0-0.4-0.2-0.4c-0.1-0.1-0.4,0-0.4,0c-0.1,0.1-0.1,0.1-0.1,0c0-0.1-0.1-0.2,0.1-0.5
		c0.2-0.3,0.6-0.4,0.9-0.2c0.4,0.2,0.7,0.7,0.4,1.2c-0.3,0.5-0.9,1-2,0.5C47,7.4,46.9,6.5,47.4,5.6z M43.9,6c0.1,0,0.4,0,0.9-1.2
		c0.4-1.1,0.2-1.3,0-1.4c-0.1-0.1-0.1-0.1,0-0.1s0.4,0.1,0.9,0.2c0.4,0.1,0.8,0.3,0.8,0.3c0.1,0.1,0.1,0.1,0,0.1
		c-0.1,0-0.5,0.1-0.8,1.1c-0.4,1.3-0.2,1.4-0.1,1.5c0.1,0.1,0.1,0.2-0.1,0.1c-0.2,0-0.5-0.1-0.8-0.3c-0.4-0.1-0.8-0.3-0.9-0.3
		C43.7,6.1,43.7,6,43.9,6z M39.2,5.3c0-0.1,0.2-0.9,0.1-1.3c0-0.2,0.1-0.2,0.2,0c0.1,0.2,0.5,1.1,1.5,1.3c0.6,0.1,0.8-0.1,0.8-0.3
		c0.1-0.3-0.6-0.6-1-0.7c-0.9-0.2-1.2-0.8-1.1-1.4c0.2-0.7,1.2-0.7,1.7-0.6c0.5,0.1,0.9,0.4,1.2,0.4c0.4,0,0.6-0.1,0.7-0.2
		c0.1,0,0.1,0,0.1,0.1c-0.1,0.1-0.5,0.8-0.5,0.8c-0.1,0.1-0.1,0-0.2,0c-0.1,0-0.8-0.7-1.4-0.8c-0.5-0.1-0.7,0-0.7,0.2
		c-0.1,0.4,0.8,0.6,1.3,0.8c0.6,0.3,1,0.7,0.8,1.3c-0.1,0.6-0.8,1-1.8,0.7c-0.6-0.1-0.7-0.4-1.1-0.5c-0.2,0-0.4,0-0.5,0.1
		C39.2,5.4,39.1,5.4,39.2,5.3z M33.4,2.9c0-0.1,0.1-0.1,0.1,0c0,0.1,0.1,0.2,0.6,0.2c0.5,0.1,0.7,0,0.7,0c0,0,0-0.1,0-0.5
		c0-0.4-0.2-0.7-0.4-0.8c-0.2-0.1-0.1-0.1,0-0.1c0.1,0,0.3-0.1,0.8-0.1s0.6,0,0.8,0.1c0.1,0,0.1,0.1,0,0.1c-0.1,0.1-0.3,0.2-0.4,0.7
		c-0.1,0.5-0.1,0.6-0.1,0.6c0,0,0.2,0,0.6-0.1c0.5-0.1,0.7-0.1,0.7-0.3C37,2.7,37,2.7,37,2.8c0,0.1,0,0.2,0,0.6c0,0.4,0,0.5-0.1,0.7
		c0,0.1-0.1,0.1-0.1,0c0-0.1-0.4-0.3-0.7-0.4c-0.3,0-0.6-0.1-0.6-0.1c0,0,0,0.2,0.1,0.6C35.7,4.7,35.8,5,35.9,5c0.1,0,0.2,0.1,0,0.1
		c-0.1,0-0.3,0-0.7,0s-0.7,0-0.8-0.1c-0.1,0-0.1-0.1,0-0.1c0.1,0,0.3-0.3,0.4-0.8c0.1-0.5,0.1-0.6,0.1-0.6c0,0-0.1,0-0.7,0.1
		c-0.5,0.2-0.6,0.2-0.7,0.3c-0.1,0.1-0.1,0.1-0.1,0c0-0.1,0-0.2,0-0.6C33.4,3.1,33.4,3,33.4,2.9z M29,2.4c0.1,0,0.4-0.1,0.9-0.2
		c0.4-0.1,0.8-0.1,0.9-0.1c0.1,0,0.1,0.1,0,0.1s-0.4,0.3-0.2,1.4c0.2,1.4,0.5,1.3,0.7,1.4c0.1,0,0.2,0.1,0,0.1
		c-0.2,0.1-0.5,0.1-0.8,0.2c-0.4,0.1-0.8,0.1-0.9,0.1c-0.1,0-0.2-0.1,0-0.1c0.1,0,0.4-0.2,0.2-1.5c-0.2-1.2-0.5-1.2-0.6-1.3
		C28.9,2.5,28.9,2.4,29,2.4z M25.5,3.1c0.5-0.2,1-0.1,1.3-0.3c0.3-0.2,0.5-0.4,0.5-0.5c0-0.1,0.1-0.1,0.1,0c0,0.1,0,0.9,0,1
		c0,0.1-0.1,0.1-0.1,0.1s-1-0.1-1.6,0.1c-0.4,0.2-0.5,0.4-0.5,0.6c0.1,0.4,1,0,1.5,0C27.3,4,27.8,4.2,28,4.7
		c0.2,0.5-0.2,1.3-1.2,1.6c-0.6,0.2-0.8,0-1.2,0.1c-0.2,0.1-0.3,0.3-0.3,0.3c0,0.1-0.1,0.2-0.1,0c0-0.1-0.3-0.9-0.6-1.2
		c-0.2-0.2,0-0.2,0.1-0.1c0.1,0.1,1,0.6,2,0.3c0.6-0.2,0.6-0.5,0.6-0.7C27.1,4.9,26.4,5,26,5.1c-0.9,0.3-1.5,0-1.7-0.6
		C24.1,3.8,25,3.3,25.5,3.1z M18.9,6.2c0.1-0.1,0.2-0.2,0.6-0.3c0.4-0.2,0.5-0.3,0.6-0.3c0.1,0,0.2,0,0.2,0c0.1,0,0.8,0.6,1.1,0.9
		c0.4,0.4,0.9,0.6,1,0.7c0.1,0.1,0.2,0,0.1-0.1c-0.1-0.1-0.4-0.7-0.6-1c-0.5-0.9-0.8-1-0.9-1c-0.1,0-0.2,0-0.1-0.1
		c0.1-0.1,0.5-0.3,0.8-0.4c0.3-0.1,0.6-0.2,0.7-0.3c0.1,0,0.2,0,0.1,0.1c-0.1,0.1-0.2,0.4,0.3,1.4c0.3,0.7,0.7,1.2,0.8,1.2
		s0.2,0.1,0.1,0.2c-0.1,0.1-0.2,0.1-0.5,0.3c-0.3,0.1-0.6,0.3-0.6,0.3c-0.1,0.1-0.2,0.1-0.2,0c-0.1,0-0.6-0.4-1.1-0.8
		c-0.5-0.4-0.9-0.7-1-0.8c-0.1-0.1-0.2,0-0.1,0.1c0.1,0.1,0.4,0.7,0.6,1c0.5,0.8,0.7,0.9,0.9,0.9c0.2,0,0.1,0.1,0,0.1
		c-0.1,0.1-0.5,0.3-0.8,0.4C20.6,8.9,20.3,9,20.2,9c-0.1,0-0.1,0-0.1-0.1c0-0.1,0.2-0.3-0.3-1.2c-0.5-1-0.7-1.3-0.9-1.3
		C18.8,6.4,18.8,6.3,18.9,6.2z M15.9,8.1c0.8-0.6,1-0.2,1.2-1.3c0-0.1,0.1-0.2,0.1,0c0,0.1,0.2,1.1,0.7,1.9c0.6,0.8,1,1.1,1.1,1.2
		c0.2,0,0.1,0.1,0,0.1c-0.7,0.1-0.3,0.3-1.2,1c-0.9,0.7-1.8,0.4-2.4-0.4C14.9,9.7,15.1,8.6,15.9,8.1z M35.2,6.6
		c15.8,0,28.6,12.8,28.6,28.6C63.9,51,51,63.9,35.2,63.9C19.4,63.9,6.6,51,6.6,35.2C6.6,19.4,19.4,6.6,35.2,6.6z M11.9,11.2
		c0.4-0.4,0.6-0.3,0.9-0.5c0.2-0.2,0.2-0.5,0.2-0.6c0-0.1,0-0.2,0.1,0c0.1,0.1,0.3,0.5,0.4,0.6c0,0.1,0,0.1-0.1,0.1
		c-0.1,0-0.7,0.1-1.1,0.5c-0.2,0.2-0.2,0.8,0.4,1.4c0.7,0.7,1.2,0.8,1.5,0.5c0.3-0.3,0.5-0.8,0.2-1.1c-0.2-0.2-0.4-0.1-0.5,0
		c-0.1,0.1-0.2,0.3-0.1,0.4c0.1,0.1,0.1,0.1-0.1,0.1c-0.1,0-0.2,0-0.5-0.2c-0.2-0.2-0.2-0.7,0.1-1c0.3-0.3,0.8-0.4,1.3,0
		c0.4,0.4,0.7,1.2-0.2,2c-1,0.9-1.9,0.8-2.6,0C11.1,12.8,11.3,11.8,11.9,11.2z M7.6,16.3c0.1-0.1,0.4-0.6,0.7-1
		c0.3-0.4,0.6-0.9,0.8-1c0.2-0.2,0.9-0.5,1.3-0.1c0.5,0.5,0.1,0.8-0.1,1.4c0,0.1,0,0.1,0.1,0.1c0.1,0,0.9-0.4,1.1-0.7
		c0.2-0.3,0.1-0.4,0.1-0.4c0-0.1,0-0.1,0.1-0.1c0.1,0,0.7,0.3,0.6,0.8c-0.2,0.6-0.6,0.7-1.1,0.8c-0.5,0.1-1,0-1.1,0.1
		c-0.1,0-0.1,0.1,0,0.1c0.5,0.3,0.9,0.5,1,0.4c0.1-0.1,0.2-0.1,0.1,0.1s-0.3,0.4-0.5,0.7c-0.2,0.2-0.5,0.6-0.5,0.7
		c-0.1,0.1-0.1,0-0.1-0.1s0-0.5-0.9-1.1c-0.9-0.6-1.2-0.7-1.4-0.6C7.6,16.5,7.5,16.4,7.6,16.3z M5.9,19.1c0.4-0.8,0.8-0.7,0.6-1.7
		c0-0.1,0-0.2,0.1-0.1c0.1,0.1,0.6,0.9,1.5,1.4c0.8,0.4,1.4,0.6,1.5,0.6c0.2,0,0.2,0.1,0,0.1C9,19.8,9.5,19.8,9,20.8
		c-0.5,1-1.5,1.1-2.4,0.7C5.7,21,5.5,20,5.9,19.1z M3.8,24c0.2-0.5,0.4-1.2,0.5-1.4c0.1-0.2,0.4-0.5,0.8-0.3
		c0.5,0.2,0.6,0.6,0.6,0.7c0,0.1,0,0.1,0.1,0c0-0.1,0.3-0.5,0.8-0.4c0.4,0.1,0.6,0.6,0.6,1c0,0.4-0.3,1.2-0.4,1.5
		c-0.1,0.3-0.4,1.2-0.5,1.3c0,0.1-0.1,0.1-0.1,0c0-0.1,0.1-0.5-1.2-0.9c-1.3-0.4-1.4-0.2-1.5-0.1c-0.1,0.1-0.1,0-0.1,0
		C3.4,25.2,3.7,24.5,3.8,24z M5.7,28.2c-0.1,0.3-0.3,0.5-0.6,0.4c-0.3-0.1-0.5-0.3-0.4-0.6c0.1-0.3,0.4-0.5,0.6-0.4S5.8,28,5.7,28.2
		z M2.7,27.3C2.8,27,3.1,26.9,3.3,27c0.3,0.1,0.4,0.4,0.3,0.6C3.6,27.9,3.3,28,3.1,28C2.8,27.9,2.7,27.6,2.7,27.3z M1.9,29.7
		c0.1,0.1,0.9,0.6,1.9,0.7c0.9,0.1,1.5,0,1.6,0c0.1-0.1,0.2,0,0.1,0.1c-0.4,0.6,0,0.4-0.1,1.5c-0.1,1.1-1,1.6-2,1.5
		c-0.9-0.1-1.6-1-1.5-2C2.1,30.6,2.5,30.6,1.9,29.7C1.8,29.7,1.8,29.6,1.9,29.7z M1.9,38.2c0-0.1,0.1-0.2,0.1-0.4
		c0-0.3-0.1-0.7-0.1-1.3c0-0.6,0.1-1.2-0.6-1.8c-0.1-0.1-0.1-0.2,0-0.1c0.4,0.1,0.9,0.3,1.3,0.3c0.1,0,0.1,0.1,0.1,0.1
		c-0.1,0.1-0.2,0.1-0.2,0.2c0,0.1-0.1,0.1-0.1,0.2c0,0.1,0,0.5,0,0.6C2.4,36,2.5,36,2.5,36c0.1,0,0.8-0.1,1.1-0.1
		c0.8-0.1,1.1-0.3,1.1-0.4c0-0.2,0.1-0.2,0.2,0C5,35.5,5,36,5,36.3c0,0.3,0,0.8,0,0.9c0,0.1-0.1,0.2-0.1,0C4.8,37.1,4.5,37,3.8,37
		c-0.4,0-1.1,0-1.2,0c-0.1,0-0.1,0-0.1,0.1c0,0.4,0.1,0.9,0.3,1c0.1,0.1,0.1,0.1,0,0.1C2.7,38.2,2,38.3,1.9,38.2
		C1.9,38.4,1.8,38.3,1.9,38.2z M2.1,40c0.1,0.1,0.5,0.5,0.6,0.5c0,0,0.1,0.1,0.2,0C3,40.6,3.5,40.3,4,40c0.8-0.6,1-1.1,1-1.2
		c0-0.1,0.1-0.2,0.1-0.1c0,0.1,0.2,0.6,0.2,1s0.1,0.8,0.1,0.9c0,0.1-0.1,0.1-0.1,0c-0.1,0-0.1-0.1-0.8,0.2c-0.1,0-0.1,0.1-0.1,0.1
		s0.1,0.8,0.2,0.9s0,0.1,0.1,0.1c0.6,0,0.8-0.2,0.8-0.3c0-0.1,0.1-0.1,0.1,0c0,0.1,0.2,0.7,0.2,0.9c0,0.2,0.1,0.7,0.1,0.8
		c0,0.1,0,0.1-0.1,0c-0.1-0.1-0.3-0.3-1.5-0.5c-0.4-0.1-1.3-0.2-1.5,0.2c-0.1,0.1-0.1,0.1-0.1,0c-0.2-1.2-0.4-2.1-0.7-2.8
		C2,40,2,39.9,2.1,40z M4.4,48.4c0-0.1,0.1-0.2,0-0.4c-0.1-0.2-0.3-0.7-0.5-1.3c-0.2-0.6-0.2-1.2-1.1-1.6c-0.1,0-0.1-0.1,0-0.1
		c0.4,0,1,0,1.3-0.1c0.1,0,0.2,0,0.1,0.1c-0.1,0.1-0.1,0.2-0.1,0.3c0,0.1,0,0.1,0,0.2c0,0.1,0.2,0.5,0.2,0.6c0,0.1,0.1,0.1,0.1,0.1
		c0.1,0,0.7-0.3,1.1-0.5c0.7-0.3,0.9-0.6,0.9-0.7c0-0.2,0.1-0.2,0.1-0.1c0,0.1,0.2,0.5,0.3,0.8c0.1,0.3,0.3,0.8,0.3,0.9
		c0.1,0.1,0,0.2-0.1,0.1c-0.1-0.1-0.5-0.1-1.2,0.1c-0.4,0.1-1.1,0.3-1.1,0.3S4.7,47,4.7,47.1c0.1,0.4,0.4,0.8,0.6,0.9
		C5.4,48,5.4,48,5.3,48c-0.1,0-0.7,0.4-0.8,0.4C4.5,48.5,4.4,48.5,4.4,48.4z M6.1,51.2c0,0.1-0.1,0.1-0.1,0
		c-0.1-0.1-0.2-0.4-0.4-0.8c-0.2-0.4-0.3-0.7-0.4-0.8c0-0.1,0-0.1,0.1-0.1c0.1,0.1,0.4,0.3,1.4-0.2c1.2-0.6,1.2-0.9,1.1-1
		c0-0.1,0-0.2,0.1,0c0.1,0.1,0.2,0.4,0.4,0.8c0.2,0.4,0.4,0.8,0.4,0.9c0,0.1,0,0.2-0.1,0.1c-0.1-0.1-0.3-0.3-1.5,0.3
		C6,50.8,6,51.1,6.1,51.2z M9.1,55.9C9.1,56,9.1,56.1,9.1,55.9c-0.2,0-0.3-0.2-0.6-0.6c-0.3-0.4-0.4-0.7-0.5-0.7
		c0-0.1,0-0.1,0.1-0.1c0.1,0,0.3,0.1,0.6-0.2c0.3-0.3,0.8-1.1,1-1.4c0.1-0.1,0-0.1-0.1-0.1c-0.1,0-1.1,0.1-1.7,0.4
		c-0.3,0.1-0.4,0.4-0.4,0.5s0,0.1-0.1,0c-0.1-0.1-0.3-0.3-0.5-0.6c-0.2-0.3-0.4-0.6-0.4-0.7c0-0.1,0-0.2,0.1-0.1
		c0.1,0.1,0.6,0.3,2.1,0.2c1.5-0.1,1.7-0.1,1.8-0.1c0.1,0,0.1,0.1,0.1,0.1c0,0.1-1.1,2.1-1.3,2.4C9.2,55.3,9.1,55.8,9.1,55.9z
		 M10.9,58.1c-0.1-0.1-0.3-0.3-0.6-0.6c-0.3-0.3-0.5-0.6-0.6-0.7c-0.1-0.1,0-0.1,0.1-0.1c0.1,0,0.5,0.1,1.3-0.6
		c1-0.9,0.8-1.2,0.8-1.3c-0.1-0.1,0-0.2,0.1-0.1c0.1,0.1,0.4,0.3,0.6,0.6c0.3,0.3,0.6,0.6,0.6,0.7c0.1,0.1,0,0.2-0.1,0.1
		c-0.1,0-0.4-0.2-1.3,0.7C10.8,57.6,10.9,57.9,10.9,58.1C11.1,58.1,11,58.2,10.9,58.1z M15.5,60.8c-0.8,0.7-2,0.4-2.5-0.3
		c-0.5-0.6-0.3-0.6-0.5-0.8c-0.3-0.3-0.8-0.4-0.9-0.4c-0.2,0-0.2-0.1,0-0.1c0.3,0,0.9-0.2,1.2-0.4c0.1,0,0.1,0,0.1,0.1
		c0,0.2,0,0.8,0.3,1.2c0.3,0.4,1,0.3,1.6-0.2c0.6-0.5,0.7-1.1,0.4-1.4c-0.3-0.3-0.9-0.4-1.2-0.3c-0.3,0.1-0.3,0-0.1-0.1
		c0.2-0.1,0.5-0.5,0.6-0.6c0.1-0.2,0.2-0.2,0.2,0c0,0.2,0.1,0.3,0.5,0.6C16,58.4,16.9,59.8,15.5,60.8z M17.6,63.1
		c-0.2,0.2-0.5,0.3-0.7,0.1c-0.2-0.2-0.3-0.5-0.1-0.7c0.2-0.2,0.5-0.3,0.7-0.1C17.7,62.6,17.7,62.9,17.6,63.1z M18.8,61.4
		c-0.2,0.2-0.4,0.4-0.7,0.1c-0.3-0.2-0.3-0.5-0.1-0.7c0.2-0.2,0.5-0.3,0.7-0.1C19,60.9,19,61.2,18.8,61.4z M23.2,65
		c-0.4,0.9-1.4,1.2-2.3,0.8c-0.9-0.4-0.7-0.8-1.7-0.4c-0.1,0-0.2,0-0.1-0.1c0.1-0.1,0.9-0.7,1.2-1.6c0.4-0.9,0.5-1.4,0.5-1.6
		c0-0.2,0-0.2,0.1-0.1c0.4,0.6,0.4,0.1,1.4,0.5C23.4,63.2,23.6,64.1,23.2,65z M28.2,65c-0.1,0-0.4,0-0.7,1.3c-0.3,1.2-0.1,1.3,0,1.4
		s0,0.2,0,0.1c-0.1,0-1-0.3-1.4-0.4c-0.8-0.2-1.2-0.3-1.4-0.6c-0.3-0.3-0.4-0.7-0.2-1.4c0.2-0.6,0.5-1.1,1-1.2
		c0.4-0.1,1.2,0.2,1.6,0.3c0.6,0.2,1.1,0.3,1.2,0.3C28.3,64.9,28.3,64.9,28.2,65z M30.2,68.2c-0.3-0.1-0.5-0.3-0.4-0.6
		c0-0.3,0.3-0.5,0.6-0.4c0.3,0,0.5,0.3,0.4,0.6C30.8,68.1,30.5,68.3,30.2,68.2z M30.6,66.4c-0.4-0.1-0.5-0.3-0.5-0.6
		c0-0.3,0.3-0.5,0.6-0.4c0.3,0.1,0.5,0.3,0.5,0.6C31.1,66.2,30.9,66.4,30.6,66.4z M36.7,66.8c-0.1-0.1-0.8-0.9-1.7-0.9
		c-0.6,0-0.8,0.3-0.8,0.5c0,0.3,0.7,0.5,1.1,0.5c0.9,0,1.4,0.5,1.4,1.1c0,0.8-1,1-1.5,1c-0.5,0-1-0.2-1.3-0.2
		c-0.4,0.1-0.6,0.3-0.6,0.3c-0.1,0.1-0.1,0-0.1,0c0-0.1,0.3-0.8,0.3-0.9c0-0.1,0.1-0.1,0.2,0c0.1,0,0.9,0.5,1.6,0.4
		c0.5,0,0.6-0.2,0.6-0.4c0-0.4-1-0.4-1.4-0.5c-0.7-0.1-1.1-0.5-1.1-1c0-0.6,0.6-1.1,1.6-1.1c0.7,0,0.7,0.3,1.2,0.3
		c0.2,0,0.4-0.1,0.4-0.2c0-0.1,0.2-0.1,0.1,0c0,0.1,0,0.9,0.2,1.3C36.9,67,36.8,67,36.7,66.8z M40.3,68.3c-0.1,0-0.4,0.1-0.9,0.1
		c-0.4,0-0.8,0-0.9,0c-0.1,0-0.1-0.1,0-0.1c0.1,0,0.4-0.3,0.3-1.4c-0.1-1.4-0.4-1.4-0.5-1.4c-0.1,0-0.2-0.1,0-0.1
		c0.2,0,0.5-0.1,0.9-0.1c0.4,0,0.8-0.1,0.9-0.1c0.1,0,0.1,0.1,0,0.1c-0.1,0-0.4,0.2-0.3,1.5c0.1,1.2,0.4,1.3,0.5,1.3
		C40.4,68.3,40.4,68.3,40.3,68.3z M45.5,67.3c-0.1,0-0.2-0.1-0.4,0c-0.2,0.1-0.7,0.2-1.3,0.4c-0.6,0.2-1.2,0.2-1.6,1
		c0,0.1-0.1,0.1-0.1,0c0.1-0.4,0.1-1,0-1.3c0-0.1,0-0.2,0.1-0.1c0.1,0.1,0.2,0.1,0.2,0.2c0.1,0,0.1,0,0.2,0c0.1,0,0.5-0.1,0.6-0.2
		c0.1,0,0.1-0.1,0.1-0.1c0-0.1-0.2-0.7-0.4-1.1c-0.3-0.7-0.6-1-0.7-1c-0.2,0-0.2-0.1,0-0.1c0.1,0,0.5-0.2,0.8-0.3
		c0.3-0.1,0.8-0.2,0.9-0.2c0.1,0,0.2,0,0.1,0.1c-0.1,0.1-0.2,0.5,0,1.2c0.1,0.4,0.2,1.1,0.2,1.1c0,0.1,0,0.1,0.1,0.1
		c0.4-0.1,0.8-0.3,0.9-0.5c0-0.2,0.1-0.1,0.1,0C45.2,66.5,45.5,67.1,45.5,67.3C45.6,67.3,45.5,67.3,45.5,67.3z M50.3,65.2
		c-1.1,0.5-2,0.9-2.6,1.4c-0.1,0.1-0.2,0-0.1,0c0.1-0.1,0.4-0.6,0.4-0.7c0-0.1,0-0.1,0-0.2c0-0.1-0.4-0.6-0.9-0.9
		c-0.8-0.6-1.3-0.7-1.4-0.6c-0.1,0-0.2,0-0.1-0.1c0.1-0.1,0.6-0.3,0.9-0.5c0.4-0.2,0.7-0.3,0.8-0.3c0.1,0,0.1,0,0.1,0.1
		c0,0.1-0.1,0.1,0.4,0.8c0,0.1,0.1,0,0.1,0s0.7-0.3,0.8-0.4c0.1,0,0.1-0.1,0.1-0.1c-0.1-0.6-0.4-0.8-0.5-0.7c-0.1,0-0.1-0.1,0-0.1
		c0.1,0,0.6-0.3,0.8-0.4c0.2-0.1,0.6-0.3,0.7-0.3c0.1,0,0.1,0,0.1,0.1c0,0.1-0.2,0.3-0.1,1.5c0,0.4,0.1,1.3,0.5,1.4
		C50.3,65.1,50.4,65.2,50.3,65.2z M55,62.4c-0.1,0-0.2,0-0.4,0.1S54,63,53.5,63.3c-0.5,0.3-1.1,0.5-1.3,1.5c0,0.1-0.1,0.2-0.1,0
		c-0.1-0.4-0.2-0.9-0.4-1.3c0-0.1,0-0.2,0.1-0.1c0.1,0,0.2,0.1,0.3,0.1c0.1,0,0.1,0,0.2,0c0.1,0,0.4-0.3,0.5-0.3
		c0.1,0,0.1-0.1,0-0.1c0,0-0.5-0.6-0.7-0.9c-0.5-0.6-0.8-0.8-0.9-0.7c-0.2,0-0.2,0-0.1-0.1c0.1-0.1,0.4-0.3,0.7-0.5
		c0.3-0.2,0.7-0.4,0.8-0.5c0.1-0.1,0.2,0,0.1,0.1c-0.1,0.1,0,0.5,0.3,1.1c0.2,0.4,0.5,1,0.6,1c0,0,0.1,0.1,0.1,0
		c0.4-0.2,0.7-0.5,0.7-0.8c0-0.2,0-0.2,0.1-0.1c0.1,0.1,0.5,0.6,0.6,0.7C55.1,62.4,55.1,62.4,55,62.4z M57.6,60.1
		c-0.1,0.1-0.3,0.3-0.6,0.6s-0.6,0.5-0.7,0.6c-0.1,0.1-0.1,0-0.1-0.1c0-0.1,0.1-0.4-0.6-1.3c-0.9-1-1.2-0.9-1.3-0.8
		c-0.1,0-0.2,0-0.1-0.1c0.1-0.1,0.3-0.3,0.6-0.6c0.3-0.3,0.6-0.5,0.7-0.6c0.1-0.1,0.2,0,0.1,0.1c0,0.1-0.2,0.4,0.6,1.4
		C57.1,60.2,57.4,60.1,57.6,60.1C57.6,60,57.7,60,57.6,60.1z M61.5,56c-0.1,0.1-0.1,0.2-0.4,0.5c-0.3,0.3-0.4,0.4-0.4,0.5
		c-0.1,0.1-0.1,0.1-0.2,0.1c-0.1,0-0.9-0.3-1.4-0.5c-0.5-0.2-1.1-0.3-1.2-0.3c-0.1,0-0.2,0-0.1,0.1c0.1,0.1,0.6,0.5,0.9,0.7
		c0.8,0.6,1.1,0.6,1.2,0.6c0.1,0,0.2,0,0.1,0.1c-0.1,0.1-0.4,0.4-0.6,0.7c-0.2,0.2-0.4,0.4-0.5,0.5c-0.1,0.1-0.2,0.1-0.1,0
		c0-0.1,0.1-0.4-0.7-1.2c-0.6-0.5-1-0.9-1.2-0.9c-0.1,0-0.2,0-0.1-0.1c0-0.1,0.2-0.2,0.4-0.4c0.2-0.2,0.4-0.5,0.5-0.5
		c0.1-0.1,0.1-0.1,0.2-0.1c0.1,0,0.7,0.2,1.3,0.3c0.6,0.2,1.1,0.4,1.2,0.4c0.1,0,0.2,0,0.1-0.1c-0.1-0.1-0.6-0.5-0.9-0.7
		c-0.8-0.6-1-0.6-1.2-0.5c-0.1,0-0.1,0-0.1-0.1c0.1-0.1,0.4-0.5,0.6-0.7c0.2-0.2,0.4-0.5,0.5-0.5c0.1-0.1,0.1,0,0.1,0.1
		c0,0.1-0.1,0.3,0.7,1.1c0.8,0.7,1.1,1,1.3,0.9C61.5,55.8,61.6,55.9,61.5,56z M64.6,51.4c0,0.1-0.1,0.3-0.4,0.7
		c-0.3,0.4-0.4,0.6-0.5,0.7c-0.1,0.1-0.1,0-0.1,0c0-0.1,0-0.4-0.4-0.5c-0.4-0.1-1.3-0.3-1.7-0.4c-0.1,0-0.1,0-0.1,0.1s0.6,0.9,1,1.4
		c0.3,0.3,0.5,0.2,0.6,0.2c0.1,0,0.1,0,0.1,0.1c0,0.1-0.2,0.4-0.4,0.7c-0.2,0.3-0.4,0.6-0.5,0.7c-0.1,0.1-0.1,0.1-0.1,0
		c0-0.1,0-0.6-0.6-2c-0.6-1.4-0.7-1.6-0.8-1.7c-0.1-0.1,0-0.1,0.1-0.1c0.1,0,2.4,0.2,2.7,0.2C64,51.4,64.5,51.4,64.6,51.4
		C64.7,51.2,64.7,51.3,64.6,51.4z M66.7,46.7c-0.2,0.4-0.3,0.7-0.3,0.7c-0.1,0.1-0.1,0.1-0.1,0.1c-0.1,0-1.1,0-1.2,0.1
		c-0.1,0-0.1,0,0,0.1c0,0,0.7,0.9,0.8,0.9c0.1,0.1,0.1,0.1,0,0.2c0,0.1-0.2,0.5-0.3,0.7c-0.1,0.2-0.3,0.7-0.3,0.7s-0.1,0.1-0.1,0
		c0-0.1,0-0.3-1.2-0.8c-1.2-0.4-1.3-0.3-1.5-0.2c-0.1,0.1-0.1,0.1-0.1,0c0-0.1,0.1-0.4,0.3-0.8c0.2-0.4,0.3-0.7,0.4-0.8
		c0.1-0.1,0.1,0,0.1,0.1c0,0.2,0.5,0.5,1.2,0.8c0.6,0.3,0.8,0.4,0.9,0.4c0.1,0,0.1,0,0.1-0.1c-0.1-0.1-1-1.3-1.1-1.4
		c0-0.1,0-0.2,0.1-0.2c0.1,0,1.7-0.2,1.8-0.2c0.1,0,0.1-0.1,0-0.1c-0.1-0.1-0.4-0.2-0.9-0.4c-0.8-0.3-1.3-0.4-1.4-0.2
		c-0.1,0.1-0.2,0.1-0.1,0c0-0.1,0.2-0.5,0.3-0.8c0.1-0.3,0.3-0.6,0.3-0.7c0.1-0.1,0.1-0.1,0.1,0c0,0.1-0.1,0.3,1.1,0.9
		c0.9,0.4,1.3,0.5,1.5,0.4c0.1-0.1,0.1-0.1,0.1,0C66.9,46.1,66.8,46.4,66.7,46.7z M68.3,40.4c-0.1,0.4-0.2,0.7-0.2,0.8
		c0,0.1-0.1,0.1-0.1,0.1c-0.1,0-1.1,0.2-1.2,0.3c-0.1,0-0.1,0,0,0.1c0,0,0.9,0.7,0.9,0.8s0.1,0.1,0.1,0.2c0,0.1-0.1,0.5-0.1,0.7
		c0,0.2-0.2,0.7-0.2,0.8c0,0.1-0.1,0.1-0.1,0c0-0.1-0.1-0.3-1.3-0.5s-1.4-0.1-1.5,0c-0.1,0.1-0.1,0.1-0.1,0c0-0.1,0-0.4,0.1-0.8
		c0.1-0.4,0.2-0.8,0.2-0.9c0-0.1,0.1,0,0.1,0c0.1,0.2,0.6,0.4,1.3,0.6c0.7,0.2,0.9,0.2,1,0.2c0.1,0,0.1,0,0-0.1
		c-0.1-0.1-1.2-1.1-1.3-1.2c-0.1-0.1,0-0.2,0-0.2c0.1,0,1.6-0.5,1.7-0.5c0.1,0,0.1-0.1,0-0.1c-0.1,0-0.5-0.1-1-0.2
		c-0.8-0.2-1.3-0.1-1.4,0c-0.1,0.1-0.1,0.1-0.1,0c0-0.1,0.1-0.5,0.2-0.9c0.1-0.3,0.2-0.7,0.2-0.8c0-0.1,0.1-0.1,0.1,0
		c0,0.1,0,0.3,1.2,0.7c1,0.2,1.4,0.3,1.5,0.1c0.1-0.1,0.1-0.1,0.1,0C68.4,39.7,68.4,40,68.3,40.4z M67.1,37.9
		c-1.4,0-1.7-1.3-1.7-1.8c0-0.5,0.3-1.7,1.7-1.7c1.4,0,1.8,0.9,1.8,1.8C68.8,36.8,68.6,37.9,67.1,37.9z M69.2,33
		c-0.3-0.1-0.9-0.2-1.2-0.3c-0.1,0-0.1-0.1-0.1-0.2c0.1-0.1,0.4-0.7,0.3-1.2s-0.7-0.7-1.5-0.6c-0.8,0.1-1.1,0.6-1.1,1
		c0.1,0.4,0.6,0.8,0.9,0.9c0.3,0.1,0.2,0.1,0,0.2c-0.2,0-0.7,0.2-0.8,0.3c-0.2,0.1-0.2,0.1-0.2-0.1c0-0.1,0.1-0.4-0.2-0.7
		c-0.5-0.8-0.6-2.4,1.1-2.7c1.1-0.2,1.9,0.6,2.1,1.5c0.1,0.8,0,0.6,0,1c0.1,0.4,0.5,0.7,0.6,0.8C69.4,33,69.4,33.1,69.2,33z"/>
	<path class="st0" d="M16.3,9.5c0.1-0.1,1.4-0.8,1.1-1.3c-0.1-0.2-0.6-0.5-1.2-0.1c-0.4,0.3-0.2,1.1-0.1,1.3
		C16.3,9.6,16.3,9.6,16.3,9.5z"/>
</g>
<path class="st0" d="M57,51.2c-0.4,0-1.4-0.2-1.8-0.3c-0.4-0.1-1.6-0.2-2.1-0.3c-0.5-0.1-0.9-0.2-1.5-0.3s-1.7,0.1-2.1,0.2
	c-0.4,0.1-1.5,0.3-2.4,0.6c-0.9,0.3-2.2,1.1-2.2,1.1s-1.2-0.7-2.3-1.1C41.8,51,40.7,51,40,51c-0.7,0-1.5,0.3-2.2,0.4
	c-0.7,0.2-2,0.5-2,0.5s-0.4-0.3-0.8-0.4c-0.3-0.2-1.1-0.3-1.5-0.3c-0.4,0-1.1-0.1-1.7-0.1c-0.7,0-2.4,0.5-3.2,0.6
	c-0.7,0.1-1.6,0.5-1.6,0.5s-0.2-0.2-0.6-0.3s-1.1-0.3-1.6-0.4c-0.5-0.1-2.1-0.3-2.9-0.4c-0.8-0.1-4.1,0.1-5.1,0.2
	c-1.1,0-3.7,0.4-3.7,0.4s2.6,3.1,3.4,3.9c0.8,0.8,1.8,1.5,2.3,1.9c0.4,0.4,3.1,2,4,2.3c0.9,0.3,3.3,1.5,5,2c1.7,0.5,4.5,0.9,5.9,1
	c1.4,0.1,3.9,0,5-0.2c1.2-0.2,3-0.5,4.2-0.9c1.2-0.3,2.9-1,4.7-1.9c1.8-0.9,3.1-1.8,4.3-2.7c1.2-0.9,2.4-2.1,2.8-2.5
	c0.4-0.4,1.6-1.8,1.8-2s1.1-1.4,1.1-1.4S57.4,51.2,57,51.2 M38,52.3c0,0,1.1-0.3,1.5-0.3s1.4,0,1.7,0c0.4,0.1,2.3,0.5,2.8,1.1
	c-0.3,0.3-0.6,1-0.7,1.3C43.3,54.7,43.2,53,43,53c-0.2,0-0.1,1.4-0.4,1.8c-0.2-0.9-0.6-2.1-0.9-2.3c0.1,0.9,0.4,2.1,0,2.9
	c-0.2-1.3-0.7-2.5-1.1-2.8c0.2,1.4,0,2.7-0.2,3c-0.1-1.8-0.7-2.8-0.8-3c-0.1-0.2-0.2-0.1-0.2,0.1c0,0.2,0.4,2.1-0.1,3.1
	c-0.1-1.8-0.6-2.8-0.8-2.9c-0.2-0.1-0.2,0-0.1,0.1c0,0.1,0.3,1.8-0.1,2.3c-0.2-1.3-0.7-2.1-0.9-2.3c0.1,0.6,0.1,1.2,0,1.7
	c-0.3-0.8-0.6-1.3-0.9-1.8C37.3,52.5,38,52.3,38,52.3 M27.4,53.2c0.2,0,0.3-0.2,0.5-0.2c0.2,0,0.5-0.3,1.2-0.5
	c0.7-0.2,1-0.3,1.4-0.3c0.4-0.1,1.4-0.3,1.7-0.2c0.3,0.1,1.2,0.1,1.8,0.3c0.6,0.2,1.3,0.5,1.6,0.8c0.3,0.3,0.9,1.1,1.1,1.7
	s0.3,0.6,0.5,1.3c-0.8-1-1.4-2.3-2.7-2.8c0.4,0.5,0.6,0.8,0.9,2c-1.3-1.9-2.7-2.5-2.9-2.6c-0.2-0.1-0.2-0.1,0,0.1
	c0.2,0.2,1.4,1.5,1.6,2.7c-1.3-1.8-2.5-2.5-2.8-2.6c-0.3-0.1-0.3,0-0.1,0.1c0.2,0.1,1.4,1.4,1.9,2.5c-0.5-0.5-1.9-2.1-2.9-2.3
	c0.8,0.9,1.3,1.5,1.6,2.4c0.1,0.3,0,0.2-0.1,0.1c-0.2-0.2-1.2-1.7-2.2-2.1c-0.2-0.1-0.4-0.1-0.2,0c0.2,0.1,1.3,1.6,1.5,2.3
	c0.1,0.2,0,0.2-0.1,0.1c-0.1-0.1-1.4-1.9-2.7-2.3c1,1,1.4,1.7,1.6,2c0.1,0.2,0.1,0.3-0.1,0.1c-0.1-0.1-1.6-1.4-2.4-1.8
	c-0.2-0.1-0.3,0-0.1,0.2c0.3,0.2,0.7,0.7,1.1,1.4c-0.7-0.4-1.5-0.8-2-1.1c-0.2-0.1-0.6-0.1-0.3,0.1c0.4,0.3,0.7,0.7,0.9,1.1
	c-0.7-0.2-1.2-0.5-1.5-0.6c-0.3-0.1-1,0.1-1,0.1s1.3-1.2,1.9-1.5C26.6,53.6,27.2,53.2,27.4,53.2 M19.7,52.4
	c-0.5,0.3-1.1,2.1-1.1,3.1c-0.3-0.6-0.3-2.5-0.1-3.1c-0.3,0.4-0.8,1.6-1,2.4c-0.1-0.8-0.1-1.7,0-2.2c-0.3,0.2-0.7,1.2-0.8,1.7
	c-0.2-0.5-0.2-1.1-0.1-1.6c-0.2,0.2-0.3,0.4-0.4,0.8c-0.3-0.5-0.3-1-0.3-1s1.3-0.3,2.1-0.3c0.8,0,1.8-0.1,2.3-0.1
	c0.5,0,1.4,0.1,1.7,0.1c0.3,0,0.9-0.1,1.2,0c0.3,0.1,1.7,0.4,1.9,0.4c0.2,0.1,0.9,0.3,0.9,0.3s-0.6,0.5-0.8,0.7
	c-0.1-0.2-0.1-0.3-0.1-0.6c-0.2,0.2-0.7,1.1-0.8,1.4C24,53.9,24,53.2,24,52.9c-0.3,0.4-0.8,1.8-1,2.8c-0.2-1-0.1-2.4,0-2.9
	c-0.7,0.7-1,2.6-1.2,3.2c-0.2-1.2,0.1-3,0.2-3.3c0.1-0.3,0-0.2-0.2,0c-0.3,0.3-0.9,2-1,3.4c-0.2-0.8,0-3.2,0.2-3.7
	c-0.8,1.1-1.2,3.1-1.3,3.4C19.4,55.5,19.5,52.8,19.7,52.4 M34.6,62.2c0-0.4,0.1-0.6,0.3-1c-0.4,0.1-1,0.8-1.2,1
	c0-0.6,0.4-1.5,0.5-1.7c-0.5,0.3-1.5,1.4-1.6,1.6c0.1-0.8,0.6-1.8,1-2.2c0.1-0.1,0.1-0.2-0.1-0.1c-0.7,0.5-1.8,1.8-1.9,2
	c-0.1,0.2-0.1,0-0.1-0.1c0.1-0.8,0.7-2,1.2-2.7c-0.6,0.3-2.2,2.2-2.4,2.4c-0.1-0.8,0.9-2.5,1.3-2.9c-0.7,0.1-2.3,2.1-2.5,2.5
	c0-0.7,0.5-2.1,1.6-3c-0.7,0.1-2.4,1.8-3,2.8c0.3-1.7,1.7-3.1,1.8-3.1c0.1,0,0-0.1-0.1-0.1c-1,0.5-2.4,2-2.7,2.6
	c0.3-1.7,1.5-2.7,1.8-3c-0.7,0.2-2.7,1.8-3.2,2.6c0.2-1.1,1.2-2.2,1.9-2.7c-1.4,0.4-2.9,2.1-3.1,2.2c-0.1,0.2-0.2,0.2-0.1-0.1
	c0.1-0.3,0.8-1.6,1.9-2.3c-1.1,0.4-2.8,1.9-2.9,2c-0.1,0.1-0.2,0.2-0.1,0c0.1-0.2,0.3-1,1.8-1.9c-0.9,0.3-2.7,1.4-3,1.6
	c0.3-0.7,0.7-1.1,1.4-1.6c-0.8,0.1-1.7,0.8-2.1,1S20.9,58.1,21,58c0.1-0.1,0.7-0.6,1.2-1c-0.8,0.1-1.8,0.6-2.2,0.6
	c0.5-0.4,1.8-0.9,2.7-1.1c1.4-0.3,3-0.5,4.3-0.3c1.3,0.2,2.6,0.6,3.3,0.8c0.7,0.3,2.1,1.1,2.5,1.3c0.4,0.2,1.8,1.5,2.1,2.1
	s0.6,1.1,0.6,1.1S34.8,62.1,34.6,62.2 M43,60.8c-0.1-0.4,0.1-1,0.2-1.1c0-0.1,0-0.1-0.1,0c-0.1,0.1-1,0.8-1.4,1.4
	c0.1-0.5,0.4-1.8,0.5-2c0.1-0.2,0-0.1-0.1,0c-0.1,0.1-1.1,1.3-1.6,2.3c0-0.9,0.6-2.4,0.8-2.8c-1.2,0.9-1.8,2.3-2,2.7
	c-0.1-1,0.9-3,1-3.1c0.1-0.1,0-0.2-0.1,0c-1.1,1.1-1.6,2.1-2,3.1c-0.1-0.5,0.5-2.4,0.9-3.1c0.2-0.3-0.1-0.2-0.1-0.1
	c-0.2,0.2-1,1.1-1.5,2.3c0.1-1.4,0.8-2.5,1-2.9c-0.7,0.5-1.7,1.6-2,2.2c0-0.8,0.6-2.3,0.9-2.5c-1.2,0.5-1.8,1.4-1.8,1.7
	c-0.1,0.1-0.1,0.1-0.1,0c0-0.1,0.3-1.3,0.6-1.6c-0.7,0.3-1.1,1-1.2,1.1c-0.1,0.2-0.1,0.2-0.1,0c0-0.2-0.1-0.8,0.4-1.3
	c0.2-0.2-0.1-0.1-0.3,0c-0.2,0.1-0.7,0.4-1,0.8c-0.2,0.3-0.1-0.5,0.1-0.7c0.1-0.1-0.5-0.1-1.2,0.2c0.7-0.8,1.9-0.9,3-0.9
	c1.1,0,2.8,0.1,3.4,0.3c0.7,0.2,1.3,0.3,1.6,0.5c0.3,0.2,0.7,0.4,1,0.6c0.3,0.1,1.5,0.8,1.9,1.1c0.4,0.2,0.8,0.7,0.8,0.7
	S43.3,60.7,43,60.8 M49.2,58.1c0,0.2-0.1,0-0.1,0s-0.5-1.2-1.3-1.6c0.3,1,0.2,1.8,0.2,2c-0.4-1.2-1.5-2.3-2-2.3
	c0.3,0.5,0.7,1.7,0.6,2.3c-0.6-1.2-1.1-1.8-1.7-2.2c-0.1,0-0.3-0.1-0.2,0.1c0.1,0.2,0.7,1.2,0.7,2.3c0,0.2-0.1,0.2-0.2,0
	s-0.9-1.8-1.4-2c0.1,0.7,0.2,1.3,0.2,1.6c-0.2-0.5-0.7-1.3-1.1-1.6c0.2,0.6,0.1,1,0.1,1.2c-0.3-0.5-0.6-1-0.8-1.1
	c0,0.2,0,0.4-0.1,0.6s-0.3-0.7-0.5-1.1c0.3-0.1,0.5-0.1,1-0.3s1.5-0.4,1.9-0.4c0.3,0,1,0,1.6,0c0.6,0,1.5,0.1,1.7,0.2
	c0.2,0.1,0.9,0.2,1.1,0.3c0.2,0.1,0.6,0.3,0.7,0.4c0.1,0.1,0.5,0.7,0.5,1c-0.5-0.5-0.8-0.6-1-0.7C49.2,57.3,49.2,57.9,49.2,58.1
	 M54.4,53.2c-0.3,0.3-0.9,0.9-1.4,1.3c0.2-1,0.8-1.9,0.9-2.1c-1.2,0.7-2.1,2-2.6,2.7c-0.1,0.2-0.2,0.2-0.1-0.1
	c0.3-1,1.1-2.3,1.7-2.7c0.3-0.2,0.1-0.3-0.1-0.1c-1.5,1-2.4,2.1-3.1,3.3c-0.1,0.1-0.2,0.1-0.1-0.1c0.5-1.2,1.2-2.3,2.1-3.3
	c0.1-0.1,0-0.2-0.1-0.1c-0.9,0.5-2.5,2.3-3,3.2c0.1-0.8,0.5-1.8,1.5-3c-1.3,0.8-2.3,2.1-2.7,3c0-0.6,0.4-1.5,1-2.5
	c-1,0.7-1.7,2.2-2,2.5C46,54.9,46.6,53.6,47,53c0.2-0.2,0-0.2-0.2,0c-1,0.7-1.6,1.8-1.8,2.2c-0.1-0.4,0.1-1.1,0.2-1.3
	c-0.6,0.3-1.1,0.8-1.3,1.1c0.1-0.4,0.4-1.1,1-1.6c0.6-0.5,2.1-1.1,2.8-1.3c0.6-0.2,1.4-0.5,1.9-0.5s0.9-0.1,1.5-0.1
	c0.5,0,1.2,0,1.7,0.1c0.4,0.1,1.1,0.1,1.5,0.2c0.4,0.2,1,0.1,1.2,0.2C55.1,52.4,54.7,52.9,54.4,53.2"/>
<path class="st0" d="M15.9,23.2l0-0.3c0-0.3,0-0.8,0-1.1c0-0.5,0-1,0-1.1c0-0.3-0.1-0.4-0.2-0.5c0,0-0.1-0.1-0.1-0.1
	c-0.1-0.1-0.5-0.4-0.6-0.5c-0.1-0.1-0.1-0.4-0.1-0.6c0-0.1,0.1-0.2,0.1-0.2l0,0c0.1,0,0.2-0.2,0.1-0.3c0-0.1,0-0.4,0-0.6
	c0-0.5,0-0.6,0-0.7c0-0.1-0.1-0.2-0.2-0.2c-0.1,0-0.2,0-0.3,0.1c0,0-0.1,0.1-0.5,0.5c0,0-0.2,0.2-0.2,0.2l0,0c0,0,0,0,0,0
	c0,0-0.1,0.1-0.1,0.2l0,0c-0.1,0.1-0.2,0.3-0.3,0.4l-0.4,0.5c-0.4,0.5-1,1.3-1.3,1.8c-0.2,0.4-0.5,0.9-0.6,1.2
	c-0.1,0.1-0.1,0.3-0.2,0.3c0,0-0.1,0.1-0.1,0.1c-0.1,0.1-0.1,0.1-0.2,0.3c0,0.1-0.2,0.3-0.3,0.5c-0.1,0.2-0.2,0.4-0.3,0.5
	c0,0-0.1,0.1-0.1,0.3c-0.1,0.3-0.3,0.8-0.4,0.9c-0.1,0.2-0.5,1.1-0.6,1.5c-0.1,0.1-0.1,0.3-0.2,0.6c0,0.2-0.1,0.4-0.1,0.4
	c0,0.1-0.2,0.5-0.5,1.9l-0.1,0.6c-0.1,0.2-0.2,0.8-0.2,1.3c-0.1,0.3-0.1,0.6-0.1,0.7c-0.1,0.4-0.2,1.8-0.3,2.3c0,0.4,0,1,0,1.6
	c0,0.3,0,0.6,0,0.7c0,0.3,0.1,1.6,0.1,2c0,0.4,0.3,1.9,0.4,2.4c0.1,0.5,0.6,2.6,0.8,3.1l0.3,0.7c0.2,0.7,0.5,1.5,0.9,2.1
	c0.1,0.2,0.2,0.4,0.2,0.6c0,0.1,0.1,0.3,0.1,0.4c0.2,0.4,0.4,0.8,0.6,1c0.1,0.2,0.2,0.3,0.2,0.4c0,0,0,0.1,0.1,0.1
	c0.1,0.1,0.1,0.3,0.3,0.4c0.1,0.1,0.2,0.2,0.2,0.2c0,0,0.1,0.1,0.1,0.1c0,0,0,0,0,0c0.1,0.1,0.1,0.2,0.2,0.2c0,0,0,0,0,0
	c0,0,0,0,0,0c0,0.1,0.1,0.1,0.2,0.1c0.1,0,0.2,0,0.3-0.1c0,0,0.1-0.1,0.4-0.4c0.5-0.4,1.3-1.3,1.4-1.3c0.1-0.1,0.2-0.3,0.2-0.4
	c0-0.1,0.1-0.4,0.1-0.4l0-0.1c0.1-0.3,0.1-1.5,0-1.7c0-0.1,0-0.7,0-1.2c0-0.6,0-1.3,0-1.6c0-0.5-0.1-3.9-0.1-4.4c0-0.3,0-1.5,0-2.2
	c0-0.4,0-0.6,0-0.6c0-0.2-0.1-0.3-0.2-0.4l-0.2-0.2c-0.2-0.2-0.6-0.6-0.8-0.7c0,0,0-0.1,0.1-0.1l1.1-1.1c0,0,0.3-0.3,0.3-0.3
	c0.1-0.1,0.1-0.1,0.2-0.3c0-0.2,0-0.7,0-0.9c0,0,0-0.1,0-0.1c0-0.2-0.1-0.2-0.2-0.3l0,0c-0.3-0.2-0.5-0.4-0.6-0.5
	c-0.2-0.2-0.4-0.3-0.5-0.6c0-0.1,0-0.3,0-0.3c0.1-0.1,0.3-0.3,0.4-0.3c0.1-0.1,0.1-0.2,0.1-0.3l0-0.1c0-0.2,0-0.9,0-1
	c0-0.3,0-2.2,0-2.4l0-0.1c0-0.1,0-0.6,0-0.7c0.1-0.1,0.4-0.3,0.6-0.3c0.2,0,0.5-0.1,0.6-0.1c0.2-0.1,0.3-0.2,0.3-0.3
	c0,0,0-0.1,0-0.3C15.9,23.8,15.9,23.3,15.9,23.2"/>
<path class="st0" d="M54.5,15.6c-0.1-0.1-0.2-0.2-0.3-0.3c-0.1-0.1-0.1-0.1-0.2-0.2C54,15,53.8,15,53.7,14.9c-0.1,0-0.1,0-0.2-0.1
	c0,0-0.1-0.1-0.1-0.2c-0.1-0.1-0.1-0.2-0.3-0.4c-0.1-0.1-0.4-0.3-0.6-0.5c-0.2-0.1-0.3-0.2-0.4-0.3c-0.1-0.1-0.7-0.4-1.2-0.8
	l-0.1-0.1c-0.1,0-0.1-0.1-0.2-0.2c0-0.1-0.1-0.1-0.1-0.2c-0.1-0.1-0.2-0.1-0.3-0.1c-0.1,0-0.1,0-0.1,0c-0.1,0-0.2-0.2-0.3-0.3
	c-0.1-0.1-0.2-0.2-0.3-0.2c-0.1,0-0.2,0-0.3-0.1c0,0-0.1,0-0.1,0c-0.1,0-0.2-0.2-0.3-0.2c-0.2-0.1-0.4-0.3-0.5-0.4
	c-0.1-0.1-0.4-0.2-0.7-0.4c-0.3-0.2-0.7-0.4-0.9-0.5c-0.4-0.2-1.4-0.5-2.2-0.8l-0.5-0.2c-0.7-0.2-3.1-0.9-3.3-0.9
	c-0.1,0-0.3-0.1-0.5-0.1c-0.2,0-0.5-0.1-0.6-0.1C38.9,8,38,7.9,37.6,7.9c-0.4,0-1.9-0.1-2.3-0.1c-0.4,0-0.8,0-1,0
	c-0.3,0-1.7,0.2-2.2,0.2c-0.4,0-1.4,0.2-2.1,0.3c-0.2,0-0.5,0.1-0.5,0.1c-0.1,0-0.2,0-0.3,0c-0.1,0-0.2,0-0.3,0
	c-0.1,0-0.5,0.2-0.9,0.3c-0.1,0.1-0.2,0.1-0.3,0.1c-0.1,0-0.2,0-0.3,0.1c-0.1,0-0.2,0-0.3,0.1c-0.1,0-0.4,0.1-0.6,0.2L26,9.4
	c-0.2,0.1-0.4,0.1-0.5,0.2c-0.1,0.1-0.3,0.1-0.4,0.2c-0.2,0.1-0.8,0.3-0.9,0.4c-0.1,0-0.3,0-0.4,0.1c-0.1,0.1-0.2,0.1-0.2,0.2
	c0,0,0,0,0,0c-0.1,0-0.3,0.1-0.7,0.3c-0.4,0.2-1.3,0.6-1.4,0.7c-0.1,0.1-0.3,0.2-0.5,0.2c-0.1,0-0.2,0.1-0.4,0.2
	c-0.1,0-0.1,0.1-0.2,0.1c-0.1,0.1-0.3,0.2-0.6,0.4c-0.5,0.3-1,0.7-1.2,0.8l-0.9,0.7l-0.9,0.7c-0.2,0.2-0.5,0.5-0.8,0.8
	c-0.2,0.2-0.4,0.4-0.4,0.4c-0.2,0.2-0.1,0.3-0.1,0.4c0,0.1,0.2,0.2,0.3,0.1c0.1,0,0.1,0,0.3,0c0.2,0,1.8,0.1,2.4,0
	c0.5,0,2.4,0,2.8,0c0.1,0,0.1,0,0.2,0c0.2,0,0.4,0,0.5,0c0.2,0,0.9-0.1,1.3,0c0.4,0,1.2,0,1.5,0c0,0,0.1,0,0.1,0c0,0,0,0,0,0
	c0,0.1,0,0.4,0,0.7c0,0.2,0,0.4,0,0.5c0,0.2,0,0.4,0,0.7c0,0.2,0,0.4,0,0.5c0,0.1,0,0.1,0,0.2c0,0.1,0,0.2,0,0.4
	c0,0.1,0,0.1-0.1,0.2l0,0c-0.1,0.1-0.4,0.4-0.5,0.5c-0.1,0.1-0.2,0.3-0.2,0.5l0,0.2c0,0.2,0,0.6,0,0.9c0,0.2,0,0.8,0,1.2
	c0,0.5,0,0.7,0,0.8c0,0.2,0.1,0.3,0.3,0.3c0.1,0,0.3,0,0.7,0c0.5,0,1,0,1.3,0c0.3,0,1.2,0,1.8-0.1c0.2,0,0.4,0,0.4,0
	c0.1,0,0.2,0,0.3-0.1c0.1-0.1,0.1-0.2,0.1-0.3c0-0.1,0-0.8,0-0.8c0-0.1,0-0.2,0-0.3c0-0.1,0-0.7,0.1-0.9c0-0.2,0-2.6,0-2.8
	c0-0.2,0-0.6,0-0.7c0-0.2-0.1-0.3-0.2-0.4c0,0-0.1-0.1-0.1-0.1c-0.1,0-0.1-0.1-0.2-0.2c-0.1-0.1-0.1-0.3-0.1-0.3
	c0-0.2-0.1-0.3-0.1-0.4c0,0-0.1-0.1-0.3-0.2c-0.1-0.1-0.2-0.2-0.3-0.3c-0.1-0.1-0.2-0.2-0.4-0.3c-0.1-0.1-0.3-0.2-0.5-0.3
	c-0.3-0.2-0.3-0.3-0.3-0.4c0,0,0-0.1,0.1-0.1c0-0.1,0.1-0.2,0.1-0.3c0-0.1,0.1-1.2,0.1-1.6l0-0.4c0-0.3,0-0.6,0-0.7c0,0,0.1,0,0.2,0
	l0.1,0c0.2,0,1.7-0.1,1.8-0.1c0.2,0,0.4-0.2,0.4-0.4c0-0.1,0-0.2,0-0.4c0-0.2,0-0.5,0-0.6c0,0,0.1,0,0.1,0l0,0c0.1,0,0.7,0,1.7,0
	l0.3,0c0,0.1,0,0.9,0,1c0,0.2,0.1,0.3,0.4,0.3c0,0,0,0,0.1,0l0.2,0c0.3,0,0.7,0,0.8,0c0.2,0,0.7,0,0.8,0c0.1,0,0.3,0,0.3-0.3
	c0,0,0,0,0-0.1c0-0.1,0-0.2,0-0.3c0,0,0-0.2,0-0.2c0-0.1,0-0.2,0-0.7c0,0,0-0.1,0.1-0.1c0.1,0,0.2,0,0.3,0c0.2,0,0.5,0,0.7,0
	c0.2,0,0.5,0,0.8-0.1c0.2,0,0.5,0,0.6,0c0,0,0,0,0,0c0,0,0,0.3,0,1.2v0.1c0,0.1,0.1,0.2,0.1,0.2c0,0,0.1,0.1,0.2,0.1
	c0.1,0,0.6,0,0.9,0l0.7,0l0.4,0c0.1,0,0.2,0,0.2-0.1c0.1-0.1,0.1-0.2,0.1-0.3c0,0,0,0,0,0c0-0.6,0-0.8,0-0.9c0,0,0,0,0,0
	c0.1,0,0.2,0,0.3,0c0.3,0,0.6,0,0.7,0c0.7,0,1,0,1.1,0c0,0.2,0,0.6,0,0.8c0,0.1,0,0.2,0,0.2c0,0.1,0,0.2,0.1,0.2
	c0.1,0.1,0.2,0.1,0.3,0.1c0.1,0,2.1,0.1,2.3,0.1c0.1,0,0.2,0.1,0.2,0.1c0,0.1,0,0.4,0,1c0,0,0,0.1,0,0.1c0,0.1-0.1,0.2,0,0.3
	c0,0.1,0,0.3,0,0.4c0,0.1-0.1,0.9,0,1c0,0.2,0.1,0.2,0.2,0.3c0,0,0,0.1,0,0.1c0,0.1-0.3,0.4-0.4,0.5c0,0-0.1,0.1-0.2,0.2
	c-0.1,0.1-0.2,0.3-0.3,0.3c-0.2,0.1-0.5,0.5-0.6,0.6c-0.1,0.1-0.1,0.3-0.1,0.4c0,0,0,0.1-0.1,0.2c0,0,0,0.1,0,0.1
	c0,0.1-0.3,0.2-0.5,0.3c-0.1,0.1-0.3,0.2-0.3,0.6l0,0.2c0,0.8,0,1.6,0,1.7c0,0.1,0,0.7,0,1.1c0,0.3,0,0.5,0,0.5c0,0.1,0,0.3,0,0.4
	c0,0.1,0,0.2,0,0.2c0,0,0,0.1,0,0.2c0,0.4,0,0.8,0,0.9c0,0.2,0.2,0.4,0.4,0.4c0.1,0,0.3,0,0.5,0c0.4,0,0.8,0,1,0
	c0.2,0,0.9,0,1.5-0.1c0.4,0,0.8,0,0.8,0c0.1,0,0.4,0,0.4-0.4c0-0.2,0-1,0-1.3c0-0.3,0-1.3,0-1.8l0-0.2c0-0.2-0.1-0.3-0.2-0.5
	c0-0.1-0.1-0.2-0.4-0.4c-0.1-0.1-0.3-0.3-0.4-0.4c0,0,0-0.2,0-0.3l0-0.1c0-0.1,0-0.3,0-0.5c0-0.2,0-0.5,0-0.6c0-0.2,0-0.5,0-0.9
	c0-0.1,0-0.1,0-0.1c0,0,0,0,0-0.1c0.1,0,0.1,0,0.2,0c0.1,0,0.2,0,0.3,0c0.1,0,0.4,0,0.7,0c0.3,0,0.5,0,0.7,0c0.3,0,0.8,0,0.9,0
	c0.2,0.1,0.9,0,1,0c0.1,0,0.4,0,0.5,0c0.1,0,0.2,0,0.3,0c0.1,0,0.2,0,0.2,0c0.6,0,2.2,0,2.3,0c0.1,0,1.8,0,2,0
	c0.2,0,0.3-0.1,0.3-0.2C54.8,15.9,54.6,15.7,54.5,15.6 M36.2,10.1C36.2,10.1,36.2,10.1,36.2,10.1C36.2,10.1,36.2,10.1,36.2,10.1"/>
<path class="st0" d="M62.5,33.5c0-0.4-0.1-0.7-0.1-1c0-0.5-0.2-1.7-0.3-2.5c-0.1-0.3-0.1-0.6-0.1-0.7c0-0.2-0.1-0.6-0.3-0.9
	c-0.1-0.4-0.2-0.8-0.3-1.1c-0.1-0.7-0.6-1.8-0.7-2c-0.1-0.2-0.3-0.8-0.4-0.9c0-0.1-0.3-0.6-0.7-1.5c-0.2-0.4-0.3-0.7-0.4-0.9
	c-0.1-0.3-0.6-1-0.9-1.5c-0.2-0.2-0.3-0.4-0.4-0.5c-0.2-0.3-0.7-1-0.9-1.3L57,18.5c-0.1-0.2-0.4-0.4-0.4-0.5
	c-0.1-0.1-0.2-0.3-0.4-0.5c-0.1-0.1-0.5-0.5-0.6-0.6c-0.2-0.2-0.3-0.2-0.4-0.1c-0.1,0-0.2,0.2-0.2,0.3c0,0.1,0,0.5,0,0.7
	c0,0.2,0,0.3,0,0.3c0,0.2,0.1,0.3,0.2,0.4c0,0,0,0,0,0c0,0,0,0.1,0.1,0.2c0,0.1-0.1,0.3-0.2,0.4c-0.1,0.1-0.6,0.6-0.7,0.7
	c-0.2,0.2-0.2,0.3-0.1,0.4c0,0,0,0,0,0c0,0.1,0,0.4,0,0.7c0,0.3,0,0.6,0,0.7c0,0.1,0,0.3,0,0.6c0,0.5,0,1.1,0,1.3c0,0.1,0,0.3,0,0.5
	c0,0.2,0,0.3,0,0.4c0,0.2,0,0.6,0.5,0.6c0.3,0,0.4,0.2,0.5,0.4c0.1,0.1,0.1,0.4,0.1,0.6c0,0.1,0,0.2,0,0.3c0,0.2,0,0.5,0,0.8
	c0,0.2,0,0.4,0,0.5c0,0.1,0,0.3,0,0.5c0,0.2,0,0.4,0,0.5c0,0.1,0,0.2,0,0.3c0,0.1,0,0.1,0,0.1c0,0.1,0,0.3,0,0.4l0,0
	c0,0.2,0.1,0.2,0.2,0.3c0,0,0,0,0,0c0.1,0.1,0.1,0.3,0.1,0.6c0,0.2-0.1,0.3-0.2,0.4l0,0c0,0-0.1,0.2-0.1,0.3c0,0.1,0.2,0.2,0.3,0.2
	l0,0c0,0,0.1,0,0.1,0c0,0,0,0,0,0.1c0,0.1,0,0.1,0,0.2c0,0.2,0.1,0.3,0.1,0.4c0,0,0.2,0.3,0.3,0.5c0.1,0.1,0.2,0.3,0.4,0.5
	c0.1,0.1,0.2,0.2,0.3,0.3c0.1,0.2,0.4,0.6,0.6,0.9c0.1,0.2,0.2,0.3,0.2,0.3c0,0,0,0,0,0c0,0,0,0-0.1,0c0,0-0.2,0.2-0.4,0.3
	c-0.2,0.2-0.5,0.3-0.6,0.4c-0.2,0.1-0.3,0.3-0.3,0.6l0,0.3c0,1.4,0,2.9,0,3c0,0.1,0,0.3,0,0.4c0,0.3,0,0.4,0,0.5
	c0,0.1,0.1,0.5,0.1,0.8c0,0.1,0,0.4,0,0.6c0,0.4,0,0.8,0,0.9c0,0.1,0,0.2,0,0.3c0,0.2-0.1,0.3,0,0.5c0,0.1,0.1,1.1,0.1,1.4
	c0,0.2,0,0.6,0,0.8c0,0.1,0,0.4,0,0.7c0,0.4,0,0.6,0,0.7l0,0c0,0.2,0,0.3,0.3,0.4c0.1,0,0.1,0.1,0.2,0.2l0,0
	c0.1,0.2,0.3,0.4,0.4,0.5c0.1,0,0.3,0.4,0.4,0.5c0,0.1,0.1,0.1,0.1,0.1c0.1,0.1,0.2,0.3,0.3,0.4c0.2,0.3,0.3,0.4,0.4,0.5
	c0.1,0.1,0.2,0.1,0.3,0.1c0.1,0,0.2-0.1,0.3-0.2c0.1-0.1,0.9-1.5,0.9-1.6c0,0,0.1-0.2,0.4-0.5c0.1-0.1,0.2-0.5,0.4-1.2
	c0.1-0.2,0.1-0.3,0.1-0.4c0,0,0-0.1,0.1-0.1c0.1-0.1,0.1-0.2,0.2-0.4c0.1-0.2,0.3-0.9,0.5-1.3c0.2-0.5,0.5-1.6,0.5-1.8
	c0-0.1,0-0.1,0-0.2c0-0.2,0-0.4,0.1-0.5c0.1-0.3,0.4-2,0.5-2.7c0.1-0.5,0.1-1.9,0.2-2.9l0-0.9C62.7,34.8,62.6,34.1,62.5,33.5"/>
<path class="st0" d="M12.2,51c5,7.4,13.5,12.2,23.1,12.2c9.6,0,18-4.8,23.1-12.2l-0.9,0c-0.1,0.2-0.3,0.4-0.3,0.5
	c-0.1,0.2-0.3,0.4-0.6,0.8c-0.2,0.3-1.4,1.5-1.5,1.7c-0.1,0.2-1.3,1.3-1.5,1.5c-0.1,0.2-0.8,0.9-1.1,1.1c-0.3,0.2-2.2,1.6-2.5,1.7
	c-0.3,0.1-1.9,1.1-2.1,1.2c-0.2,0.1-3.6,1.6-3.9,1.7c-0.4,0.1-1.5,0.4-1.7,0.5c-0.2,0.1-1.9,0.6-2.3,0.6c-0.4,0.1-2.5,0.4-2.8,0.3
	c-0.2,0-2,0-2.6,0.1c-0.6,0-2.3-0.2-2.6-0.2c-0.3-0.1-1.3-0.2-2-0.3c-0.6-0.1-2.2-0.6-3-0.7c-0.2,0-0.9-0.3-1-0.4
	c-0.2,0-0.7-0.3-0.9-0.3c-0.2-0.1-0.9-0.4-0.9-0.4s-1.1-0.5-1.4-0.7c-0.3-0.2-2.1-1.2-2.2-1.3c-0.1,0-1.7-1.2-1.9-1.3
	c-0.1-0.1-0.8-0.7-0.9-0.8c-0.1-0.1-1.1-1-1.2-1.1c-0.1-0.1-1.2-1.3-1.4-1.4c-0.1-0.1-0.8-0.8-1-1s-0.5-0.8-0.7-1
	c-0.1-0.1-0.3-0.4-0.5-0.6L12.2,51z M27.6,51c0,0.1,0,0.2,0,0.2c-0.1,0.6,0,1,0,1l0.6-0.2c0,0,0-0.2,0-0.4V51L27.6,51z M28.9,51
	c0,0.4,0,0.8,0,0.8l0.6-0.2c0,0,0-0.3,0-0.7H28.9z M40.8,51c0,0.1,0,0.2,0,0.2l0.4,0c0,0,0-0.1,0-0.2L40.8,51z M42.1,51
	c0,0.2-0.1,0.3-0.1,0.3l0.6,0.2V51H42.1z"/>
<path class="st0" d="M7.5,38.8c0.6,4.5,2.2,8.6,4.6,12.2h1C13,50.9,13,50.8,13,50.7c-0.1-0.1-0.2-0.3-0.1-0.5
	c0.1-0.1,0.8-0.9,1.1-1.1c0.3-0.2,0.7-0.5,0.8-0.6c0.1-0.1,0.4-0.1,0.6-0.1c0.1,0,0.9,0,1.6,0c0.8,0,1.5,0.1,1.9,0.1
	c0.4,0,2.2,0,2.5,0.1c0.3,0.1,1.5,0.1,2,0c0.5-0.1,1.7,0,2.2,0c0.5,0,1.2,0,1.5,0c0.3,0,0.5,0.1,0.5,0.3c0,0.2,0.1,1.3,0,2l0.6,0
	v-1.2c0-0.3,0-1.5,0-2c0-0.5,0-1.1-0.1-1.6c-0.1-0.5,0.1-1.1,0.1-1.5c0-0.4-0.1-1.7-0.1-1.8s0-0.5,0-0.5s0.3,0,0.6-0.1
	c0.2,0,0.2,0,0.2,0.1c0,0.1,0.2,0.7,0,1.4c-0.1,0.5,0,0.8,0,0.9c0,0.2,0,1.1,0,1.4c0,0.3,0,2.2,0,2.7c0,0.5,0,1.2-0.1,1.7
	c0,0.1,0,0.3,0,0.4h0.6c0-0.2,0-0.5,0-0.6c0-0.3,0-2.9,0-3.1c0-0.2,0-1.9,0-2.2c0-0.2,0.1-0.8,0-1.1c0-0.2,0.1-0.3,0.1-0.5
	s0-0.8-0.1-1.1c0-0.3,0.2-1,0.3-1.4c0.3-0.8,1.1-1.3,1.1-1.3s-0.5,0.1-0.9,0.3c-0.3,0.2-0.4,0.3-0.4,0.3s-0.2-0.3-0.3-0.4
	c-0.1-0.1-0.1-0.2-0.1-0.4c0-0.1,0.1-0.4,0.2-0.8h-0.3c0,0.1,0,0.2-0.1,0.3c0,0.3-0.1,0.9-0.1,0.9s-0.2,0-0.4,0c-0.2,0-0.4,0-0.4,0
	s0-0.6,0.1-1.2H28c0,0.1,0,0.1,0,0.2c-0.1,0.6-0.1,1-0.1,1L27.6,40c0,0-1.1-0.5-1.5-0.7c-0.2-0.1-0.5-0.3-0.8-0.5l-2.9,0
	c0,0.1,0.1,0.2,0.3,0.2c0.3,0,0.9,0,1.1,0c0.2,0,0.4,0.1,0.3,0.2c0,0.1,0,0.3,0,0.5c0,0.2,0.1,0.3,0.3,0.3c0.2,0,0.9,0,1.1,0
	c0.3,0,0.3,0.2,0.3,0.3c0,0.2,0.1,0.8,0.1,0.8s0.9,0,1.1,0c0.2,0,0.3,0.1,0.3,0.3c0,0.3,0.1,1,0.1,1s-1.1-0.6-1.4-0.8
	s-1.5-0.8-1.7-1c-0.3-0.2-1.5-1-1.7-1.1c-0.3-0.1-0.8-0.4-0.8-0.4S21.7,39,21.6,39c-0.1-0.1-0.2,0-0.3-0.1c0,0,0,0-0.1-0.1l-0.9,0
	c0,0,0,0,0,0s-1,0-1.3,0c-0.3,0-3.2,0.1-3.3,0.1c-0.1,0-0.2,0-0.2,0.1s0,0.1,0.2,0.1c0.2,0,1.1,0.1,1.3,0.1c0.3,0,0.8,0,0.8,0
	s0.1,2.2,0.1,2.3s0,0.2-0.1,0.3c-0.2,0-2,0.1-2.1,0.1c-0.1,0-0.1,0.2-0.1,0.2c0.1,0.1,0.5,0.1,0.7,0.1c0.2,0,1.4,0,1.6,0
	c0.3,0,1.2,0,1.4-0.1c0.2,0,0.4,0,0.4,0.2c0,0.2,0,1.8,0,2c0,0.2,0.1,0.4-0.2,0.3c-0.2,0-1.1-0.1-1.4-0.1c-0.3,0-1.4,0.2-1.7,0.2
	c-0.3,0-0.6,0-0.7,0s-0.1,0.2,0,0.2c0.1,0,0.4,0,0.6,0.1c0.2,0,0.9,0.1,1.2,0.1c0.2,0,0.5,0.1,0.5,0.1s0,2.4,0,2.5
	c0,0.1,0,0.2-0.2,0.2s-2.2,0-2.4,0c-0.2,0-0.3,0-0.3-0.1c0-0.1,0-1.6,0-1.8c0-0.3,0-1.7,0-2.1c0-0.4,0-1.5-0.1-1.7
	c0-0.3,0-1.1,0-1.3c0-0.3,0-1.6,0-1.8c0,0,0-0.1,0-0.2l-0.5,0c0,1,0,3.6,0.1,4.1c0,0.6-0.1,2.5,0,2.8c0,0.2,0,1.4,0,1.6
	c-0.1,0.1-0.1,0.4-0.1,0.5c0,0.1,0,0.2-0.1,0.3c-0.1,0-1.7,1.7-1.8,1.7c0,0-0.1,0-0.1,0c0,0-0.1-0.1-0.2-0.3c0-0.1-0.2-0.2-0.3-0.3
	c-0.1-0.2-0.2-0.4-0.3-0.5c-0.1-0.2-0.4-0.7-0.8-1.4c-0.1-0.2-0.2-0.5-0.4-0.9c-0.4-0.9-0.8-2-1.1-2.8c-0.2-0.5-0.7-2.6-0.8-3.1
	c-0.1-0.3-0.2-1.1-0.3-1.7L7.5,38.8z M40.6,38.8C40.6,38.8,40.6,38.8,40.6,38.8c0.1,0.3,0.4,0.8,0.3,0.9c-0.1,0.2-0.3,0.4-0.3,0.4
	s-0.6-0.5-1-0.4c0.8,0.4,0.8,0.9,0.9,1.3c0.1,0.3,0.3,0.7,0.3,1c0,0.3,0.2,0.7,0.2,0.9s-0.1,1.2-0.1,1.6c0,0.4,0.1,0.7,0,0.9
	c0,0.2,0,1.2-0.1,1.5c0,0.4,0,1.8,0,2.2c0,0.3,0,1.4,0,1.8l0.4,0c0-0.2,0-0.4,0-0.6c0-0.4,0-1.1,0-1.4c0-0.2,0.1-0.8,0.1-1.1
	c0-0.4,0-2,0-2.4c0-0.4,0-1.5,0-1.7c0-0.3,0.1-0.8,0.1-1.1c0-0.3,0-0.6,0-0.8c0-0.2,0.1-0.2,0.2-0.2s0.2,0,0.4,0
	c0.2,0,0.2,0.2,0.2,0.3c0,0.1,0,1.4,0,1.7c0,0.3,0,1.5,0,1.8c0,0.3-0.1,1.8-0.1,2.3c0,0.5,0,2.6,0,2.8c0,0.1,0,0.2,0,0.3l0.6,0v-0.2
	c0-0.3,0.1-1.8,0-2c0-0.2-0.1-0.5,0.2-0.4c0.3,0,1.1,0.1,1.5,0c0.4-0.1,1.1-0.1,1.8-0.1c0.7,0,2.1,0.1,2.6,0c0.5-0.1,1.2,0.1,1.4,0
	c0.2,0,0.3-0.3,0.4-0.2c0.1,0.1,0.5,0.1,0.6,0.1s1.1,0,1.8,0h2.6c0.4,0,0.6,0.1,0.7,0.2c0.1,0.1,0.6,0.8,0.8,1
	c0.2,0.1,0.4,0.6,0.6,0.7c0.1,0.1,0.2,0.3,0,0.4c-0.1,0.1-0.2,0.2-0.3,0.4l0.9,0c2.4-3.6,4.1-7.7,4.6-12.2l-0.7,0c0,0.1,0,0.1,0,0.2
	c-0.1,0.7-0.4,2.4-0.5,2.6c-0.1,0.2-0.1,0.6-0.1,0.8s-0.3,1.2-0.5,1.7c-0.2,0.5-0.5,1.1-0.6,1.4c-0.1,0.3-0.2,0.3-0.3,0.5
	c-0.1,0.2-0.4,1.3-0.5,1.5c-0.1,0.2-0.4,0.4-0.4,0.6c-0.1,0.1-0.8,1.4-0.9,1.5c-0.1,0.1-0.2,0.1-0.3,0c-0.1-0.1-0.5-0.8-0.6-0.9
	c-0.1-0.2-0.5-0.6-0.6-0.7c-0.1-0.1-0.3-0.3-0.4-0.5c-0.1-0.1-0.2-0.2-0.3-0.2c-0.1,0-0.1-0.1-0.1-0.3c0-0.2,0-1.1,0-1.4
	c0-0.2,0-0.6,0-0.8c0-0.2,0-1.4-0.1-1.5c-0.1-0.2,0.1-0.5,0.1-0.8c0-0.3,0-1.1,0-1.5c0-0.4,0-0.7-0.1-0.9c0-0.2,0.1-0.7,0-0.9
	c0-0.1,0-0.2,0-0.5h-0.5c0,0.5,0,1,0,1.3c0,0.3,0,0.8,0,1.1c0,0.3,0,1,0,1.4c0,0.4,0,3.1,0,3.3s0,0.8,0,1c0,0.2,0,0.6,0,0.7
	c0,0.1,0,0.3-0.2,0.2c-0.2-0.1-0.5,0-0.7,0c-0.2,0-2,0-2,0l0-2.6c0,0,1.1-0.1,1.5-0.1c0.4,0,0.9-0.1,0.9-0.1v-0.3
	c0,0-0.8-0.1-1.2-0.1c-0.4,0-1.5,0-1.9,0s-0.6,0-0.7,0c-0.1,0-0.2,0-0.2-0.2s-0.1-2-0.1-2.1c0-0.1,0-0.2,0.1-0.2c0.1,0,1.4,0,1.7,0
	s1.7,0,1.8,0s0.4,0,0.4,0v-0.2c0,0-0.6,0-0.8-0.1c-0.2,0-0.7-0.1-0.9-0.1c-0.2,0-0.2,0-0.3,0c-0.1,0-0.2,0-0.2-0.2s0.1-2.3,0.1-2.3
	s1.3,0,1.6,0c0.3,0,0.6-0.1,0.6-0.1l0-0.2c0,0-1.7-0.1-2.2-0.1c-0.5,0-0.7,0-0.9-0.1h-0.4c-0.1,0-0.3,0-0.7,0c0,0-0.1,0-0.1,0h-1
	c-0.2,0.1-0.3,0.2-0.4,0.2c-0.2,0.1-1.4,0.8-1.6,0.9c-0.1,0.1-0.4,0.1-0.5,0.2c-0.1,0.1-0.7,0.3-0.9,0.5c-0.2,0.1-0.9,0.6-1.1,0.6
	c-0.1,0-1.1,0.6-1.2,0.7C43.8,42,43,42.6,43,42.6l-0.1-0.1c0,0,0-0.4,0-0.5c0-0.1,0-0.3,0-0.4c0-0.1,0-0.3,0.2-0.3
	c0.2,0,1.3,0,1.3,0s0-0.5,0-0.6c0-0.2,0-0.3,0.2-0.3c0.2,0,1.3,0,1.4-0.1s0.3,0,0.3-0.2c0-0.2,0-1,0-1s1.3,0,1.5,0
	c0.1,0,0.3-0.1,0.3-0.2l-3.1,0c-0.4,0.2-0.8,0.4-0.9,0.5c-0.3,0.1-1.2,0.6-1.4,0.6c-0.2,0-0.3-0.1-0.3-0.2c0,0-0.1-0.4-0.2-0.8
	l-0.6,0c0.1,0.1,0.1,0.2,0.1,0.3c0.1,0.2,0.1,0.6,0.1,0.6s-0.4-0.1-0.5-0.1c-0.1,0-0.2,0-0.2-0.4c0-0.1-0.1-0.2-0.2-0.5L40.6,38.8z
	 M45.6,47.7c0,0-0.7,0-0.8,0c-0.1,0-0.2,0.1-0.4,0.1c-0.2,0-0.3-0.1-0.9-0.1c-0.4,0-0.7,0-0.7-0.1c0-0.1-0.1-0.7-0.1-0.9
	c0-0.2,0.1-0.6,0.1-0.8c0-0.2,0-0.4,0-0.4s1,0,1.3,0c0.3-0.1,0.8-0.1,1-0.1c0.3,0,0.3,0,0.4,0.1c0,0.1,0.1,0.3,0.1,0.5
	C45.6,46,45.6,47.7,45.6,47.7 M44,44.6c0,0.1,0,0.2-0.1,0.2c-0.1,0-0.7,0-0.9,0c-0.2,0-0.2-0.1-0.2-0.2c0-0.2,0-0.6,0-0.7
	s0-0.3,0-0.4c0-0.1,0-0.2,0.1-0.3c0.1,0,1-0.5,1-0.5s0,0.5,0,0.8C44,43.6,44,44.5,44,44.6 M45.2,44.7c-0.3,0-0.6,0.1-0.6,0.1
	s-0.1-0.1-0.1-0.1c0-0.1,0.1-2,0.1-2.1c0-0.1,0-0.2,0-0.2s0.7-0.1,1-0.1c0.3,0,0.8,0,1.1,0.1c0.2,0,0.3-0.1,0.4-0.1
	c0.1,0,0.2,0,0.2,0l0,2.5c0,0-0.9,0-1.2,0C45.7,44.8,45.4,44.7,45.2,44.7 M48.9,41.1c0,0.2,0,0.6,0,0.6s-1.2,0.1-1.5,0.1
	c-0.3,0-0.9,0-1,0c-0.1,0-0.2-0.1-0.4-0.1c-0.2,0-0.6,0-0.6,0s0.6-0.3,0.8-0.5c0.2-0.2,0.6-0.3,0.8-0.4c0.3-0.1,0.2-0.2,0.7-0.4
	c0.4-0.2,1.2-0.6,1.2-0.6S49,39.9,49,40c0,0.1-0.1,0.4-0.1,0.5C48.9,40.8,48.9,40.8,48.9,41.1 M46,45.6c0-0.2,0.2-0.3,0.3-0.3
	c0.1,0,0.7,0,0.9-0.1c0.2,0,1.5,0,1.5,0c0.1,0,0.2,0,0.2,0.1c0,0.1,0,0.5,0,0.8c0,0.3,0,1.4,0,1.5c0,0.1-0.1,0.2-0.3,0.2
	c-0.5,0-0.9,0.1-1.1,0.1c-0.2,0-0.6-0.1-0.8,0c-0.1,0-0.3-0.1-0.4,0c-0.1,0-0.2,0-0.2-0.1c0-0.1,0-0.8-0.1-1.1
	C45.9,46.2,46,45.7,46,45.6 M47.7,44.7l0-2.5c0,0,0.8-0.1,1.2-0.1c0.4,0,1.4,0,1.5,0.1c0.1,0,0.2,0,0.2,0.1c0,0.1,0,1.4,0,1.7
	c0,0.2,0,0.4,0,0.5c0,0.1,0.1,0.1,0,0.2s-1.3,0-1.6,0C48.5,44.7,47.7,44.7,47.7,44.7 M49.4,40.6c0-0.2,0.1-0.7,0-0.8
	c-0.1-0.1-0.1-0.2,0-0.3c0.1-0.1,0.3-0.2,0.4-0.2c0.1,0,0.3-0.1,0.5-0.1c0.4,0.1,1.4,0,1.7,0c0.1,0,0.2,0,0.2,0.2s0,2,0,2.1
	s0,0.2-0.1,0.2c-0.1,0-1.4,0-1.6,0c-0.2,0-1.1,0-1.1,0S49.4,41,49.4,40.6 M49.3,45.8c0-0.1,0.1-0.3,0.1-0.3c0-0.1,0-0.2,0-0.2
	s1-0.1,1.4-0.1c0.4,0,1.4,0.1,1.4,0.1s0,0.9,0,1.2s0,1.3,0,1.3s-1.2,0-1.5,0c-0.3,0-0.7,0-0.9,0c-0.2,0-0.4,0-0.4-0.3
	C49.3,47.2,49.3,45.9,49.3,45.8 M29.2,40.8c0.2,0.2,0.2,0.8-0.2,0.9c-0.3,0.1-0.8,0.1-1-0.1c-0.2-0.2-0.3-0.2-0.3-0.6
	c0.1-0.4,0.5-0.5,0.7-0.5C28.8,40.5,29,40.6,29.2,40.8 M41.3,40.2c0.2-0.1,0.7-0.1,0.9-0.1c0.2,0,0.5,0.3,0.4,0.7
	c-0.1,0.4-0.3,0.6-0.7,0.6c-0.5,0-0.6-0.1-0.8-0.2C40.9,40.9,41.1,40.3,41.3,40.2 M25,46.7c0-0.3,0-1.1,0-1.2c0-0.2,0.1-0.2,0.2-0.2
	c0.1,0,0.5,0,0.7,0c0.2,0,0.6,0,0.9,0c0.2,0,0.7,0,0.7,0s0.1,1,0.1,1.3c0,0.3,0,0.7,0,0.8c0,0.1-0.1,0.2-0.2,0.2
	c-0.1,0-0.6,0.1-1.1,0.1c-0.3,0-0.7,0-0.9,0.1c-0.2,0-0.5,0-0.5,0S25,47,25,46.7 M26.5,42.6c0-0.1,0-0.1,0.1-0.1
	c0.1,0,0.7,0.4,0.7,0.5c0,0.1,0.1,0.2,0.1,0.3c0,0.1,0,1,0.1,1.1c0,0.1,0.1,0.2-0.1,0.3c-0.2,0-0.7,0-0.8,0c-0.1,0-0.1-0.1-0.1-0.2
	C26.6,44.5,26.6,42.8,26.5,42.6 M21.7,39.8c0-0.1,0-0.1,0.1-0.1c0.1,0,0.6,0.3,0.8,0.4c0.2,0.1,0.2,0.2,0.3,0.2c0.1,0,0.2,0,0.3,0.1
	c0.1,0.1,0.5,0.4,0.7,0.5c0.2,0.1,1.1,0.6,1.1,0.7c0.1,0.1,0.2,0.2,0,0.2c-0.3,0-1.2-0.1-1.4,0c-0.3,0-1,0.1-1.3,0s-0.7,0-0.7,0
	s0-0.6,0-0.9C21.8,40.6,21.8,40,21.7,39.8 M21.2,41.1c0,0.2,0,0.6,0,0.6s-1.1,0.1-1.5,0.1c-0.3,0-1.1,0-1.2,0s-0.1,0-0.1-0.1
	s0-1.9,0-2.1c0-0.2,0-0.2,0.1-0.2c0.2,0,2.4,0,2.5,0c0.1,0,0.2,0,0.1,0.2C21.2,39.6,21.3,40.9,21.2,41.1 M18.4,46.3
	c0-0.1,0.1-0.9,0-1c0-0.1,0-0.1,0.1-0.1c0.1,0,1-0.1,1.4-0.1c0.3,0,1,0.1,1.1,0.1c0.2,0,0.2,0,0.2,0.1c0,0.1,0.1,2,0,2.1
	c0,0.1-0.1,0.2-0.1,0.3c0,0.1,0,0.1-0.1,0.1s-0.9,0-1,0c-0.2,0-0.3,0.1-0.3,0.1c-0.1,0-0.2,0-0.3-0.1c-0.1,0-1,0-1,0
	S18.4,46.5,18.4,46.3 M20.3,44.7c-0.1,0-0.2-0.1-0.2-0.2s0-1.2,0-1.4c0-0.3,0-0.9,0-0.9s0.7,0,1.2-0.1c0.5,0,1.7,0,1.7,0l0,2.5
	c0,0-0.5,0-0.9,0C21.6,44.8,20.4,44.7,20.3,44.7 M21.7,47.8c0-0.2,0-1.1,0-1.4c0-0.2,0-0.6,0-0.7c0-0.1,0-0.3,0-0.4
	c0-0.1,0-0.1,0.1-0.1c0.1,0,0.7,0,0.8,0c0.1,0,0.1,0,0.2,0c0.1,0,0.7,0,0.9,0c0.2,0,0.4,0,0.5,0.1c0.1,0.1,0.1,0,0.2,0
	c0,0,0.2,0.1,0.2,0.3c0,0.1,0,1-0.1,1.2c-0.1,0.2-0.1,1.1-0.1,1.1s-0.6,0.1-1,0.1c-0.3,0-0.5,0-0.6,0c-0.1,0-0.7,0-0.9,0
	C21.9,47.9,21.7,47.9,21.7,47.8 M24.4,44.7c-0.4,0-1,0-1,0l0-2.5c0,0,1.4,0,1.8,0c0.4,0,0.7,0,0.9,0s0.1,0.1,0.1,0.1s0,2.2,0,2.3
	c0,0.1,0,0.1-0.1,0.1C26,44.8,24.8,44.7,24.4,44.7"/>
<path class="st0" d="M8.2,38.8c0-0.3-0.1-0.6-0.1-0.7c0-0.4-0.1-1.7-0.1-2c0-0.3,0-1.7,0-2.2c0-0.6,0.2-2,0.3-2.3
	c0.1-0.3,0.3-1.7,0.4-2c0.1-0.3,0.5-2.2,0.6-2.4s0.2-0.8,0.3-1c0.2-0.4,0.6-1.4,0.6-1.5c0.1-0.2,0.4-1.1,0.5-1.2
	c0-0.1,0.5-0.8,0.5-0.9c0.1-0.2,0.2-0.2,0.3-0.3c0.1-0.1,0.4-0.9,0.7-1.5c0.4-0.6,1.3-1.7,1.6-2.2c0.1-0.2,0.5-0.7,0.4-0.6
	c0,0,0,0,0,0c0,0,0,0,0,0c0.1-0.1,0.6-0.6,0.6-0.7c0.1-0.1,0.1,0,0.1,0.1c0,0.1,0,1.2,0,1.3c0,0.1,0,0.1,0,0.1s-0.2,0.2-0.2,0.4
	c0,0.2,0.1,0.5,0.2,0.7c0.1,0.2,0.6,0.5,0.7,0.6s0.1,0.2,0.1,0.3c0,0.1,0,0.6,0,1.1c0,0.4,0,1.2,0,1.4c0,0.3,0,1.1,0,1.2
	c0,0.1-0.1,0.1-0.1,0.1c0,0-0.3,0.1-0.6,0.1c-0.3,0-0.6,0.3-0.7,0.4c-0.1,0.1,0,0.7,0,0.9c0,0.2,0,2.1,0,2.3c0,0.2,0,1.1,0,1.2
	c0,0.1,0,0.2-0.1,0.2c-0.1,0-0.3,0.2-0.4,0.4c-0.1,0.1-0.1,0.5,0,0.6c0.1,0.1,0.3,0.4,0.6,0.6c0.3,0.3,0.6,0.5,0.6,0.5
	c0,0,0.1,0.1,0.1,0.1c0,0,0,0.7,0,0.9c0,0.1-0.1,0.1-0.1,0.2c0,0-1.2,1.2-1.4,1.4c-0.2,0.2-0.2,0.3-0.1,0.4c0.2,0.2,0.9,0.8,1,0.9
	c0.1,0.1,0.1,0.2,0.1,0.3s0,2.4,0,2.8c0,0.1,0,0.2,0,0.3l0.5,0c0-0.3,0-0.9,0-1.1c0-0.3,0-2,0-2s0.9,0.5,1.1,0.6
	c0.2,0.1,0.8,0.5,1,0.6c0.2,0.1,1,0.6,1.2,0.7c0.2,0.1,0.6,0.2,0.8,0.4c0.2,0.2,0.6,0.4,0.7,0.5c0.1,0,0.3,0.2,0.4,0.2h0.9
	c-0.1-0.1-0.3-0.3-0.5-0.4c-0.2-0.1-0.9-0.4-1.1-0.5c-0.2-0.1-0.9-0.6-0.9-0.6s-0.1,0-0.2-0.1c-0.1-0.1-0.3-0.3-0.6-0.4
	c-0.2-0.1-1-0.6-1.2-0.7c-0.1-0.1-0.8-0.6-1.1-0.7c-0.3-0.1-0.3-0.3-0.4-0.4c-0.2-0.1-0.7-0.5-0.8-0.5c-0.1-0.1-0.1-0.1,0-0.2
	c0.1-0.1,0.9-1,0.9-1s0.1,0.7,0,0.9c0,0.1,0.1,0.3,0.2,0.2s1.5,0,1.5,0s0,0.7,0,0.8c0,0.3,0,0.4,0.3,0.3c0.3-0.1,1.1,0,1.2,0
	c0.1,0,0.3,0,0.3,0.2c0,0.1,0,0.5,0,0.7c0,0.2,0,0.2,0.2,0.2c0.2,0,1.5,0,1.5,0s0,0.6,0,0.8s0,0.3,0.4,0.3c0.3,0,1.1,0,1.2,0
	c0.1,0,0.2,0.1,0.2,0.2c0,0.1,0,0.4,0,0.6c0,0,0,0.1,0,0.1l2.9,0c-0.3-0.2-0.6-0.4-0.7-0.4c-0.2-0.1-0.3-0.2-0.5-0.3
	c-0.2-0.1-0.9-0.3-1-0.5s-0.8-0.5-1.1-0.8c-0.3-0.3-1.5-0.8-1.8-1.1c-0.3-0.3-0.8-0.4-0.8-0.5c-0.1-0.1-0.6-0.6-0.9-0.6
	c-0.3-0.1-0.1-0.2-0.2-0.2c-0.1,0-0.6-0.1-0.6-0.2c-0.1-0.1-0.7-0.5-1-0.6c-0.2-0.1-1.1-0.7-1.1-0.7s0-1,0-1.2
	c0-0.1,0.2-0.2,0.3-0.2c0.1,0,1.5,0,1.8,0.1c0.2,0,1.9,0.2,2.2,0.2c0.3,0,0.8,0,0.8,0l0.1,0.6c0,0,0.2-0.4,0.5-0.5
	c0.3-0.1,0.7-0.2,1.3,0.2c0.8-0.4,0.8-0.3,1-0.3c0.2,0,0.5,0,0.7,0.7c0.1-0.4,0.3-0.6,0.5-0.6c0.2,0,0.7,0,0.7,0s-0.2,0.3-0.2,0.7
	c0,0.3,0,0.6,0,0.6s0.3-0.8,0.5-1c0.3-0.1,0.8-0.3,1.1-0.2c0.2,0.1,0.6,0,0.8,0.1c0.1,0.1,0.6,0.6,0.6,1.2c0.1-0.8-0.1-1.1-0.3-1.4
	c0.5,0,0.9,0.1,1.1,0.1c0.2,0,0.4,0,0.6,0s0.3,0.1,0.2,0.3c-0.1,0.2-0.4,1.5-0.4,1.5s0.8-1.1,1-1.4c0.2-0.3,1.1-1.3,1.1-1.3
	s-0.7,0.1-0.9,0.1c-0.2-0.1-1.6,0-2.1,0c-0.5,0-2.3,0.2-3.3,0c-1-0.1-2.1-0.1-2.5-0.1c-0.5,0-2.7-0.2-3.2-0.1c-0.5,0-1.3,0-1.8-0.1
	c-0.5-0.1-1.2,0-1.5,0c-0.3,0-0.8-0.2-1-0.2c-0.1,0-0.4-0.1-0.6-0.2c-0.1-0.1,0-0.4,0.2-0.4c0.2,0,1.2,0.1,1.7,0.1
	c0.5,0,2.3,0.1,2.8,0.1s1.8,0,2.6,0.1c0.8,0,2.1-0.1,2.6,0c0.5,0,1,0.1,1.6,0.1s2.5-0.1,3.1-0.1c0.6,0,3.5,0,3.5,0s1.2-1,1.5-1.1
	c0.3-0.2,0.6-0.4,0.8-0.5c0.2-0.1,0.4-0.2,0.6-0.2c0.1,0,0.7,0.5,0.9,0.7s1.1,1,1.3,1.1c0.2,0.1,0.5,0.1,0.6,0.1c0.1,0,1.8,0,2.4,0
	c0.6,0,3.3-0.1,3.7-0.1c0.4,0,4.3,0,4.7,0c0.3,0,1.2-0.1,1.5-0.1c0.3,0,2.2-0.1,2.5-0.2c0.3,0,0.5,0,0.9,0c0.4,0,0.5,0,0.7,0
	c0.2,0,0.4,0.2,0.2,0.3c-0.2,0.2-0.2,0.3-0.7,0.3c-0.5,0-1.1,0-1.9,0.1c-0.8,0.1-2.5,0.2-3.3,0.2s-3,0.1-4.1,0.1s-6.1,0-6.1,0
	s0.8,0.9,1,1.2c0.2,0.3,1.2,1.6,1.2,1.6s-0.2-1.2-0.2-1.4c0-0.1,0.1-0.2,0.2-0.3c0.1,0,0.9,0,1.1,0c0.2,0,0.3,0.1,0.3,0.3
	c0,0.2,0,1,0,1s0.2-1,0.8-1.2c0.6-0.2,0.9-0.1,1.1,0c0.2,0,0.6,0.1,0.7,0.4c0.1,0.3,0.3,0.6,0.3,0.6s0.1-0.7,0-0.9
	c0-0.2,0-0.3,0.2-0.3c0.2,0,0.5-0.1,0.8,0.1c0.3,0.2,0.3,0.6,0.3,0.6s0-0.4,0.3-0.6c0.8-0.4,1.3,0.2,1.3,0.2s0.2-0.3,0.8-0.3
	c0.6,0,0.9,0.6,0.9,0.6l0.1-0.6c0,0,1-0.1,1.8-0.2c0.8-0.1,2.4-0.1,2.7-0.2c0.3,0,0.5,0,0.5,0.2c0,0.2,0,0.8,0,0.9
	c0,0.1,0,0.2-0.1,0.3c-0.1,0.1-0.9,0.6-1.2,0.7c-0.3,0.1-0.4,0.3-0.6,0.3c-0.2,0.1-0.6,0.4-0.9,0.5c-0.2,0.1-0.9,0.6-1.3,0.8
	c-0.4,0.2-1.1,0.6-1.5,0.8c-0.4,0.2-1.6,1.1-2,1.2c-0.3,0.1-0.7,0.4-0.9,0.5c-0.1,0-0.8,0.5-1.5,0.8l3.1,0c0,0,0,0,0,0
	c0-0.2,0-0.4,0-0.5s0-0.1,0.1-0.1s1.2-0.1,1.4-0.1c0.2,0,0.3-0.1,0.3-0.3c0-0.2,0-0.6,0-0.6s0-0.2,0.1-0.2c0.1,0,1-0.2,1.4,0
	c0.2,0.1,0.2-0.1,0.2-0.2c0-0.1,0-0.5,0-0.6s0.1-0.2,0.3-0.3c0.2,0,1,0,1.2,0s0.3-0.1,0.3-0.2v-0.7c0-0.1,0.1-0.2,0.3-0.2
	c0.2,0,1.6-0.1,1.6-0.1s0-0.7,0.1-1c0-0.3,0.2-0.5,0.3-0.2c0.2,0.2,0.4,0.4,0.5,0.6c0.1,0.2,0.3,0.7,0.3,0.7s-0.6,0.4-0.9,0.6
	c-0.2,0.2-0.9,0.7-1.1,0.7c-0.2,0.1-0.6,0.2-0.8,0.4c-0.2,0.2-1.6,1-1.8,1.1c-0.2,0.1-0.9,0.6-1,0.6s-0.5,0.3-0.7,0.4
	c-0.1,0.1-0.4,0.3-0.7,0.4l1,0c0,0,0,0,0.1-0.1c0.1-0.1,0.8-0.5,1.2-0.7c0.4-0.1,0.8-0.5,1.1-0.6c0.2-0.1,0.8-0.6,1-0.6
	c0.2-0.1,1.4-0.8,1.4-0.8s0.1,0.5,0.1,0.8c0,0.4,0.1,1.1,0,1.5c0,0.1,0,0.3,0,0.5l0.5,0c0-0.9,0-2.8,0-2.9c0-0.2,0-0.3,0.2-0.4
	c0.1-0.1,0.9-0.6,1-0.7c0.1-0.1,0.2-0.1,0.1-0.3c-0.1-0.2-0.5-1-0.8-1.3c-0.2-0.3-0.5-0.6-0.6-0.8c-0.1-0.2-0.3-0.5-0.4-0.5
	c0,0-0.1-0.1-0.1-0.3c0-0.1,0-0.2,0-0.3c0-0.1-0.1-0.1-0.2-0.2c-0.1,0-0.2-0.1-0.1-0.2c0.1-0.1,0.3-0.3,0.3-0.6
	c0-0.2,0.1-0.5-0.1-0.7c-0.1-0.1-0.1-0.1-0.1-0.2c0-0.1,0-0.3,0-0.4c0-0.1,0-0.3,0-0.4c0-0.1,0-0.8,0-1s0.1-1,0.1-1.4
	c0-0.3,0-0.7-0.1-1c-0.1-0.3-0.3-0.5-0.7-0.5c-0.3,0-0.3-0.2-0.3-0.4c0-0.2,0-0.6,0-0.9c0-0.3,0-1.6,0-1.8c0-0.3,0.1-1.3,0-1.4
	c0-0.1,0-0.2,0.1-0.3c0.1-0.1,0.6-0.6,0.7-0.7c0.1-0.2,0.3-0.4,0.2-0.6c0-0.1-0.1-0.3-0.1-0.3c-0.1,0-0.1-0.1-0.1-0.2
	c0-0.1,0.1-0.9,0-1.1c0-0.1,0.1-0.1,0.2,0c0.1,0.1,0.5,0.6,0.7,0.7c0.2,0.1,0.3,0.3,0.3,0.4c0.1,0.1,0.4,0.5,0.6,0.7
	c0.2,0.2,0.6,0.9,0.8,1.2c0.2,0.4,1.1,1.5,1.3,2c0.2,0.5,1,2.1,1.1,2.3s0.3,0.8,0.4,1c0.1,0.2,0.6,1.2,0.7,1.9
	c0.1,0.7,0.5,1.6,0.6,2c0,0.4,0.4,2.5,0.4,3.2c0,0.7,0.2,2,0.2,2.7c0,0.7-0.1,2.7-0.2,3.6l0.7,0c0.1-1.2,0.2-2.3,0.2-3.5
	c0-15.4-12.5-27.9-27.9-27.9C19.8,7.4,7.3,19.9,7.3,35.3c0,1.2,0.1,2.4,0.2,3.5L8.2,38.8z M28.4,38.8c0-0.4,0.1-0.7,0.2-1
	c0.3-0.6,0.4-1,0.5-1.1c0-0.1,0.2-0.2,0.2-0.2l0-0.1c0,0,0.4-0.9,0.6-1c0.4-0.3,0.5-0.9,0.7-1.1c0.2-0.2,1.9-1.9,2-2.1
	c0.3-0.4,2-1.6,2.2-1.8c0.2-0.2,0.4-0.4,0.7-0.2c0.2,0.2,0.9,0.8,1.1,1c0.4,0.4,1.3,1.3,1.7,1.7c0.3,0.5,0.7,0.5,0.8,0.7
	c0.1,0.2,0.3,0.7,0.6,0.9c0.3,0.2,0.3,0.5,0.4,0.8c0.2,0.3,0.7,1.1,0.9,1.6c0.1,0.3,0.4,0.6,0.5,0.8c0,0.2,0.3,0.8,0.4,1.2l0.6,0
	c-0.1-0.6-0.3-1.4-0.7-1.9c-0.6-0.9-0.3-0.9-0.4-1c-0.1-0.1-0.2-0.4-0.3-0.5c-0.1-0.1-0.1-0.4-0.2-0.5c-0.1-0.1-0.3-0.3-0.4-0.4
	c-0.1-0.1,0-0.2-0.2-0.4c-0.1-0.2-1.1-1.4-1.4-1.8c-0.3-0.4-1-1.1-1.2-1.3c-0.3-0.2-0.7-0.7-1-0.9c-0.3-0.2-0.5-0.3-0.7-0.5
	c-0.1-0.1-0.3-0.4-0.6-0.4c-0.2,0-0.7,0.3-0.9,0.5c-0.2,0.1-0.9,0.8-1.1,0.9c-0.2,0.1-0.6,0.5-0.8,0.7c-0.2,0.2-1,1-1.3,1.3
	c-0.3,0.3-1.4,1.7-1.5,2c-0.1,0.2-0.7,1.1-1,1.7c-0.3,0.6-0.6,1.9-0.7,2.6H28.4z M29.6,38.8c0.1-0.4,0.3-0.9,0.4-1.1
	c0.2-0.3,0.5-0.7,0.6-1c0.1-0.3,0.4-0.6,0.5-0.6c0.1-0.1,0.4-0.6,0.6-0.8c0.2-0.2,1.3-1.4,1.3-1.4s-0.2,0.9,0.5,0.9
	c-0.1-0.4,0-1.4,0.8-1.4c-0.2-0.7,0.6-1,1-1c0.4,0,1,0,1,1c0.7,0.1,1,0.8,0.7,1.5c0.3,0,0.4-0.4,0.5-0.7c0.5,0.4,0.2,0.3,0.4,0.4
	c0.2,0.2,0.5,0.6,0.7,0.9c0.2,0.3,0.6,0.6,0.8,0.9c0.2,0.3,0.8,1.1,0.9,1.4c0.1,0.3,0.3,0.8,0.4,1.1h0.4c-0.1-0.3-0.3-0.7-0.4-0.9
	c-0.1-0.4-0.5-1.1-0.6-1.3s-0.4-0.8-0.6-1c-0.1-0.2-0.2-0.5-0.4-0.7c-0.2-0.1-0.4-0.6-0.6-0.7c-0.1-0.2-0.3-0.5-0.5-0.6
	c-0.2,0-0.3-0.3-0.4-0.4s-0.3-0.6-0.5-0.7c-0.2-0.2-0.5-0.4-0.6-0.6c-0.1-0.2-0.5-0.3-0.6-0.5c-0.1-0.2-0.3-0.3-0.5-0.5
	c-0.1-0.1-0.3-0.1-0.5,0.1s-0.6,0.5-0.8,0.6c-0.1,0.1-1.1,1-1.4,1.4c-0.3,0.4-1,1.1-1.3,1.4c-0.3,0.3-0.5,0.6-0.6,0.8
	c-0.1,0.2-0.4,0.8-0.6,1c-0.1,0.2-0.4,0.8-0.6,1.1c-0.1,0.2-0.4,1.1-0.5,1.6L29.6,38.8z M51.9,38.8c-0.1,0-0.1,0-0.2,0
	c-0.1,0-0.1,0-0.2,0L51.9,38.8z M54.8,18.8c-0.2,0.2-0.4,0.4-0.4,0.4s-0.9,0.1-1.2,0.1c-0.3,0-2.1,0.1-2.9,0.1c-0.7,0-2.4,0-2.7,0
	c-0.3,0-0.7,0-0.8-0.1s-0.5,0-0.7,0c-0.2,0-0.3-0.2-0.4-0.3c-0.1-0.1,0-0.1,0.1-0.2c0.2,0,1.5-0.1,1.8-0.1c0.3,0,0.7,0,1,0
	c0.3,0,1.5,0,2.1,0c0.6,0,1.3-0.1,1.9-0.1c0.6,0,1.6,0,1.8-0.1S55,18.7,54.8,18.8 M16.2,23.8c0-0.3,0-1.2,0-1.5c0-0.2,0-0.8,0-1.1
	v-0.7c0,0,0.7,0.1,1.1,0.1c0.4,0,0.6,0,0.8,0c0.2,0,0.3,0,0.2,0.2c-0.1,0.2-0.4,0.9-0.3,1.5c0.1-0.7,0.4-1.3,0.7-1.4
	c0.4-0.2,0.8-0.4,1.2-0.4c0.4,0,0.9,0.1,1.2,0.6c0.4,0.6,0.3,0.8,0.4,1.3c0.1-0.5,0.2-1.1,0-1.6c-0.1-0.2-0.1-0.3,0.2-0.2
	c0.2,0,1,0.1,1.4,0c0.3,0,0.5,0,0.6,0c0.1,0,0.3,0,0.2,0.4c0,0.3,0,2.2,0,2.7c0,0.5,0,1.8,0,2c0,0.2,0.1,0.3-0.3,0.3
	c-0.2,0-1.2,0-1.4,0.1c-0.3,0-1.3,0.1-1.7,0.1c-0.4,0-1.3,0-1.3,0s0.8,0.2,1,0.3c0.2,0,0.8,0.1,1,0.1s0.5,0.5,0.1,0.5
	c-0.4,0-1.6,0-1.8-0.1s-0.5,0-0.6,0c-0.2,0-0.2-0.3-0.3-0.5c0-0.2,0-0.4-0.2-0.4c-0.2-0.1-1.8-0.1-1.9-0.1s-0.2-0.1-0.2-0.2
	C16.1,25.3,16.2,24.1,16.2,23.8 M25,30c-0.3,0-1.9,0-2.3,0c-0.4,0-0.8-0.1-0.8-0.1s0-3.4,0-3.5c0-0.2,0.1-0.2,0.2-0.2
	c0.1,0,1,0,1.4,0c0.4,0,1.3,0.1,1.5,0s0.3,0,0.3,0.3c0,0.2,0,3,0,3.2C25.3,29.9,25.4,30,25,30 M20.1,29.1c0.6,0.1,1.2,0.1,1.2,0.1
	s-0.2,0.2-0.9,0.1c-0.5,0-1.8-0.1-1.8-0.1V29C18.7,29,19.5,29,20.1,29.1 M18.7,28.4l0-0.3c0,0,2.2,0.1,2.3,0.1
	c0.2,0,0.4,0.1,0.1,0.4c-0.1,0.1-0.7,0-0.8,0c-0.2,0-1.4,0-1.5-0.1C18.7,28.5,18.7,28.4,18.7,28.4 M20.5,27.7c-0.3,0-1-0.1-1.2-0.2
	c-0.3,0-0.5-0.1-0.5-0.1l0-0.4c0,0,0.9,0.2,1.2,0.2c0.3,0,1.6-0.1,1.6-0.1s0.1,0.4-0.1,0.5C21.2,27.8,20.8,27.7,20.5,27.7
	 M16.4,26.2c0.3,0,0.6,0,0.8,0.1c0.2,0,0.3,0,0.3,0.3c0,0.2,0.1,1,0,1.3c0,0.3,0.1,0.9,0,1.1c0,0.2-0.1,0.4,0,0.5
	c0,0.1,0.1,0.3-0.1,0.3c-0.3,0-2.1-0.1-2.3-0.1c-0.2-0.1-0.3-0.2-0.3-0.3c0-0.1,0-1.5,0-1.7c0-0.2,0-1.5,0-1.5S16,26.2,16.4,26.2
	 M28.4,17c-0.1-0.1-0.4-0.7-0.4-0.7s0.8,0.7,0.9,0.7s0.1,0,0.1-0.1c0-0.1-0.2-0.6-0.2-0.6s0.6,0.6,0.7,0.7c0.1,0.1,0.1,0.2,0.3,0.2
	s0.2-0.1,0.2-0.2c0-0.1-0.2-0.6-0.2-0.6s0.4,0.5,0.5,0.6c0.1,0.1,0.2,0.2,0.3,0.2h0.4c0,0-0.3-1-0.5-1.1c-0.2-0.1-0.4,0-0.4,0
	s-1.9,0-2.2-0.1c-0.3-0.1-0.7-0.4-0.8-0.5c-0.1-0.1,0-0.2,0.4-0.2c0.2,0,1.2,0,1.6,0c0.4,0,1.8,0,2.3,0c0.5,0,2.3,0,3,0
	c0.7,0,1.8,0,2.7,0c0.9,0,2.5-0.1,3.3-0.1c0.8,0,2.2,0,2.6-0.1c0.5,0,0.9,0.1,0.6,0.4c-0.3,0.3-0.7,0.3-1,0.3
	c-0.3,0-2.2,0.1-2.4,0.1c-0.2,0-0.3,0.3-0.4,0.6s-0.3,0.6-0.2,0.6c0.1,0,0.3,0.1,0.4,0c0.1-0.1,0.5-0.7,0.8-0.9
	c-0.1,0.4-0.3,0.8-0.3,0.8l0.5,0c0,0,0.4-0.6,0.6-0.8C41.1,16.7,41,17,41,17l0.4,0c0,0,0.6-0.6,0.9-0.7c0.3-0.2-0.3,0.6-0.3,0.7
	c0,0.1,0.2,0.2,0,0.4c-0.2,0.2-0.3,0.3-0.8,0.3c-0.5,0-2.1,0-2.7,0.1c-0.6,0-2.4,0-2.9,0c-0.5,0-2.1,0-2.8,0.1s-2.2,0-2.8-0.1
	c-0.6,0-0.9,0-1.1-0.1c-0.2-0.1-0.3-0.1-0.4-0.3C28.4,17.2,28.5,17.1,28.4,17 M26.8,13.6c0-0.3,0-0.8,0-1s0-0.3,0.2-0.3
	c0.2,0,1.6,0,1.7,0c0.3,0,0.5,0,0.4,0.3c0,0.2,0,1.8,0,2c0,0.2,0,0.3-0.3,0.4c-0.2,0-1.6-0.1-1.7,0c-0.2,0-0.4,0-0.3-0.1
	C26.7,14.6,26.8,13.8,26.8,13.6 M31.3,14c0-0.3,0-1.4,0-1.6s0.1-0.2,0.3-0.2s1.8,0,2,0c0.2,0,0.3,0,0.3,0.3c0,0.3,0,1.7,0,2
	s0,0.5,0,0.5s-0.9,0-1.3,0c-0.3,0-1.4,0-1.4,0S31.3,14.3,31.3,14 M36.3,12.5c0-0.2,0-0.2,0.3-0.2c0.3,0,2,0,2.2,0
	c0.2,0,0.3,0,0.3,0.2s0.1,2,0.1,2.2c0,0.1,0,0.3-0.2,0.3c-0.1,0-2.1,0.1-2.3,0.1s-0.3,0-0.3-0.2c0-0.2,0-0.9,0-1.2
	C36.3,13.3,36.4,12.7,36.3,12.5 M40.9,14.5c0-0.3,0-2.4,0-2.4s1.9,0,2.1,0c0.2,0,0.4-0.1,0.4,0.3c0,0.3,0,2,0,2.1
	c0,0.1,0,0.3-0.2,0.3c-0.3,0-1.9,0.1-2,0.1S40.9,14.7,40.9,14.5 M40.8,29.8c-0.2-0.1-0.6,0-0.8,0h-1.8c-0.3,0-0.4,0-0.4-0.2
	c0-0.2,0.1-1.3,0.1-1.7c0-0.4,0-0.9,0-1.2c0-0.3,0.1-0.3,0.4-0.3c0.5,0,2.3-0.1,2.5,0c0.3,0,0.3,0,0.3,0.3c0,0.3,0,2.6,0,2.8
	C41,29.6,41.1,29.9,40.8,29.8 M37.4,26.6v0.1c0,0-1,0.1-1.3,0.2c-0.3,0-0.6,0.1-0.6,0.1s0.7,0.1,1,0.1s0.8,0,0.8,0l0,0.3
	c0,0-1.5,0.2-2,0.2c-0.6,0-2.1-0.1-2.1-0.1L33,27.3c0,0,0.4,0,0.7-0.1c0.3,0,0.9-0.2,0.9-0.2s-1.2-0.2-1.6-0.2
	c-0.3,0-0.3-0.2-0.1-0.2c0.2,0,1.5-0.3,1.5-0.3s-1-0.1-1.4-0.1c-0.4,0-1,0-1.2-0.1c-0.3,0-0.4-0.2-0.3-0.4c0-0.2,0.1-0.5,0-0.7
	c0-0.2,0.1-0.4,0.3-0.5c0.2-0.1,0.9-0.2,1.2-0.2c0.3,0,0.5-0.1,0.5-0.1s-0.6-0.1-0.8-0.2c-0.2-0.1-0.3-0.3-0.3-0.4
	c0-0.1,0-1.1,0-1.2c0.1-0.1,0.4-0.3,0.8-0.3C33,22,32.4,22,32,22c-0.4,0-0.5-0.1-0.6-0.2c0-0.2-0.1-1.2,0-1.4
	c0.1-0.2,0.3-0.2,0.7-0.3c0.4,0,0.8-0.2,0.8-0.2s-0.3-0.1-0.4-0.2c-0.2-0.1-0.1-1-0.1-1.2c0-0.2,0.2-0.4,0.3-0.4
	c0.2,0,0.5-0.1,0.6,0c0.2,0,0.2,0.2,0.2,0.3s-0.1,1.3-0.1,1.3s0.2-1.5,0.9-1.7c0.6-0.2,1.2-0.2,1.4-0.1c0.2,0.1,0.6,0.5,0.6,0.9
	c0.1,0.4,0.2,1.1,0.2,1.1s0.1-0.4,0.1-0.6c0-0.2,0-0.8,0-1c0-0.1,0.1-0.2,0.2-0.2c0.1,0,0.4,0,0.5,0c0.2,0,0.3,0.1,0.3,0.3
	c0,0.2,0,0.9,0,1.1c0,0.1-0.5,0.3-0.5,0.3S37.8,20,38,20c0.2,0,0.7,0,0.7,0.6c0,0.6,0,0.8,0,0.9c0,0.1,0.1,0.5-0.2,0.5
	c-0.3,0-1.7,0.1-1.7,0.1s0.7,0.1,0.7,0.2c0.1,0.1,0.1,0.5,0,1c0,0.7,0,0.9-0.3,0.9c-0.4,0.1-0.8,0.2-0.8,0.2s1,0.1,1.3,0.1h0.6
	c0.1,0,0.3,0.1,0.3,0.3c0,0.2,0,0.8,0,0.9c0,0.1-0.1,0.3-0.3,0.3c-0.2,0-2.7,0.3-2.7,0.3L37.4,26.6z M37.2,28c0,0-0.6,0.1-1.1,0.2
	c-0.5,0.1-1.2,0-1.7,0c-0.5,0-1.3-0.2-1.3-0.2s1.1-0.3,1.8-0.3C35.6,27.9,37.2,28,37.2,28 M32.4,29.5c0,0.2-0.1,0.3-0.3,0.3
	c-0.2,0-2.6,0-2.8,0c-0.2,0-0.3,0-0.4-0.2c0-0.2,0-0.9,0-1.4c0-0.5,0-1.2-0.1-1.3c0-0.1,0-0.2,0.2-0.2c0.2,0,1,0,1.6,0
	c0.5,0,1-0.1,1.3-0.1c0.2,0,0.4,0,0.4,0.2c0,0.2,0,0.8,0,1.4S32.4,29.3,32.4,29.5 M29,23.3c0-0.2,0-0.8,0-0.9c0-0.1,0.1-0.5,0.1-0.7
	c0-0.2,0-0.8,0-1c0-0.2,0-1.4,0-1.7c0-0.3,0-0.6,0-0.7c0-0.1,0.1-0.2,0.3-0.2c0.2,0,0.6,0,1.2,0.1c0.6,0,1.4,0,1.4,0s0,1.2,0,1.3
	c0,0.1,0,0.2-0.2,0.2c-0.2,0-2.2,0.2-2.2,0.2l0,0.2c0,0,0.8,0.1,1.1,0.1c0.3,0,0.3,0.2,0.3,0.3c0,0.1,0,0.4,0,0.6c0,0.3,0,0.5,0,0.6
	c0,0.1-0.2,0.2-0.3,0.2c-0.1,0-1.2,0.1-1.2,0.1l0,0.3c0,0,0.7,0,1,0c0.3,0,0.7,0,0.9,0c0.1,0,0.3,0.1,0.4,0.1c0.1,0,0.2,0.1,0.2,0.3
	c0,0.2,0,1,0,1.1c0,0.1-0.2,0.3-0.4,0.3c-0.2,0-1.7,0.2-1.8,0.2c-0.1,0-0.4,0-0.4,0l0,0.2c0,0,0.7,0,0.9,0c0.2,0,0.7,0.1,0.7,0.1
	s0.1,1.1,0,1.3c-0.1,0.2-0.1,0.4-0.5,0.4c-0.3,0-1.3,0-1.4,0c-0.1,0-0.2,0-0.2-0.1s0.1-1.8,0.1-2.1C29,23.7,29,23.5,29,23.3
	 M40.8,26c-0.2,0-1,0-1.2,0c-0.2,0-0.3-0.1-0.3-0.3s0-0.7,0-0.9c0-0.2,0.2-0.3,0.4-0.3c0.2,0,0.3,0,0.5-0.1c0.1,0,0.4,0,0.4,0v-0.2
	L38,24.1c0,0,0-1.4,0-1.6c0-0.2,0.4-0.2,0.6-0.2c0.2,0,2.1-0.1,2.1-0.1l0-0.2c0,0-0.9,0-1.1,0c-0.2,0-0.3,0-0.3-0.2
	c0-0.2-0.2-1.3,0-1.4c0.1-0.1,0.4-0.2,0.6-0.3c0.3,0,0.9-0.1,0.9-0.1l0-0.2c0,0-0.4,0-0.9,0c-0.5,0.1-1.2-0.1-1.4,0
	c-0.3,0-0.4-0.1-0.4-0.4c0-0.3,0-1.3,0-1.3s2.5-0.1,2.9-0.1c0.3,0,0.3,0.1,0.3,0.3c0,0.3,0,2,0,2.5c0,0.5,0,3.1,0,3.4
	c0,0.4,0,1.2,0,1.4S41,26.1,40.8,26 M45.1,26.7c0-0.2,0-0.3,0.2-0.3c0.1,0,2-0.2,2.2-0.1c0.3,0.1,0.5,0,0.5,0.4c0,0.4,0,2.4-0.1,2.7
	c0,0.2,0,0.4-0.4,0.3c-0.4,0-1.7,0-2,0c-0.3,0-0.5,0-0.5-0.2C45,29.3,45.1,26.9,45.1,26.7 M48.7,28.1c0.3,0,2.5-0.1,2.7-0.1
	c0.3,0,0.4,0.4,0,0.4h-2.7C48.5,28.4,48.5,28.1,48.7,28.1 M48.6,27.6v-0.4c0,0,1.2-0.1,1.6-0.1h1.5l0,0.4c0,0-1.1,0.1-1.6,0.1
	C49.6,27.6,48.6,27.6,48.6,27.6 M50.1,28.8c0.8,0,1,0,1.6,0.2c-0.5,0.2-1.1,0.2-1.6,0.2c-0.8,0-1.6-0.1-1.6-0.1S49.2,28.7,50.1,28.8
	 M55,28.8c0,0.3,0.1,0.6-0.4,0.6c-0.5,0-1.6,0-1.7,0c-0.1,0-0.2,0-0.2-0.2c0-0.2,0.1-1.1,0.1-1.4c0-0.4,0-1.6,0-1.6s0.9-0.1,1.1-0.1
	c0.3,0,0.6,0,0.8-0.1c0.2,0,0.3-0.1,0.3,0.2C54.9,26.5,55,28.5,55,28.8 M53.9,25.5c0,0.1,0,0.3-0.2,0.3c-0.1,0-1.8,0.1-1.9,0.2
	c-0.1,0-0.2,0.4-0.2,0.5s0,0.3-0.2,0.3c-0.1,0-2.6,0.1-2.8,0.1c-0.1,0-0.2-0.2-0.2-0.4c0-0.2,2.1-0.3,2.1-0.3s-1.6-0.2-2-0.2
	c-0.4,0-0.6-0.1-0.7-0.1c-0.1,0-1.2,0-1.4,0c-0.2,0-0.3-0.1-0.3-0.3s0.1-1,0.1-1.1c0-0.2-0.1-2.2,0-2.4c0-0.2,0-1.9,0-1.9s1.8,0,2,0
	c0.2,0,0.3,0,0.2,0.2c-0.1,0.2-0.2,0.6-0.2,1c0.4-0.5,0.6-1.2,1.7-1.2c1,0,1.5,0.5,1.8,1.2c0-0.2,0.1-0.8-0.4-1.1c1.1,0,1.7,0,2,0
	c0.3,0,0.6,0,0.5,0.3c0,0.3,0,1.3,0,1.7c0,0.4,0,1.7,0,2C54,24.2,53.9,25.4,53.9,25.5 M45.4,16.8c0-0.2,0-0.2,0.2-0.2
	c0.2,0,1.2,0,1.3,0c0.1,0,0.2,0.1,0.2,0.2c0,0.1,0,1.4,0,1.5c0,0.1,0,0.3-0.2,0.3s-1.5,0.1-1.5,0.1s0-0.6,0-0.8
	C45.4,17.6,45.5,17,45.4,16.8 M49.1,16.5c0.2,0,1.7,0,1.9,0c0.2,0,0.5-0.1,0.5,0.3c0,0.4,0.1,1.3,0.1,1.4c0,0.1-0.3,0.3-0.4,0.3
	c-0.2,0-2.3,0-2.3,0s0-1.2,0-1.4C48.8,16.7,48.9,16.5,49.1,16.5 M54.6,18c0,0.2-0.1,0.2-0.3,0.2c-0.1,0-1,0.1-1.1,0
	c-0.2,0-0.2,0-0.2-0.2s0-1.7,0-1.7l1.5-0.1C54.6,16.4,54.7,17.9,54.6,18 M15.7,16.2c0.2-0.2,1-1,1.3-1.2c0.3-0.3,1.5-1.2,1.8-1.5
	c0.3-0.3,1.5-1.1,1.7-1.2s0.3-0.3,0.5-0.3c0.2,0,0.4-0.2,0.5-0.3c0.1-0.1,1-0.6,1.4-0.7c0.4-0.2,0.6-0.3,0.7-0.3
	c0.1,0,0.1-0.2,0.2-0.2s0.4,0,0.4,0s0.7-0.3,1-0.4c0.3-0.1,0.5-0.3,0.9-0.4c0.3-0.1,1-0.3,1.1-0.4c0.2,0,0.5-0.1,0.6-0.1
	c0.1,0,1-0.4,1.2-0.4c0.2,0,0.4,0,0.6,0s2-0.4,2.6-0.4s2-0.1,2.3-0.2c0.3,0,0.6,0,1,0c0.3,0,1.9,0.1,2.3,0.1c0.4,0,1.2,0,1.5,0.1
	c0.3,0.1,0.9,0.1,1.2,0.2c0.3,0.1,2.7,0.7,3.3,0.9c0.7,0.2,2.2,0.6,2.7,0.9c0.4,0.3,1.3,0.7,1.6,0.8c0.3,0.2,0.8,0.6,0.9,0.6
	c0.1,0,0.3,0,0.4,0c0.1,0,0.4,0.4,0.6,0.5c0.2,0.1,0.3,0,0.4,0.1c0.1,0.1,0.2,0.3,0.4,0.4c0.2,0.1,1.2,0.6,1.3,0.8
	c0.2,0.2,0.8,0.6,1,0.8c0.2,0.2,0.3,0.5,0.4,0.6c0.1,0.1,0.5,0.1,0.6,0.3c0.1,0.1,0.3,0.3,0.4,0.5c0.2,0.1,0.3,0.3,0,0.3
	c-0.2,0-1.9,0-2.1,0c-0.2,0-2.1,0-2.3,0c-0.2,0-0.4,0.1-0.5,0c-0.1,0-0.4,0-0.6,0s-0.8,0-1,0c-0.2,0-0.7,0-1,0
	c-0.3,0-1.2,0.1-1.4,0.1c-0.2,0-0.3,0-0.5,0c-0.2,0-0.2,0.2-0.2,0.3c0,0.1,0.1,0.8,0,1c0,0.2,0,0.9,0,1.1c0,0.2-0.1,0.4,0,0.5
	c0.1,0.1,0.7,0.7,0.8,0.8c0.1,0.1,0.1,0.2,0.1,0.3s0,1.7,0,2c0,0.3,0,1.2,0,1.3s0,0.2-0.2,0.2c-0.2,0-2,0.1-2.3,0.1
	c-0.4,0-1.4,0-1.5,0c-0.2,0-0.2,0-0.3-0.2c0-0.2,0-1,0-1.1c0-0.1-0.1-0.4-0.1-0.6c0-0.2,0.1-1.4,0.1-1.6c0-0.2,0-1.8,0-1.9
	c0-0.1,0-0.4,0.2-0.4c0.2-0.1,0.5-0.3,0.6-0.4c0.1-0.1,0.2-0.3,0.1-0.4c0-0.1,0-0.1,0-0.2c0.1-0.1,0.4-0.4,0.6-0.6
	c0.2-0.1,0.4-0.4,0.5-0.5c0.1-0.1,0.4-0.4,0.5-0.5c0.1-0.1,0-0.3,0-0.3c-0.1,0-0.1-0.1-0.1-0.2c0-0.1,0-0.8,0-1s0-0.4,0-0.5
	c0-0.1,0.1-0.2,0.1-0.3c0-0.1,0-1,0-1.1c0-0.1-0.1-0.2-0.3-0.2c-0.2,0-2.2-0.1-2.3-0.1c-0.1,0-0.2,0-0.2-0.1s0.1-1.1,0-1.1
	c-0.1-0.1-1-0.1-1.3-0.1s-1,0-1.1,0s-0.1,0.1-0.1,0.2c0,0.1,0,0.8,0,0.9c0,0.1,0,0.2-0.1,0.2s-0.9,0-1.1,0c-0.3,0-0.8,0-0.9,0
	c-0.1,0-0.1,0-0.1-0.1c0-0.1,0-1.3,0-1.3c0-0.1-0.1-0.1-0.2-0.2c-0.1,0-1,0.1-1.3,0.1c-0.3,0-0.9,0-1,0s-0.3,0.1-0.3,0.2
	c0,0.2,0,0.6,0,0.7c0,0.1,0,0.2,0,0.3c0,0.1,0,0.2,0,0.3c0,0.1,0,0.1-0.1,0.1c-0.1,0-0.7,0-0.8,0c-0.2,0-0.8,0-1,0s-0.2,0-0.2-0.1
	c0-0.1,0-0.9,0-1c0-0.1,0-0.2-0.1-0.2c-0.2,0-1.9,0-2.1,0c-0.2,0-0.4-0.1-0.4,0.1s0,0.9,0,1c0,0.1-0.1,0.2-0.2,0.2
	c-0.1,0-1.6,0-1.8,0.1c-0.2,0-0.4,0-0.4,0.2c0,0.2,0,0.8,0,1.1c0,0.4-0.1,1.5-0.1,1.6c0,0.1-0.2,0.3-0.2,0.4c0,0.2,0,0.3,0.4,0.6
	c0.4,0.3,0.7,0.5,0.9,0.6c0.1,0.1,0.5,0.4,0.5,0.5S28,17,28,17.1c0,0.1,0.1,0.3,0.2,0.4c0.1,0.1,0.2,0.2,0.3,0.3
	c0.1,0.1,0.1,0.2,0.1,0.3c0,0.1,0,0.6,0,0.7c0,0.2,0,2.6,0,2.8c0,0.2-0.1,0.9,0,1c0,0.1,0,0.1,0,0.2c0,0.1,0,0.8,0,0.9
	c0,0.1,0,0.2-0.2,0.2c-0.1,0-1.7,0.1-2.1,0.1s-1.8,0-2,0c-0.1,0-0.1,0-0.2-0.2c0-0.1,0-1.5,0-2c0-0.5,0-1,0-1.1
	c0-0.2,0.1-0.3,0.1-0.4c0.1-0.1,0.4-0.4,0.5-0.5s0.2-0.1,0.1-0.3c0-0.2,0-0.4,0-0.6c0-0.2,0-0.9,0-1.2c0-0.3,0-1.1,0-1.2
	c0-0.1,0-0.2-0.3-0.2c-0.3,0.1-1,0.1-1.4,0c-0.4,0-1,0-1.3,0c-0.3,0-0.6,0-0.7,0s-2.3,0-2.8,0c-0.6,0-2.1,0-2.3,0
	c-0.2,0-0.3,0-0.4,0C15.6,16.4,15.5,16.3,15.7,16.2 M22.5,17.3c0-0.2,0-0.4,0.3-0.5c0.3,0,1.1,0,1.3,0s0.5,0,0.5,0.3
	c0,0.3,0,1.3,0,1.5c0,0.1-0.1,0.4-0.4,0.4c-0.3,0-1.4,0-1.5,0c-0.1,0-0.2-0.1-0.2-0.2C22.4,18.5,22.5,17.4,22.5,17.3 M20.9,18.8
	c-0.2,0-1.6,0-1.9,0c-0.2,0-0.3,0-0.3-0.2c0-0.2,0-1.3,0-1.5c0-0.2,0-0.2,0.3-0.2c0.2,0,1,0,1.3,0h0.6c0.1,0,0.3,0,0.3,0.3
	c0,0.3-0.1,1.2-0.1,1.4C21,18.7,21.1,18.9,20.9,18.8 M15.5,17.1c0-0.2,0.1-0.3,0.2-0.3c0.1,0,0.9,0,1.1,0c0.2,0,0.3,0.1,0.3,0.3
	c0,0.2,0,1.2,0,1.4c0,0.2,0,0.2-0.3,0.2c-0.3,0-0.7,0-0.9,0c-0.2,0-0.3,0-0.3-0.2C15.5,18.3,15.5,17.3,15.5,17.1 M15.5,19.3
	c0.2,0,1.4,0.1,1.8,0.1c0.5,0,1.4-0.1,1.7,0c0.4,0,1.7,0.1,2,0c0.3,0,1.1,0,1.5,0c0.3,0,1.1,0,1.4-0.1c0.3,0,0.8,0.1,0.7,0.2
	c-0.1,0.1-0.3,0.4-0.6,0.4c-0.4,0-2.1,0-2.7,0c-0.6,0-2.9-0.1-3.6-0.1s-1.3,0-1.6,0c-0.3,0-0.6-0.2-0.8-0.3
	C15.2,19.5,15.2,19.2,15.5,19.3"/>
<path class="st0" d="M18.6,25.3c0.7,0.2,2.3,0,2.3,0s0.1-2,0.1-3.1c0-1.2-0.6-1.4-1.1-1.4c-0.5,0-0.6,0.2-0.8,0.3
	c-0.3,0.2-0.3,0.3-0.4,0.8c-0.1,0.5-0.1,1.6-0.1,2S18.5,24.8,18.6,25.3"/>
<path class="st0" d="M35.9,19.2c-0.1-0.6-0.5-0.6-0.8-0.6c-1,0-0.8,1.1-0.8,1.3c0,0.3-0.1,1.4-0.1,2.2s0.1,3.4,0.1,3.4
	c0,0.1,0,0.2,0.1,0.2c0.1,0,1.1,0,1.4,0c0.2,0,0.3-0.1,0.3-0.2c0-0.1,0-0.8,0-1.5c0-0.7,0-3.3,0-3.6C36,20.1,36,19.6,35.9,19.2"/>
<path class="st0" d="M50.2,20.5c-0.9,0-1.2,0.9-1.3,1.4c-0.1,0.6,0,2.3,0,2.6c0,0.3,0,0.9,0,0.9s0.7,0,1,0c0.3,0,1.1-0.1,1.3-0.1
	s0.2,0,0.2-0.2s0-0.5,0-1.1c0-0.6,0-2.1,0-2.6C51.2,20.9,50.8,20.6,50.2,20.5"/>
<path class="st0" d="M21.5,33.4c0.1,0.1,0.2,0.2,0,0.2c-0.1,0.1-0.4,0.5-0.1,0.8c0.2,0.2,0.5,0.4,1-0.1c0.2,0.2,0.5,0.4,0.9,0.1
	c0.4-0.3-0.1-0.8-0.2-0.9c0.2-0.2,0.7-0.6,0.3-1c-0.3-0.3-0.7,0.1-1,0.2c-0.4-0.4-0.7-0.5-1-0.2C21,32.9,21.4,33.3,21.5,33.4"/>
<path class="st0" d="M22.5,35c-0.1-0.1-0.1-0.1-0.3,0c-0.2,0.1-0.6,0.3-1.1,0c0.1,0.2,0.1,0.5,0.5,0.6c0.4,0.1,0.6-0.2,0.7-0.2
	c0.1,0,0.1,0.2,0.6,0.2c0.5,0,0.6-0.3,0.8-0.6C23.2,35.3,22.6,35,22.5,35"/>
<path class="st0" d="M26.7,32.6c-0.4,0-0.8,0.5-0.9,0.8c-0.1,0.3-0.1,1.8-0.1,2c0,0.2-0.1,0.2-0.1,0.5c0,0.2,0,1.9,0,2.1
	c0,0.3,0.1,0.3,0.2,0.4s0.4,0.3,0.6,0.3c0.2,0.1,0.5,0.3,0.7,0.3c0.2,0.1,0.3-0.2,0.3-0.3c0-0.2,0-1,0-1.2c0-0.2,0.1-0.5,0.1-1.5
	c0-1.1,0-1.7,0-2.3C27.6,33,27.1,32.7,26.7,32.6"/>
<path class="st0" d="M34.5,34.7c0.1,0,0.2,0.1,0.2,0.2c0,0.3,0,0.6,0.6,0.6c0.5,0,0.5-0.5,0.5-0.7c0-0.2,0.1-0.1,0.2-0.1
	c0.4,0,0.6-0.2,0.5-0.6c0-0.3-0.4-0.4-0.6-0.4c-0.2,0-0.2,0-0.1-0.2c0-0.1,0-0.3-0.1-0.4c-0.1-0.2-0.3-0.2-0.6-0.1
	c-0.3,0.1-0.3,0.4-0.3,0.5c0,0.1,0,0.2-0.1,0.2c-0.3,0-0.5,0.2-0.6,0.5C34,34.6,34.2,34.8,34.5,34.7"/>
<path class="st0" d="M43.8,32.8c-0.7,0-0.8,0.6-0.9,0.9c0,0.3-0.1,1.6-0.1,2.1c0,0.6,0.1,1.6,0.1,1.9c0,0.3,0,1.1,0,1.3
	c0,0.2,0.2,0.2,0.3,0.1c0.1-0.1,0.7-0.3,0.9-0.4c0.1-0.1,0.1-0.1,0.3-0.2c0.2-0.1,0.2-0.2,0.2-0.3c0-0.2,0-1.4,0-2s0-2,0-2.8
	C44.5,32.7,44.1,32.8,43.8,32.8"/>
<path class="st0" d="M47.6,33.6c0,0-0.6,0.5-0.3,0.9c0.4,0.4,0.8,0,0.9-0.1c0-0.1,0.1-0.1,0.1,0c0.1,0.1,0.5,0.4,0.8,0.2
	c0.5-0.4,0.2-0.8,0.1-0.9c-0.1-0.1-0.1-0.2,0-0.2c0.1-0.1,0.1-0.1,0.3-0.3c0.2-0.2,0-0.6-0.3-0.7c-0.3-0.1-0.6,0.2-0.7,0.3
	c-0.1,0.1-0.2,0-0.3-0.1c-0.1-0.1-0.7-0.2-0.9,0C46.8,33.1,47.6,33.6,47.6,33.6"/>
<path class="st0" d="M49,35.2c-0.3,0-0.6-0.2-0.6-0.2c-0.1,0-0.2,0.2-0.5,0.2c-0.3,0.1-0.6-0.1-0.7-0.1s-0.2,0-0.1,0.1
	c0.1,0.1,0.2,0.3,0.6,0.4c0.6,0.1,0.8-0.2,0.8-0.2s0.4,0.2,0.7,0.2c0.5-0.1,0.6-0.6,0.6-0.6S49.3,35.2,49,35.2"/>
<path class="st0" d="M31.5,39.4c0.1-0.1,0.3-0.2,0.4-0.4c0-0.2,0.6-1.4,1-2c0.4-0.5,0.8-0.7,1.6-1.1c-0.9,0.1-1.7,0.7-2.3,1.4
	c-0.4,0.4-0.7,1.6-0.7,1.8C31.3,39.4,31.4,39.5,31.5,39.4"/>
<path class="st0" d="M37.2,36.3c0.3,0.1,0.7,0.7,1,1.1c0.3,0.3,0.5,1.1,0.6,1.3c0.1,0.3,0.1,0.6,0.1,0.6l0.3,0c0,0-0.1-0.2-0.1-0.4
	c0-0.2-0.1-0.4-0.3-1.1c-0.2-0.7-0.6-1-0.8-1.2c-0.2-0.2-0.3-0.2-0.5-0.3c-0.2,0-0.2-0.1-0.3-0.2c-0.1-0.1-0.2,0-0.6-0.1
	C36.8,36.1,36.9,36.2,37.2,36.3"/>
<path class="st0" d="M30,51.5l0.8-0.2c0,0-0.1-1.6,0-1.8c0-0.2,0-1,0-1s1.2,0,1.4,0c0.2,0,0.4,0,0.5,0.1c0.1,0.1,0,0.4,0,0.5
	c-0.1,0.2-0.3,0.4-0.7,0.3c0.2,0.2,0.3,0.2,0.7,0.2c0.3,0,0.5-0.4,0.6-0.7c0.1-0.3,0-0.5,0-0.5l0.8-0.3l-0.7-0.1c0,0,0-0.3,0-0.6
	c0-0.3-0.4-0.7-0.8-0.7C32.2,46.6,32,47,32,47s0.3-0.1,0.5-0.1c0.2,0,0.4,0.3,0.4,0.5c0,0.2-0.2,0.5-0.5,0.6c-0.3,0.1-1.3,0-1.4,0
	s-0.2,0-0.2-0.1c0-0.1,0-1.3,0.1-1.9c0-0.6,0-2.1,0-2.1c0-0.1,0-0.2,0.2-0.2c0.2,0,1.4,0,1.5,0c0.1,0,0.2,0,0.3,0.1
	c0,0.1,0,0.4,0,0.5c0,0.1-0.1,0.4-0.7,0.4c0.2,0.1,0.4,0.2,0.9,0c0.4-0.2,0.4-0.9,0.4-1.2c0.2-0.1,0.8-0.3,0.8-0.3s-0.5,0-0.7-0.1
	s-0.2-0.1-0.1-0.3c0.1-0.2-0.1-0.6-0.2-0.8c-0.1-0.2-0.8-0.4-1.1,0.2c0.3-0.2,0.7,0,0.8,0.2s-0.1,0.6-0.4,0.6c-0.3,0.1-1.5,0-1.5,0
	s0.1-0.9,0.2-1.1c0-0.2,0.3-0.8,0.5-1c0.3-0.2,0.8-0.3,1-0.4c0.2,0,0.4,0,0.4-0.5c0-0.7,0.3-1.7,0.7-2.1c0.6-0.5,1.3-0.6,1.3-0.6
	s0,1.8,0,2c0,0.2,0,0.5,0,0.8c0,0.3-0.1,1-0.1,1.4c0,0.4,0,1,0,1.5c0,0.5,0,1.5,0,2.3c0,0.8,0,2,0,2.4c0,0.4,0,1.1,0,1.1
	s0,0.5,0,0.7c0,0.2,0,1.9,0,1.9l0.5,0.3c0,0,0-1.4,0-1.7c0-0.3-0.1-1.3,0-2.1c0-0.8,0-2.8,0-3.3c0-0.5-0.1-2.1,0-2.6
	c0-0.4,0-1,0-1.3c0-0.2,0-0.3,0-1c0-0.7,0.1-1.8,0.1-2.4c0.6-0.1,1.1,0.2,1.4,0.5c0.3,0.3,0.6,1.4,0.6,1.6c0.1,0.3,0,0.7,0,0.8
	c0.1,0.1,0.1,0.2,0.2,0.2c0.1,0,0.2,0,0.5,0.1c0.3,0.1,0.6,0.3,0.9,0.7c0.3,0.4,0.3,1.6,0.3,1.6s-1.2,0-1.3,0c-0.1,0-0.4,0-0.6-0.1
	c-0.1-0.1-0.1-0.6,0-0.7c0.1-0.1,0.2-0.3,0.7-0.1c-0.4-0.4-0.8-0.3-1.1-0.1c-0.3,0.3-0.2,0.7-0.2,0.8s0,0.1-0.1,0.2
	c-0.1,0.1-0.7,0.1-0.7,0.1s0.5,0.2,0.6,0.3c0.1,0,0.2,0.1,0.2,0.2c-0.1,0.5,0.1,0.9,0.5,1c0.5,0.2,0.6,0,0.7-0.1
	c-0.3,0.1-0.5-0.1-0.7-0.3c-0.2-0.2-0.1-0.6,0.2-0.7c0.2-0.1,1.7,0,1.7,0v2.2c0,0.7,0,1.7-0.1,2c-0.2,0.1-1.4,0.1-1.7,0
	c-0.3-0.1-0.3-0.6-0.2-0.8s0.3-0.3,0.8-0.2c-0.4-0.4-0.8-0.3-1.1,0c-0.3,0.2-0.2,0.7-0.2,0.8c0,0.1,0,0.3-0.2,0.3
	c-0.2,0-0.3,0-0.6,0c0.2,0.2,0.4,0.3,0.6,0.3s0.2,0.1,0.2,0.2c0,0.1-0.1,0.4,0,0.7c0.4,0.5,0.8,0.5,1.1,0.2
	c-0.5,0.1-0.6-0.2-0.7-0.4c-0.1-0.2,0-0.5,0.2-0.6c0.2-0.1,1.4,0,1.6,0c0.1,0,0.2,0.1,0.2,0.2c0,0.1,0,0.7,0,1.2c0,0.5,0,1.3,0,1.3
	h0.7c0,0,0-2.9,0.1-3.4c0-0.4,0-2.4,0-2.8c0-0.5,0-1.2,0-1.8c0-0.6-0.1-1.3-0.2-1.7c-0.1-0.5-0.7-0.9-1-1.2
	c-0.3-0.3-0.7-0.3-0.7-0.3s-0.1-0.4-0.1-0.7c0-0.4-0.5-1.4-0.9-1.8c-0.4-0.5-1.1-0.6-2-0.6c-0.7,0-1,0.1-1.4,0.3
	c-0.4,0.2-0.9,0.8-1.1,1.2c-0.2,0.4-0.4,1.1-0.4,1.3s0,0.2-0.2,0.3c-0.2,0.1-0.5,0.2-0.9,0.5c-0.4,0.3-0.9,1-1,1.4
	c-0.1,0.4-0.3,1.5-0.2,1.8c0,0.3,0.1,1.9,0.1,2.6c0,0.7,0,1.9,0,2.3c0,0.4,0,1.3,0,1.8C30.1,50.6,30,51.5,30,51.5"/>
<path class="st0" d="M16.7,17.4c0-0.1-0.2-0.1-0.3-0.1c-0.1,0-0.5-0.1-0.5-0.1l0,0.3C15.9,17.5,16.7,17.5,16.7,17.4"/>
<path class="st0" d="M15.9,18.2c0,0,0.4,0,0.5-0.2c-0.2-0.1-0.5-0.1-0.5-0.1L15.9,18.2z"/>
<path class="st0" d="M17.2,21.3c0.1,0,0.5-0.2,0.5-0.2s-0.3-0.1-0.4-0.1c-0.1,0-0.6,0-0.6,0l0,0.3C16.7,21.3,17.1,21.4,17.2,21.3"/>
<path class="st0" d="M17.6,22.3c0.2-0.1,0.1-0.1,0-0.2c-0.1,0-0.8-0.1-0.8-0.1l0,0.3C16.8,22.4,17.4,22.4,17.6,22.3"/>
<path class="st0" d="M16.7,23v0.4c0,0,0.3,0,0.5,0c0.1,0,0.4-0.2,0.4-0.2s-0.2-0.1-0.4-0.1S16.7,23,16.7,23"/>
<path class="st0" d="M16.7,24.4c0,0,0.5,0,0.7-0.2c-0.3-0.1-0.8-0.1-0.8-0.1L16.7,24.4z"/>
<path class="st0" d="M16.7,27.1c0,0-0.4-0.1-0.7-0.1c-0.3,0-0.7-0.2-0.7-0.2v0.4c0,0,0.2,0,0.5,0S16.7,27.1,16.7,27.1"/>
<path class="st0" d="M15.4,28.2c0.1,0,1-0.1,1.1-0.1c0.1,0,0.1-0.1,0-0.1c-0.1,0-0.2-0.1-0.5-0.1c-0.3-0.1-0.7-0.2-0.7-0.2
	S15.3,28,15.4,28.2C15.3,28.1,15.3,28.2,15.4,28.2"/>
<path class="st0" d="M15.8,28.8c-0.3,0-0.6-0.1-0.6-0.1s0,0.3,0,0.4c0.8,0,1.5-0.3,1.5-0.3S16.1,28.9,15.8,28.8"/>
<path class="st0" d="M16.3,32.1c-0.1,0-0.2,0-0.2,0.1c0,0.1,0,0.1,0,0.1c0,0,0,0.1,0.2,0.1c0.2,0,0.3,0,0.8,0c0.5,0,1.4-0.1,1.4-0.1
	s-1.1-0.1-1.4-0.1C16.8,32.1,16.5,32.1,16.3,32.1"/>
<path class="st0" d="M16.7,32.8c-0.2,0-0.1,0.1-0.1,0.2c0,0.1,0.2,0.2,0.3,0.2c0.2,0,1,0,1.7-0.2C18.2,33,16.9,32.8,16.7,32.8"/>
<path class="st0" d="M15.7,37.5c0,0.1,0.1,0.1,0.2,0.1c0.1,0,1.3-0.1,1.3-0.1s-0.2-0.1-0.5-0.2c-0.3-0.1-0.9-0.1-0.9-0.1
	S15.7,37.5,15.7,37.5"/>
<path class="st0" d="M16.2,38c-0.2,0-0.5,0-0.5,0s0,0.2,0,0.3s0,0.1,0.1,0.1c0.1,0,0.5,0,0.9-0.1c0.4-0.1,1.3-0.1,1.3-0.1
	s-0.9-0.1-1.2-0.1C16.6,38.1,16.4,38.1,16.2,38"/>
<path class="st0" d="M15.7,40.3c0.1,0,0.6,0.1,1.6-0.2c-0.5,0-1.6-0.2-1.6-0.2s-0.1,0.2-0.1,0.3C15.6,40.2,15.7,40.3,15.7,40.3"/>
<path class="st0" d="M15.8,41.3c0.2,0,0.8-0.1,1.4-0.2c-0.6-0.1-1.5-0.3-1.5-0.3s-0.1,0.3,0,0.4C15.7,41.3,15.6,41.3,15.8,41.3"/>
<path class="st0" d="M15.8,43.3c0.8,0,2.4-0.3,2-0.3c-0.4,0-2.1-0.2-2.1-0.2S15.6,43.1,15.8,43.3"/>
<path class="st0" d="M15.7,43.8v0.4c0,0,1.8-0.1,2.4-0.3C17.4,43.8,15.7,43.8,15.7,43.8"/>
<path class="st0" d="M17.2,46c-0.4-0.2-1.5-0.2-1.5-0.2l0,0.4C15.7,46.2,16.8,46.2,17.2,46"/>
<path class="st0" d="M15.6,47c0,0,0,0.1,0,0.2c0,0.1,0,0.1,0.2,0.1c0.1,0,1.3-0.2,1.2-0.3c-0.2-0.1-1.4-0.1-1.4-0.1
	C15.6,46.9,15.6,47,15.6,47"/>
<path class="st0" d="M16,49.6c0.5,0,1.2,0,1.7,0s0.8,0,1.1,0.1c0.3,0,2.1,0,2.1,0s-1.3-0.2-1.6-0.2c-0.2,0-0.8-0.1-1.2-0.1
	c-0.4,0-1.1-0.1-1.9-0.1c-0.8-0.1-1.3-0.1-1.3-0.1l-0.3,0.4C14.7,49.5,15.5,49.6,16,49.6"/>
<path class="st0" d="M14.1,50.8c0,0,0.8,0,1.3-0.1c0.5,0,1.1-0.1,1.5-0.2c0.4,0,1.9-0.2,1.9-0.2s-2.1-0.1-2.6-0.1
	c-0.5,0-1-0.1-1.4-0.1c-0.4,0-0.8,0-0.8,0s-0.1,0.1-0.2,0.2c0,0-0.1,0.1,0,0.2C13.8,50.6,14.1,50.8,14.1,50.8"/>
<path class="st0" d="M24.1,17.7v-0.5c0,0-0.6,0.2-0.9,0.4C23.6,17.7,24.1,17.7,24.1,17.7"/>
<polygon class="st0" points="24.1,18.4 24.1,18.1 23.2,18.3 "/>
<path class="st0" d="M23.3,21.4l0-0.4L22,21.1c0,0,0.4,0.2,0.7,0.3C22.9,21.4,23.3,21.4,23.3,21.4"/>
<path class="st0" d="M23.3,22.5V22c0,0-0.6,0.1-1.2,0.3C22.5,22.4,23.3,22.5,23.3,22.5"/>
<polygon class="st0" points="23.3,23 22.2,23.2 23.3,23.4 "/>
<polygon class="st0" points="23.2,24.4 23.2,24 22.1,24.3 "/>
<path class="st0" d="M28.3,13c-0.4-0.1-1.1-0.3-1.1-0.3l0,0.4C27.3,13.1,27.9,13.1,28.3,13"/>
<path class="st0" d="M28.4,13.6c-0.4,0-1.2-0.1-1.2-0.1l0,0.4C27.2,13.8,28.1,13.7,28.4,13.6"/>
<path class="st0" d="M27.8,14.2c-0.3-0.1-0.6,0-0.6,0v0.3l1.2-0.1C28.4,14.4,28.1,14.3,27.8,14.2"/>
<polygon class="st0" points="31.8,12.6 31.8,13 33.1,12.9 "/>
<path class="st0" d="M32.6,13.5c-0.3,0-0.8-0.1-0.8-0.1l0,0.5c0,0,1.1-0.2,1.6-0.3C33,13.6,32.8,13.5,32.6,13.5"/>
<path class="st0" d="M31.8,14.3c-0.1,0.3,0,0.4,0.3,0.4c0.2,0,1.1-0.2,1.1-0.2S32.2,14.2,31.8,14.3"/>
<path class="st0" d="M38.5,13c0.1-0.1,0-0.4,0-0.4l-1.3,0.1C37.2,12.7,38.3,13,38.5,13"/>
<polygon class="st0" points="37.3,13.6 38.6,13.8 38.6,13.3 "/>
<polygon class="st0" points="37.3,14.4 38.6,14.5 38.6,14.1 "/>
<polygon class="st0" points="43.1,12.4 41.8,12.6 43,12.9 "/>
<polygon class="st0" points="43,13.2 41.7,13.4 42.9,13.6 "/>
<polygon class="st0" points="41.7,14.1 43,14.3 43,13.8 "/>
<polygon class="st0" points="31.5,17.1 31.2,16.1 30.5,16.1 31.2,17.2 "/>
<polygon class="st0" points="32.3,17.2 32,16.1 31.4,16.1 31.9,17.2 "/>
<polygon class="st0" points="33,17.1 33,16.2 32.5,16.2 32.7,17.2 "/>
<polygon class="st0" points="33.9,17.2 33.9,16.2 33.3,16.2 33.6,17.2 "/>
<polygon class="st0" points="34.8,16.2 34.5,16.2 34.6,17.3 "/>
<polygon class="st0" points="35.8,16.1 35.5,16.1 35.6,17.2 "/>
<polygon class="st0" points="36.8,16.1 36.2,16.1 36.2,17.2 36.4,17.2 "/>
<path class="st0" d="M37.8,16.1l-0.4,0c0,0-0.1,0-0.1,0.1c0,0.1-0.2,0.9-0.2,0.9h0.2L37.8,16.1z"/>
<path class="st0" d="M38,17.1c0.1-0.1,0.6-1.1,0.6-1.1l-0.5,0l-0.4,1C37.6,17.1,37.8,17.1,38,17.1"/>
<polygon class="st0" points="38.8,17.1 39.4,16 38.9,16 38.4,17.1 "/>
<path class="st0" d="M31.4,18.7c-0.6-0.1-1.8-0.3-1.8-0.3v0.3C29.6,18.8,30.8,18.8,31.4,18.7"/>
<path class="st0" d="M31.3,19.2c-0.4-0.1-1.8-0.1-1.8-0.1l0,0.3C29.6,19.4,30.9,19.3,31.3,19.2"/>
<polygon class="st0" points="29.5,20.5 29.5,20.9 30.3,20.7 "/>
<polygon class="st0" points="29.5,21.2 29.5,21.5 30.3,21.3 "/>
<path class="st0" d="M31,22.8l-1.5-0.1v0.3c0,0,0.2,0,0.3-0.1C30,23,31,22.8,31,22.8"/>
<path class="st0" d="M31,23.5c0,0-0.6-0.1-0.8-0.1c-0.2,0-0.8,0-0.8,0v0.3c0,0,0.6,0,0.7-0.1S31,23.5,31,23.5"/>
<path class="st0" d="M29.8,25.2c0.2,0,0.7-0.2,0.7-0.2l-1-0.1v0.3C29.4,25.2,29.6,25.2,29.8,25.2"/>
<path class="st0" d="M29.4,25.8c0,0,0.3,0,0.4,0c0.2,0,0.5-0.1,0.5-0.1l-1-0.1L29.4,25.8z"/>
<path class="st0" d="M39.1,18.6c0,0,0.3,0,0.4,0c0.1,0,0.4,0,0.5,0s0.6,0,0.6,0l0-0.4L39.1,18.6z"/>
<polygon class="st0" points="40.7,19.4 40.7,19.1 39,19.1 "/>
<path class="st0" d="M40.6,20.8l0-0.4c0,0-0.5,0-1,0.2C40.2,20.7,40.6,20.8,40.6,20.8"/>
<polygon class="st0" points="40.6,21.5 40.6,21.1 39.7,21.3 "/>
<polygon class="st0" points="40.6,22.9 40.6,22.6 39.3,22.8 "/>
<polygon class="st0" points="39.3,23.5 40.6,23.7 40.6,23.3 "/>
<polygon class="st0" points="39.8,25 40.6,25.1 40.5,24.8 "/>
<polygon class="st0" points="40.6,25.7 40.6,25.4 39.8,25.6 "/>
<polygon class="st0" points="45.8,17 45.8,17.4 46.6,17.2 "/>
<polygon class="st0" points="46.6,17.9 45.8,17.7 45.8,18.1 "/>
<path class="st0" d="M46.9,20.9c0,0,0.4,0,0.6-0.1s0.6-0.2,0.6-0.2l-1.2-0.1L46.9,20.9z"/>
<path class="st0" d="M46.9,21.8c0,0,0.6-0.1,1.1-0.2c-0.2-0.2-1.1-0.3-1.1-0.3L46.9,21.8z"/>
<path class="st0" d="M46.9,22.3v0.3c0,0,0.5-0.1,1-0.2C47.5,22.2,46.9,22.3,46.9,22.3"/>
<polygon class="st0" points="47.8,23.4 46.9,23.2 46.9,23.6 "/>
<polygon class="st0" points="46.9,24.5 48,24.2 46.9,24 "/>
<path class="st0" d="M53.5,20.8c0,0,0-0.3-0.1-0.3c-0.1,0-0.6-0.1-1,0.1c0.2,0,0.3,0.1,0.4,0.2C53,20.9,53.5,20.8,53.5,20.8"/>
<path class="st0" d="M52.4,21.5c0.2,0.1,1.1,0.2,1.1,0.2l0-0.4C53.4,21.3,52.7,21.3,52.4,21.5"/>
<path class="st0" d="M53.4,22.6v-0.4c0,0-0.6,0-0.9,0.2C52.8,22.6,53.4,22.6,53.4,22.6"/>
<polygon class="st0" points="53.4,23.6 53.4,23.2 52.5,23.4 "/>
<polygon class="st0" points="53.4,24.5 53.4,24.1 52.7,24.3 "/>
<path class="st0" d="M54.5,27v-0.4c0,0-0.5,0.2-1.4,0.4C53.5,27.1,54.5,27,54.5,27"/>
<polygon class="st0" points="54.5,27.9 54.5,27.4 53.2,27.8 "/>
<path class="st0" d="M53.2,28.6c0.4,0.2,1.3,0.2,1.3,0.2l0-0.4C54.5,28.5,54,28.6,53.2,28.6"/>
<path class="st0" d="M54.5,32c-0.1,0-0.9,0.2-2.7,0.4c0.8,0.1,2.9,0,2.9,0v-0.3C54.7,32,54.6,32,54.5,32"/>
<path class="st0" d="M53.6,33.3l0.7-0.4c0,0-1.7,0.2-2.8,0.2C52.4,33.3,53.6,33.3,53.6,33.3"/>
<polygon class="st0" points="54.9,37.6 54.9,37.2 53.7,37.4 "/>
<polygon class="st0" points="54.9,38.4 54.9,38 52.7,38.2 "/>
<path class="st0" d="M53.6,40.3c0.2,0,1.3,0.1,1.3,0.1l0-0.5c0,0-1.1,0.3-1.2,0.3C53.5,40.2,53.4,40.3,53.6,40.3"/>
<path class="st0" d="M54.9,41.3l0-0.4c0,0-0.6,0.2-1.5,0.2C54,41.3,54.9,41.3,54.9,41.3"/>
<path class="st0" d="M52.6,43.1c0.6,0.1,2.4,0.3,2.4,0.3l0-0.4C55,43,53.7,43,52.6,43.1"/>
<path class="st0" d="M55,44.1v-0.3c0,0-0.9,0-2.2,0.1C53.3,44,55,44.1,55,44.1"/>
<polygon class="st0" points="54.9,46.3 55,45.8 53.5,46 "/>
<polygon class="st0" points="53.4,47 55,47.2 54.9,46.8 "/>
<path class="st0" d="M55.7,49c0,0-2.3,0.1-4,0.3c0.9,0.1,4.4,0.1,4.4,0.1L55.7,49z"/>
<path class="st0" d="M56.6,50.4c0.3,0,0.3-0.2,0.3-0.2l-0.4-0.4c0,0-1,0.1-3.5,0.2C53.8,50.2,56.3,50.4,56.6,50.4"/>
<path class="st0" d="M54.1,17.9v-0.5c0,0-0.3,0-0.6,0.2C53.8,17.8,54.1,17.9,54.1,17.9"/>
<polygon class="st0" points="54.1,16.7 53.6,17 54.2,17.1 "/>
<path class="st0" d="M88.7,21c0-0.8-0.1-1.5-0.1-2.3c0.3,0,0.6,0,0.9,0.1c0.3,0,0.6,0,0.9,0s0.6,0,0.9,0c0.3,0,0.6,0,0.9,0
	c0.5,0,1,0,1.4,0.1c0.4,0.1,0.8,0.2,1.2,0.4c0.3,0.2,0.6,0.5,0.8,0.8c0.2,0.3,0.3,0.7,0.3,1.2c0,0.9-0.3,1.6-0.8,2
	c-0.5,0.5-1.3,0.8-2.1,1v0c1,0,1.9,0.3,2.5,0.8c0.6,0.5,0.9,1.2,0.9,2.2c0,0.7-0.1,1.2-0.4,1.7c-0.3,0.4-0.6,0.8-1.1,1.1
	c-0.4,0.3-0.9,0.5-1.4,0.6c-0.5,0.1-1,0.2-1.6,0.2c-0.3,0-0.6,0-0.9,0c-0.3,0-0.6,0-0.9,0h-0.9c-0.3,0-0.6,0-0.9,0
	c0-0.8,0.1-1.5,0.1-2.3c0-0.7,0-1.5,0-2.3v-3C88.8,22.5,88.8,21.7,88.7,21 M92.4,24c0.4-0.1,0.8-0.2,1.1-0.4
	c0.3-0.2,0.6-0.5,0.8-0.8c0.2-0.3,0.3-0.7,0.3-1.2c0-0.5-0.1-0.9-0.3-1.2c-0.2-0.3-0.4-0.5-0.7-0.7c-0.3-0.2-0.6-0.3-0.9-0.3
	c-0.3-0.1-0.7-0.1-1-0.1c-0.3,0-0.6,0-0.8,0c-0.2,0-0.4,0-0.6,0.1c0,0.6,0,1.1-0.1,1.7c0,0.6,0,1.1,0,1.7v1.3h1
	C91.6,24.1,92,24.1,92.4,24 M90.2,28.4c0,0.6,0,1.2,0.1,1.8c0.2,0,0.5,0,0.8,0.1c0.3,0,0.6,0,0.9,0c0.4,0,0.7-0.1,1.1-0.2
	c0.3-0.1,0.6-0.3,0.9-0.6c0.3-0.3,0.5-0.6,0.6-0.9c0.2-0.4,0.2-0.8,0.2-1.3c0-0.5-0.1-0.9-0.3-1.2c-0.2-0.3-0.4-0.6-0.8-0.8
	c-0.3-0.2-0.8-0.3-1.2-0.4c-0.5-0.1-1-0.1-1.6-0.1h-0.8v1.8C90.2,27.2,90.2,27.8,90.2,28.4"/>
<path class="st0" d="M100.9,21c0-0.8-0.1-1.5-0.1-2.3c0.5,0,1.1,0,1.6,0.1c0.5,0,1.1,0,1.6,0c0.5,0,1.1,0,1.6,0c0.5,0,1,0,1.6-0.1
	v1.1c-0.4,0-0.7,0-1-0.1c-0.3,0-0.6,0-1-0.1c-0.3,0-0.7,0-1.1-0.1c-0.4,0-0.9,0-1.5,0c0,0.4,0,0.7,0,1.1c0,0.3,0,0.7,0,1.2
	c0,0.5,0,0.9,0,1.3c0,0.4,0,0.8,0,1c0.5,0,1,0,1.4,0c0.4,0,0.8,0,1.1,0c0.3,0,0.7,0,0.9-0.1c0.3,0,0.6,0,0.8-0.1V25
	c-0.3,0-0.7-0.1-1.1-0.1c-0.4,0-0.8,0-1.2,0c-0.4,0-0.8,0-1.1,0s-0.6,0-0.9,0c0,0.1,0,0.2,0,0.3c0,0.1,0,0.3,0,0.5v0.7v1.1
	c0,0.7,0,1.2,0,1.7c0,0.4,0,0.8,0,1h1.2c0.4,0,0.9,0,1.3,0c0.4,0,0.8,0,1.2-0.1c0.4,0,0.7-0.1,1-0.1v1c-0.5,0-1.1,0-1.6,0H104h-1.6
	c-0.5,0-1.1,0-1.6,0c0-0.8,0.1-1.5,0.1-2.3c0-0.7,0-1.5,0-2.3v-3C100.9,22.5,100.9,21.7,100.9,21"/>
<path class="st0" d="M111.7,21c0-0.7-0.1-1.5-0.1-2.3c0.3,0,0.7,0,1,0.1c0.3,0,0.7,0,1,0s0.7,0,1,0c0.3,0,0.7,0,1,0
	c0.5,0,1,0,1.4,0.1c0.4,0.1,0.8,0.3,1.2,0.5c0.3,0.2,0.6,0.5,0.8,0.9c0.2,0.4,0.3,0.8,0.3,1.3c0,0.6-0.1,1.1-0.4,1.5
	c-0.3,0.4-0.6,0.7-0.9,1c-0.4,0.3-0.8,0.5-1.2,0.6c-0.4,0.1-0.8,0.2-1.1,0.3c0.1,0.2,0.3,0.4,0.6,0.7c0.2,0.3,0.5,0.7,0.8,1.1
	c0.3,0.4,0.6,0.8,1,1.2c0.3,0.4,0.6,0.8,1,1.2c0.3,0.4,0.6,0.7,0.9,1.1c0.3,0.3,0.5,0.6,0.7,0.7h-2.1c-0.2-0.2-0.4-0.6-0.8-1.1
	c-0.4-0.5-0.8-1-1.2-1.6c-0.4-0.6-0.9-1.1-1.3-1.7c-0.5-0.6-0.9-1-1.2-1.4h-0.7v1.3c0,0.8,0,1.5,0,2.3c0,0.8,0.1,1.5,0.1,2.2h-1.7
	c0-0.7,0.1-1.5,0.1-2.2c0-0.8,0-1.5,0-2.3v-3C111.8,22.5,111.8,21.7,111.7,21 M113.8,24.4c0.2,0,0.4,0,0.6,0c0.4,0,0.7,0,1.1-0.1
	c0.4-0.1,0.8-0.2,1.1-0.4c0.3-0.2,0.6-0.5,0.8-0.8c0.2-0.3,0.3-0.8,0.3-1.3c0-0.5-0.1-0.8-0.3-1.1c-0.2-0.3-0.4-0.5-0.7-0.7
	c-0.3-0.2-0.6-0.3-0.9-0.4c-0.3-0.1-0.6-0.1-0.9-0.1c-0.4,0-0.8,0-1,0c-0.3,0-0.5,0-0.7,0.1c0,0.6,0,1.3-0.1,1.9c0,0.6,0,1.3,0,1.9
	v1C113.4,24.3,113.6,24.3,113.8,24.4"/>
<path class="st0" d="M132.6,20.2c-0.3-0.2-0.6-0.4-0.9-0.6c-0.3-0.2-0.7-0.3-1.1-0.4c-0.4-0.1-0.8-0.1-1.3-0.1c-0.7,0-1.4,0.1-2,0.3
	c-0.6,0.2-1.2,0.6-1.6,1c-0.5,0.5-0.8,1.1-1.1,1.8c-0.3,0.7-0.4,1.6-0.4,2.5c0,0.9,0.1,1.6,0.4,2.3c0.2,0.7,0.6,1.3,1,1.8
	c0.5,0.5,1,0.8,1.7,1.1c0.7,0.3,1.4,0.4,2.2,0.4c0.2,0,0.5,0,0.8,0c0.3,0,0.5-0.1,0.8-0.1s0.5-0.1,0.7-0.2c0.2-0.1,0.4-0.2,0.6-0.2
	c0-0.4,0-0.7,0-1.1c0-0.4,0-0.7,0-1.1c0-0.4,0-0.8,0-1.2s0-0.8-0.1-1.2h1.6c0,0.3,0,0.7-0.1,1.3c0,0.6,0,1.4,0,2.3
	c0,0.2,0,0.5,0,0.7c0,0.2,0,0.5,0,0.7c-0.2,0.1-0.6,0.2-0.9,0.3c-0.4,0.1-0.8,0.2-1.2,0.2c-0.4,0.1-0.8,0.1-1.3,0.2
	c-0.4,0.1-0.8,0.1-1.1,0.1c-1,0-2-0.1-2.8-0.4c-0.8-0.3-1.6-0.6-2.1-1.2c-0.6-0.5-1-1.2-1.4-2c-0.3-0.8-0.5-1.7-0.5-2.7
	c0-1,0.2-1.9,0.5-2.7c0.3-0.8,0.8-1.4,1.4-2c0.6-0.5,1.3-1,2.2-1.2s1.8-0.4,2.8-0.4c0.6,0,1.1,0,1.6,0.1c0.5,0.1,0.9,0.2,1.2,0.3
	c0.4,0.1,0.7,0.2,0.9,0.3c0.3,0.1,0.5,0.2,0.7,0.3l-0.4,1.4h-0.2C133.1,20.6,132.8,20.4,132.6,20.2"/>
<path class="st0" d="M138.7,21c0-0.8-0.1-1.5-0.1-2.3c0.5,0,1.1,0,1.6,0.1c0.5,0,1.1,0,1.6,0c0.5,0,1.1,0,1.6,0c0.5,0,1,0,1.6-0.1
	v1.1c-0.4,0-0.7,0-1-0.1c-0.3,0-0.6,0-1-0.1c-0.3,0-0.7,0-1.1-0.1c-0.4,0-0.9,0-1.5,0c0,0.4,0,0.7,0,1.1c0,0.3,0,0.7,0,1.2
	c0,0.5,0,0.9,0,1.3c0,0.4,0,0.8,0,1c0.5,0,1,0,1.4,0c0.4,0,0.8,0,1.1,0c0.3,0,0.7,0,0.9-0.1c0.3,0,0.6,0,0.8-0.1V25
	c-0.3,0-0.7-0.1-1.1-0.1c-0.4,0-0.8,0-1.2,0c-0.4,0-0.8,0-1.1,0s-0.6,0-0.9,0c0,0.1,0,0.2,0,0.3c0,0.1,0,0.3,0,0.5v0.7v1.1
	c0,0.7,0,1.2,0,1.7c0,0.4,0,0.8,0,1h1.2c0.4,0,0.9,0,1.3,0c0.4,0,0.8,0,1.2-0.1c0.4,0,0.7-0.1,1-0.1v1c-0.5,0-1.1,0-1.6,0h-1.6h-1.6
	c-0.5,0-1.1,0-1.6,0c0-0.8,0.1-1.5,0.1-2.3c0-0.7,0-1.5,0-2.3v-3C138.7,22.5,138.7,21.7,138.7,21"/>
<path class="st0" d="M155.1,26.3c-1.5-1.6-3.1-3.3-4.6-4.9c0,0.3,0,0.8,0,1.3c0,0.6,0,1.3,0,2.3c0,0.2,0,0.6,0,0.9
	c0,0.4,0,0.7,0,1.1c0,0.4,0,0.8,0,1.2c0,0.4,0,0.8,0,1.1c0,0.4,0,0.7,0,0.9c0,0.3,0,0.4,0,0.5h-1.3c0-0.1,0-0.3,0.1-0.7
	c0-0.3,0.1-0.7,0.1-1.1c0-0.4,0-0.9,0.1-1.4c0-0.5,0.1-1,0.1-1.6c0-0.5,0-1,0-1.5s0-0.9,0-1.3c0-1.1,0-2.1,0-2.9c0-0.8,0-1.4,0-1.8
	h0.3c0.7,0.8,1.5,1.6,2.3,2.5c0.8,0.9,1.6,1.8,2.4,2.6c0.8,0.9,1.6,1.7,2.3,2.5c0.7,0.8,1.4,1.4,1.9,2v-2.4c0-1.2,0-2.4,0-3.6
	c0-1.2-0.1-2.3-0.1-3.3h1.2c0,0.3-0.1,0.6-0.1,1.2c0,0.5-0.1,1.1-0.1,1.7c0,0.6-0.1,1.2-0.1,1.7c0,0.6,0,1,0,1.4v1.1
	c0,0.4,0,0.8,0,1.3c0,0.4,0,0.9,0,1.3c0,0.4,0,0.9,0,1.2c0,0.4,0,0.7,0,1v0.6h-0.2C158.1,29.5,156.6,27.9,155.1,26.3"/>
<path class="st0" d="M88.7,49.7c0-0.8,0-1.5,0-2.3v-3c0-0.8,0-1.5,0-2.3c0-0.7-0.1-1.5-0.1-2.3h1.7c0,0.8-0.1,1.5-0.1,2.3
	c0,0.7,0,1.5,0,2.3v1c0,0.1,0,0.1,0.1,0.1c0,0,0.1-0.1,0.2-0.2c0.4-0.4,0.8-0.8,1.3-1.2c0.5-0.4,0.9-0.9,1.4-1.4
	c0.5-0.5,0.9-1,1.4-1.5c0.4-0.5,0.9-1,1.3-1.5h1.6c-0.4,0.4-0.9,0.8-1.4,1.3c-0.5,0.5-1,1-1.6,1.5c-0.5,0.5-1,1-1.5,1.5
	c-0.5,0.5-0.9,0.9-1.2,1.3c1,1.1,1.9,2.2,2.9,3.3c1,1.1,2,2.2,3,3.3h-2c-0.4-0.5-0.9-1-1.4-1.7c-0.5-0.6-1-1.2-1.5-1.8
	c-0.5-0.6-0.9-1.1-1.3-1.6c-0.4-0.5-0.7-0.8-0.9-1c-0.1-0.1-0.2-0.1-0.2-0.1c-0.1,0-0.1,0-0.1,0.1v1.5c0,0.8,0,1.5,0,2.3
	c0,0.8,0.1,1.5,0.1,2.2h-1.7C88.7,51.1,88.7,50.4,88.7,49.7"/>
<path class="st0" d="M99.5,43.2c0.3-0.8,0.8-1.4,1.4-2c0.6-0.5,1.3-1,2.1-1.2c0.8-0.3,1.7-0.4,2.7-0.4c1,0,1.9,0.1,2.7,0.4
	c0.8,0.3,1.5,0.7,2.1,1.2c0.6,0.5,1,1.2,1.4,2c0.3,0.8,0.5,1.7,0.5,2.7c0,1-0.2,1.9-0.5,2.7c-0.3,0.8-0.8,1.4-1.4,2
	c-0.6,0.5-1.3,0.9-2.1,1.2c-0.8,0.3-1.7,0.4-2.7,0.4c-1,0-1.9-0.1-2.7-0.4c-0.8-0.3-1.5-0.7-2.1-1.2c-0.6-0.5-1-1.2-1.4-2
	c-0.3-0.8-0.5-1.7-0.5-2.7C99,44.8,99.2,43.9,99.5,43.2 M110.1,43.3c-0.2-0.7-0.6-1.3-1-1.8c-0.4-0.5-1-0.8-1.6-1
	c-0.6-0.2-1.2-0.3-1.9-0.3c-0.7,0-1.3,0.1-1.9,0.3c-0.6,0.2-1.1,0.6-1.6,1c-0.4,0.5-0.8,1.1-1,1.8c-0.2,0.7-0.4,1.6-0.4,2.5
	c0,1,0.1,1.8,0.4,2.5c0.2,0.7,0.6,1.3,1,1.8c0.4,0.5,1,0.8,1.6,1c0.6,0.2,1.2,0.3,1.9,0.3c0.7,0,1.3-0.1,1.9-0.3
	c0.6-0.2,1.1-0.6,1.6-1c0.4-0.5,0.8-1.1,1-1.8c0.2-0.7,0.4-1.6,0.4-2.5C110.5,44.9,110.4,44,110.1,43.3"/>
<path class="st0" d="M119.4,44.4c0.8,1.6,1.7,3.2,2.6,4.9c0.1-0.2,0.3-0.5,0.5-1c0.2-0.4,0.5-0.9,0.8-1.4c0.3-0.5,0.6-1.1,0.9-1.8
	c0.3-0.6,0.7-1.3,1-1.9c0.3-0.6,0.7-1.3,1-1.9s0.7-1.2,1-1.7h0.2c0.1,1.1,0.2,2.2,0.4,3.3c0.1,1.1,0.2,2.1,0.3,3.1
	c0.1,1,0.2,2,0.4,3c0.1,1,0.2,2,0.4,3h-1.7c-0.1-1.6-0.3-3.1-0.4-4.6c-0.1-1.5-0.3-3-0.5-4.5h0c-0.8,1.5-1.6,3-2.4,4.4
	c-0.8,1.5-1.5,3-2.2,4.6h-0.2c-0.7-1.5-1.4-3-2.2-4.5c-0.8-1.5-1.5-3-2.3-4.6h0c-0.1,0.7-0.2,1.5-0.3,2.4c-0.1,0.9-0.2,1.7-0.3,2.5
	c-0.1,0.8-0.2,1.6-0.2,2.3c-0.1,0.7-0.1,1.3-0.1,1.8h-1.2c0.2-1,0.3-2,0.5-3c0.2-1.1,0.3-2.1,0.5-3.2c0.2-1.1,0.3-2.1,0.4-3.2
	c0.1-1,0.2-2,0.3-3h0.3C117.8,41.2,118.6,42.8,119.4,44.4"/>
<path class="st0" d="M136.8,44.4c0.8,1.6,1.7,3.2,2.6,4.9c0.1-0.2,0.3-0.5,0.5-1c0.2-0.4,0.5-0.9,0.8-1.4c0.3-0.5,0.6-1.1,0.9-1.8
	c0.3-0.6,0.7-1.3,1-1.9c0.3-0.6,0.7-1.3,1-1.9s0.7-1.2,1-1.7h0.2c0.1,1.1,0.2,2.2,0.4,3.3c0.1,1.1,0.2,2.1,0.3,3.1
	c0.1,1,0.2,2,0.4,3c0.1,1,0.2,2,0.4,3h-1.7c-0.1-1.6-0.3-3.1-0.4-4.6c-0.1-1.5-0.3-3-0.5-4.5h0c-0.8,1.5-1.6,3-2.4,4.4
	c-0.8,1.5-1.5,3-2.2,4.6H139c-0.7-1.5-1.4-3-2.2-4.5c-0.8-1.5-1.5-3-2.3-4.6h0c-0.1,0.7-0.2,1.5-0.3,2.4c-0.1,0.9-0.2,1.7-0.3,2.5
	c-0.1,0.8-0.2,1.6-0.2,2.3c-0.1,0.7-0.1,1.3-0.1,1.8h-1.2c0.2-1,0.3-2,0.5-3c0.2-1.1,0.3-2.1,0.5-3.2c0.2-1.1,0.3-2.1,0.4-3.2
	c0.1-1,0.2-2,0.3-3h0.3C135.2,41.2,136,42.8,136.8,44.4"/>
<path class="st0" d="M159.3,41.6c0-0.9,0-1.5-0.1-1.9h1.3c0,0.4-0.1,0.9-0.1,1.5c0,0.6-0.1,1.2-0.1,1.8c0,0.7,0,1.3-0.1,2
	c0,0.7,0,1.4-0.1,2c0,0.8-0.1,1.5-0.4,2.1c-0.2,0.6-0.6,1.2-1,1.6s-0.9,0.8-1.6,1c-0.6,0.2-1.3,0.3-2.1,0.3c-1.8,0-3-0.4-3.8-1.2
	c-0.8-0.8-1.2-2.1-1.2-3.8c0-0.6,0-1,0-1.5c0-0.4,0-0.9,0-1.3c0-1,0-1.9,0-2.6c0-0.8,0-1.4-0.1-1.9h1.7c0,0.3,0,0.6-0.1,1
	c0,0.4,0,0.9-0.1,1.4c0,0.5,0,1.1-0.1,1.7c0,0.6,0,1.2,0,1.9c0,0.4,0,0.8,0,1.2c0,0.4,0.1,0.8,0.1,1.3c0.1,0.4,0.2,0.8,0.3,1.2
	c0.2,0.4,0.4,0.7,0.7,1c0.3,0.3,0.7,0.5,1.1,0.7c0.4,0.2,1,0.2,1.7,0.2c0.6,0,1.2-0.1,1.6-0.3c0.4-0.2,0.8-0.4,1.1-0.7
	c0.3-0.3,0.5-0.7,0.7-1.1s0.3-0.8,0.3-1.3c0.1-0.4,0.1-0.9,0.1-1.3c0-0.4,0-0.8,0-1.2C159.3,43.8,159.3,42.5,159.3,41.6"/>
<path class="st0" d="M170.6,47.3c-1.5-1.6-3.1-3.3-4.6-4.9c0,0.3,0,0.8,0,1.3c0,0.6,0,1.3,0,2.3c0,0.2,0,0.6,0,0.9
	c0,0.4,0,0.7,0,1.1c0,0.4,0,0.8,0,1.2c0,0.4,0,0.8,0,1.1c0,0.4,0,0.7,0,0.9c0,0.3,0,0.4,0,0.5h-1.3c0-0.1,0-0.3,0.1-0.7
	c0-0.3,0.1-0.7,0.1-1.1c0-0.4,0-0.9,0.1-1.4c0-0.5,0.1-1,0.1-1.6c0-0.5,0-1,0-1.5c0-0.5,0-0.9,0-1.3c0-1.1,0-2.1,0-2.9
	c0-0.8,0-1.4,0-1.8h0.3c0.7,0.8,1.5,1.6,2.3,2.5c0.8,0.9,1.6,1.8,2.4,2.6c0.8,0.9,1.6,1.7,2.3,2.5c0.7,0.8,1.4,1.4,1.9,2v-2.4
	c0-1.2,0-2.4,0-3.6c0-1.2-0.1-2.3-0.1-3.3h1.2c0,0.3,0,0.6-0.1,1.2c0,0.5-0.1,1.1-0.1,1.7c0,0.6-0.1,1.2-0.1,1.7c0,0.6,0,1,0,1.4
	v1.1c0,0.4,0,0.8,0,1.3c0,0.4,0,0.9,0,1.3c0,0.4,0,0.9,0,1.2c0,0.4,0,0.7,0,1v0.6h-0.2C173.6,50.5,172.1,48.9,170.6,47.3"/>
<path class="st0" d="M180.1,42c0-0.8-0.1-1.5-0.1-2.3c0.5,0,1.1,0,1.6,0.1c0.5,0,1,0,1.6,0c0.5,0,1.1,0,1.6,0c0.5,0,1,0,1.6-0.1v1.1
	c-0.4,0-0.7,0-1-0.1c-0.3,0-0.6,0-1-0.1c-0.3,0-0.7,0-1.1-0.1c-0.4,0-0.9,0-1.5,0c0,0.4,0,0.7,0,1.1c0,0.3,0,0.7,0,1.2
	c0,0.5,0,0.9,0,1.3c0,0.4,0,0.8,0,1c0.5,0,1,0,1.4,0c0.4,0,0.8,0,1.1,0c0.3,0,0.7,0,0.9-0.1c0.3,0,0.6,0,0.8-0.1v1.1
	c-0.3,0-0.7-0.1-1.1-0.1c-0.4,0-0.8,0-1.2,0c-0.4,0-0.8,0-1.1,0c-0.4,0-0.6,0-0.9,0c0,0.1,0,0.2,0,0.3c0,0.1,0,0.3,0,0.5v0.7v1.1
	c0,0.7,0,1.2,0,1.7c0,0.4,0,0.8,0,1h1.2c0.4,0,0.9,0,1.3,0c0.4,0,0.8,0,1.2-0.1c0.4,0,0.7-0.1,1-0.1v1c-0.5,0-1.1,0-1.6,0h-1.6h-1.6
	c-0.5,0-1.1,0-1.6,0c0-0.8,0.1-1.5,0.1-2.3c0-0.7,0-1.5,0-2.3v-3C180.2,43.5,180.2,42.8,180.1,42"/>
</svg>
