<?xml version="1.0" encoding="utf-8"?>
<!-- Generator: Adobe Illustrator 19.1.0, SVG Export Plug-In . SVG Version: 6.00 Build 0)  -->
<svg version="1.1" id="Layer_1" xmlns="http://www.w3.org/2000/svg" xmlns:xlink="http://www.w3.org/1999/xlink" x="0px" y="0px"
	 width="655.7px" height="36.8px" viewBox="-151 262.2 655.7 36.8" style="enable-background:new -151 262.2 655.7 36.8;"
	 xml:space="preserve">
<style type="text/css">
	.st0{fill:#0000FF;}
</style>
<g>
	<g>
		<path class="st0" d="M-77.6,295.5v-14.8h-17v14.8h-1.3v-29.6h1.3v13.8h17v-13.8h1.3v29.6H-77.6z"/>
		<path class="st0" d="M-56.9,295.7c-9.5,0-10.8-6-10.8-15c0-9,1.4-15,10.8-15s10.8,6,10.8,15C-46.1,289.7-47.5,295.7-56.9,295.7z
			 M-56.9,266.8c-8.2,0-9.6,4.7-9.6,13.9c0,9,1.4,13.9,9.6,13.9s9.6-4.7,9.6-13.9C-47.4,271.7-48.7,266.8-56.9,266.8z"/>
		<path class="st0" d="M-36.4,295.5h-1.3v-29.6h9.3c7.4,0,9,2.9,9,8c0,4.3-1.3,7-6.3,7.8l7.4,13.8h-1.6l-7.1-13.8
			c-0.5,0-0.9,0-1.5,0h-8.1L-36.4,295.5L-36.4,295.5z M-27.7,280.7c6.2,0,7.1-3,7.1-6.8c0-3.8-0.9-6.8-7.1-6.8h-8.6v13.6H-27.7z"/>
		<path class="st0" d="M-11,295.5v-29.6h8.6c9.3,0,11.4,5.5,11.4,14.8s-2.1,14.8-11.4,14.8H-11z M-9.8,294.4h7
			c8.2,0,10.3-4.5,10.3-13.6s-2.1-13.6-10.3-13.6h-7C-9.8,267.1-9.8,294.4-9.8,294.4z"/>
		<path class="st0" d="M34.7,295.5l-3-8.6H18.8l-2.9,8.6h-1.5l10.5-29.8h0.8l10.5,29.8H34.7z M19.2,285.9h12.3l-6.2-18L19.2,285.9z"
			/>
		<path class="st0" d="M44.8,294.4h14.3v1.2H43.6v-29.6h1.3C44.8,265.9,44.8,294.4,44.8,294.4z"/>
		<path class="st0" d="M84.9,295.5l-3-8.6H69l-2.9,8.6h-1.5l10.5-29.8h0.8l10.5,29.8H84.9z M69.4,285.9h12.3l-6.2-18L69.4,285.9z"/>
		<path class="st0" d="M112.9,295.5L95,268.6l0.1,26.9h-1.4v-29.6h0.7l17.8,26.9l-0.1-26.9h1.4v29.6H112.9z"/>
		<path class="st0" d="M122.7,295.5v-29.6h8.6c9.3,0,11.4,5.5,11.4,14.8s-2,14.8-11.4,14.8C131.2,295.5,122.7,295.5,122.7,295.5z
			 M124,294.4h7c8.2,0,10.3-4.5,10.3-13.6s-2.1-13.6-10.3-13.6h-7V294.4z"/>
	</g>
	<g>
		<path class="st0" d="M161.5,282.5l-2.3,2.8v10.2h-4.4v-29.6h4.4v13.8l10.6-13.8h5.5L164.3,279l11.9,16.6h-5.5L161.5,282.5z"/>
		<path class="st0" d="M182.7,286.2v-20.3h4.4v19.8c0,5.6,3.9,6.2,6.3,6.2c2.4,0,6.3-0.6,6.3-6.2v-19.8h4.4v20.3
			c0,8.3-6.7,9.8-10.7,9.8C189.4,295.9,182.7,294.5,182.7,286.2z"/>
		<path class="st0" d="M229.5,295.5l-12.9-21l0.1,21h-4.4v-29.6h4l12.9,21l-0.1-21h4.4v29.6H229.5z"/>
		<path class="st0" d="M261.3,286.5c0,5.6-3.4,9.5-11.2,9.5c-3,0-6.7-0.6-8.7-1.7v-4.4c1.6,0.7,4.5,1.9,8.5,1.9c5.4,0,6.9-2.2,6.9-5
			c0-3.3-1.4-4.1-5.4-4.6c-7.2-0.9-10.1-2.8-10.1-8.2c0.1-4.4,2.5-8.6,10.6-8.6c3.8,0,6.5,0.6,8,1.4v4.3c-2.2-1.1-4.8-1.6-7.8-1.6
			c-4.6,0-6.2,1.9-6.2,4.4c0,3.1,1.8,3.8,5.8,4.2C257.8,279.1,261.3,280.5,261.3,286.5z"/>
		<path class="st0" d="M279.8,270v25.5h-4.4V270h-7.8v-4.1h19.7v4.1H279.8z"/>
		<path class="st0" d="M313.9,286.5c0,5.6-3.4,9.5-11.2,9.5c-3,0-6.7-0.6-8.7-1.7v-4.4c1.6,0.7,4.5,1.9,8.5,1.9c5.4,0,6.9-2.2,6.9-5
			c0-3.3-1.4-4.1-5.4-4.6c-7.2-0.9-10.1-2.8-10.1-8.2c0-4.3,2.4-8.6,10.5-8.6c3.8,0,6.5,0.6,8,1.4v4.3c-2.2-1.1-4.8-1.7-7.8-1.7
			c-4.6,0-6.2,1.9-6.2,4.4c0,3.1,1.8,3.8,5.8,4.2C310.3,279.1,313.9,280.5,313.9,286.5z"/>
		<path class="st0" d="M338.3,282.2H326v9.2h13.5v4.1h-18.1v-29.6h18.1v4.1H326v8.2h12.3V282.2z"/>
		<path class="st0" d="M364.6,295.5l-12.9-21l0.1,21h-4.3v-29.6h4l12.9,21l-0.1-21h4.4v29.6C368.6,295.5,364.6,295.5,364.6,295.5z"
			/>
		<path class="st0" d="M387.8,270v25.5h-4.4V270h-7.8v-4.1h19.7v4.1H387.8z"/>
		<path class="st0" d="M419.2,282.2H407v9.2h13.5v4.1h-18.1v-29.6h18.1v4.1H407v8.2h12.3V282.2z"/>
		<path class="st0" d="M432.8,295.5h-4.4v-29.6h9.7c7.7,0,10.2,3.4,10.2,8.8c0,3.8-1.2,6.6-4.8,7.9l6.2,12.9h-5.1l-5.5-12.1h-6.2
			V295.5z M432.8,279.4h5.8c4.1,0,4.6-2.3,4.6-4.7s-0.6-4.7-4.6-4.7h-5.8V279.4z"/>
	</g>
</g>
</svg>
