<?xml version="1.0" encoding="utf-8"?>
<!-- Generator: Adobe Illustrator 19.1.0, SVG Export Plug-In . SVG Version: 6.00 Build 0)  -->
<svg version="1.1" id="Layer_1" xmlns="http://www.w3.org/2000/svg" xmlns:xlink="http://www.w3.org/1999/xlink" x="0px" y="0px"
	 width="189.1px" height="70.5px" viewBox="-467.8 245.9 189.1 70.5" style="enable-background:new -467.8 245.9 189.1 70.5;"
	 xml:space="preserve">
<style type="text/css">
	.st0{fill:#0000FF;}
</style>
<g>
	<rect x="-393.4" y="253.4" class="st0" width="1.2" height="55.4"/>
	<g>
		<path class="st0" d="M-433.2,306.7l-7-4.1l-1.5,2.2l8.5,4.9l12.6-7.3l-1.7-2L-433.2,306.7z M-422.5,261.7l1.5-2.2l-12.2-7l-7,4.1
			v3.1l7-4.1L-422.5,261.7z M-418.2,261.2l-25.2,35.9v-38.6l-14.6,8.3v28.7l13.4,7.8l13.1-18.5l13.8,16.3l9.4-5.4v-28.9
			L-418.2,261.2z M-446.1,299.3l-9.2-5.3v-25.5l9.2-5.4V299.3z M-411.1,294l-6.1,3.6l-12.8-15.1l12.6-17.7l6.3,3.7V294z"/>
	</g>
	<g>
		<g>
			<g>
				<path class="st0" d="M-370.5,301h-1.2l-2.7-3.9l-1.4,1.4v2.4h-1v-7.5h1v3.9l3.7-3.9h1.4l-3.1,3.1L-370.5,301z"/>
				<path class="st0" d="M-369.1,295.7h0.8v3.1c0,0.5,0,0.9,0.2,1c0.2,0.3,0.5,0.5,1,0.5c0.9,0,1.4-0.7,1.4-1.5v-3.1h0.8v5.3h-0.8
					v-0.9c-0.3,0.5-0.9,0.9-1.7,0.9c-0.5,0-1-0.2-1.4-0.5c-0.3-0.3-0.5-0.7-0.5-1.9v-2.9H-369.1z"/>
				<path class="st0" d="M-361.6,301h-0.9v-7.6h0.9V301z"/>
				<path class="st0" d="M-360.3,295.7h1v-1.9l0.9-0.2v2h1.2v0.7h-1.2v3.2c0,0.2,0,0.3,0,0.5c0,0.2,0.2,0.2,0.5,0.2
					c0.2,0,0.5,0,0.7,0v0.7c-0.3,0-0.5,0.2-0.9,0.2c-0.5,0-0.9-0.2-1-0.5c0-0.2,0-0.3,0-0.5v-3.6h-1v-0.9H-360.3z"/>
				<path class="st0" d="M-355.7,295.7h0.9v3.1c0,0.5,0,0.9,0.2,1c0.2,0.3,0.5,0.5,1,0.5c0.9,0,1.4-0.7,1.4-1.5v-3.1h0.9v5.3h-0.9
					v-0.9c-0.3,0.5-0.9,0.9-1.7,0.9c-0.5,0-1-0.2-1.4-0.5c-0.3-0.3-0.5-0.7-0.5-1.9v-2.9H-355.7z"/>
				<path class="st0" d="M-346.3,296.4c-0.2,0-0.2,0-0.3,0c-1,0-1.5,0.9-1.5,1.7v2.7h-0.8v-5.3h0.8v1c0.2-0.7,0.9-1.2,1.5-1.2
					c0.2,0,0.2,0,0.3,0V296.4z"/>
				<path class="st0" d="M-342.1,296.4c-0.2,0-0.2,0-0.3,0c-1,0-1.5,0.9-1.5,1.7v2.7h-0.8v-5.3h0.8v1c0.2-0.7,0.9-1.2,1.5-1.2
					c0.2,0,0.2,0,0.3,0V296.4z"/>
				<path class="st0" d="M-336.5,301c-0.2,0-0.3,0-0.5,0c-0.7,0-0.9-0.3-0.9-0.7l0,0c-0.2,0.3-0.5,0.7-1.5,0.7c-1,0-1.9-0.5-1.9-1.5
					c0-0.3,0.2-0.7,0.3-1c0.3-0.3,1-0.5,1.7-0.7l0.9-0.2c0.3,0,0.5-0.2,0.5-0.3V297c0-0.5-0.2-0.9-1.2-0.9c-1,0-1.2,0.5-1.2,1.2
					l-0.9-0.2c0-1.2,1-1.7,2.2-1.7c1.2,0,2,0.3,2,1.7c0,0.2,0,2.7,0,2.7c0,0.3,0.2,0.5,0.5,0.5h0.2v0.5H-336.5z M-338,298.2
					c0,0-0.3,0-1.2,0.2c-0.7,0.2-1.2,0.3-1.2,0.9c0,0.7,0.5,0.8,1,0.8c0.7,0,1.4-0.3,1.4-1.2C-338,298.9-338,298.2-338,298.2z
					 M-339.2,293c0.7,0,1,0.5,1,1c0,0.7-0.5,1-1,1c-0.7,0-1-0.5-1-1C-340.2,293.5-339.7,293-339.2,293z M-339.2,294.5
					c0.2,0,0.5-0.2,0.5-0.5c0-0.2-0.2-0.5-0.5-0.5c-0.2,0-0.5,0.2-0.5,0.5C-339.5,294.3-339.4,294.5-339.2,294.5z"/>
				<path class="st0" d="M-335.1,298.2c0-1.7,1-2.7,2.4-2.7c1,0,1.5,0.5,1.7,0.9v-3.1h0.9v7.5h-0.9v-0.7c-0.2,0.3-0.7,0.9-1.7,0.9
					C-334.3,301-335.1,299.9-335.1,298.2z M-332.7,296.2c-0.9,0-1.5,0.7-1.5,2c0,1.2,0.5,2,1.5,2c0.9,0,1.7-0.7,1.7-2
					C-331,296.9-331.7,296.2-332.7,296.2z"/>
				<path class="st0" d="M-323.6,299.8c-0.2,0.3-0.9,1.2-2.4,1.2s-2.6-1-2.6-2.7c0-1.7,1-2.7,2.6-2.7s2.4,1.2,2.4,2.7v0.2h-3.9
					c0,0.9,0.5,1.7,1.7,1.7c0.9,0,1.4-0.5,1.5-0.8L-323.6,299.8z M-327.5,297.7h2.9c0-0.9-0.5-1.5-1.4-1.5
					C-326.8,296.2-327.3,296.9-327.5,297.7z"/>
				<path class="st0" d="M-322.5,295.7h1v-1.9l0.9-0.2v2h1.2v0.7h-1.2v3.2c0,0.2,0,0.3,0,0.5c0,0.2,0.2,0.2,0.5,0.2
					c0.2,0,0.5,0,0.7,0v0.7c-0.3,0-0.5,0.2-0.9,0.2c-0.5,0-0.8-0.2-1-0.5c0-0.2,0-0.3,0-0.5v-3.6h-1v-0.9H-322.5z"/>
			</g>
		</g>
		<g>
			<g>
				<path class="st0" d="M-370.8,268c0.3,0.5,0.7,1,0.7,1l0,0c0,0,0-0.7,0-1.5v-6h1.2v9.7h-1.2l-4.6-6.5c-0.3-0.3-0.7-1-0.7-1.2l0,0
					c0,0,0,0.7,0,1.2v6.5h-1.2v-9.7h1.2L-370.8,268z"/>
				<path class="st0" d="M-361.3,261.3c2.7,0,4.4,2,4.4,5.1c0,3.1-1.7,5.1-4.4,5.1c-2.7,0-4.4-2-4.4-5.1
					C-365.7,263.4-364,261.3-361.3,261.3z M-361.3,270.4c1.9,0,3.1-1.5,3.1-3.9c0-2.4-1.2-3.9-3.1-3.9c-1.9,0-3.1,1.5-3.1,3.9
					C-364.4,268.7-363.2,270.4-361.3,270.4z"/>
				<path class="st0" d="M-352.5,271.2h-1.2v-9.7h3.7c1,0,1.5,0.2,2,0.3c1,0.3,1.5,1.4,1.5,2.6c0,1.5-1,2.5-2.5,2.7l2.7,4.2h-1.5
					l-2.7-4.2h-2C-352.5,267.1-352.5,271.2-352.5,271.2z M-350.2,265.9c0.9,0,1.4-0.2,1.7-0.2c0.5-0.3,0.9-0.7,0.9-1.4
					s-0.3-1.2-0.9-1.4c-0.3-0.2-0.7-0.2-1.7-0.2h-2.2v3.4h2.2V265.9z"/>
				<path class="st0" d="M-337.8,263.7c-0.7-0.9-1.5-1.4-2.5-1.4c-1.2,0-2,0.5-2,1.5c0,0.9,0.5,1.2,1.7,1.5l1.4,0.3
					c1.5,0.3,2.9,1,2.9,2.7c0,1.9-1.5,2.9-3.7,2.9c-1.9,0-3.2-0.9-3.9-2l1-0.7c0.5,0.9,1.5,1.5,2.9,1.5c1.4,0,2.4-0.5,2.4-1.7
					c0-1-0.7-1.4-2-1.7l-1.2-0.3c-1.4-0.3-2.7-0.9-2.7-2.6c0-1.7,1.5-2.7,3.4-2.7c1.9,0,2.9,0.9,3.6,1.7L-337.8,263.7z"/>
				<path class="st0" d="M-325.8,271.2h-1.5l-3.4-4.9l-1.9,1.9v3.1h-1.2v-9.7h1.2v5.1l4.9-5.1h1.7l-3.9,3.9L-325.8,271.2z"/>
				<path class="st0" d="M-368.6,285.8h-1.5l-3.4-4.9l-1.9,1.9v3.1h-1.2v-9.7h1.2v5.1l4.9-5.1h1.7l-3.9,3.9L-368.6,285.8z"/>
				<path class="st0" d="M-366.2,284.5c-0.3-0.7-0.5-1.2-0.5-2.7V276h1.2v5.8c0,0.9,0,1.5,0.3,2.2c0.3,0.7,1.2,1,2,1
					c1,0,1.7-0.3,2-1c0.3-0.5,0.3-1.4,0.3-2.2V276h1.2v5.8c0,1.5-0.2,2-0.5,2.7c-0.7,1-1.7,1.5-3.2,1.5
					C-364.5,286-365.6,285.5-366.2,284.5z"/>
				<path class="st0" d="M-349.6,285.8h-6.1v-9.7h1.4v8.7h4.8V285.8z"/>
				<path class="st0" d="M-349.4,276.1h7.3v1.2h-3.1v8.7h-1.2v-8.7h-3.1C-349.4,277.3-349.4,276.1-349.4,276.1z"/>
				<path class="st0" d="M-339.4,284.5c-0.3-0.7-0.5-1.2-0.5-2.7V276h1.2v5.8c0,0.9,0,1.5,0.3,2.2s1.2,1,2,1c1,0,1.7-0.3,2-1
					c0.3-0.5,0.3-1.4,0.3-2.2V276h1.2v5.8c0,1.5-0.2,2-0.5,2.7c-0.7,1-1.7,1.5-3.2,1.5C-337.7,286-338.7,285.5-339.4,284.5z"/>
				<path class="st0" d="M-327.6,285.8h-1.2v-9.7h3.7c1,0,1.5,0.2,2,0.3c1,0.3,1.5,1.4,1.5,2.5c0,1.5-1,2.5-2.5,2.7l2.7,4.2h-1.5
					l-2.7-4.2h-2V285.8z M-325.4,280.6c0.8,0,1.4-0.2,1.7-0.2c0.5-0.3,0.9-0.7,0.9-1.4s-0.3-1.2-0.9-1.4c-0.3-0.2-0.7-0.2-1.7-0.2
					h-2.2v3.4h2.2V280.6z"/>
				<path class="st0" d="M-318.6,285.8v-9.7h6.5v1.2h-5.1v3.1h4.8v1h-4.8v4.4H-318.6z"/>
				<path class="st0" d="M-305.5,276c2.7,0,4.4,2,4.4,5.1c0,2.9-1.7,5.1-4.4,5.1s-4.4-2-4.4-5.1S-308.3,276-305.5,276z
					 M-305.5,284.8c1.9,0,3.1-1.5,3.1-3.9s-1.2-3.9-3.1-3.9s-3.1,1.5-3.1,3.9S-307.4,284.8-305.5,284.8z"/>
				<path class="st0" d="M-292.1,282.6c0.3,0.5,0.7,1,0.7,1.2l0,0c0,0,0-0.7,0-1.5v-6.1h1.2v9.7h-1.2l-4.6-6.6
					c-0.3-0.3-0.7-1-0.7-1.2l0,0c0,0,0,0.7,0,1.2v6.5h-1.2V276h1.2L-292.1,282.6z"/>
				<path class="st0" d="M-286.5,285.8v-9.7h2.4c1.5,0,2.5,0,3.6,0.7c1,0.9,1.9,2.2,1.9,4.1c0,1.7-0.5,3.1-1.4,3.9c-1,1-2,1-3.9,1
					H-286.5z M-285.1,284.6h1.4c1.2,0,2,0,2.7-0.7c0.7-0.5,1.2-1.7,1.2-3.1c0-1.2-0.5-2.5-1.2-3.1c-0.7-0.5-1.4-0.7-2.9-0.7h-1.2
					C-285.1,277.2-285.1,284.6-285.1,284.6z"/>
			</g>
		</g>
	</g>
</g>
</svg>
