<?xml version="1.0" encoding="utf-8"?>
<!-- Generator: Adobe Illustrator 19.1.0, SVG Export Plug-In . SVG Version: 6.00 Build 0)  -->
<svg version="1.1" id="Layer_1" xmlns="http://www.w3.org/2000/svg" xmlns:xlink="http://www.w3.org/1999/xlink" x="0px" y="0px"
	 width="105.5px" height="33.7px" viewBox="0 0 105.5 33.7" style="enable-background:new 0 0 105.5 33.7;" xml:space="preserve">
<style type="text/css">
	.st0{fill:#0000FF;}
</style>
<rect x="38" y="0.5" class="st0" width="0.7" height="32.6"/>
<g>
	<path class="st0" d="M14.6,31.9l-4.1-2.4l-0.9,1.3l5,2.9l7.4-4.3l-1-1.2L14.6,31.9z M20.9,5.4l0.9-1.3L14.6,0l-4.1,2.4v1.8l4.1-2.4
		L20.9,5.4z M23.4,5.1L8.6,26.2l0-22.7L0,8.4v16.9l7.9,4.6l7.7-10.9l8.1,9.6l5.5-3.2V8.4L23.4,5.1z M7,27.5l-5.4-3.1v-15L7,6.2V27.5
		z M27.6,24.4L24,26.5l-7.5-8.9l7.4-10.4l3.7,2.2V24.4z"/>
</g>
<g>
	<g>
		<g>
			<path class="st0" d="M51.5,28.5h-0.7l-1.6-2.3L48.4,27v1.4h-0.6V24h0.6v2.3l2.2-2.3h0.8l-1.8,1.8L51.5,28.5z"/>
			<path class="st0" d="M52.3,25.4h0.5v1.8c0,0.3,0,0.5,0.1,0.6c0.1,0.2,0.3,0.3,0.6,0.3c0.5,0,0.8-0.4,0.8-0.9v-1.8h0.5v3.1h-0.5
				V28c-0.2,0.3-0.5,0.5-1,0.5c-0.3,0-0.6-0.1-0.8-0.3c-0.2-0.2-0.3-0.4-0.3-1.1V25.4z"/>
			<path class="st0" d="M56.7,28.5h-0.5V24h0.5V28.5z"/>
			<path class="st0" d="M57.5,25.4h0.6v-1.1l0.5-0.1v1.2h0.7v0.4h-0.7v1.9c0,0.1,0,0.2,0,0.3c0,0.1,0.1,0.1,0.3,0.1
				c0.1,0,0.3,0,0.4,0v0.4c-0.2,0-0.3,0.1-0.5,0.1c-0.3,0-0.5-0.1-0.6-0.3c0-0.1,0-0.2,0-0.3v-2.1h-0.6V25.4z"/>
			<path class="st0" d="M60.2,25.4h0.5v1.8c0,0.3,0,0.5,0.1,0.6c0.1,0.2,0.3,0.3,0.6,0.3c0.5,0,0.8-0.4,0.8-0.9v-1.8h0.5v3.1h-0.5
				V28c-0.2,0.3-0.5,0.5-1,0.5c-0.3,0-0.6-0.1-0.8-0.3c-0.2-0.2-0.3-0.4-0.3-1.1V25.4z"/>
			<path class="st0" d="M65.7,25.8c-0.1,0-0.1,0-0.2,0c-0.6,0-0.9,0.5-0.9,1v1.6h-0.5v-3.1h0.5v0.6c0.1-0.4,0.5-0.7,0.9-0.7
				c0.1,0,0.1,0,0.2,0V25.8z"/>
			<path class="st0" d="M68.2,25.8c-0.1,0-0.1,0-0.2,0c-0.6,0-0.9,0.5-0.9,1v1.6h-0.5v-3.1h0.5v0.6c0.1-0.4,0.5-0.7,0.9-0.7
				c0.1,0,0.1,0,0.2,0V25.8z"/>
			<path class="st0" d="M71.5,28.5c-0.1,0-0.2,0-0.3,0c-0.4,0-0.5-0.2-0.5-0.4h0c-0.1,0.2-0.3,0.4-0.9,0.4c-0.6,0-1.1-0.3-1.1-0.9
				c0-0.2,0.1-0.4,0.2-0.6c0.2-0.2,0.6-0.3,1-0.4l0.5-0.1c0.2,0,0.3-0.1,0.3-0.2v-0.1c0-0.3-0.1-0.5-0.7-0.5c-0.6,0-0.7,0.3-0.7,0.7
				l-0.5-0.1c0-0.7,0.6-1,1.3-1c0.7,0,1.2,0.2,1.2,1c0,0.1,0,1.6,0,1.6c0,0.2,0.1,0.3,0.3,0.3h0.1V28.5z M70.6,26.9
				c0,0-0.2,0-0.7,0.1c-0.4,0.1-0.7,0.2-0.7,0.5c0,0.4,0.3,0.5,0.6,0.5c0.4,0,0.8-0.2,0.8-0.7V26.9z M69.9,23.8
				c0.4,0,0.6,0.3,0.6,0.6c0,0.4-0.3,0.6-0.6,0.6c-0.4,0-0.6-0.3-0.6-0.6C69.3,24.1,69.6,23.8,69.9,23.8z M69.9,24.7
				c0.1,0,0.3-0.1,0.3-0.3c0-0.1-0.1-0.3-0.3-0.3c-0.1,0-0.3,0.1-0.3,0.3C69.7,24.6,69.8,24.7,69.9,24.7z"/>
			<path class="st0" d="M72.3,26.9c0-1,0.6-1.6,1.4-1.6c0.6,0,0.9,0.3,1,0.5V24h0.5v4.4h-0.5V28c-0.1,0.2-0.4,0.5-1,0.5
				C72.8,28.5,72.3,27.9,72.3,26.9z M73.7,25.7c-0.5,0-0.9,0.4-0.9,1.2c0,0.7,0.3,1.2,0.9,1.2c0.5,0,1-0.4,1-1.2
				C74.7,26.1,74.3,25.7,73.7,25.7z"/>
			<path class="st0" d="M79.1,27.8c-0.1,0.2-0.5,0.7-1.4,0.7c-0.9,0-1.5-0.6-1.5-1.6c0-1,0.6-1.6,1.5-1.6c0.9,0,1.4,0.7,1.4,1.6V27
				h-2.3c0,0.5,0.3,1,1,1c0.5,0,0.8-0.3,0.9-0.5L79.1,27.8z M76.8,26.6h1.7c0-0.5-0.3-0.9-0.8-0.9C77.2,25.7,76.9,26.1,76.8,26.6z"
				/>
			<path class="st0" d="M79.7,25.4h0.6v-1.1l0.5-0.1v1.2h0.7v0.4h-0.7v1.9c0,0.1,0,0.2,0,0.3c0,0.1,0.1,0.1,0.3,0.1
				c0.1,0,0.3,0,0.4,0v0.4c-0.2,0-0.3,0.1-0.5,0.1c-0.3,0-0.5-0.1-0.6-0.3c0-0.1,0-0.2,0-0.3v-2.1h-0.6V25.4z"/>
		</g>
	</g>
	<g>
		<g>
			<path class="st0" d="M51.3,9.1c0.2,0.3,0.4,0.6,0.4,0.6h0c0,0,0-0.4,0-0.9V5.3h0.7V11h-0.7L49,7.2c-0.2-0.2-0.4-0.6-0.4-0.7h0
				c0,0,0,0.4,0,0.7V11h-0.7V5.3h0.7L51.3,9.1z"/>
			<path class="st0" d="M56.9,5.2c1.6,0,2.6,1.2,2.6,3s-1,3-2.6,3c-1.6,0-2.6-1.2-2.6-3S55.3,5.2,56.9,5.2z M56.9,10.5
				c1.1,0,1.8-0.9,1.8-2.3c0-1.4-0.7-2.3-1.8-2.3c-1.1,0-1.8,0.9-1.8,2.3C55.1,9.5,55.8,10.5,56.9,10.5z"/>
			<path class="st0" d="M62.1,11h-0.7V5.3h2.2c0.6,0,0.9,0.1,1.2,0.2c0.6,0.2,0.9,0.8,0.9,1.5c0,0.9-0.6,1.5-1.5,1.6l1.6,2.5h-0.9
				l-1.6-2.5h-1.2V11z M63.4,7.9c0.5,0,0.8-0.1,1-0.1c0.3-0.2,0.5-0.4,0.5-0.8c0-0.4-0.2-0.7-0.5-0.8c-0.2-0.1-0.4-0.1-1-0.1h-1.3v2
				H63.4z"/>
			<path class="st0" d="M70.7,6.6c-0.4-0.5-0.9-0.8-1.5-0.8c-0.7,0-1.2,0.3-1.2,0.9c0,0.5,0.3,0.7,1,0.9l0.8,0.2
				c0.9,0.2,1.7,0.6,1.7,1.6c0,1.1-0.9,1.7-2.2,1.7c-1.1,0-1.9-0.5-2.3-1.2l0.6-0.4c0.3,0.5,0.9,0.9,1.7,0.9c0.8,0,1.4-0.3,1.4-1
				c0-0.6-0.4-0.8-1.2-1l-0.7-0.2c-0.8-0.2-1.6-0.5-1.6-1.5c0-1,0.9-1.6,2-1.6c1.1,0,1.7,0.5,2.1,1L70.7,6.6z"/>
			<path class="st0" d="M77.8,11h-0.9l-2-2.9l-1.1,1.1V11h-0.7V5.3h0.7v3l2.9-3h1l-2.3,2.3L77.8,11z"/>
			<path class="st0" d="M52.6,19.6h-0.9l-2-2.9l-1.1,1.1v1.8h-0.7v-5.7h0.7v3l2.9-3h1l-2.3,2.3L52.6,19.6z"/>
			<path class="st0" d="M54,18.8c-0.2-0.4-0.3-0.7-0.3-1.6v-3.4h0.7v3.4c0,0.5,0,0.9,0.2,1.3c0.2,0.4,0.7,0.6,1.2,0.6
				c0.6,0,1-0.2,1.2-0.6c0.2-0.3,0.2-0.8,0.2-1.3v-3.4h0.7v3.4c0,0.9-0.1,1.2-0.3,1.6c-0.4,0.6-1,0.9-1.9,0.9
				C55,19.7,54.4,19.4,54,18.8z"/>
			<path class="st0" d="M63.8,19.6h-3.6v-5.7h0.8v5.1h2.8V19.6z"/>
			<path class="st0" d="M63.9,13.9h4.3v0.7h-1.8v5.1h-0.7v-5.1h-1.8V13.9z"/>
			<path class="st0" d="M69.8,18.8c-0.2-0.4-0.3-0.7-0.3-1.6v-3.4h0.7v3.4c0,0.5,0,0.9,0.2,1.3c0.2,0.4,0.7,0.6,1.2,0.6
				c0.6,0,1-0.2,1.2-0.6c0.2-0.3,0.2-0.8,0.2-1.3v-3.4h0.7v3.4c0,0.9-0.1,1.2-0.3,1.6c-0.4,0.6-1,0.9-1.9,0.9
				C70.8,19.7,70.2,19.4,69.8,18.8z"/>
			<path class="st0" d="M76.7,19.6H76v-5.7h2.2c0.6,0,0.9,0.1,1.2,0.2c0.6,0.2,0.9,0.8,0.9,1.5c0,0.9-0.6,1.5-1.5,1.6l1.6,2.5h-0.9
				l-1.6-2.5h-1.2V19.6z M78,16.5c0.5,0,0.8-0.1,1-0.1c0.3-0.2,0.5-0.4,0.5-0.8c0-0.4-0.2-0.7-0.5-0.8c-0.2-0.1-0.4-0.1-1-0.1h-1.3
				v2H78z"/>
			<path class="st0" d="M82,19.6v-5.7h3.8v0.7h-3v1.8h2.8V17h-2.8v2.6H82z"/>
			<path class="st0" d="M89.7,13.8c1.6,0,2.6,1.2,2.6,3c0,1.7-1,3-2.6,3c-1.6,0-2.6-1.2-2.6-3C87.1,15,88.1,13.8,89.7,13.8z
				 M89.7,19c1.1,0,1.8-0.9,1.8-2.3c0-1.4-0.7-2.3-1.8-2.3c-1.1,0-1.8,0.9-1.8,2.3C87.9,18.1,88.6,19,89.7,19z"/>
			<path class="st0" d="M97.6,17.7c0.2,0.3,0.4,0.6,0.4,0.7h0c0,0,0-0.4,0-0.9v-3.6h0.7v5.7h-0.7l-2.7-3.9c-0.2-0.2-0.4-0.6-0.4-0.7
				h0c0,0,0,0.4,0,0.7v3.8h-0.7v-5.7h0.7L97.6,17.7z"/>
			<path class="st0" d="M100.9,19.6v-5.7h1.4c0.9,0,1.5,0,2.1,0.4c0.6,0.5,1.1,1.3,1.1,2.4c0,1-0.3,1.8-0.8,2.3
				c-0.6,0.6-1.2,0.6-2.3,0.6H100.9z M101.7,18.9h0.8c0.7,0,1.2,0,1.6-0.4c0.4-0.3,0.7-1,0.7-1.8c0-0.7-0.3-1.5-0.7-1.8
				c-0.4-0.3-0.8-0.4-1.7-0.4h-0.7V18.9z"/>
		</g>
	</g>
</g>
</svg>
