<?xml version="1.0" encoding="utf-8"?>
<!-- Generator: Adobe Illustrator 19.1.0, SVG Export Plug-In . SVG Version: 6.00 Build 0)  -->
<svg version="1.1" id="Layer_1" xmlns="http://www.w3.org/2000/svg" xmlns:xlink="http://www.w3.org/1999/xlink" x="0px" y="0px"
	 width="24.8px" height="23.1px" viewBox="0 0 24.8 23.1" style="enable-background:new 0 0 24.8 23.1;" xml:space="preserve">
<style type="text/css">
	.st0{fill:#0000FF;}
</style>
<g>
	<path class="st0" d="M24.8,23.1H0V11.6h4.7l2.9-6.1l2.8,6.1h4.8V9.6H9.6l4.9-3.6h-3.1l3.7-3.6h-1.9L16.3,0l3.1,2.5h-1.9l3.7,3.6
		h-3.1L23,9.6h-5.6v1.9h7.4V23.1z M13,18.1L7.6,6L1.9,18.1h3.6v-3.5c0-0.5,0.2-1,0.5-1.4c0.4-0.6,0.9-0.8,1.6-0.8
		c0.7,0,1.2,0.3,1.6,0.8c0.3,0.4,0.4,0.9,0.4,1.4v3.5H13z"/>
</g>
</svg>
