<?xml version="1.0" encoding="utf-8"?>
<!-- Generator: Adobe Illustrator 19.1.0, SVG Export Plug-In . SVG Version: 6.00 Build 0)  -->
<svg version="1.1" id="Layer_1" xmlns="http://www.w3.org/2000/svg" xmlns:xlink="http://www.w3.org/1999/xlink" x="0px" y="0px"
	 width="24.8px" height="20.2px" viewBox="0 0 24.8 20.2" style="enable-background:new 0 0 24.8 20.2;" xml:space="preserve">
<style type="text/css">
	.st0{fill:#0000FF;}
</style>
<g>
	<path class="st0" d="M24.8,20.2H0V8.7c0.8,0,1.4-0.2,1.8-0.6c0.2-0.2,0.5-0.5,0.8-1c0.2-0.4,0.5-0.5,0.7-0.5s0.6,0.1,1,0.2
		s0.9,0.2,1.3,0.2c0.5,0,1.2-0.6,2.1-1.8C8.6,4,9.4,2.9,10.1,1.8C11,0.6,11.7,0,12.2,0c0.2,0,0.5,0.1,0.9,0.4c0.4,0.3,0.7,0.4,1,0.4
		c0.3,0,0.8,0,1.5-0.1c0.7-0.1,1.1-0.2,1.2-0.2c0.6,0,1.4,0.7,2.5,2.1c1,1.3,2,2.6,2.9,3.9c1.1,1.4,2,2.1,2.5,2.1V20.2z M5.7,7.2
		C5.2,7.2,4.8,7.1,4.4,7C4,6.8,3.6,6.8,3.3,6.8c0,0.4,0.2,0.6,0.6,0.7C4.3,7.5,4.9,7.4,5.7,7.2z M21.3,5.6c-0.3-0.4-0.9-1.2-1.7-2.2
		c-0.6-0.9-1.3-1.6-2-2.2c0,0.1,0,0.2-0.1,0.3c-0.2,0.2-0.5,0.4-0.9,0.4c-0.1,0-0.2,0-0.4,0c-0.2,0-0.5,0-0.9-0.1
		c-0.3-0.1-0.6-0.1-0.9-0.1c-0.3,0-0.6,0-1,0.1s-0.7,0.1-0.9,0.1c-0.2,0-0.3,0-0.5,0c-0.4-0.1-0.5-0.3-0.5-0.7
		c0-0.2,0.1-0.5,0.2-0.7c-0.2,0.1-0.3,0.3-0.5,0.5C10.8,1.4,10.3,2,9.8,2.7C9.3,3.5,8.5,4.6,7.5,6C8.4,5,9.2,4.6,9.9,4.6
		c0.5,0,0.8,0.3,1.1,0.7c0.2,0.5,0.3,0.9,0.5,1.4c0.2,0.5,0.4,0.7,0.7,0.7c0.5,0,0.8-0.2,0.9-0.7c0.1-0.5,0.2-1,0.3-1.4
		c0.2-0.5,0.8-0.8,1.6-0.8c0.3,0,0.8,0.2,1.5,0.6c0.7,0.4,1.2,0.6,1.4,0.6c0.2,0,0.3-0.1,0.3-0.3c0-0.1,0-0.3-0.1-0.6
		C18.1,4.6,18,4.4,18,4.3c0-0.3,0.1-0.4,0.4-0.4c0.3,0,0.7,0.5,1.2,1.4c0.5,0.9,1,1.4,1.3,1.4c0.3,0,0.4-0.2,0.4-0.5
		C21.4,5.9,21.4,5.8,21.3,5.6z M15.4,0.9c-0.7,0.1-1.3,0.1-1.7,0c-0.2-0.1-0.4-0.2-0.7-0.4c-0.3-0.2-0.4-0.3-0.5-0.3
		c-0.3,0-0.4,0.1-0.4,0.4c0,0.2,0.1,0.4,0.3,0.6c0.1,0.1,0.4,0.2,0.8,0.2C13.7,1.4,14.4,1.3,15.4,0.9z"/>
</g>
</svg>
