<?xml version="1.0" encoding="utf-8"?>
<!-- Generator: Adobe Illustrator 19.1.0, SVG Export Plug-In . SVG Version: 6.00 Build 0)  -->
<svg version="1.1" id="Layer_1" xmlns="http://www.w3.org/2000/svg" xmlns:xlink="http://www.w3.org/1999/xlink" x="0px" y="0px"
	 width="21.6px" height="25.8px" viewBox="0 0 21.6 25.8" style="enable-background:new 0 0 21.6 25.8;" xml:space="preserve">
<style type="text/css">
	.st0{fill:#0000FF;}
</style>
<g>
	<path class="st0" d="M21.6,15.8c0,1.1-0.7,2-2,2.8c-1.1,0.6-2.3,1-3.5,1c-0.9,0-1.8-0.2-2.5-0.5c-0.9-0.4-1.4-1.1-1.4-1.9
		c0-1,0.7-1.9,2.1-2.5c1.1-0.5,2.3-0.8,3.4-0.8c0.8,0,1.6,0.1,2.2,0.4V6.1L9.2,10.9V22c0,1.1-0.6,2-1.9,2.8c-1.1,0.7-2.3,1-3.4,1
		c-0.9,0-1.8-0.2-2.5-0.5c-0.9-0.4-1.4-1-1.4-1.9c0-1,0.7-1.9,2.1-2.5c1.1-0.5,2.3-0.8,3.4-0.8c0.8,0,1.5,0.1,2.1,0.4V6.1l14-6.1
		V15.8z"/>
</g>
</svg>
