<svg id="Layer_1" xmlns="http://www.w3.org/2000/svg" viewBox="-464 268.2 29.4 25.8">
  <style>
    .st0{fill:#0000FF;} .st1{fill:none;}
  </style>
  <path class="st0" d="M-448.6 274.4v14.4c-.6-.3-1.3-.4-2.1-.4-1.1 0-2.3.3-3.4.8-1.4.6-2.1 1.5-2.1 2.5 0 .9.5 1.5 1.4 1.9.7.3 1.6.5 2.5.5 1.1 0 2.3-.3 3.4-1 1.3-.8 1.9-1.7 1.9-2.8v-11.1l10.7-4.8v8.2c-.6-.3-1.4-.4-2.2-.4-1.1 0-2.3.3-3.4.8-1.4.6-2.1 1.5-2.1 2.5 0 .8.5 1.5 1.4 1.9.7.3 1.6.5 2.5.5 1.2 0 2.4-.4 3.5-1 1.3-.8 2-1.7 2-2.8v-15.8l-14 6.1zM-452.7 275.2v-2l-4.9 4.8v-9.8h-1.5v9.8l-4.9-4.8v2l5.7 5.8z"/>
  <path class="st0" d="M-453.4 281h-1.5v1h-6.8v-1h-1.5v2.6h9.8z"/>
</svg>
